<svg id="Layer_1" data-name="Layer 1" xmlns="http://www.w3.org/2000/svg" viewBox="0 0 5660.55 1000"><title>everydays_black</title><path d="M603.55,146.45L750,0H250V500L426.74,323.26l-0.27-.33A249.22,249.22,0,0,1,500,500c0,138.07-111.93,250-250,250v250c276.1,0.1,500-223.64,500.11-499.73A499.92,499.92,0,0,0,603.55,146.45Z"/><path d="M125,375A125,125,0,0,1,246.77,250q-11.29.14-22.33,1.25-9.45,1-18.69,2.61-3.08.55-6.13,1.17C91.8,277.14,9.26,368.61.73,480.76Q0,490.29,0,500q0,3.24.08,6.46c0,0.66.05,1.32,0.08,2,0,1.48.09,3,.17,4.44,0,0.78.1,1.54,0.15,2.32,0.08,1.35.16,2.71,0.26,4.06,0.06,0.78.14,1.56,0.21,2.35,0.11,1.33.22,2.67,0.36,4,0.07,0.7.16,1.38,0.24,2.08,0.15,1.41.3,2.81,0.48,4.21,0.08,0.65.18,1.3,0.27,1.94,0.19,1.43.38,2.87,0.6,4.3,0.09,0.62.21,1.23,0.31,1.85,0.23,1.45.46,2.9,0.72,4.34,0.1,0.55.21,1.09,0.31,1.63,0.28,1.51.56,3,.87,4.51,0.1,0.49.22,1,.32,1.47,0.33,1.54.65,3.08,1,4.62l0.33,1.36c0.37,1.56.74,3.12,1.14,4.67,0.11,0.41.23,0.82,0.33,1.23,0.42,1.59.84,3.17,1.29,4.74,0.1,0.35.21,0.69,0.31,1,0.47,1.63,1,3.26,1.45,4.87,0.1,0.32.21,0.63,0.31,1,0.52,1.64,1,3.28,1.6,4.9l0.27,0.78q0.86,2.52,1.77,5l0.26,0.67c0.63,1.69,1.26,3.38,1.93,5l0.21,0.51q1,2.58,2.11,5.14l0.17,0.4q1.11,2.61,2.28,5.19l0.12,0.25q1.2,2.64,2.46,5.26l0.11,0.23q1.27,2.62,2.6,5.21l0.06,0.11q1.36,2.64,2.78,5.25v0.06a250.9,250.9,0,0,0,43.19,57.61h0l-0.27-.33L250,500A125,125,0,0,1,125,375Z"/><path d="M250,500V750A125,125,0,0,0,250,500Z"/><path d="M838.54,500c0-150,113.56-258.54,254.48-258.54s266.65,86.18,247.39,281.86H889.24C899.38,640.93,989.61,708.86,1093,708.86c65.9,0,143-26.36,180.47-76l35.5,28.35c-48.67,63.88-135.86,96.32-216,96.32C952.1,757.52,838.54,659.18,838.54,500Zm457.26-20.27c-1-123.69-82.12-192.64-202.78-192.64-103.42,0-192.64,70-203.79,192.64H1295.8Z"/><path d="M1410.36,249.57h54.75l182.5,443.06,182.5-443.06h54.75L1675,750.43h-54.75Z"/><path d="M1938.58,500c0-150,113.56-258.54,254.48-258.54s266.65,86.18,247.39,281.86H1989.27c10.14,117.61,100.37,185.54,203.79,185.54,65.9,0,143-26.36,180.47-76L2409,661.21c-48.67,63.88-135.86,96.32-216,96.32C2052.13,757.52,1938.58,659.18,1938.58,500Zm457.26-20.27c-1-123.69-82.12-192.64-202.78-192.64-103.41,0-192.64,70-203.79,192.64h406.57Z"/><path d="M2615.83,249.57l2,89.22c31.43-67.93,102.4-94.29,166.28-94.29,37.51-1,74,9.13,107.47,29.4l-22.3,40.56c-26.36-16.22-55.76-23.32-85.17-23.32-93.28,1-165.26,76-165.26,167.29v292h-49.68V249.57h46.66Z"/><path d="M3425.9,249.57L3120.72,959.29H3068l92.26-215L2959.51,249.57h53.74l116.6,296,58.8,145,57.79-146,125.72-295h53.74v0Z"/><path d="M4002.78,40.71V750.43h-48.67V639.91c-41.57,76-123.69,118.63-208.86,118.63-139.92,0-250.43-92.26-250.43-258.54,0-165.26,111.53-258.54,251.44-258.54,86.18,0,167.29,36.5,207.85,117.61V40.71h48.67ZM3543.49,500c0,138.91,92.26,209.88,204.81,209.88,117.61,0,204.81-86.18,204.81-210.89s-89.22-209.87-204.81-209.87C3635.75,289.11,3543.49,359.07,3543.49,500Z"/><path d="M4627.3,249.57V750.43h-49.68V644c-48.62,78-123.69,114.54-204.81,114.54-139.92,0-254.48-105.45-254.48-258.54s114.57-256.51,254.48-256.51c81.11,0,163.24,37.51,204.81,115.58V249.57h49.68ZM4168,500c0,125.72,91.25,209.88,204.81,209.88,278.82,0,278.82-418.73,0-418.73C4259.26,291.14,4168,374.28,4168,500Z"/><path d="M5168.68,249.57L4863.5,959.29h-52.72L4903,744.35,4702.3,249.57H4756l116.6,296,58.8,145,57.79-146,125.72-295h53.74Z"/><path d="M5608.7,340.82c-50.69-44.61-100.37-52.72-156.14-52.72-78.07-1-153.1,28.39-151.07,92.26,2,66.92,89.22,80.1,152.08,91.25,89.22,15.21,211.9,30.41,206.83,147-3,110.51-117.61,139.92-205.82,139.92s-175.4-33.46-219-100.37l36.5-32.45c41.57,59.82,116.6,85.17,183.51,85.17,60.83,0,153.1-16.22,156.14-95.3,2-72-81.11-86.18-163.24-99.36-97.33-16.22-193.65-34.47-194.67-134.84-1-98.35,97.34-140.93,198.72-139.92,73,0,136.88,20.28,186.55,66.92Z"/></svg>