<?xml version="1.0" encoding="utf-8"?>
<!-- Generator: Adobe Illustrator 23.0.1, SVG Export Plug-In . SVG Version: 6.00 Build 0)  -->
<svg version="1.1" id="Layer_1" xmlns="http://www.w3.org/2000/svg" xmlns:xlink="http://www.w3.org/1999/xlink" x="0px" y="0px"
	 viewBox="0 0 750.1 1000" style="enable-background:new 0 0 750.1 1000;" xml:space="preserve">
<style type="text/css">
	.st0{fill:#FFFFFF;}
</style>
<title>everydays_title</title>
<path class="st0" d="M603.5,146.4L750,0H250v500l176.7-176.7l-0.3-0.3c47.1,46.9,73.6,110.6,73.5,177.1c0,138.1-111.9,250-250,250
	v250c276.1,0.1,500-223.6,500.1-499.7C750.2,367.5,697.4,240.3,603.5,146.4z"/>
<path class="st0" d="M125,375c0-67.8,54-123.2,121.8-125c-7.5,0.1-15,0.5-22.3,1.3c-6.3,0.7-12.5,1.5-18.7,2.6
	c-2.1,0.4-4.1,0.8-6.1,1.2C91.8,277.1,9.3,368.6,0.7,480.8C0.2,487.1,0,493.5,0,500c0,2.2,0,4.3,0.1,6.5c0,0.7,0.1,1.3,0.1,2
	c0,1.5,0.1,3,0.2,4.4c0,0.8,0.1,1.5,0.1,2.3c0.1,1.3,0.2,2.7,0.3,4.1c0.1,0.8,0.1,1.6,0.2,2.3c0.1,1.3,0.2,2.7,0.4,4
	c0.1,0.7,0.2,1.4,0.2,2.1c0.1,1.4,0.3,2.8,0.5,4.2c0.1,0.7,0.2,1.3,0.3,1.9c0.2,1.4,0.4,2.9,0.6,4.3c0.1,0.6,0.2,1.2,0.3,1.8
	c0.2,1.5,0.5,2.9,0.7,4.3c0.1,0.5,0.2,1.1,0.3,1.6c0.3,1.5,0.6,3,0.9,4.5c0.1,0.5,0.2,1,0.3,1.5c0.3,1.5,0.7,3.1,1,4.6
	c0.1,0.5,0.2,0.9,0.3,1.4c0.4,1.6,0.7,3.1,1.1,4.7c0.1,0.4,0.2,0.8,0.3,1.2c0.4,1.6,0.8,3.2,1.3,4.7c0.1,0.3,0.2,0.7,0.3,1
	c0.5,1.6,1,3.3,1.5,4.9c0.1,0.3,0.2,0.6,0.3,1c0.5,1.6,1,3.3,1.6,4.9l0.3,0.8c0.6,1.7,1.2,3.3,1.8,5l0.3,0.7c0.6,1.7,1.3,3.4,1.9,5
	l0.2,0.5c0.7,1.7,1.4,3.4,2.1,5.1l0.2,0.4c0.7,1.7,1.5,3.5,2.3,5.2l0.1,0.3c0.8,1.8,1.6,3.5,2.5,5.3l0.1,0.2
	c0.8,1.7,1.7,3.5,2.6,5.2l0.1,0.1c0.9,1.8,1.8,3.5,2.8,5.3v0.1c11.6,21.2,26.1,40.6,43.2,57.6l0,0l-0.3-0.3L250,500
	C181,500,125,444,125,375z"/>
<path class="st0" d="M250,500v250c69,0,125-56,125-125S319,500,250,500z"/>
</svg>
