<?xml version="1.0" encoding="utf-8"?>
<!-- Generator: Adobe Illustrator 23.0.1, SVG Export Plug-In . SVG Version: 6.00 Build 0)  -->
<svg version="1.1"
	 id="svg2" xmlns:cc="http://creativecommons.org/ns#" xmlns:dc="http://purl.org/dc/elements/1.1/" xmlns:rdf="http://www.w3.org/1999/02/22-rdf-syntax-ns#" xmlns:svg="http://www.w3.org/2000/svg"
	 xmlns="http://www.w3.org/2000/svg" xmlns:xlink="http://www.w3.org/1999/xlink" x="0px" y="0px" viewBox="0 0 1333.3 1333.3"
	 style="enable-background:new 0 0 1333.3 1333.3;" xml:space="preserve">
<style type="text/css">
	.st0{clip-path:url(#SVGID_2_);}
	.st1{fill:#655427;}
	.st2{fill:#FFFFFF;}
</style>
<g id="g12" transform="translate(0,999.9738)">
	<path id="path14" d="M0-999.9V333.3h584.8l-92.4-75.1L687.4-75.8l-3.4-663.9l117.2-260.2H0z"/>
</g>
<g>
	<defs>
		<rect id="SVGID_1_" y="0" width="1333.3" height="1333.3"/>
	</defs>
	<clipPath id="SVGID_2_">
		<use xlink:href="#SVGID_1_"  style="overflow:visible;"/>
	</clipPath>
	<g id="g18" class="st0">
		<g id="g24" transform="translate(539.7331,840.9556)">
			<path id="path26" class="st1" d="M179.9-628.9C179.9-628.9,179.9-628.9,179.9-628.9L179.9-628.9L179.9-628.9z"/>
		</g>
		<g id="g28" transform="translate(574.4044,463.3959)">
			<path id="path30" d="M191.5,252.1c1.8-13.8,4.6-23.6,4.1-32.3c-0.5-8.7-2-15.9-4.1-21s-6.7-15.2-8.5-22.4
				c-1.8-7.3-4.8-9.3-6.4-13.9c-1.5-4.6,3.1-15.9,0-23.6c-3.1-7.7-7.7-25.1-8.2-29.2c-0.5-4.1-3.6-13.3-6.7-21
				c-3.1-7.7-15.9-53.3-17.9-65.6c-2.1-12.3-12.3-55.4-14.4-61.5c-2-6.2-11.3-27.1-12.3-30.7c-1-3.6,2.6-32.9,2-40
				c-0.5-7.2-2-36.4-3.6-44.1c-1.5-7.7-6.7-25.6-6.7-25.6c-7.7,0.5-16.9-0.5-22,3.6c-5.1,4.1-10.3,10.3-12.3,13.8
				c-2.1,3.6-4.6,7.2-8.7,7.7c-4.1,0.5-6.2,2.1-8.2,6.2c-2.1,4.1-3.1,10.3-4.6,13.3c-1.5,3.1-1.4,3.2,0,8.7c1,4.1,5.6,33.3,6.2,39.5
				c0.5,6.1,3.1,24.1,2.1,31.3c-1,7.2,0.5,14.9,2.6,20.5c2.1,5.6,4.1,8.2,5.6,14.9c1.5,6.7,12.3,43.1,16.9,56.1
				c4.6,13.1,14.7,34.6,19.4,45.9c4.7,11.3,12.4,32.3,15,39.5c2.6,7.2,9.7,18.5,8.2,30.2c-1.5,11.8-0.5,25.6,0,35.4
				c0.5,9.7,2.1,23.1,2.1,30.2c0,7.2,0.5,14.9-1.5,20c-2,5.1-4.1,9.7-2,11.8c2,2.1,5.1,3.1,7.7,1c2.6-2.1,7.2-10.3,7.2-13.8
				s1-12.3,3.1-12.3s1,14.9,0.5,17.9c-0.5,3.1-1.1,7.6-3,8.7c-1.9,1.1-3.7-0.5-5,1.9c-1.2,2.3-2.3,6.8,0,8.6
				c2.3,1.7,6.7,4.7,10.7,2.2c4-2.5,7.8-5.8,9.3-10c1.6-4.2,3.7-13.8,3.9-15.7c0.2-1.9,0-7.8,0.8-7.6c0.8,0.2,0.5,7.8,0.3,10.6
				c-0.2,2.8-1.7,12.6-2.3,14.6c-0.6,2-1.6,6.4-3.1,7.2c-1.6,0.8-4.7,0.9-4.7,3.3c0,2.3,2.5,4.8,4,5.8c1.6,0.9,3.1,1.9,5.3,1.2
				c2.2-0.6,7.6-4.5,9.8-7.2c2.2-2.6,4.7-7.8,5.3-11.7c0.6-3.9,0.9-13.4,1.4-15.6c0.5-2.2,1.4-4.7,2.3-5.4c0.9-0.8,0.3,3.9,0.2,5.4
				c-0.2,1.6-0.8,8.2-1.1,9.6c-0.3,1.4-3.3,9.3-5.8,12.4c-2.5,3.1-6.1,4.8-6.4,6.1c-0.3,1.2-0.6,3.6,1.9,4c2.5,0.5,6.2,0.8,7.6-0.2
				c1.4-0.9,8.1-5.9,9.8-8.4C188.9,259.8,190.8,257.5,191.5,252.1"/>
		</g>
		<g id="g32" transform="translate(565.282,345.3577)">
			<path id="path34" d="M188.4,527.5c-0.6-8.8-3-43.9-3.4-54.2c-0.4-10.3-1.3-60.9-0.9-65.2c0.2-1.5,0.5-9.2,0.8-18.9
				c-1.8,0.3-4.2,0-6.1-0.3c-1-0.2-1.6-0.7-1.8-1.3c-2.2,1.7-4.5,3.1-5.8,3.5c-2.2,0.6-3.7-0.3-5.3-1.2c-1.6-0.9-4-3.4-4-5.8
				c0-2.3,3.1-2.5,4.7-3.3c1.6-0.8,2.5-5.1,3.1-7.2c0.6-2,2.2-11.8,2.3-14.6c0.2-2.8,0.5-10.4-0.3-10.6c-0.8-0.2-0.6,5.8-0.8,7.6
				c-0.2,1.9-2.3,11.5-3.9,15.7c-1.6,4.2-5.3,7.5-9.3,10c-4,2.5-8.4-0.5-10.7-2.2c-2.3-1.7-1.2-6.2,0-8.6c1.2-2.3,3.1-0.8,5-1.9
				c1.9-1.1,2.5-5.6,3-8.7c0.5-3.1,1.5-17.9-0.5-17.9c-2,0-3.1,8.7-3.1,12.3c0,3.6-4.6,11.8-7.2,13.8c-2.6,2-5.6,1-7.7-1
				c-2.1-2.1,0-6.7,2.1-11.8c2-5.1,1.5-12.8,1.5-20c0-7.2-1.5-20.5-2.1-30.2c-0.4-7.9-1.2-18.5-0.6-28.6c-6.6-3.2-13.1-6.6-18-9.8
				c-10.6-6.9-30.5-19.9-37.9-26.3c-7.4-6.5-18.9-18-27.7-22.6c-8.8-4.6-8.8-5.5-16.2-7.9c-0.7-0.2-1.4-0.5-1.9-0.8
				c-0.4,1.1-0.8,2.1-1.2,2.9c-1.7,3.4-5.8,10.5-8.4,17.6c-2.6,7.1-8,18.1-8.2,24.7c-0.2,6.7-0.6,16.4-1.7,22.2s-2.4,13.1-1.5,22.8
				c0.9,9.7,4.3,36.2,5.4,44.1c1.1,8,5.4,31.8,7.5,36.2c2.2,4.3,12.7,10.5,12.5,15.7c-0.2,5.2,3.7,10.5,3.4,13.8
				c-0.2,3.2-0.2,16.4,3.9,22.8c4.1,6.5,6,10.8,6,15.7c0,4.9-0.2,15.9,1.3,20.2c1.5,4.3,3.4,9.7,3.4,21.5c0,11.8,2.8,27.5,1.9,33.1
				c-0.9,5.6-6,27.1-5.6,31.8c0.4,4.7,0.9,20.4-2.6,24.5c-3.4,4.1-9.3,9-10.8,15.3c-1.5,6.2-8.4,11.8-10.5,15.7
				c-2.2,3.9-8.4,14.2-11.4,16.8c-3,2.6-22.6,33.6-29.5,45.8c-6.9,12.3-18.7,27.5-21.1,32.7c-2.4,5.2-14.4,39.4-17.4,47.6
				c-3,8.2-8.6,25.6-10.3,28.4c-1.7,2.8-9.5,11.4-9.9,13.3c-0.4,1.9,0.9,5.6,0,6.2c-0.9,0.6-6.9,4.7-7.7,7.3c-0.9,2.6,0.6,8,0,9.5
				c-0.6,1.5-4.9,12.3-6.7,15.1c-1.7,2.8-5.4,6.5-5.4,6.5l0,0c0.2,1.1-0.2,2.7-0.5,4.1c-0.4,1.9-1.4,3.1-2.3,3.5
				c-0.9,0.3-1.3,0.9-1.3,3.2c0,2.3,0.9,7.7,1.6,10.4c0.7,2.7,5.6,10.1,7.8,13.6c2.2,3.5,6.8,4.9,11,5.5c4.2,0.6,7.4,0.3,10.1,0
				c2.8-0.3,8.1-2.3,8.8-2.6c0.7-0.2,0.7-0.8,0.8-1.3c0.1-0.6,0.7-1.3,1.2-2.3c0.6-1,2.6-2.7,4.6-4.2c2-1.6,7.5-2.9,11.3-3.9
				c3.8-1,8.2-2.5,11.7-4.2c3.5-1.8,6.5-4.9,7.1-5.9c1.6-4.3,0.3-3.8,0.6-5.8c0.2-1.9,0.6-6.9,2.4-8.2c1.7-1.3,6.7-7.3,7.5-10.3
				c0.9-3,0-5.6,1.1-6.2c1.1-0.6,3.4-1.3,4.3-5.8c0.9-4.5,3-9.9,3.4-11.4c0.4-1.5,0-5.6,4.1-9.7c4.1-4.1,14-17.2,17-22.2
				c3-4.9,8.8-18.7,11.6-22.6c2.8-3.9,21.5-31.4,27.1-38.3c5.6-6.9,16.8-21.1,20.9-23.9c4.1-2.8,4.7-2.6,4.9,5.2
				c0.2,7.7-0.4,36.8,0,44.3c0.4,7.5,4.9,35.9,6.2,41.3c1.3,5.4,6.3,26.9,8.3,31.2c2,4.3,5.5,15.9,6.5,19.6c1.1,3.7-2.4,4.7-0.6,9.7
				c1.7,4.9,3.2,2.4,4.1,10.5c0.4,4.2,0.5,9.4,0.9,13.6c0.8,1.4,0.5,6.9,1.6,8.9c1.1,2,2.4,4.3,5.7,7.5c3.3,3.1,9.8,6.1,12.9,7.5
				c3.1,1.3,7.5,2.5,12.8,2.3c5.3-0.2,11.8-3.1,16.4-5.3c4.6-2.2,8.1-5.6,10.1-7.8c2-2.2,5.3-10.3,7.9-12.6c2.7-2.3,2.2-0.7,4.8-3.6
				c-0.3-0.8-0.6-1.6-0.8-2.5c-1.3-6.2-6.2-16.4-7.3-21.3s-1.7-6-0.4-7.7c1.3-1.7,1.3-6.2-0.2-8c-1.5-1.7-4.7-3.4-3.4-5.8
				c1.3-2.4,4.1-7.3,1.9-12.5c-2.2-5.2-7.7-8.8-6.7-12.5c1.1-3.7,3.2-9.7,2.2-18.1c-1.1-8.4-3.9-18.9-4.1-27.3
				c-0.2-8.4-0.9-26.5-0.9-32.7c0-6.2-1.7-15.9-1.3-17.4c0.4-1.5,2.2-15.7,3.7-23c1.5-7.3,3-16.6,2.8-23.7c-0.2-7.1-1.1-12.5-1.3-14
				c-0.2-1.5-2.4-2.8-1.3-3.9s5.4-4.1,9.3-4.9c3.9-0.9,8.6-7.1,11.4-15.1c2.8-8,5.8-25,4.5-37.4
				C192.3,562.8,189.1,536.3,188.4,527.5"/>
		</g>
		<g id="g36" transform="translate(646.1569,913.3939)">
			<path id="path38" d="M215.4-797.9c0-3.1-6.2-13.9-10.1-20.1c-3.9-6.2-0.8-8.5-7-8.5s-19.4,7.7-26.3,10.8
				c-7,3.1-20.1,11.6-20.1,11.6s-13.9-10.1-15.4-13.2c-1.5-3.1-0.9-10.8-0.1-15.5c0.8-4.6-3.9-7.7-4.6-9.3c-0.8-1.5-4.6-3.1-9.4-2.3
				c-4.7,0.8-10,4.6-18.5,9.3c-8.5,4.6-12.4,20.1-20.9,25.6c0,0-6.2,4.6-16.3,10.8c-10.1,6.2-17.8,7.8-17.8,7.8
				c-7.3,8.5-17.4,19.1-25.6,29l-0.3-0.1c11.7,4.2,19.9,19.8,27.6,29.3c8.2,10,18.6,23.1,22.9,31.4c0.8-2,4.2-6.1,6-7.6
				c1.8-1.5,4.9-2.1,9.3-4.6c0,0,0.6,0.3,1.8,2.4c1.2,2.1,4.4,5.8,6.5,7.8c2.1,1.9,4.6,3.7,5.7,4.5c1.1,0.8,4.9,2.3,7,2
				c2.1-0.3,4.9-1.1,6.5-2.9c1.7-1.8,5.2-5,6.6-6.8c1.4-1.8,5.4-2.5,6.7-1.3c1.2,1.2,4,1.5,5.6,1.1c1.5-0.4,3.5-2.1,3.9-5
				c1.2,0.8,1.9,1,4,1.2c2.1,0.3,4.4-1,6-1.9c1.5-1,2.5-3.5,2.8-4.4c0.3-1,1.7-2.5,3.5-3.7c1.8-1.2,4.3,0.8,6.2,2.4
				c1.9,1.5,8.2,2.5,10,1.8c1.8-0.7,3.7-4.3,5.1-8.6c1.4-4.3,3.6-15.3,4.3-17.6c0.7-2.4,6.7-5.7,8.3-6.1c1.7-0.4,6.2-3.9,8.3-6.5
				c2.1-2.6,1.7-6.7,4.3-9.8c1.1-1.3,6.8-7.4,10.5-13.6c1.4-2.4,2.7-5.6,3.9-9.3C216.3-789.5,215.4-794.8,215.4-797.9"/>
		</g>
		<g id="g40" transform="translate(508.9637,91.2706)">
			<path id="path42" class="st2" d="M169.7,1120.4c-1-1.7-2.9-0.3-4.1,0.9c-1.2,1.2-2.4,2.1-2.5,3.8c-0.1,1.7,0.3,2.3,0,2.5
				c-0.3,0.2-0.9,0.6-0.8,2.4c0.1,1.8-0.3,5,0.4,6c0.7,1,1.5,2.1,1,2.9c-0.5,0.9-1.7,5.2-1.9,6.4c-0.2,1.1,0.2,2.3,0.3,3.3
				c0.2,1-0.2,3.6,0,4.7c0.2,1.1,0.5,8.1,0.5,10c0,1.9,0.5,10.6,0.6,12.5c0.1,1.8,0,3.9-0.3,5.1c-0.3,1.2-1,7-1.1,8
				c-0.1,1-1.4,3.9-1.1,4.8c0.2,0.9,1.2,7.1,1.9,8.5c0.7,1.4,4.2,5.4,7.9,7.5c3.7,2.1,11.4,3.6,20.6,3.7c9.2,0.1,32.4-2.5,36.3-3
				c3.9-0.5,27-2.1,31-1.5c4,0.6,19.9,2,32.4,4.5c12.4,2.5,27.3,1.3,31.5,1.3c4.1,0,25.5,0,37.4-6.3s11.8-11.6,11.9-13.4
				c0.2-1.8-0.7-8.9-1.3-9.9c-0.7-1-2.2-2.5-2.3-3.3c-0.2-0.8-0.8-5-4.8-11.8s-12.9-8-16.4-8.3c-4.4-0.4-11.7-0.7-16-1.1
				c-4.3-0.3-6.8,0.5-8.8-1.8c-2-2.3-3.5-3.3-8.9-4c-5.5-0.7-15.6-5.5-19.5-7.3c-4-1.8-8.4-5.3-12.8-7c-4.3-1.7-6.5-1-7.9-1.7
				c-1.5-0.7-2.3-2.8-3.5-3.5c-1.2-0.7-2.5,0.2-4-1.8c-1.5-2-7.6-6.6-11.6-11.4c-4-4.8-4.6-6.8-7-7.9c-2.3-1.2-2.2,0.2-4.8,3.1
				c-2.7,3-2.2,1.3-4.8,3.6c-2.7,2.3-6,10.4-7.9,12.6c-2,2.2-5.5,5.6-10.1,7.8c-4.6,2.2-11.1,5.1-16.4,5.3c-5.3,0.2-9.6-1-12.8-2.3
				c-3.1-1.3-9.6-4.3-12.9-7.5c-3.3-3.1-4.6-5.5-5.7-7.5C170.1,1127.3,170.5,1121.7,169.7,1120.4"/>
		</g>
		<g id="g44" transform="translate(341.1369,89.0544)">
			<path id="path46" class="st2" d="M113.7,1125.5c-4.6,9.8-6.5,18.7-8,22c-1.4,3.3-6.5,10.8-7.5,13.1c-0.9,2.3-2.3,14.5,1.4,18.7
				c3.7,4.2,7.5,8.4,14,12.6c6.5,4.2,15.9,8.9,22.9,12.2c7,3.3,13.1,5.6,22,10.3c8.9,4.7,21,12.2,26.2,15c5.1,2.8,22,11.2,36,13.6
				c14,2.3,37.9,1.4,51-1.4c13.1-2.8,24.8-10.3,27.1-15.9c0,0,3.7-6.1-1.4-16.8c-5.1-10.8-4.7-10.3-7-13.1c-2.3-2.8-4.2-3.3-6.5-3.3
				c0,0-2.4,0.6-3.4,0.3c-1-0.2-7.9-4-10.5-5.5c-2.6-1.6-6.7-4.3-8.5-4.5c-1.7-0.2-4.8,0.3-5.4-0.2c-0.6-0.4-0.3-2.9-2.8-4.7
				c-2.4-1.8-4.2-3.3-6.1-3.5c-1.9-0.1-3.2,0.4-3.9-0.4c-0.7-0.9-2.6-2.6-2.6-4s-3.2-2.8-3.7-3.8c-0.4-1-0.9-2.5-1.9-3.3
				c-1-0.9-3-1.2-3.2-2.6c-0.2-1.3-0.8-3-0.1-4.1c0.7-1.1,1-1.8,1-4.6c0-2.8-0.6-5.1-1.7-6.7c-1.1-1.6-2.9-2.9-3-3.6
				c-0.1-0.7-0.1-5.7-0.8-7.2c-0.7-1.6-4.2-5.3-6.6-6.8c-2.3-1.4-6.6-2.2-7.1-2.1c-0.6,0.1-1.9,0.2-1.6-0.6c0.3-0.8,0.1-1.8-0.7-2.3
				c-0.8-0.6-0.9-0.6-1-2c-0.1-1.4-1.1-4.1-1.7-5.7c-0.6-1.6-1.1-4.1-1.8-3.1c-0.7,1-3.7,4.1-7.1,5.9c-3.5,1.8-7.9,3.2-11.7,4.2
				c-3.8,1-9.2,2.3-11.3,3.9c-2,1.6-4,3.2-4.6,4.2c-0.6,1-1.1,1.8-1.2,2.3c-0.1,0.6-0.1,1.1-0.8,1.3c-0.7,0.2-6,2.2-8.8,2.6
				c-2.8,0.3-5.9,0.6-10.1,0c-4.2-0.6-8.8-2-11-5.5c-2.2-3.5-7.1-10.9-7.8-13.6s-1.6-8-1.6-10.4c0-2.3,0.4-2.9,1.3-3.2
				c0.9-0.3,1.9-1.6,2.3-3.5c0.4-1.9,1-4.3-0.1-5.2c-1.1-0.9-5.5-1-7.1,0.4s-3.9,4.3-4.6,5.6s-1.8,2.9-2.2,4.3
				c-0.4,1.4-0.7,7-1.6,7.6c-0.9,0.6-3.7,2.2-3.6,4.8c0.1,2.6-0.2,3.6-1.2,4.9C113.5,1123.6,113.9,1125,113.7,1125.5"/>
		</g>
		<g id="g48" transform="translate(546.8295,922.1385)">
			<path id="path50" class="st2" d="M182.3-818.3c8.5-5.4,12.4-20.9,20.9-25.6c8.5-4.6,13.8-8.5,18.5-9.3c4.7-0.8,8.6,0.8,9.4,2.3
				s5.4,4.6,4.6,9.3c-0.8,4.6-1.4,12.4,0.1,15.5c1.5,3.1,15.4,13.2,15.4,13.2s13.2-8.5,20.1-11.6c7-3.1,20.1-10.8,26.3-10.8
				s3.1,2.3,7,8.5c3.9,6.2,10.1,17,10.1,20.1s0.6,8.7,0.9,9.9c0.9-0.4,9.6-6.3,14.2-11.8s8.8-12.4,11.7-19.1
				c3.2-7.2,5.2-20.5,3.9-25.7c-5-20.9-19.5-41.8-36.3-52.2c-13.7-8.4-33.3-16.6-54.9-16.6c-37.2,0.1-55.2,23.1-69.7,42.6
				c-2.7,3.6-9.3,13.9-11.6,20.1c-2.3,6.2-5.7,20.7-8.5,29.5c-2.5,7.7-16.2,30.2-16.2,30.2s7.7-1.6,17.8-7.8
				S182.3-818.3,182.3-818.3"/>
		</g>
		<g id="g52" transform="translate(527.5063,538.3558)">
			<path id="path54" class="st2" d="M175.8,77.2c1.5-11.8-5.6-23.1-8.2-30.2c-2.6-7.2-10.3-28.2-15-39.5
				c-4.7-11.3-14.8-32.8-19.4-45.9c-4.6-13.1-15.4-49.5-16.9-56.1c-1.5-6.7-3.6-9.2-5.6-14.9c-2.1-5.6-3.6-13.3-2.6-20.5
				c1-7.2-1.5-25.1-2.1-31.3c-0.5-6.2-5.1-35.4-6.2-39.5c-1.4-5.5-1.5-5.6,0-8.7c1.5-3.1,2.6-9.2,4.6-13.3c2.1-4.1,4.1-5.6,8.2-6.2
				c4.1-0.5,6.7-4.1,8.7-7.7c2-3.6,7.2-9.7,12.3-13.8c5.1-4.1,14.4-3.1,22-3.6c0,0,5.1,17.9,6.7,25.6c1.5,7.7,3.1,36.9,3.6,44.1
				c0.5,7.2-3.1,36.4-2,40c1,3.6,10.3,24.6,12.3,30.7c2.1,6.1,12.3,49.2,14.4,61.5c2.1,12.3,14.9,57.9,17.9,65.6
				c3.1,7.7,6.2,16.9,6.7,21c0.5,4.1,5.1,21.5,8.2,29.2c3.1,7.7-1.5,19,0,23.6c1.5,4.6,4.6,6.7,6.4,13.9c0,0,0,0,0,0
				c3.8,0.9,7.6,1.8,11,2.8c-0.5-5.1-0.9-5.5-2.8-7.9c-1.8-2.3-0.9-4.2,0.5-9.7c1.4-5.5-0.5-8.8-1.8-14.3
				c-1.4-5.5,0.9-13.9,1.8-21.7c0.9-7.9-1.4-29.1-1.4-37.9c0-8.8,2.8-44.8,3.7-56.8c0.9-12-2.3-49.4-3.2-65.1s-6.5-45.7-7.4-58.2
				c-0.9-12.5-4.2-45.3-6-57.7c-1.8-12.5-11.1-43-14.3-52.2c-3.2-9.2-9.2-18.5-11.5-22.2c-2.3-3.7-2.3-5.1-1.8-12.9
				c0.2-3.7,0-5.1-4.2-13.4s-14.8-21.7-23.1-31.9c-8.3-10.2-17.1-27.3-30-30c-12.9-2.8-8.3-6.9-21.7-3.7
				c-13.4,3.2-28.2,21.2-33.7,29.1c-5.5,7.9-17.1,35.6-22.2,54c-5.1,18.5-3.7,62.4-4.6,73.4c-0.9,11.1-0.5,33.3,1.4,41.6
				c1.8,8.3,0,84.5,0,96.1S61.2-33,61.2-20s5.1,15.7,6.9,22.9c1.8,7.2,0,12.2,7.4,14.5c7.4,2.3,7.4,3.2,16.2,7.9
				c8.8,4.6,20.3,16.2,27.7,22.6s27.3,19.4,37.9,26.3c4.9,3.2,11.4,6.6,18,9.8C175.3,81.7,175.5,79.4,175.8,77.2"/>
		</g>
	</g>
</g>
</svg>
