<?xml version="1.0" encoding="utf-8"?>
<!-- Generator: Adobe Illustrator 19.0.0, SVG Export Plug-In . SVG Version: 6.00 Build 0)  -->
<svg version="1.1" xmlns="http://www.w3.org/2000/svg" xmlns:xlink="http://www.w3.org/1999/xlink" x="0px" y="0px"
	 viewBox="0 0 1637.8 187.5" style="enable-background:new 0 0 1637.8 187.5;" xml:space="preserve">
<style type="text/css">
	.st0{fill:#203647;}
</style>
<g id="Layer_1">
	<g>
		<path class="st0" d="M72,111.6L0,1.1V0.8h16.6l62.5,97.1l62.8-97.1h16.6v0.3L86.3,111.6v73.9H72V111.6z"/>
		<path class="st0" d="M262.5,185.4V162c-10,17.9-28.2,25.3-46.4,25.6c-34.8,0-58.8-21.4-58.8-57.5V54.9h12.9v74.9
			c0,29.5,18.2,45.4,46.4,45.1c26.9-0.3,45.6-20.6,45.6-47.5V54.9h12.9v130.6H262.5z"/>
		<path class="st0" d="M398.6,78.9c-13.2-11.6-26.1-13.7-40.6-13.7c-20.3-0.3-39.8,7.4-39.3,24c0.5,17.4,23.2,20.8,39.6,23.7
			c23.2,4,55.1,7.9,53.8,38.2c-0.8,28.8-30.6,36.4-53.5,36.4c-22.9,0-45.6-8.7-57-26.1l9.5-8.4c10.8,15.6,30.3,22.2,47.7,22.2
			c15.8,0,39.8-4.2,40.6-24.8c0.5-18.7-21.1-22.4-42.5-25.8c-25.3-4.2-50.4-9-50.6-35.1C306,63.8,331.6,52.8,357.9,53
			c19,0,35.6,5.3,48.5,17.4L398.6,78.9z"/>
		<path class="st0" d="M545.7,185.4V162c-10,17.9-28.2,25.3-46.4,25.6c-34.8,0-58.8-21.4-58.8-57.5V54.9h12.9v74.9
			c0,29.5,18.2,45.4,46.4,45.1c26.9-0.3,45.6-20.6,45.6-47.5V54.9h12.9v130.6H545.7z"/>
		<path class="st0" d="M605.9,185.4V67.5h-26.6V56.2h26.6V44.6c0-25.8,10.3-44.6,39-44.6c9.8,0,18.5,3.4,25.8,9l-6.3,9.5
			c-7.1-4.2-12.1-6.6-20-6.6c-16.4,0-25.8,10-25.8,32.7v11.6h43v11.3h-43v117.9H605.9z"/>
		<path class="st0" d="M759.7,0.8h133.7v5l-119,165.6h119v14H753.3v-6.1L870.7,14h-111V0.8z"/>
		<path class="st0" d="M912.1,120.3c0-39,29.5-67.3,66.2-67.3c36.7,0,69.4,22.4,64.4,73.3H925.3c2.6,30.6,26.1,48.3,53,48.3
			c17.1,0,37.2-6.9,47-19.8l9.2,7.4c-12.7,16.6-35.3,25.1-56.2,25.1C941.7,187.3,912.1,161.7,912.1,120.3z M1031.1,115
			c-0.3-32.2-21.4-50.1-52.8-50.1c-26.9,0-50.1,18.2-53,50.1H1031.1z"/>
		<path class="st0" d="M1088.3,55.1l0.5,23.2c8.2-17.7,26.6-24.5,43.3-24.5c9.8-0.3,19.3,2.4,28,7.6l-5.8,10.6
			c-6.9-4.2-14.5-6.1-22.2-6.1c-24.3,0.3-43,19.8-43,43.5v76h-12.9V55.1H1088.3z"/>
		<path class="st0" d="M1304.6,0.8v184.6H1292v-28.8c-10.8,19.8-32.2,30.9-54.3,30.9c-36.4,0-65.2-24-65.2-67.3
			c0-43,29-67.3,65.4-67.3c22.4,0,43.5,9.5,54.1,30.6V0.8H1304.6z M1185.1,120.3c0,36.1,24,54.6,53.3,54.6
			c30.6,0,53.3-22.4,53.3-54.9s-23.2-54.6-53.3-54.6C1209.1,65.4,1185.1,83.6,1185.1,120.3z"/>
		<path class="st0" d="M1467.1,55.1c0,43.5,0,86.8,0,130.3h-12.9v-27.7c-12.7,20.3-32.2,29.8-53.3,29.8c-36.4,0-66.2-27.4-66.2-67.3
			c0-39.8,29.8-66.7,66.2-66.7c21.1,0,42.5,9.8,53.3,30.1V55.1H1467.1z M1347.6,120.3c0,32.7,23.7,54.6,53.3,54.6
			c72.5,0,72.5-108.9,0-108.9C1371.3,65.9,1347.6,87.6,1347.6,120.3z"/>
		<path class="st0" d="M1495.6,55.1h98.1v5l-82.3,113.2h82.3v12.1h-102.3v-4.5l83.1-114.2h-78.9V55.1z"/>
		<path class="st0" d="M1637.8,12.7c0,13.7-20.8,13.7-20.8,0S1637.8-1.1,1637.8,12.7z M1620.6,54.6v130.8h12.9V54.6H1620.6z"/>
	</g>
</g>
<g id="Layer_2">
</g>
</svg>
