<?xml version="1.0" encoding="utf-8"?>
<!-- Generator: Adobe Illustrator 19.0.0, SVG Export Plug-In . SVG Version: 6.00 Build 0)  -->
<svg version="1.1" id="Layer_1" xmlns="http://www.w3.org/2000/svg" xmlns:xlink="http://www.w3.org/1999/xlink" x="0px" y="0px"
	 viewBox="298 398.8 1595.3 205.2" style="enable-background:new 298 398.8 1595.3 205.2;" xml:space="preserve">
<style type="text/css">
	.st0{fill:#00979D;}
</style>
<g id="Layer_1_1_">
	<path id="XMLID_13_" class="st0" d="M543.3,398.8h-84.8c-11.1,0-22,2.2-32.2,6.5L322.6,449c-14.9,6.2-24.6,20.8-24.6,37v30.7
		c0,16.2,9.7,30.8,24.6,37.1l103.7,43.6c10.2,4.3,21.2,6.5,32.2,6.5h84.8c15.5,0,28-12.5,28-28V426.8
		C571.3,411.3,558.8,398.8,543.3,398.8z M331.9,506.4c-2.7,0-5-2.2-5-5c0-2.7,2.2-5,5-5c2.7,0,5,2.2,5,5
		C336.9,504.1,334.6,506.4,331.9,506.4z M406.7,508.6c-4,0-7.2-3.2-7.2-7.2s3.2-7.2,7.2-7.2s7.2,3.2,7.2,7.2
		C413.8,505.3,410.6,508.6,406.7,508.6z"/>
	<g id="XMLID_1_">
		<path id="XMLID_8_" class="st0" d="M723.2,562.2h-17.7l-8.3-26h-49.7l-8.4,26h-16.9l39.6-119.4h22.3L723.2,562.2z M692.5,521.6
			l-20.2-63.8l-20.2,63.9h40.4V521.6z"/>
		<path id="XMLID_12_" class="st0" d="M742.5,470.5H757l0.5,16.9c5.4-6.5,10.8-11.2,16-14.2c5.3-2.9,10.6-4.4,16-4.4
			c9.5,0,16.7,3.1,21.6,9.2c4.9,6.2,7.2,15.3,6.8,27.4h-16.1c0.2-8-1-13.9-3.5-17.5s-6.2-5.4-11.1-5.4c-2.1,0-4.3,0.4-6.4,1.1
			c-2.2,0.8-4.4,2-6.7,3.7c-2.3,1.7-4.7,3.8-7.3,6.4s-5.3,5.8-8.2,9.5v59h-16.1L742.5,470.5L742.5,470.5z"/>
		<path id="XMLID_16_" class="st0" d="M837,518.3c0-7.8,1.1-14.7,3.2-20.8c2.1-6.1,5.2-11.2,9.1-15.4c3.9-4.2,8.7-7.3,14.2-9.5
			c5.5-2.2,11.7-3.2,18.4-3.2c2.9,0,5.8,0.2,8.6,0.5c2.8,0.4,5.6,0.9,8.4,1.7v-38.5h16v129.2h-14.3l-0.5-17.4
			c-4.4,6.5-9.3,11.2-14.4,14.4c-5.2,3.1-10.8,4.7-16.8,4.7c-5.2,0-9.9-1.1-13.8-3.3c-4-2.2-7.3-5.3-10-9.3c-2.6-4-4.6-8.8-6-14.4
			C837.7,531.3,837,525.1,837,518.3z M853.3,517.3c0,11.1,1.6,19.4,4.9,24.8c3.3,5.5,7.9,8.2,13.8,8.2c4,0,8.3-1.8,12.8-5.4
			c4.5-3.6,9.2-8.9,14.1-16v-42.6c-2.6-1.2-5.5-2.1-8.7-2.8c-3.2-0.6-6.3-1-9.4-1c-8.7,0-15.4,2.8-20.2,8.4
			C855.7,496.5,853.3,505.3,853.3,517.3z"/>
		<path id="XMLID_21_" class="st0" d="M1018.4,562.2h-14.3l-0.5-14.8c-2.7,3.2-5.3,5.8-7.8,7.9c-2.5,2.1-4.9,3.8-7.4,5.1
			c-2.4,1.3-4.9,2.2-7.4,2.7s-5.1,0.8-7.8,0.8c-9.4,0-16.6-2.8-21.4-8.3c-4.8-5.5-7.2-13.9-7.2-25.1v-60h15.9v58.7
			c0,14.1,5.3,21.1,15.9,21.1c1.9,0,3.9-0.3,5.7-0.9c1.9-0.6,3.8-1.6,5.8-3c2-1.4,4.2-3.4,6.6-5.8c2.3-2.4,5-5.5,7.9-9.2v-60.9h15.9
			L1018.4,562.2L1018.4,562.2z"/>
		<path id="XMLID_23_" class="st0" d="M1078.8,483.6h-27.1v-13.1h43.2V549h27.3v13.3h-73.6V549h30.2V483.6L1078.8,483.6z
			 M1084.3,432c1.8,0,3.4,0.3,4.9,1c1.5,0.6,2.8,1.5,4,2.7c1.1,1.2,2,2.5,2.7,4c0.6,1.5,1,3.1,1,4.9c0,1.7-0.3,3.3-1,4.8
			c-0.6,1.5-1.5,2.9-2.7,4c-1.1,1.2-2.5,2.1-4,2.7c-1.5,0.6-3.2,1-4.9,1c-1.7,0-3.4-0.3-4.9-1c-1.5-0.7-2.8-1.5-4-2.7
			c-1.1-1.2-2-2.5-2.7-4c-0.6-1.5-1-3.1-1-4.8c0-1.8,0.3-3.4,1-4.9c0.6-1.5,1.5-2.8,2.7-4c1.1-1.2,2.5-2.1,4-2.7
			C1080.9,432.3,1082.6,432,1084.3,432z"/>
		<path id="XMLID_26_" class="st0" d="M1150.4,470.5h14.2l0.6,14.8c2.7-3.2,5.3-5.8,7.8-7.9s4.9-3.8,7.4-5.1
			c2.4-1.3,4.9-2.2,7.4-2.7s5.1-0.8,7.8-0.8c9.4,0,16.6,2.8,21.4,8.4s7.3,14,7.3,25.2v59.9h-15.9v-58.6c0-7.2-1.3-12.5-4-15.9
			s-6.7-5.2-12-5.2c-1.9,0-3.9,0.3-5.7,0.9c-1.9,0.6-3.8,1.6-5.8,3c-2,1.4-4.2,3.4-6.5,5.8c-2.3,2.4-5,5.5-7.9,9.1v60.9h-15.9v-91.8
			H1150.4z"/>
		<path id="XMLID_28_" class="st0" d="M1333.2,515.6c0,7.1-1,13.7-3,19.6c-2,5.9-4.9,11-8.7,15.3c-3.8,4.2-8.4,7.5-13.8,9.9
			c-5.4,2.3-11.6,3.5-18.5,3.5c-6.6,0-12.5-1-17.7-3.1c-5.2-2-9.6-5-13.3-9c-3.6-4-6.4-8.9-8.3-14.7c-1.9-5.8-2.9-12.6-2.9-20.2
			c0-7.1,1-13.6,3-19.5s4.9-10.9,8.7-15.2c3.8-4.2,8.4-7.5,13.8-9.9c5.4-2.3,11.6-3.5,18.5-3.5c6.6,0,12.5,1,17.7,3.1
			c5.2,2,9.6,5,13.3,9c3.6,3.9,6.4,8.8,8.3,14.7C1332.3,501.4,1333.2,508.1,1333.2,515.6z M1317,516.3c0-5.7-0.6-10.6-1.9-14.9
			c-1.3-4.2-3-7.8-5.3-10.6c-2.3-2.8-5.1-5-8.5-6.4c-3.3-1.4-7-2.1-11.1-2.1c-4.8,0-8.8,0.9-12.2,2.8c-3.4,1.9-6.2,4.3-8.3,7.4
			c-2.2,3.1-3.7,6.7-4.8,10.8c-1,4.1-1.5,8.4-1.5,12.9c0,5.7,0.6,10.6,1.9,14.9c1.2,4.3,3,7.8,5.3,10.6c2.3,2.8,5.1,5,8.4,6.4
			c3.3,1.4,7,2.1,11.2,2.1c4.8,0,8.8-0.9,12.2-2.8c3.4-1.9,6.2-4.3,8.3-7.4c2.2-3.1,3.7-6.7,4.8-10.8
			C1316.5,525.3,1317,520.9,1317,516.3z"/>
		<path id="XMLID_31_" class="st0" d="M1489.2,562.2h-18.4L1453,524c-1.3-2.9-2.7-5.3-4.1-7.3c-1.4-1.9-2.9-3.4-4.5-4.6
			c-1.6-1.1-3.4-1.9-5.3-2.4s-4.1-0.7-6.4-0.7h-7.7v53.2h-16.3V442.8h32c6.9,0,12.9,0.8,17.9,2.3s9.1,3.7,12.3,6.4
			c3.2,2.7,5.5,6,7,9.9s2.2,8.1,2.2,12.8c0,3.7-0.5,7.2-1.6,10.6c-1.1,3.3-2.7,6.3-4.9,9c-2.2,2.7-4.8,5.1-8,7
			c-3.2,2-6.9,3.5-11,4.4c3.4,1.2,6.2,3.2,8.5,6.1c2.3,2.9,4.7,6.7,7.2,11.6L1489.2,562.2z M1463.1,475.6c0-6.4-2-11.2-6-14.4
			c-4-3.2-9.6-4.8-16.9-4.8h-15.4v39.5h13.2c3.8,0,7.3-0.4,10.4-1.3c3.1-0.9,5.7-2.2,7.9-3.9c2.2-1.7,3.8-3.9,5-6.4
			C1462.5,481.8,1463.1,478.9,1463.1,475.6z"/>
		<path id="XMLID_34_" class="st0" d="M1590.5,515.6c0,7.1-1,13.7-3,19.6c-2,5.9-4.9,11-8.7,15.3c-3.8,4.2-8.4,7.5-13.8,9.9
			c-5.4,2.3-11.6,3.5-18.5,3.5c-6.6,0-12.5-1-17.7-3.1c-5.2-2-9.6-5-13.3-9c-3.6-4-6.4-8.9-8.3-14.7c-1.9-5.8-2.9-12.6-2.9-20.2
			c0-7.1,1-13.6,3-19.5s4.9-10.9,8.7-15.2c3.8-4.2,8.4-7.5,13.8-9.9c5.4-2.3,11.6-3.5,18.5-3.5c6.6,0,12.5,1,17.7,3.1
			c5.2,2,9.6,5,13.3,9c3.6,3.9,6.4,8.8,8.3,14.7C1589.6,501.4,1590.5,508.1,1590.5,515.6z M1574.3,516.3c0-5.7-0.6-10.6-1.9-14.9
			c-1.3-4.2-3-7.8-5.3-10.6s-5.1-5-8.5-6.4c-3.3-1.4-7-2.1-11.1-2.1c-4.8,0-8.8,0.9-12.2,2.8c-3.4,1.9-6.2,4.3-8.3,7.4
			c-2.2,3.1-3.7,6.7-4.8,10.8c-1,4.1-1.5,8.4-1.5,12.9c0,5.7,0.6,10.6,1.9,14.9c1.2,4.3,3,7.8,5.3,10.6s5.1,5,8.4,6.4
			c3.3,1.4,7,2.1,11.2,2.1c4.8,0,8.8-0.9,12.2-2.8c3.4-1.9,6.2-4.3,8.3-7.4c2.2-3.1,3.7-6.7,4.8-10.8
			C1573.8,525.3,1574.3,520.9,1574.3,516.3z"/>
		<path id="XMLID_37_" class="st0" d="M1692,514.7c0,7.6-1.1,14.4-3.2,20.4s-5.1,11.1-9,15.3c-3.9,4.2-8.6,7.4-14.1,9.6
			s-11.8,3.3-18.7,3.3c-5.4,0-11-0.5-16.6-1.6c-5.7-1-11.3-2.7-16.8-4.9V433.1h15.9v35.6l-0.7,17c4.6-6.2,9.5-10.5,14.7-13
			s10.8-3.8,16.8-3.8c5.2,0,9.8,1.1,13.8,3.3c4,2.2,7.3,5.3,10,9.3s4.7,8.8,6,14.4C1691.3,501.5,1692,507.8,1692,514.7z
			 M1675.7,515.4c0-4.8-0.4-9.2-1.1-13.3c-0.7-4-1.8-7.5-3.3-10.3c-1.5-2.9-3.5-5.1-5.8-6.7c-2.4-1.6-5.2-2.4-8.5-2.4
			c-2,0-4.1,0.3-6.1,1s-4.2,1.7-6.4,3.2c-2.2,1.5-4.6,3.5-7,5.9c-2.5,2.5-5.1,5.5-7.9,9.2v44.5c3.1,1.2,6.3,2.2,9.5,2.9
			s6.3,1.1,9.2,1.1c3.7,0,7.1-0.6,10.5-1.7c3.3-1.2,6.2-3.1,8.8-5.8c2.5-2.7,4.5-6.3,6-10.8C1675,527.6,1675.7,522.1,1675.7,515.4z"
			/>
		<path id="XMLID_40_" class="st0" d="M1796.4,515.6c0,7.1-1,13.7-3,19.6c-2,5.9-4.9,11-8.7,15.3c-3.8,4.2-8.4,7.5-13.8,9.9
			c-5.4,2.3-11.6,3.5-18.5,3.5c-6.6,0-12.5-1-17.7-3.1c-5.2-2-9.6-5-13.3-9c-3.6-4-6.4-8.9-8.3-14.7c-1.9-5.8-2.9-12.6-2.9-20.2
			c0-7.1,1-13.6,3-19.5s4.9-10.9,8.7-15.2c3.8-4.2,8.4-7.5,13.8-9.9c5.4-2.3,11.6-3.5,18.5-3.5c6.6,0,12.5,1,17.7,3.1
			c5.2,2,9.6,5,13.3,9c3.6,3.9,6.4,8.8,8.3,14.7C1795.4,501.4,1796.4,508.1,1796.4,515.6z M1780.1,516.3c0-5.7-0.6-10.6-1.9-14.9
			c-1.3-4.2-3-7.8-5.3-10.6s-5.1-5-8.5-6.4c-3.3-1.4-7-2.1-11.1-2.1c-4.8,0-8.8,0.9-12.2,2.8c-3.4,1.9-6.2,4.3-8.3,7.4
			c-2.2,3.1-3.7,6.7-4.8,10.8c-1,4.1-1.5,8.4-1.5,12.9c0,5.7,0.6,10.6,1.9,14.9c1.2,4.3,3,7.8,5.3,10.6s5.1,5,8.4,6.4
			c3.3,1.4,7,2.1,11.2,2.1c4.8,0,8.8-0.9,12.2-2.8c3.4-1.9,6.2-4.3,8.3-7.4c2.2-3.1,3.7-6.7,4.8-10.8
			C1779.6,525.3,1780.1,520.9,1780.1,516.3z"/>
		<path id="XMLID_43_" class="st0" d="M1893.3,560.9c-3.6,0.9-7.3,1.6-11.2,2c-3.8,0.4-7.7,0.6-11.7,0.6c-11.5,0-20.1-2.6-25.8-7.8
			s-8.5-13.2-8.5-24v-47.9h-25.7v-13.3h25.7v-25.3l15.9-4.1v29.3h41.2v13.4H1852v46.6c0,6.6,1.8,11.5,5.3,14.8s8.7,4.9,15.5,4.9
			c2.9,0,6.1-0.2,9.6-0.7s7.1-1.2,10.9-2.1L1893.3,560.9L1893.3,560.9z"/>
	</g>
</g>
</svg>
