<?xml version="1.0" encoding="utf-8"?>
<!-- Generator: Adobe Illustrator 23.0.1, SVG Export Plug-In . SVG Version: 6.00 Build 0)  -->
<svg version="1.1" id="Layer_1" xmlns="http://www.w3.org/2000/svg" xmlns:xlink="http://www.w3.org/1999/xlink" x="0px" y="0px"
	 viewBox="0 0 205.1 273.3" style="enable-background:new 0 0 205.1 273.3;" xml:space="preserve">
<style type="text/css">
	.st0{fill:#00979D;}
</style>
<path id="XMLID_13_" class="st0" d="M0,28v84.8c0,11.1,2.2,22,6.5,32.2l43.7,103.7c6.2,14.9,20.8,24.6,37,24.6h30.7
	c16.2,0,30.8-9.7,37.1-24.6L198.6,145c4.3-10.2,6.5-21.2,6.5-32.2V28c0-15.5-12.5-28-28-28H28C12.5,0,0,12.5,0,28z M107.6,239.4
	c0,2.7-2.2,5-5,5c-2.7,0-5-2.2-5-5c0-2.7,2.2-5,5-5C105.3,234.4,107.6,236.7,107.6,239.4z M109.8,164.6c0,4-3.2,7.2-7.2,7.2
	s-7.2-3.2-7.2-7.2s3.2-7.2,7.2-7.2C106.5,157.5,109.8,160.7,109.8,164.6z"/>
</svg>
