<?xml version="1.0" encoding="utf-8"?>
<!-- Generator: Adobe Illustrator 23.0.1, SVG Export Plug-In . SVG Version: 6.00 Build 0)  -->
<svg version="1.1" id="Layer_1" xmlns="http://www.w3.org/2000/svg" xmlns:xlink="http://www.w3.org/1999/xlink" x="0px" y="0px"
	 viewBox="0 0 349.8 312.9" style="enable-background:new 0 0 349.8 312.9;" xml:space="preserve">
<style type="text/css">
	.st0{fill:#676571;stroke:#000000;stroke-width:5;stroke-miterlimit:10;}
	.st1{fill:#22262F;}
	.st2{fill:#FFFFFF;}
	.st3{fill:#FFFFFF;stroke:#000000;stroke-width:5;stroke-linejoin:round;stroke-miterlimit:10;}
	.st4{fill:#66686D;}
	.st5{fill:#572823;}
	.st6{fill:#010202;}
	.st7{fill:#D57E58;}
</style>
<g id="Layer_4">
	<g id="XMLID_64_">
		<path id="XMLID_142_" class="st0" d="M123.8,240.6c-1.2,30.8-7,51,1.6,58.9c19.6,18,84.8,10.3,95.5,1.6
			c9.5-7.8,10.9-47.8,12.7-77.4C233.9,219.5,123.8,240.6,123.8,240.6z"/>
		<g id="XMLID_136_">
			<path id="XMLID_141_" class="st1" d="M162.2,262.4c-12,0-21-1.1-27.5-3.5c-2.1-0.8-4.3-1.5-6.7-2.4c-20.2-7-48-16.6-46.4-34.2
				c0.7-8,4.5-17.5,18.6-17.5c2.6,0,4.9,0.3,6.8,0.5h0.2c6.9,0,110.8-27,178.9-45.2l3.2-0.9v3.3c-0.5,33-2.6,62.8-22.4,64.9
				c-1.7,21.1-11.8,25.7-41.3,29.3l-4.6,0.6C201.8,259.7,180.3,262.4,162.2,262.4z"/>
			<path id="XMLID_138_" d="M286.7,162.6c-0.5,35.5-3.2,62.6-22.3,62.6c-1.1,20.7-8.5,25.5-39.3,29.2c-19.9,2.4-43.6,5.5-63,5.5
				c-10.6,0-19.9-0.9-26.7-3.3c-19.1-6.9-53-16.4-51.5-33.9c1.2-12.8,9.2-15.2,16.1-15.2c2.5,0,4.9,0.3,6.7,0.5c0.1,0,0.1,0,0.2,0
				C117,207.9,286.7,162.6,286.7,162.6 M291.8,156.1l-6.4,1.7c-67,17.9-169.2,44.5-178.2,45.1c-1.9-0.2-4.4-0.5-7.1-0.5
				c-12.4,0-19.9,7-21.1,19.8c-1.8,19.5,27,29.5,48,36.8c2.4,0.8,4.6,1.6,6.7,2.4c6.8,2.5,16.1,3.6,28.4,3.6c18.3,0,39.9-2.6,59-5
				l4.6-0.6c15.2-1.8,26-4,33.1-9.1c7.2-5.2,9.4-12.7,10.2-20.5c8.7-1.8,14.8-8.9,18.2-21.2s4.1-29.3,4.4-45.9L291.8,156.1
				L291.8,156.1z"/>
		</g>
		<g id="XMLID_130_">
			<path id="XMLID_135_" class="st2" d="M150,232.8c-5.2,0-10.9-0.5-16.8-1.4c-16.4-2.6-28.7-9.6-36.4-20.8
				c-16.1-23.3-8.9-58.4-5-77.2l0.3-1.6c2.7-13.3,35.9-21.6,65-21.6c15,0,42.1,2.2,54.8,16.8c5.2,6,7.2,13.4,6,21.9
				c-4,27.7-9.8,46-18.7,59.2C187.9,224.7,171.9,232.8,150,232.8L150,232.8z"/>
			<path id="XMLID_132_" d="M157,112.6c31.4,0,62.1,9.5,58.3,35.9c-6.7,46.1-20.4,81.8-65.4,81.8c-5.1,0-10.5-0.5-16.4-1.4
				c-58.3-9.3-44.2-71.6-39.1-96.7C96.7,121.2,127.2,112.6,157,112.6 M157,107.6c-15,0-30.7,2.1-43.1,5.9
				c-14.7,4.4-22.9,10.4-24.4,17.7l-0.3,1.6c-3.9,19.2-11.3,55,5.4,79.1c8.1,11.8,21,19.1,38.1,21.9c6.1,1,11.8,1.5,17.2,1.5
				c22.8,0,39.5-8.4,51.2-25.8c9.2-13.6,15.1-32.2,19.1-60.3c1.3-9.2-0.9-17.3-6.6-23.9C200.4,109.9,172.5,107.6,157,107.6
				L157,107.6z"/>
		</g>
		<g id="XMLID_124_">
			<path id="XMLID_129_" class="st2" d="M259.9,151c-2.2,0-9.1,0-9.1-7.7c0-5,0.2-10.4,0.4-16.2c0.7-15.3,1.4-32.5-3.6-41.3
				c-5.6-9.7-37.8-15.8-82.4-24.2c-8.7-1.6-17.7-3.4-27.3-5.2c-26.5-5.2-44.4-9.1-57.4-11.9c-14.7-3.2-22.1-4.8-26.2-4.8
				c-0.4,0-0.7,0-1.1,0l-1.5,0.1c-2.5,0.2-5,0.5-7.1,0.5c-1.7,0-5.1,0-6-2.7c-0.8-2.5,1.6-4.6,4.3-6.5c8.3-5.7,14.5-6.6,30.2-6.6
				c1.7,0,3.6,0,5.5,0C88.3,5.1,100.8,2.3,113,2.3c3.9,0,8,0.3,12.2,0.6c2.2,0.2,4.4,0.3,6.7,0.5c3.5,0.2,6.2,0.3,8.4,0.4
				c9.7,0.4,11.2,0.5,35.8,4.8c9.2,1.6,18.2,3.2,27,4.7C273.7,26,313.9,33.2,320,38c10.4,8.3,14.6,21,12.9,38.9l-0.1,1.5
				c-1.9,20.6-2.8,29.8-9.8,30.7c0.2,0.9,0.5,2.2,0.8,3.3c1.9,7.3,5.6,20.9-7.1,30.9c-3.9,3.1-15.5,4.1-34.2,5.6l-3.1,0.2
				c-3.7,0.3-7,0.7-9.9,1C265.7,150.6,262.5,151,259.9,151z"/>
			<path id="XMLID_126_" d="M113.1,5c5.8,0,12.1,0.7,18.8,1.1c18.7,1.1,13.9-0.1,43.9,5.2c72,12.7,136,23.3,142.7,28.7
				c6.8,5.4,14,15.3,12,36.7c-2,21.3-2.7,30-8.7,30s10.8,20.8-6.7,34.7c-3.7,2.9-19.3,4-36,5.3c-8.4,0.7-14.8,1.9-19.2,1.9
				c-4.3,0-6.6-1.2-6.6-5.2c-0.2-18.7,3.8-46-3.5-58.7C242.4,72,199.7,66,138.4,54c-57.9-11.3-76-16.7-84-16.7c-0.5,0-0.9,0-1.3,0.1
				c-2.8,0.3-6,0.6-8.4,0.6c-3.8,0-5.6-0.9-0.3-4.6c7.6-5.3,13.2-6.2,28.7-6.2c2.2,0,4.5,0,7.1,0C89,8.5,99.9,5,113.1,5 M113.1,0v5
				V0c-8.6,0-15,1.5-20.6,4.8c-6,3.5-11.1,9.2-15.3,17.4c-1.5,0-2.8,0-4,0c-16,0-22.8,1-31.6,7.1c-2,1.4-6.7,4.6-5.3,9.3
				c1.4,4.5,6.6,4.5,8.4,4.5c2.2,0,4.8-0.2,7.3-0.5c0.5,0,1-0.1,1.5-0.1c0.3,0,0.5,0,0.9,0c3.8,0,11.6,1.7,25.6,4.7
				c13,2.8,30.9,6.7,57.4,11.9c9.6,1.9,18.6,3.6,27.3,5.2c22.8,4.3,42.5,8.1,56.8,11.9c13.8,3.7,21.8,7.5,23.9,11.1
				c4.7,8.1,3.9,25,3.3,39.9c-0.3,5.8-0.5,11.3-0.4,16.3c0,3.8,1.6,10.1,11.6,10.1c2.7,0,6-0.4,9.8-0.8c2.9-0.3,6.2-0.7,9.8-1
				l3.1-0.2c20.3-1.6,31.1-2.6,35.6-6.1c14-11.1,10-26.2,8-33.5c-0.1-0.3-0.2-0.6-0.3-1c3-1.4,5.2-4.6,6.4-9.5
				c1.3-5,1.9-12.4,2.9-22.6l0.1-1.5c1.8-18.7-2.8-32.2-13.9-41c-6.2-5-37.3-10.8-117.9-24.9c-8.8-1.5-17.8-3.1-27-4.7
				c-24.6-4.8-26.1-4.8-36-5.3c-2.2-0.1-4.9-0.2-8.4-0.4c-2.3-0.1-4.5-0.3-6.6-0.5C121.2,0.3,117.1,0,113.1,0L113.1,0z"/>
		</g>
		<path id="XMLID_123_" class="st3" d="M114.3,152.8c5.3,22.8-8.7,50.2,27,54.6c37.2,4.6,31.7-26.3,43.8-38.2
			C154.9,184.8,129.2,175.9,114.3,152.8z"/>
		<g id="XMLID_111_">
			<path id="XMLID_122_" class="st4" d="M182.4,185.9c-1.2,0-2.1,0-2.8-0.1c-13-0.7-35.1-17.5-41.1-42.5c-4.7-0.8-6.9-1.3-10-1.9
				c-3.2-0.7-7.4-1.5-16.5-3.2c-2.3,6.7-3.3,7.4-10,10.3c-5.6,2.4-11.4,2.9-20.8,2.9l0,0c-3.2,0-7-0.1-11.3-0.1
				c-6.1-0.1-13.7-0.2-23-0.2c-28.1,0-44-19.8-44.6-55.7c-0.4-27.3,8.5-45.3,13.3-51C24.6,33.9,53.7,33,85.4,33
				c5.1,0,9.6,0,12.9-0.1c0.8,0,1.8,0,3.1,0c32,0,211.9,7.6,229.8,11.4c19.6,4.1,16.4,26.2,14.2,40.8c-0.2,1.4-0.4,2.7-0.6,4
				c-0.2,1.7-0.4,3.4-0.6,5.1c-1.4,12.1-2.9,25.8-19.1,25.8c-0.7,0-1.5,0-2.3-0.1c-1.8-0.1-3.3-0.2-4.5-0.2c-2.4,0-3.1,0.3-3.3,0.4
				c-0.1,0.7,0.3,2.8,0.7,4.5c0.8,3.7,2.1,9.3,1.8,16.9c-0.6,17.7-2.9,34.4-16,37C292.2,180.3,203.1,185.9,182.4,185.9z"/>
			<path id="XMLID_113_" d="M101.4,35.3c30.8,0,211.1,7.5,229.3,11.4c19,4,13.7,27.3,11.7,42c-1.9,14.1-1.4,28.7-17.2,28.7
				c-0.7,0-1.4,0-2.1-0.1c-1.8-0.1-3.4-0.2-4.7-0.2c-11.3,0-2.7,5.7-3.3,24.2c-0.7,20.7-4,32.7-14,34.7c-9.5,1.9-98.6,7.4-118.7,7.4
				c-1.1,0-2,0-2.7-0.1c-12.7-0.7-34.1-18.2-39.1-42.2c-11.7-2-8.9-1.8-30.2-5.8c-2.7,8-2.7,8-9.3,10.9c-5,2.2-10.2,2.7-19.8,2.7
				c-7.8,0-18.5-0.3-34.3-0.3c-28.7,0-41.5-21-42.1-53.2c-0.4-25,7.5-43.1,12.7-49.3c10.7-12.7,62-10,80.7-10.7
				C99.1,35.3,100.2,35.3,101.4,35.3 M101.4,30.3c-1.4,0-2.4,0-3.2,0c-3.3,0.1-7.7,0.1-12.9,0.1c-32.3,0.1-62,1-71.5,12.3
				C6.9,51.1-0.4,71.1,0,95.4c0.6,37.5,17.3,58.1,47.1,58.1c9.3,0,16.9,0.1,23,0.2c4.3,0.1,8.1,0.1,11.3,0.1
				c9.7,0,15.8-0.5,21.8-3.1c6.7-2.9,8.5-4.3,10.6-9.7c7.7,1.5,11.5,2.2,14.4,2.8c2.8,0.6,4.8,1,8.5,1.6c6.4,23.4,27.7,42,43,42.8
				c0.7,0,1.7,0.1,2.9,0.1c18.5,0,109.2-5.4,119.7-7.5c14.8-3,17.4-20.7,18-39.4c0.3-7.9-1-13.7-1.9-17.6c-0.1-0.6-0.3-1.2-0.4-1.8
				c0.2,0,0.4,0,0.6,0c1.1,0,2.5,0.1,4.3,0.2c0.8,0.1,1.7,0.1,2.5,0.1c8.2,0,14.1-3.3,17.4-9.9c2.7-5.2,3.4-11.4,4.1-18.1
				c0.2-1.7,0.4-3.4,0.6-5.1c0.2-1.3,0.4-2.6,0.6-4c1.1-7.4,2.5-16.6,1.2-24.6c-2.1-13.1-10.6-17.6-17.3-19
				C313,37.8,134.4,30.3,101.4,30.3L101.4,30.3z"/>
		</g>
		<path id="XMLID_110_" class="st5" d="M21.2,95.7c0,18.4,8.6,27.9,16.6,27.9c6.7,0,15.8-5.7,15.3-27.9C52.8,80.8,47,67.9,35.9,67.9
			C26.6,67.9,21.2,79.4,21.2,95.7z"/>
		<path id="XMLID_109_" class="st5" d="M155.8,127.4c0,21.2,9.9,32.2,19.1,32.2c7.7,0,18.2-6.6,17.7-32.2
			c-0.4-17.2-7-32.1-19.9-32.1C162.1,95.3,155.8,108.6,155.8,127.4z"/>
		<path id="XMLID_108_" class="st6" d="M46.6,73.3c-13.9,10.8-7.9,39.5,2,44c10,4.6,12.8-24.3,9-31.6C53.7,78.4,46.6,73.3,46.6,73.3
			z"/>
		<path id="XMLID_107_" class="st6" d="M183.6,99.9c-18.4,13.3-13.4,44.9,4,52.2s9.8-41.8,7.9-45.3
			C193.6,103.3,183.6,99.9,183.6,99.9z"/>
		<g id="XMLID_94_">
			<path id="XMLID_101_" class="st7" d="M179.5,171.7c-0.3,0-0.6,0-1,0c-21.5-0.6-31.3-23.9-31.3-45.4c0-9,1.4-25.7,11.4-35.7
				c4.9-4.9,11.2-7.4,18.6-7.4c8.3,0,15.4,3.3,20.9,9.9c10.1,12,12.9,32.7,10.5,47C206.2,153.7,200.7,171.7,179.5,171.7L179.5,171.7
				z M172.7,97.8c-8.8,0-14.4,11.6-14.4,29.6c0,19.3,8.6,29.7,16.7,29.7c2.2,0,5.4-0.6,8.4-3.7c3.3-3.3,7.1-10.6,6.8-26
				C189.8,112.7,184.3,97.8,172.7,97.8z"/>
			<path id="XMLID_96_" d="M177.2,85.7c25.2,0,32.4,34.1,28.9,54c-2.4,14.1-7.9,29.5-26.6,29.5c-0.3,0-0.6,0-0.9,0
				c-20.5-0.5-28.8-23.9-28.9-42.9C149.7,106.8,156.6,85.7,177.2,85.7 M175,159.7c7.7,0,18.2-6.6,17.7-32.2
				c-0.4-17.2-7-32.1-19.9-32.1c-10.7,0-16.9,13.2-16.9,32.1C155.8,148.6,165.7,159.7,175,159.7C174.9,159.7,175,159.7,175,159.7
				 M177.2,80.7c-8.1,0-14.9,2.7-20.3,8.2c-10.6,10.6-12.2,28-12.1,37.5c0,22.6,10.6,47.3,33.7,47.9c0.3,0,0.7,0,1,0
				c25.8,0,30.1-25.4,31.6-33.7c2.5-14.8-0.4-36.4-11-49C194,84.5,186.1,80.7,177.2,80.7L177.2,80.7z M174.9,159.7v-5
				c-5.9,0-14.2-8.5-14.2-27.2c0-16,4.9-27.1,11.9-27.1c9.9,0,14.6,13.7,14.9,27.2c0.3,14.6-3.1,21.2-6.1,24.2
				c-2.4,2.4-4.9,2.9-6.6,2.9L174.9,159.7L174.9,159.7z"/>
		</g>
		<g id="XMLID_65_">
			<path id="XMLID_73_" class="st7" d="M41.7,137.2c-0.2,0-0.5,0-0.8,0c-20.2-0.5-27.8-27.1-27.8-43.7c0-13,3.8-24.3,10.6-31
				c4.7-4.7,10.5-7,17.3-7c6.5,0,12.2,2.6,16.7,7.8C68,74.9,69.6,96.3,68.2,107C65.7,126.2,56.1,137.2,41.7,137.2L41.7,137.2z
				 M35.9,70.4c-7.3,0-12.2,10.2-12.2,25.3c0,16.5,7.3,25.4,14.1,25.4c1.8,0,4.5-0.5,7.1-3.1c2.8-2.8,6-9,5.8-22.3
				C50.3,83.1,45.7,70.4,35.9,70.4z"/>
			<path id="XMLID_67_" d="M41.1,58c22,0,26.7,33.5,24.7,48.7c-1.6,12.5-7.5,28.1-24,28.1c-0.2,0-0.5,0-0.7,0
				c-18-0.5-25.4-24.5-25.4-41.2C15.6,76.4,23,58,41.1,58 M37.8,123.7c6.7,0,15.8-5.8,15.3-27.9c-0.3-15-6.1-27.9-17.2-27.9
				c-9.2,0-14.7,11.5-14.7,27.8C21.2,114.1,29.8,123.7,37.8,123.7L37.8,123.7 M41.1,53c-7.4,0-14,2.7-19.1,7.8
				C14.8,68,10.6,79.9,10.7,93.6c0,10,2.4,20.8,6.5,28.9c5.6,11,13.8,17,23.8,17.3c0.3,0,0.6,0,0.8,0c15.7,0,26.3-11.8,29-32.4
				c1.5-11.1-0.3-33.4-11.1-45.7C54.7,56,48.2,53,41.1,53L41.1,53z M37.8,123.7v-5c-4.8,0-11.6-7.1-11.6-22.9
				c0-13.4,4-22.8,9.7-22.8c8.1,0,12,11.5,12.2,22.9c0.2,9.7-1.6,16.9-5.1,20.5c-1.9,1.9-3.9,2.4-5.3,2.4L37.8,123.7L37.8,123.7z"/>
		</g>
	</g>
</g>
</svg>
