<svg id="Layer_1" data-name="Layer 1" xmlns="http://www.w3.org/2000/svg" xmlns:xlink="http://www.w3.org/1999/xlink" viewBox="0 0 997.52 268.58"><defs><style>.cls-1,.cls-10,.cls-8,.cls-9{fill:none;}.cls-2{clip-path:url(#clip-path);}.cls-3{fill:#c8c6c4;}.cls-4{fill:#fff;}.cls-5{clip-path:url(#clip-path-7);}.cls-12,.cls-6{fill:#a1343c;}.cls-6,.cls-7{opacity:0.4;}.cls-14,.cls-7{fill:#41a4ff;}.cls-8{stroke:#a1343c;}.cls-10,.cls-8,.cls-9{stroke-linecap:round;stroke-linejoin:round;}.cls-8,.cls-9{stroke-width:2.36px;}.cls-9{stroke:#41a4ff;}.cls-10{stroke:#fff;stroke-width:7.87px;opacity:0;}.cls-11{clip-path:url(#clip-path-8);}.cls-13{clip-path:url(#clip-path-9);}</style><clipPath id="clip-path" transform="translate(-16.77 -315.17)"><rect class="cls-1" x="15.94" y="353.73" width="1000.13" height="232.31"/></clipPath><clipPath id="clip-path-7" transform="translate(-16.77 -315.17)"><rect class="cls-1" x="52.94" y="360.03" width="960.77" height="196.88"/></clipPath><clipPath id="clip-path-8" transform="translate(-16.77 -315.17)"><rect class="cls-1" x="15.94" y="330.89" width="9.45" height="22.84"/></clipPath><clipPath id="clip-path-9" transform="translate(-16.77 -315.17)"><rect class="cls-1" x="71.85" y="330.89" width="9.45" height="22.84"/></clipPath></defs><g class="cls-2"><path class="cls-3" d="M1012,555.73h.79v.79H1012m-4.72-.79h.79v.79h-.79m-4.73-.79h.79v.79h-.79m-4.72-.79h.79v.79h-.79m-4.72-.79h.78v.79h-.78m-4.73-.79h.79v.79h-.79m-4.72-.79h.78v.79h-.78m-4.73-.79h.79v.79h-.79m-4.72-.79H975v.79h-.79m-4.73-.79h.79v.79h-.79m-4.72-.79h.79v.79h-.79m-4.72-.79h.78v.79H960m-4.73-.79h.79v.79h-.79m-4.72-.79h.78v.79h-.78m-4.73-.79h.79v.79h-.79m-4.72-.79h.79v.79h-.79m-4.73-.79h.79v.79h-.79m-4.72-.79h.79v.79h-.79m-4.72-.79h.78v.79H927m-4.73-.79H923v.79h-.79m-4.72-.79h.78v.79h-.78m-4.73-.79h.79v.79h-.79m-4.72-.79h.79v.79h-.79m-4.73-.79h.79v.79h-.79m-4.72-.79h.79v.79h-.79m-4.72-.79h.78v.79h-.78m-4.73-.79h.79v.79h-.79m-4.72-.79h.78v.79h-.78m-4.73-.79h.79v.79h-.79m-4.72-.79h.79v.79H875m-4.73-.79H871v.79h-.79m-4.72-.79h.79v.79h-.79m-4.73-.79h.79v.79h-.79m-4.72-.79h.79v.79h-.79m-4.72-.79h.78v.79h-.78m-4.73-.79h.79v.79h-.79m-4.72-.79h.78v.79h-.78m-4.73-.79H838v.79h-.79m-4.72-.79h.79v.79h-.79m-4.73-.79h.79v.79h-.79m-4.72-.79h.79v.79H823m-4.72-.79h.78v.79h-.78m-4.73-.79h.79v.79h-.79m-4.72-.79h.78v.79h-.78m-4.73-.79h.79v.79h-.79m-4.72-.79h.79v.79h-.79m-4.73-.79h.79v.79h-.79m-4.72-.79h.79v.79h-.79m-4.72-.79H786v.79h-.78m-4.73-.79h.79v.79h-.79m-4.72-.79h.78v.79h-.78m-4.73-.79h.79v.79H771m-4.72-.79h.79v.79h-.79m-4.73-.79h.79v.79h-.79m-4.72-.79h.79v.79h-.79m-4.72-.79h.78v.79h-.78m-4.73-.79h.79v.79h-.79m-4.72-.79h.78v.79h-.78m-4.73-.79h.79v.79H738m-4.72-.79H734v.79h-.79m-4.73-.79h.79v.79h-.79m-4.72-.79h.79v.79h-.79m-4.73-.79h.79v.79h-.79m-4.72-.79h.79v.79h-.79m-4.72-.79h.78v.79h-.78m-4.73-.79h.79v.79h-.79m-4.72-.79H701v.79h-.78m-4.73-.79h.79v.79h-.79m-4.72-.79h.79v.79h-.79m-4.73-.79h.79v.79H686m-4.72-.79h.79v.79h-.79m-4.72-.79h.78v.79h-.78m-4.73-.79h.79v.79h-.79m-4.72-.79h.78v.79h-.78m-4.73-.79h.79v.79h-.79m-4.72-.79h.79v.79h-.79m-4.73-.79h.79v.79h-.79m-4.72-.79H649v.79h-.79m-4.72-.79h.78v.79h-.78m-4.73-.79h.79v.79h-.79m-4.72-.79h.78v.79H634m-4.73-.79h.79v.79h-.79m-4.72-.79h.79v.79h-.79m-4.73-.79h.79v.79h-.79m-4.72-.79h.79v.79h-.79m-4.72-.79h.78v.79h-.78m-4.73-.79h.79v.79h-.79m-4.72-.79h.78v.79H601m-4.73-.79H597v.79h-.79m-4.72-.79h.79v.79h-.79m-4.73-.79h.79v.79h-.79m-4.72-.79h.79v.79h-.79m-4.72-.79h.78v.79h-.78m-4.73-.79h.79v.79h-.79m-4.72-.79h.78v.79h-.78m-4.73-.79H564v.79h-.79m-4.72-.79h.79v.79h-.79m-4.73-.79h.79v.79h-.79m-4.72-.79h.79v.79H549m-4.73-.79h.79v.79h-.79m-4.72-.79h.79v.79h-.79m-4.72-.79h.78v.79h-.78m-4.73-.79h.79v.79h-.79m-4.72-.79h.78v.79h-.78m-4.73-.79h.79v.79h-.79m-4.72-.79h.79v.79h-.79m-4.73-.79H512v.79h-.79m-4.72-.79h.79v.79h-.79m-4.72-.79h.78v.79h-.78m-4.73-.79h.79v.79H497m-4.72-.79h.78v.79h-.78m-4.73-.79h.79v.79h-.79m-4.72-.79h.79v.79h-.79m-4.73-.79h.79v.79h-.79m-4.72-.79h.79v.79h-.79m-4.72-.79h.78v.79h-.78m-4.73-.79h.79v.79H464m-4.72-.79H460v.79h-.78m-4.73-.79h.79v.79h-.79m-4.72-.79h.79v.79h-.79m-4.73-.79h.79v.79h-.79m-4.72-.79h.79v.79h-.79m-4.72-.79h.78v.79h-.78m-4.73-.79h.79v.79h-.79m-4.72-.79H427v.79h-.78m-4.73-.79h.79v.79h-.79m-4.72-.79h.79v.79h-.79m-4.73-.79h.79v.79H412m-4.72-.79h.79v.79h-.79m-4.72-.79h.78v.79h-.78m-4.73-.79h.79v.79h-.79m-4.72-.79h.78v.79h-.78m-4.73-.79h.79v.79h-.79m-4.72-.79h.79v.79h-.79m-4.73-.79h.79v.79h-.79m-4.72-.79H375v.79h-.79m-4.73-.79h.79v.79h-.79m-4.72-.79h.79v.79h-.79m-4.72-.79h.78v.79H360m-4.73-.79h.79v.79h-.79m-4.72-.79h.78v.79h-.78m-4.73-.79h.79v.79h-.79m-4.72-.79h.79v.79h-.79m-4.73-.79h.79v.79h-.79m-4.72-.79h.79v.79h-.79m-4.72-.79h.78v.79H327m-4.73-.79H323v.79h-.79m-4.72-.79h.78v.79h-.78m-4.73-.79h.79v.79h-.79m-4.72-.79h.79v.79h-.79m-4.73-.79h.79v.79h-.79m-4.72-.79h.79v.79h-.79m-4.72-.79h.78v.79h-.78m-4.73-.79H290v.79h-.79m-4.72-.79h.78v.79h-.78m-4.73-.79h.79v.79h-.79m-4.72-.79h.79v.79H275m-4.73-.79h.79v.79h-.79m-4.72-.79h.79v.79h-.79m-4.72-.79h.78v.79h-.78m-4.73-.79h.79v.79h-.79m-4.72-.79h.78v.79h-.78m-4.73-.79h.79v.79h-.79m-4.72-.79h.79v.79h-.79m-4.73-.79H238v.79h-.79m-4.72-.79h.79v.79h-.79m-4.73-.79h.79v.79h-.79m-4.72-.79h.79v.79H223m-4.72-.79h.78v.79h-.78m-4.73-.79h.79v.79h-.79m-4.72-.79h.78v.79h-.78m-4.73-.79h.79v.79h-.79m-4.72-.79h.79v.79h-.79m-4.73-.79h.79v.79h-.79m-4.72-.79h.79v.79H190m-4.72-.79H186v.79h-.78m-4.73-.79h.79v.79h-.79m-4.72-.79h.78v.79h-.78m-4.73-.79h.79v.79h-.79m-4.72-.79h.79v.79h-.79m-4.73-.79h.79v.79h-.79m-4.72-.79h.79v.79h-.79m-4.72-.79h.78v.79h-.78m-4.73-.79h.79v.79h-.79m-4.72-.79h.78v.79h-.78m-4.73-.79h.79v.79H138m-4.72-.79h.79v.79h-.79m-4.73-.79h.79v.79h-.79m-4.72-.79h.79v.79h-.79m-4.72-.79h.78v.79h-.78m-4.73-.79h.79v.79h-.79m-4.72-.79h.78v.79h-.78m-4.73-.79h.79v.79h-.79m-4.72-.79H101v.79h-.79m-4.73-.79h.79v.79h-.79m-4.72-.79h.79v.79h-.79M86,555.73h.78v.79H86m-4.73-.79h.79v.79h-.79m-4.72-.79h.78v.79h-.78m-4.73-.79h.79v.79h-.79m-4.72-.79h.79v.79h-.79m-4.73-.79h.79v.79h-.79m-4.72-.79h.79v.79h-.79m-4.73-.79h.79v.79h-.79" transform="translate(-16.77 -315.17)"/></g><path class="cls-4" d="M35.46,552.42c1.39,0,2.08,1.13,2.08,3.39a6.55,6.55,0,0,1-.15,1.48,3.53,3.53,0,0,1-.43,1.08,2,2,0,0,1-.7.67,1.92,1.92,0,0,1-.94.23,1.86,1.86,0,0,1-.89-.22,1.89,1.89,0,0,1-.65-.64,3.22,3.22,0,0,1-.41-1,6.57,6.57,0,0,1-.14-1.4,7.11,7.11,0,0,1,.15-1.54,3.52,3.52,0,0,1,.42-1.11,2,2,0,0,1,.7-.68,2,2,0,0,1,1-.23Zm-.06,6.2c.91,0,1.37-.91,1.37-2.73s-.45-2.83-1.35-2.83S34,554,34,555.94s.46,2.68,1.39,2.68Zm3.56.63a.51.51,0,0,1-.51-.51.53.53,0,0,1,.51-.53.52.52,0,0,1,.37.16.5.5,0,0,1,.15.37.49.49,0,0,1-.15.36A.51.51,0,0,1,39,559.25Zm3.64-6.83c1.39,0,2.08,1.13,2.08,3.39a6.55,6.55,0,0,1-.15,1.48,3.53,3.53,0,0,1-.43,1.08,2,2,0,0,1-.7.67,1.92,1.92,0,0,1-.94.23,1.82,1.82,0,0,1-.88-.22,1.92,1.92,0,0,1-.66-.64,3.46,3.46,0,0,1-.41-1,6.57,6.57,0,0,1-.14-1.4,7.11,7.11,0,0,1,.15-1.54,3.52,3.52,0,0,1,.43-1.11,1.82,1.82,0,0,1,.7-.68,1.94,1.94,0,0,1,1-.23Zm-.06,6.2c.91,0,1.37-.91,1.37-2.73s-.45-2.83-1.34-2.83-1.42,1-1.42,2.88.46,2.68,1.39,2.68Z" transform="translate(-16.77 -315.17)"/><g class="cls-2"><path class="cls-3" d="M1012,516.67h.79v.79H1012m-4.72-.79h.79v.79h-.79m-4.73-.79h.79v.79h-.79m-4.72-.79h.79v.79h-.79m-4.72-.79h.78v.79h-.78m-4.73-.79h.79v.79h-.79m-4.72-.79h.78v.79h-.78m-4.73-.79h.79v.79h-.79m-4.72-.79H975v.79h-.79m-4.73-.79h.79v.79h-.79m-4.72-.79h.79v.79h-.79m-4.72-.79h.78v.79H960m-4.73-.79h.79v.79h-.79m-4.72-.79h.78v.79h-.78m-4.73-.79h.79v.79h-.79m-4.72-.79h.79v.79h-.79m-4.73-.79h.79v.79h-.79m-4.72-.79h.79v.79h-.79m-4.72-.79h.78v.79H927m-4.73-.79H923v.79h-.79m-4.72-.79h.78v.79h-.78m-4.73-.79h.79v.79h-.79m-4.72-.79h.79v.79h-.79m-4.73-.79h.79v.79h-.79m-4.72-.79h.79v.79h-.79m-4.72-.79h.78v.79h-.78m-4.73-.79h.79v.79h-.79m-4.72-.79h.78v.79h-.78m-4.73-.79h.79v.79h-.79m-4.72-.79h.79v.79H875m-4.73-.79H871v.79h-.79m-4.72-.79h.79v.79h-.79m-4.73-.79h.79v.79h-.79m-4.72-.79h.79v.79h-.79m-4.72-.79h.78v.79h-.78m-4.73-.79h.79v.79h-.79m-4.72-.79h.78v.79h-.78m-4.73-.79H838v.79h-.79m-4.72-.79h.79v.79h-.79m-4.73-.79h.79v.79h-.79m-4.72-.79h.79v.79H823m-4.72-.79h.78v.79h-.78m-4.73-.79h.79v.79h-.79m-4.72-.79h.78v.79h-.78m-4.73-.79h.79v.79h-.79m-4.72-.79h.79v.79h-.79m-4.73-.79h.79v.79h-.79m-4.72-.79h.79v.79h-.79m-4.72-.79H786v.79h-.78m-4.73-.79h.79v.79h-.79m-4.72-.79h.78v.79h-.78m-4.73-.79h.79v.79H771m-4.72-.79h.79v.79h-.79m-4.73-.79h.79v.79h-.79m-4.72-.79h.79v.79h-.79m-4.72-.79h.78v.79h-.78m-4.73-.79h.79v.79h-.79m-4.72-.79h.78v.79h-.78m-4.73-.79h.79v.79H738m-4.72-.79H734v.79h-.79m-4.73-.79h.79v.79h-.79m-4.72-.79h.79v.79h-.79m-4.73-.79h.79v.79h-.79m-4.72-.79h.79v.79h-.79m-4.72-.79h.78v.79h-.78m-4.73-.79h.79v.79h-.79m-4.72-.79H701v.79h-.78m-4.73-.79h.79v.79h-.79m-4.72-.79h.79v.79h-.79m-4.73-.79h.79v.79H686m-4.72-.79h.79v.79h-.79m-4.72-.79h.78v.79h-.78m-4.73-.79h.79v.79h-.79m-4.72-.79h.78v.79h-.78m-4.73-.79h.79v.79h-.79m-4.72-.79h.79v.79h-.79m-4.73-.79h.79v.79h-.79m-4.72-.79H649v.79h-.79m-4.72-.79h.78v.79h-.78m-4.73-.79h.79v.79h-.79m-4.72-.79h.78v.79H634m-4.73-.79h.79v.79h-.79m-4.72-.79h.79v.79h-.79m-4.73-.79h.79v.79h-.79m-4.72-.79h.79v.79h-.79m-4.72-.79h.78v.79h-.78m-4.73-.79h.79v.79h-.79m-4.72-.79h.78v.79H601m-4.73-.79H597v.79h-.79m-4.72-.79h.79v.79h-.79m-4.73-.79h.79v.79h-.79m-4.72-.79h.79v.79h-.79m-4.72-.79h.78v.79h-.78m-4.73-.79h.79v.79h-.79m-4.72-.79h.78v.79h-.78m-4.73-.79H564v.79h-.79m-4.72-.79h.79v.79h-.79m-4.73-.79h.79v.79h-.79m-4.72-.79h.79v.79H549m-4.73-.79h.79v.79h-.79m-4.72-.79h.79v.79h-.79m-4.72-.79h.78v.79h-.78m-4.73-.79h.79v.79h-.79m-4.72-.79h.78v.79h-.78m-4.73-.79h.79v.79h-.79m-4.72-.79h.79v.79h-.79m-4.73-.79H512v.79h-.79m-4.72-.79h.79v.79h-.79m-4.72-.79h.78v.79h-.78m-4.73-.79h.79v.79H497m-4.72-.79h.78v.79h-.78m-4.73-.79h.79v.79h-.79m-4.72-.79h.79v.79h-.79m-4.73-.79h.79v.79h-.79m-4.72-.79h.79v.79h-.79m-4.72-.79h.78v.79h-.78m-4.73-.79h.79v.79H464m-4.72-.79H460v.79h-.78m-4.73-.79h.79v.79h-.79m-4.72-.79h.79v.79h-.79m-4.73-.79h.79v.79h-.79m-4.72-.79h.79v.79h-.79m-4.72-.79h.78v.79h-.78m-4.73-.79h.79v.79h-.79m-4.72-.79H427v.79h-.78m-4.73-.79h.79v.79h-.79m-4.72-.79h.79v.79h-.79m-4.73-.79h.79v.79H412m-4.72-.79h.79v.79h-.79m-4.72-.79h.78v.79h-.78m-4.73-.79h.79v.79h-.79m-4.72-.79h.78v.79h-.78m-4.73-.79h.79v.79h-.79m-4.72-.79h.79v.79h-.79m-4.73-.79h.79v.79h-.79m-4.72-.79H375v.79h-.79m-4.73-.79h.79v.79h-.79m-4.72-.79h.79v.79h-.79m-4.72-.79h.78v.79H360m-4.73-.79h.79v.79h-.79m-4.72-.79h.78v.79h-.78m-4.73-.79h.79v.79h-.79m-4.72-.79h.79v.79h-.79m-4.73-.79h.79v.79h-.79m-4.72-.79h.79v.79h-.79m-4.72-.79h.78v.79H327m-4.73-.79H323v.79h-.79m-4.72-.79h.78v.79h-.78m-4.73-.79h.79v.79h-.79m-4.72-.79h.79v.79h-.79m-4.73-.79h.79v.79h-.79m-4.72-.79h.79v.79h-.79m-4.72-.79h.78v.79h-.78m-4.73-.79H290v.79h-.79m-4.72-.79h.78v.79h-.78m-4.73-.79h.79v.79h-.79m-4.72-.79h.79v.79H275m-4.73-.79h.79v.79h-.79m-4.72-.79h.79v.79h-.79m-4.72-.79h.78v.79h-.78m-4.73-.79h.79v.79h-.79m-4.72-.79h.78v.79h-.78m-4.73-.79h.79v.79h-.79m-4.72-.79h.79v.79h-.79m-4.73-.79H238v.79h-.79m-4.72-.79h.79v.79h-.79m-4.73-.79h.79v.79h-.79m-4.72-.79h.79v.79H223m-4.72-.79h.78v.79h-.78m-4.73-.79h.79v.79h-.79m-4.72-.79h.78v.79h-.78m-4.73-.79h.79v.79h-.79m-4.72-.79h.79v.79h-.79m-4.73-.79h.79v.79h-.79m-4.72-.79h.79v.79H190m-4.72-.79H186v.79h-.78m-4.73-.79h.79v.79h-.79m-4.72-.79h.78v.79h-.78m-4.73-.79h.79v.79h-.79m-4.72-.79h.79v.79h-.79m-4.73-.79h.79v.79h-.79m-4.72-.79h.79v.79h-.79m-4.72-.79h.78v.79h-.78m-4.73-.79h.79v.79h-.79m-4.72-.79h.78v.79h-.78m-4.73-.79h.79v.79H138m-4.72-.79h.79v.79h-.79m-4.73-.79h.79v.79h-.79m-4.72-.79h.79v.79h-.79m-4.72-.79h.78v.79h-.78m-4.73-.79h.79v.79h-.79m-4.72-.79h.78v.79h-.78m-4.73-.79h.79v.79h-.79m-4.72-.79H101v.79h-.79m-4.73-.79h.79v.79h-.79m-4.72-.79h.79v.79h-.79M86,516.67h.78v.79H86m-4.73-.79h.79v.79h-.79m-4.72-.79h.78v.79h-.78m-4.73-.79h.79v.79h-.79m-4.72-.79h.79v.79h-.79m-4.73-.79h.79v.79h-.79m-4.72-.79h.79v.79h-.79m-4.73-.79h.79v.79h-.79" transform="translate(-16.77 -315.17)"/></g><path class="cls-4" d="M35.46,513.36c1.39,0,2.08,1.13,2.08,3.39a6.4,6.4,0,0,1-.15,1.47,3.5,3.5,0,0,1-.43,1.09,2,2,0,0,1-.7.67,1.92,1.92,0,0,1-.94.22,1.75,1.75,0,0,1-.89-.22,1.78,1.78,0,0,1-.65-.63,3.18,3.18,0,0,1-.41-1,6.43,6.43,0,0,1-.14-1.4,7.08,7.08,0,0,1,.15-1.53,3.52,3.52,0,0,1,.42-1.11,2,2,0,0,1,.7-.68,2,2,0,0,1,1-.23Zm-.06,6.2c.91,0,1.37-.91,1.37-2.73S36.32,514,35.42,514,34,515,34,516.88s.46,2.68,1.39,2.68Zm3.56.63a.49.49,0,0,1-.36-.15.5.5,0,0,1-.15-.37.49.49,0,0,1,.15-.36.46.46,0,0,1,.36-.16.49.49,0,0,1,.37.16.49.49,0,0,1,.15.36.5.5,0,0,1-.15.37A.51.51,0,0,1,39,520.19Zm4.58-5a1.22,1.22,0,0,0-.1-.53,1,1,0,0,0-.25-.38,1.07,1.07,0,0,0-.39-.22,1.51,1.51,0,0,0-.48-.08,1.54,1.54,0,0,0-.43.06,2.47,2.47,0,0,0-.42.17,2.26,2.26,0,0,0-.38.25,2.73,2.73,0,0,0-.35.33V514a2,2,0,0,1,.71-.47,2.5,2.5,0,0,1,1-.17,2.37,2.37,0,0,1,.76.12,1.77,1.77,0,0,1,.6.34,1.61,1.61,0,0,1,.39.56,1.84,1.84,0,0,1,.15.76,2.6,2.6,0,0,1-.09.71,2,2,0,0,1-.27.6,2.87,2.87,0,0,1-.46.54,7.76,7.76,0,0,1-.65.53c-.31.22-.57.41-.77.57a3,3,0,0,0-.48.44,1.19,1.19,0,0,0-.25.41,1.33,1.33,0,0,0-.07.47h3.29v.68H40.48v-.33a2.86,2.86,0,0,1,.09-.75,2,2,0,0,1,.31-.61,3.26,3.26,0,0,1,.55-.58c.23-.2.51-.41.85-.66a4.66,4.66,0,0,0,.6-.49,2.7,2.7,0,0,0,.39-.47,1.67,1.67,0,0,0,.21-.48A2.1,2.1,0,0,0,43.54,515.21Z" transform="translate(-16.77 -315.17)"/><g class="cls-2"><path class="cls-3" d="M1012,477.61h.79v.79H1012m-4.72-.79h.79v.79h-.79m-4.73-.79h.79v.79h-.79m-4.72-.79h.79v.79h-.79m-4.72-.79h.78v.79h-.78m-4.73-.79h.79v.79h-.79m-4.72-.79h.78v.79h-.78m-4.73-.79h.79v.79h-.79m-4.72-.79H975v.79h-.79m-4.73-.79h.79v.79h-.79m-4.72-.79h.79v.79h-.79m-4.72-.79h.78v.79H960m-4.73-.79h.79v.79h-.79m-4.72-.79h.78v.79h-.78m-4.73-.79h.79v.79h-.79m-4.72-.79h.79v.79h-.79m-4.73-.79h.79v.79h-.79m-4.72-.79h.79v.79h-.79m-4.72-.79h.78v.79H927m-4.73-.79H923v.79h-.79m-4.72-.79h.78v.79h-.78m-4.73-.79h.79v.79h-.79m-4.72-.79h.79v.79h-.79m-4.73-.79h.79v.79h-.79m-4.72-.79h.79v.79h-.79m-4.72-.79h.78v.79h-.78m-4.73-.79h.79v.79h-.79m-4.72-.79h.78v.79h-.78m-4.73-.79h.79v.79h-.79m-4.72-.79h.79v.79H875m-4.73-.79H871v.79h-.79m-4.72-.79h.79v.79h-.79m-4.73-.79h.79v.79h-.79m-4.72-.79h.79v.79h-.79m-4.72-.79h.78v.79h-.78m-4.73-.79h.79v.79h-.79m-4.72-.79h.78v.79h-.78m-4.73-.79H838v.79h-.79m-4.72-.79h.79v.79h-.79m-4.73-.79h.79v.79h-.79m-4.72-.79h.79v.79H823m-4.72-.79h.78v.79h-.78m-4.73-.79h.79v.79h-.79m-4.72-.79h.78v.79h-.78m-4.73-.79h.79v.79h-.79m-4.72-.79h.79v.79h-.79m-4.73-.79h.79v.79h-.79m-4.72-.79h.79v.79h-.79m-4.72-.79H786v.79h-.78m-4.73-.79h.79v.79h-.79m-4.72-.79h.78v.79h-.78m-4.73-.79h.79v.79H771m-4.72-.79h.79v.79h-.79m-4.73-.79h.79v.79h-.79m-4.72-.79h.79v.79h-.79m-4.72-.79h.78v.79h-.78m-4.73-.79h.79v.79h-.79m-4.72-.79h.78v.79h-.78m-4.73-.79h.79v.79H738m-4.72-.79H734v.79h-.79m-4.73-.79h.79v.79h-.79m-4.72-.79h.79v.79h-.79m-4.73-.79h.79v.79h-.79m-4.72-.79h.79v.79h-.79m-4.72-.79h.78v.79h-.78m-4.73-.79h.79v.79h-.79m-4.72-.79H701v.79h-.78m-4.73-.79h.79v.79h-.79m-4.72-.79h.79v.79h-.79m-4.73-.79h.79v.79H686m-4.72-.79h.79v.79h-.79m-4.72-.79h.78v.79h-.78m-4.73-.79h.79v.79h-.79m-4.72-.79h.78v.79h-.78m-4.73-.79h.79v.79h-.79m-4.72-.79h.79v.79h-.79m-4.73-.79h.79v.79h-.79m-4.72-.79H649v.79h-.79m-4.72-.79h.78v.79h-.78m-4.73-.79h.79v.79h-.79m-4.72-.79h.78v.79H634m-4.73-.79h.79v.79h-.79m-4.72-.79h.79v.79h-.79m-4.73-.79h.79v.79h-.79m-4.72-.79h.79v.79h-.79m-4.72-.79h.78v.79h-.78m-4.73-.79h.79v.79h-.79m-4.72-.79h.78v.79H601m-4.73-.79H597v.79h-.79m-4.72-.79h.79v.79h-.79m-4.73-.79h.79v.79h-.79m-4.72-.79h.79v.79h-.79m-4.72-.79h.78v.79h-.78m-4.73-.79h.79v.79h-.79m-4.72-.79h.78v.79h-.78m-4.73-.79H564v.79h-.79m-4.72-.79h.79v.79h-.79m-4.73-.79h.79v.79h-.79m-4.72-.79h.79v.79H549m-4.73-.79h.79v.79h-.79m-4.72-.79h.79v.79h-.79m-4.72-.79h.78v.79h-.78m-4.73-.79h.79v.79h-.79m-4.72-.79h.78v.79h-.78m-4.73-.79h.79v.79h-.79m-4.72-.79h.79v.79h-.79m-4.73-.79H512v.79h-.79m-4.72-.79h.79v.79h-.79m-4.72-.79h.78v.79h-.78m-4.73-.79h.79v.79H497m-4.72-.79h.78v.79h-.78m-4.73-.79h.79v.79h-.79m-4.72-.79h.79v.79h-.79m-4.73-.79h.79v.79h-.79m-4.72-.79h.79v.79h-.79m-4.72-.79h.78v.79h-.78m-4.73-.79h.79v.79H464m-4.72-.79H460v.79h-.78m-4.73-.79h.79v.79h-.79m-4.72-.79h.79v.79h-.79m-4.73-.79h.79v.79h-.79m-4.72-.79h.79v.79h-.79m-4.72-.79h.78v.79h-.78m-4.73-.79h.79v.79h-.79m-4.72-.79H427v.79h-.78m-4.73-.79h.79v.79h-.79m-4.72-.79h.79v.79h-.79m-4.73-.79h.79v.79H412m-4.72-.79h.79v.79h-.79m-4.72-.79h.78v.79h-.78m-4.73-.79h.79v.79h-.79m-4.72-.79h.78v.79h-.78m-4.73-.79h.79v.79h-.79m-4.72-.79h.79v.79h-.79m-4.73-.79h.79v.79h-.79m-4.72-.79H375v.79h-.79m-4.73-.79h.79v.79h-.79m-4.72-.79h.79v.79h-.79m-4.72-.79h.78v.79H360m-4.73-.79h.79v.79h-.79m-4.72-.79h.78v.79h-.78m-4.73-.79h.79v.79h-.79m-4.72-.79h.79v.79h-.79m-4.73-.79h.79v.79h-.79m-4.72-.79h.79v.79h-.79m-4.72-.79h.78v.79H327m-4.73-.79H323v.79h-.79m-4.72-.79h.78v.79h-.78m-4.73-.79h.79v.79h-.79m-4.72-.79h.79v.79h-.79m-4.73-.79h.79v.79h-.79m-4.72-.79h.79v.79h-.79m-4.72-.79h.78v.79h-.78m-4.73-.79H290v.79h-.79m-4.72-.79h.78v.79h-.78m-4.73-.79h.79v.79h-.79m-4.72-.79h.79v.79H275m-4.73-.79h.79v.79h-.79m-4.72-.79h.79v.79h-.79m-4.72-.79h.78v.79h-.78m-4.73-.79h.79v.79h-.79m-4.72-.79h.78v.79h-.78m-4.73-.79h.79v.79h-.79m-4.72-.79h.79v.79h-.79m-4.73-.79H238v.79h-.79m-4.72-.79h.79v.79h-.79m-4.73-.79h.79v.79h-.79m-4.72-.79h.79v.79H223m-4.72-.79h.78v.79h-.78m-4.73-.79h.79v.79h-.79m-4.72-.79h.78v.79h-.78m-4.73-.79h.79v.79h-.79m-4.72-.79h.79v.79h-.79m-4.73-.79h.79v.79h-.79m-4.72-.79h.79v.79H190m-4.72-.79H186v.79h-.78m-4.73-.79h.79v.79h-.79m-4.72-.79h.78v.79h-.78m-4.73-.79h.79v.79h-.79m-4.72-.79h.79v.79h-.79m-4.73-.79h.79v.79h-.79m-4.72-.79h.79v.79h-.79m-4.72-.79h.78v.79h-.78m-4.73-.79h.79v.79h-.79m-4.72-.79h.78v.79h-.78m-4.73-.79h.79v.79H138m-4.72-.79h.79v.79h-.79m-4.73-.79h.79v.79h-.79m-4.72-.79h.79v.79h-.79m-4.72-.79h.78v.79h-.78m-4.73-.79h.79v.79h-.79m-4.72-.79h.78v.79h-.78m-4.73-.79h.79v.79h-.79m-4.72-.79H101v.79h-.79m-4.73-.79h.79v.79h-.79m-4.72-.79h.79v.79h-.79M86,477.61h.78v.79H86m-4.73-.79h.79v.79h-.79m-4.72-.79h.78v.79h-.78m-4.73-.79h.79v.79h-.79m-4.72-.79h.79v.79h-.79m-4.73-.79h.79v.79h-.79m-4.72-.79h.79v.79h-.79m-4.73-.79h.79v.79h-.79" transform="translate(-16.77 -315.17)"/></g><path class="cls-4" d="M20.36,324.59H17v-9.35h3.34a3.9,3.9,0,0,1,1.19.16,3.39,3.39,0,0,1,.88.39,2.63,2.63,0,0,1,.62.57,3.18,3.18,0,0,1,.39.66,3.32,3.32,0,0,1,.2.66,3.4,3.4,0,0,1,.06.61v3.26a3.38,3.38,0,0,1-.06.6,3.32,3.32,0,0,1-.2.66,3.18,3.18,0,0,1-.39.66,2.63,2.63,0,0,1-.62.57,3,3,0,0,1-.89.4A4.18,4.18,0,0,1,20.36,324.59Zm-2.05-8.13v6.91h2.1a2.42,2.42,0,0,0,1-.18,1.69,1.69,0,0,0,.61-.44,1.6,1.6,0,0,0,.31-.59,2.37,2.37,0,0,0,.08-.57v-3.35a2.44,2.44,0,0,0-.08-.57,1.56,1.56,0,0,0-.31-.58,1.75,1.75,0,0,0-.62-.45,2.39,2.39,0,0,0-1-.18Zm7.15,1.45h1.26v.63h.07a2.3,2.3,0,0,1,.41-.35,3.87,3.87,0,0,1,.46-.24,1.59,1.59,0,0,1,.59-.11,3,3,0,0,1,.7.08,3.71,3.71,0,0,1,.54.19,1.91,1.91,0,0,1,.47.26l-.76,1a2.14,2.14,0,0,0-.3-.17l-.35-.12a1.65,1.65,0,0,0-.46-.06,1.59,1.59,0,0,0-.5.08,1.76,1.76,0,0,0-.39.18,2.47,2.47,0,0,0-.29.24l-.19.21v4.85H25.46Zm8.24,5.56a2.79,2.79,0,0,0,.53,0,2.2,2.2,0,0,0,.41-.12,1.68,1.68,0,0,0,.34-.2c.1-.08.21-.16.32-.26l.89.8a3.27,3.27,0,0,1-.5.43,3.2,3.2,0,0,1-.57.32,3.09,3.09,0,0,1-.65.2,4.49,4.49,0,0,1-.77.07,2.92,2.92,0,0,1-1.29-.27,2.44,2.44,0,0,1-.9-.72A3,3,0,0,1,31,322.6a5.17,5.17,0,0,1-.17-1.34,4.78,4.78,0,0,1,.17-1.34,3.15,3.15,0,0,1,.52-1.09,2.49,2.49,0,0,1,.86-.72,2.85,2.85,0,0,1,2.42,0,2.37,2.37,0,0,1,.85.72,3.34,3.34,0,0,1,.52,1.09,5.17,5.17,0,0,1,.17,1.34v.48H32.09a2.87,2.87,0,0,0,.14.66,1.77,1.77,0,0,0,.32.55,1.32,1.32,0,0,0,.49.38A1.39,1.39,0,0,0,33.7,323.47ZM33.56,319a1.26,1.26,0,0,0-.57.13,1.51,1.51,0,0,0-.44.35,1.83,1.83,0,0,0-.29.51,2.39,2.39,0,0,0-.14.6H35a3.77,3.77,0,0,0-.16-.6,1.94,1.94,0,0,0-.29-.51,1.25,1.25,0,0,0-.41-.35A1.33,1.33,0,0,0,33.56,319Zm6.64-1.19a3.9,3.9,0,0,1,1.26.18,2.3,2.3,0,0,1,.87.49,1.9,1.9,0,0,1,.5.75,2.52,2.52,0,0,1,.16.93v4.4H41.68v-.48h-.07l-.39.23a1.71,1.71,0,0,1-.39.17,2.44,2.44,0,0,1-.45.12,4.45,4.45,0,0,1-.56,0,2.93,2.93,0,0,1-.86-.12,1.88,1.88,0,0,1-.7-.37,1.68,1.68,0,0,1-.45-.62,2.21,2.21,0,0,1-.17-.89,2,2,0,0,1,.19-.88,1.6,1.6,0,0,1,.52-.6,2.13,2.13,0,0,1,.78-.34,4.41,4.41,0,0,1,1-.11h.53l.38,0a1.55,1.55,0,0,0,.31,0l.34-.05v-.39a1.35,1.35,0,0,0-.07-.44,1,1,0,0,0-.23-.4,1.31,1.31,0,0,0-.44-.3,2,2,0,0,0-.7-.11,2.76,2.76,0,0,0-.44,0,1,1,0,0,0-.32.08,1.34,1.34,0,0,0-.27.13l-.25.19-1-.68a2.28,2.28,0,0,1,.39-.37,1.81,1.81,0,0,1,.49-.29,2.57,2.57,0,0,1,.61-.18A3.57,3.57,0,0,1,40.2,317.84Zm1.48,3.79-.67.06c-.21,0-.44,0-.71,0a1.94,1.94,0,0,0-.69.1,1.24,1.24,0,0,0-.43.24.89.89,0,0,0-.21.32.83.83,0,0,0-.06.29,1.52,1.52,0,0,0,0,.29.61.61,0,0,0,.15.3.91.91,0,0,0,.36.24,1.78,1.78,0,0,0,.64.1,2.39,2.39,0,0,0,.78-.11,1.67,1.67,0,0,0,.5-.25.9.9,0,0,0,.25-.32.68.68,0,0,0,.07-.29ZM45,317.91h1.26v.63h.07a2.25,2.25,0,0,1,.45-.35,4.76,4.76,0,0,1,.54-.24,2.38,2.38,0,0,1,.73-.11,2.27,2.27,0,0,1,.59.08,2,2,0,0,1,.5.21,1.87,1.87,0,0,1,.42.3,2.79,2.79,0,0,1,.34.35,2.25,2.25,0,0,1,.24-.21,3.44,3.44,0,0,1,.47-.32,4.22,4.22,0,0,1,.67-.28,2.39,2.39,0,0,1,.82-.13A2.35,2.35,0,0,1,53,318a2.15,2.15,0,0,1,.71.47,2.21,2.21,0,0,1,.47.77,2.73,2.73,0,0,1,.17,1v4.32H53.09v-4.27a1.34,1.34,0,0,0-.12-.6,1.14,1.14,0,0,0-.3-.4,1.41,1.41,0,0,0-.42-.22,2,2,0,0,0-.49-.07,1.53,1.53,0,0,0-.49.08,2.2,2.2,0,0,0-.41.18,1.65,1.65,0,0,0-.32.23,2.19,2.19,0,0,0-.22.24v4.83H49.05v-4.27a1.34,1.34,0,0,0-.12-.6,1.14,1.14,0,0,0-.3-.4,1.35,1.35,0,0,0-.43-.22,2,2,0,0,0-.48-.07,1.32,1.32,0,0,0-.53.1,1.93,1.93,0,0,0-.43.22,1.64,1.64,0,0,0-.31.26l-.18.2v4.78H45Zm17.88-2.74a4.24,4.24,0,0,1,1.14.15,8,8,0,0,1,.94.31c.3.14.59.29.86.45l-.74,1-.31-.19-.33-.17a4.34,4.34,0,0,0-.7-.25,2.93,2.93,0,0,0-.86-.12,2.56,2.56,0,0,0-.75.11,2.16,2.16,0,0,0-.59.29,1.35,1.35,0,0,0-.39.44,1.06,1.06,0,0,0-.15.55,1.19,1.19,0,0,0,.09.47,1,1,0,0,0,.31.41A2.28,2.28,0,0,0,62,319a5.81,5.81,0,0,0,1,.3,7,7,0,0,1,1.2.37,3.75,3.75,0,0,1,.94.55,2.32,2.32,0,0,1,.61.75,2,2,0,0,1,.22,1,2.51,2.51,0,0,1-.24,1.11,2.36,2.36,0,0,1-.68.86,3.26,3.26,0,0,1-1.1.56,5.27,5.27,0,0,1-1.49.2,5,5,0,0,1-1.47-.2,5.18,5.18,0,0,1-1-.43,5,5,0,0,1-.45-.29,2.43,2.43,0,0,1-.38-.33l.87-1a3.64,3.64,0,0,0,.64.5,4.44,4.44,0,0,0,.78.34,3.31,3.31,0,0,0,1.05.16,4.25,4.25,0,0,0,.91-.09,2.22,2.22,0,0,0,.7-.27,1.22,1.22,0,0,0,.61-1.11,1,1,0,0,0-.13-.54,1.08,1.08,0,0,0-.39-.41,3.13,3.13,0,0,0-.68-.3q-.42-.14-1-.27a8.05,8.05,0,0,1-1.08-.32,3,3,0,0,1-.9-.49,2.24,2.24,0,0,1-.61-.75,2.38,2.38,0,0,1-.22-1.09,2.35,2.35,0,0,1,.27-1.15,2.59,2.59,0,0,1,.71-.83,3.16,3.16,0,0,1,1-.49A4.12,4.12,0,0,1,62.89,315.17Zm7.46,8.3a2.86,2.86,0,0,0,.53,0,2.09,2.09,0,0,0,.4-.12,1.27,1.27,0,0,0,.34-.2c.1-.08.21-.16.32-.26l.9.8a2.91,2.91,0,0,1-.51.43,2.8,2.8,0,0,1-.56.32,3.28,3.28,0,0,1-.65.2,4.59,4.59,0,0,1-.77.07,2.86,2.86,0,0,1-1.29-.27,2.39,2.39,0,0,1-.91-.72,3,3,0,0,1-.53-1.08,4.77,4.77,0,0,1-.18-1.34,5.17,5.17,0,0,1,.17-1.34,3.34,3.34,0,0,1,.52-1.09,2.53,2.53,0,0,1,.87-.72,2.82,2.82,0,0,1,2.41,0,2.49,2.49,0,0,1,.86.72,3.32,3.32,0,0,1,.51,1.09,4.78,4.78,0,0,1,.17,1.34v.48H68.73a2.44,2.44,0,0,0,.15.66,1.74,1.74,0,0,0,.31.55,1.51,1.51,0,0,0,.49.38A1.41,1.41,0,0,0,70.35,323.47ZM70.2,319a1.33,1.33,0,0,0-.57.13,1.47,1.47,0,0,0-.43.35,1.61,1.61,0,0,0-.29.51,2.4,2.4,0,0,0-.15.6h2.87a2.41,2.41,0,0,0-.16-.6,1.92,1.92,0,0,0-.28-.51,1.4,1.4,0,0,0-.42-.35A1.26,1.26,0,0,0,70.2,319Zm4.59-1.12h1.26v.63h.07a2.07,2.07,0,0,1,.46-.35,4.07,4.07,0,0,1,.54-.24,2.29,2.29,0,0,1,.73-.11,2.35,2.35,0,0,1,.89.17,2.23,2.23,0,0,1,.73.47,2.42,2.42,0,0,1,.49.77,2.73,2.73,0,0,1,.18,1v4.32H78.87v-4.27a1.34,1.34,0,0,0-.12-.6,1.07,1.07,0,0,0-.32-.4,1.4,1.4,0,0,0-.44-.22,2.07,2.07,0,0,0-.49-.07,1.65,1.65,0,0,0-.51.08,2,2,0,0,0-.42.18,2.22,2.22,0,0,0-.32.24l-.2.21v4.85H74.79Zm10,1.16H83.72v3.85a1,1,0,0,0,0,.17.39.39,0,0,0,.06.15.32.32,0,0,0,.11.12.29.29,0,0,0,.17,0h.72v1.19H83.68l-.31-.06a1.73,1.73,0,0,1-.32-.14,1.17,1.17,0,0,1-.3-.29,1.42,1.42,0,0,1-.21-.48,2.33,2.33,0,0,1-.09-.7v-3.85h-.64v-1.16h.64v-1.83h1.27v1.83h1.07Zm3.1-2.56H86.63v-1.27h1.26Zm0,8.08H86.63v-6.68h1.26Zm2-6.68h1.26v.63h.07a2.07,2.07,0,0,1,.46-.35,3.56,3.56,0,0,1,.54-.24,2.29,2.29,0,0,1,.73-.11,2.2,2.2,0,0,1,.58.08,2.28,2.28,0,0,1,.51.21,2.47,2.47,0,0,1,.42.3,3.61,3.61,0,0,1,.33.35l.24-.21a4.43,4.43,0,0,1,.48-.32,4.09,4.09,0,0,1,.66-.28,2.43,2.43,0,0,1,.82-.13,2.35,2.35,0,0,1,.89.17,2,2,0,0,1,.71.47,2.4,2.4,0,0,1,.48.77,3,3,0,0,1,.17,1v4.32H98v-4.27a1.34,1.34,0,0,0-.12-.6,1.05,1.05,0,0,0-.31-.4,1.2,1.2,0,0,0-.42-.22,2,2,0,0,0-.48-.07,1.59,1.59,0,0,0-.5.08,2.2,2.2,0,0,0-.41.18,2,2,0,0,0-.32.23l-.22.24v4.83H94v-4.27a1.34,1.34,0,0,0-.12-.6,1.05,1.05,0,0,0-.31-.4,1.35,1.35,0,0,0-.43-.22,2,2,0,0,0-.48-.07,1.32,1.32,0,0,0-.53.1,1.67,1.67,0,0,0-.42.22,1.37,1.37,0,0,0-.31.26l-.19.2v4.78H89.91ZM104,323.47a2.79,2.79,0,0,0,.53,0,2.2,2.2,0,0,0,.41-.12,1.38,1.38,0,0,0,.33-.2,3.65,3.65,0,0,0,.32-.26l.9.8a3.27,3.27,0,0,1-.5.43,3.2,3.2,0,0,1-.57.32,3.28,3.28,0,0,1-.65.2,4.59,4.59,0,0,1-.77.07,2.86,2.86,0,0,1-1.29-.27,2.36,2.36,0,0,1-.9-.72,3,3,0,0,1-.54-1.08,5.37,5.37,0,0,1,0-2.68,3.15,3.15,0,0,1,.52-1.09,2.49,2.49,0,0,1,.86-.72,2.6,2.6,0,0,1,1.21-.27,2.53,2.53,0,0,1,1.2.27,2.41,2.41,0,0,1,.86.72,3.13,3.13,0,0,1,.51,1.09,4.77,4.77,0,0,1,.18,1.34v.48h-4.22a2.43,2.43,0,0,0,.14.66,1.77,1.77,0,0,0,.32.55,1.37,1.37,0,0,0,.48.38A1.46,1.46,0,0,0,104,323.47Zm-.14-4.44a1.34,1.34,0,0,0-.58.13,1.61,1.61,0,0,0-.43.35,1.83,1.83,0,0,0-.29.51,2.39,2.39,0,0,0-.14.6h2.87a3,3,0,0,0-.17-.6,1.67,1.67,0,0,0-.28-.51,1.19,1.19,0,0,0-.42-.35A1.25,1.25,0,0,0,103.86,319Zm4.58-1.12h1.27v.63h.07a2.25,2.25,0,0,1,.45-.35,4.76,4.76,0,0,1,.54-.24,2.33,2.33,0,0,1,.73-.11,2.44,2.44,0,0,1,.9.17,2.19,2.19,0,0,1,.72.47,2.26,2.26,0,0,1,.49.77,2.73,2.73,0,0,1,.18,1v4.32h-1.26v-4.27a1.33,1.33,0,0,0-.13-.6,1,1,0,0,0-.32-.4,1.3,1.3,0,0,0-.44-.22,2,2,0,0,0-.49-.07,1.7,1.7,0,0,0-.51.08,2,2,0,0,0-.42.18,2.09,2.09,0,0,0-.31.24,1.24,1.24,0,0,0-.2.21v4.85h-1.27Zm10,1.16h-1.07v3.85a1,1,0,0,0,0,.17.39.39,0,0,0,.06.15.43.43,0,0,0,.11.12.34.34,0,0,0,.18,0h.71v1.19h-1.1l-.31-.06a1.56,1.56,0,0,1-.33-.14,1.17,1.17,0,0,1-.3-.29,1.65,1.65,0,0,1-.21-.48,2.36,2.36,0,0,1-.08-.7v-3.85h-.65v-1.16h.65v-1.83h1.26v1.83h1.07Z" transform="translate(-16.77 -315.17)"/><path class="cls-4" d="M35.46,474.3c1.39,0,2.08,1.13,2.08,3.39a6.4,6.4,0,0,1-.15,1.47,3.5,3.5,0,0,1-.43,1.09,1.92,1.92,0,0,1-.7.66,1.82,1.82,0,0,1-.94.23,1.75,1.75,0,0,1-.89-.22,1.81,1.81,0,0,1-.65-.64,3.12,3.12,0,0,1-.41-1,6.43,6.43,0,0,1-.14-1.4,7,7,0,0,1,.15-1.53,3.52,3.52,0,0,1,.42-1.11,2,2,0,0,1,.7-.68,2,2,0,0,1,1-.23Zm-.06,6.2c.91,0,1.37-.91,1.37-2.73s-.45-2.83-1.35-2.83-1.41,1-1.41,2.88.46,2.68,1.39,2.68Zm3.56.63a.49.49,0,0,1-.36-.15.51.51,0,0,1-.15-.37.49.49,0,0,1,.15-.36.46.46,0,0,1,.36-.16.49.49,0,0,1,.37.16.49.49,0,0,1,.15.36.51.51,0,0,1-.52.52Zm4.94-6.72v4.37h.85v.69H43.9V481h-.75v-1.56H40v-.65c.29-.33.58-.68.88-1.05s.58-.74.85-1.13.51-.76.74-1.14a10.65,10.65,0,0,0,.58-1.09Zm-3,4.37h2.25v-3.24c-.23.4-.45.76-.65,1.08s-.41.61-.59.86l-.53.71Z" transform="translate(-16.77 -315.17)"/><g class="cls-2"><path class="cls-3" d="M1012,438.55h.79v.79H1012m-4.72-.79h.79v.79h-.79m-4.73-.79h.79v.79h-.79m-4.72-.79h.79v.79h-.79m-4.72-.79h.78v.79h-.78m-4.73-.79h.79v.79h-.79m-4.72-.79h.78v.79h-.78m-4.73-.79h.79v.79h-.79m-4.72-.79H975v.79h-.79m-4.73-.79h.79v.79h-.79m-4.72-.79h.79v.79h-.79m-4.72-.79h.78v.79H960m-4.73-.79h.79v.79h-.79m-4.72-.79h.78v.79h-.78m-4.73-.79h.79v.79h-.79m-4.72-.79h.79v.79h-.79m-4.73-.79h.79v.79h-.79m-4.72-.79h.79v.79h-.79m-4.72-.79h.78v.79H927m-4.73-.79H923v.79h-.79m-4.72-.79h.78v.79h-.78m-4.73-.79h.79v.79h-.79m-4.72-.79h.79v.79h-.79m-4.73-.79h.79v.79h-.79m-4.72-.79h.79v.79h-.79m-4.72-.79h.78v.79h-.78m-4.73-.79h.79v.79h-.79m-4.72-.79h.78v.79h-.78m-4.73-.79h.79v.79h-.79m-4.72-.79h.79v.79H875m-4.73-.79H871v.79h-.79m-4.72-.79h.79v.79h-.79m-4.73-.79h.79v.79h-.79m-4.72-.79h.79v.79h-.79m-4.72-.79h.78v.79h-.78m-4.73-.79h.79v.79h-.79m-4.72-.79h.78v.79h-.78m-4.73-.79H838v.79h-.79m-4.72-.79h.79v.79h-.79m-4.73-.79h.79v.79h-.79m-4.72-.79h.79v.79H823m-4.72-.79h.78v.79h-.78m-4.73-.79h.79v.79h-.79m-4.72-.79h.78v.79h-.78m-4.73-.79h.79v.79h-.79m-4.72-.79h.79v.79h-.79m-4.73-.79h.79v.79h-.79m-4.72-.79h.79v.79h-.79m-4.72-.79H786v.79h-.78m-4.73-.79h.79v.79h-.79m-4.72-.79h.78v.79h-.78m-4.73-.79h.79v.79H771m-4.72-.79h.79v.79h-.79m-4.73-.79h.79v.79h-.79m-4.72-.79h.79v.79h-.79m-4.72-.79h.78v.79h-.78m-4.73-.79h.79v.79h-.79m-4.72-.79h.78v.79h-.78m-4.73-.79h.79v.79H738m-4.72-.79H734v.79h-.79m-4.73-.79h.79v.79h-.79m-4.72-.79h.79v.79h-.79m-4.73-.79h.79v.79h-.79m-4.72-.79h.79v.79h-.79m-4.72-.79h.78v.79h-.78m-4.73-.79h.79v.79h-.79m-4.72-.79H701v.79h-.78m-4.73-.79h.79v.79h-.79m-4.72-.79h.79v.79h-.79m-4.73-.79h.79v.79H686m-4.72-.79h.79v.79h-.79m-4.72-.79h.78v.79h-.78m-4.73-.79h.79v.79h-.79m-4.72-.79h.78v.79h-.78m-4.73-.79h.79v.79h-.79m-4.72-.79h.79v.79h-.79m-4.73-.79h.79v.79h-.79m-4.72-.79H649v.79h-.79m-4.72-.79h.78v.79h-.78m-4.73-.79h.79v.79h-.79m-4.72-.79h.78v.79H634m-4.73-.79h.79v.79h-.79m-4.72-.79h.79v.79h-.79m-4.73-.79h.79v.79h-.79m-4.72-.79h.79v.79h-.79m-4.72-.79h.78v.79h-.78m-4.73-.79h.79v.79h-.79m-4.72-.79h.78v.79H601m-4.73-.79H597v.79h-.79m-4.72-.79h.79v.79h-.79m-4.73-.79h.79v.79h-.79m-4.72-.79h.79v.79h-.79m-4.72-.79h.78v.79h-.78m-4.73-.79h.79v.79h-.79m-4.72-.79h.78v.79h-.78m-4.73-.79H564v.79h-.79m-4.72-.79h.79v.79h-.79m-4.73-.79h.79v.79h-.79m-4.72-.79h.79v.79H549m-4.73-.79h.79v.79h-.79m-4.72-.79h.79v.79h-.79m-4.72-.79h.78v.79h-.78m-4.73-.79h.79v.79h-.79m-4.72-.79h.78v.79h-.78m-4.73-.79h.79v.79h-.79m-4.72-.79h.79v.79h-.79m-4.73-.79H512v.79h-.79m-4.72-.79h.79v.79h-.79m-4.72-.79h.78v.79h-.78m-4.73-.79h.79v.79H497m-4.72-.79h.78v.79h-.78m-4.73-.79h.79v.79h-.79m-4.72-.79h.79v.79h-.79m-4.73-.79h.79v.79h-.79m-4.72-.79h.79v.79h-.79m-4.72-.79h.78v.79h-.78m-4.73-.79h.79v.79H464m-4.72-.79H460v.79h-.78m-4.73-.79h.79v.79h-.79m-4.72-.79h.79v.79h-.79m-4.73-.79h.79v.79h-.79m-4.72-.79h.79v.79h-.79m-4.72-.79h.78v.79h-.78m-4.73-.79h.79v.79h-.79m-4.72-.79H427v.79h-.78m-4.73-.79h.79v.79h-.79m-4.72-.79h.79v.79h-.79m-4.73-.79h.79v.79H412m-4.72-.79h.79v.79h-.79m-4.72-.79h.78v.79h-.78m-4.73-.79h.79v.79h-.79m-4.72-.79h.78v.79h-.78m-4.73-.79h.79v.79h-.79m-4.72-.79h.79v.79h-.79m-4.73-.79h.79v.79h-.79m-4.72-.79H375v.79h-.79m-4.73-.79h.79v.79h-.79m-4.72-.79h.79v.79h-.79m-4.72-.79h.78v.79H360m-4.73-.79h.79v.79h-.79m-4.72-.79h.78v.79h-.78m-4.73-.79h.79v.79h-.79m-4.72-.79h.79v.79h-.79m-4.73-.79h.79v.79h-.79m-4.72-.79h.79v.79h-.79m-4.72-.79h.78v.79H327m-4.73-.79H323v.79h-.79m-4.72-.79h.78v.79h-.78m-4.73-.79h.79v.79h-.79m-4.72-.79h.79v.79h-.79m-4.73-.79h.79v.79h-.79m-4.72-.79h.79v.79h-.79m-4.72-.79h.78v.79h-.78m-4.73-.79H290v.79h-.79m-4.72-.79h.78v.79h-.78m-4.73-.79h.79v.79h-.79m-4.72-.79h.79v.79H275m-4.73-.79h.79v.79h-.79m-4.72-.79h.79v.79h-.79m-4.72-.79h.78v.79h-.78m-4.73-.79h.79v.79h-.79m-4.72-.79h.78v.79h-.78m-4.73-.79h.79v.79h-.79m-4.72-.79h.79v.79h-.79m-4.73-.79H238v.79h-.79m-4.72-.79h.79v.79h-.79m-4.73-.79h.79v.79h-.79m-4.72-.79h.79v.79H223m-4.72-.79h.78v.79h-.78m-4.73-.79h.79v.79h-.79m-4.72-.79h.78v.79h-.78m-4.73-.79h.79v.79h-.79m-4.72-.79h.79v.79h-.79m-4.73-.79h.79v.79h-.79m-4.72-.79h.79v.79H190m-4.72-.79H186v.79h-.78m-4.73-.79h.79v.79h-.79m-4.72-.79h.78v.79h-.78m-4.73-.79h.79v.79h-.79m-4.72-.79h.79v.79h-.79m-4.73-.79h.79v.79h-.79m-4.72-.79h.79v.79h-.79m-4.72-.79h.78v.79h-.78m-4.73-.79h.79v.79h-.79m-4.72-.79h.78v.79h-.78m-4.73-.79h.79v.79H138m-4.72-.79h.79v.79h-.79m-4.73-.79h.79v.79h-.79m-4.72-.79h.79v.79h-.79m-4.72-.79h.78v.79h-.78m-4.73-.79h.79v.79h-.79m-4.72-.79h.78v.79h-.78m-4.73-.79h.79v.79h-.79m-4.72-.79H101v.79h-.79m-4.73-.79h.79v.79h-.79m-4.72-.79h.79v.79h-.79M86,438.55h.78v.79H86m-4.73-.79h.79v.79h-.79m-4.72-.79h.78v.79h-.78m-4.73-.79h.79v.79h-.79m-4.72-.79h.79v.79h-.79m-4.73-.79h.79v.79h-.79m-4.72-.79h.79v.79h-.79m-4.73-.79h.79v.79h-.79" transform="translate(-16.77 -315.17)"/></g><path class="cls-4" d="M35.46,435.24c1.39,0,2.08,1.13,2.08,3.39a6.52,6.52,0,0,1-.15,1.47,3.34,3.34,0,0,1-.43,1.08,1.86,1.86,0,0,1-.7.67,1.82,1.82,0,0,1-.94.23,1.75,1.75,0,0,1-.89-.22,1.81,1.81,0,0,1-.65-.64,3.12,3.12,0,0,1-.41-1,6.5,6.5,0,0,1-.14-1.4,7,7,0,0,1,.15-1.53,3.59,3.59,0,0,1,.42-1.12,1.94,1.94,0,0,1,.7-.67,1.9,1.9,0,0,1,1-.23Zm-.06,6.2c.91,0,1.37-.92,1.37-2.74s-.45-2.82-1.35-2.82-1.41,1-1.41,2.87.46,2.69,1.39,2.69Zm3.56.63a.49.49,0,0,1-.36-.15.53.53,0,0,1,0-.74A.49.49,0,0,1,39,441a.51.51,0,0,1,.37.15.53.53,0,0,1,0,.74A.51.51,0,0,1,39,442.07Zm5.73-2.2a2.56,2.56,0,0,1-.15.89,2.19,2.19,0,0,1-.44.7,1.83,1.83,0,0,1-.66.46,2,2,0,0,1-.83.16,1.86,1.86,0,0,1-.89-.21,1.79,1.79,0,0,1-.67-.59,3,3,0,0,1-.42-1,5.42,5.42,0,0,1-.14-1.27,5.85,5.85,0,0,1,.19-1.56,3.85,3.85,0,0,1,.55-1.21,2.4,2.4,0,0,1,.85-.77,2.28,2.28,0,0,1,1.11-.27,2.65,2.65,0,0,1,1.1.19v.71a2.39,2.39,0,0,0-1.08-.26,1.64,1.64,0,0,0-.8.2,1.8,1.8,0,0,0-.61.56,2.68,2.68,0,0,0-.39.87,4.45,4.45,0,0,0-.14,1.14h0a1.59,1.59,0,0,1,1.51-.82,2.13,2.13,0,0,1,.78.14,1.71,1.71,0,0,1,.6.42,2,2,0,0,1,.38.65A2.37,2.37,0,0,1,44.69,439.87Zm-.77.09a2,2,0,0,0-.09-.62,1.41,1.41,0,0,0-.25-.47,1.12,1.12,0,0,0-.41-.3,1.33,1.33,0,0,0-.54-.1,1.27,1.27,0,0,0-.52.1,1.26,1.26,0,0,0-.69.72,1.25,1.25,0,0,0-.1.51,1.91,1.91,0,0,0,.1.64,1.51,1.51,0,0,0,.27.52,1.4,1.4,0,0,0,.42.35,1.19,1.19,0,0,0,.53.13,1.32,1.32,0,0,0,.53-.11,1.35,1.35,0,0,0,.4-.31,1.46,1.46,0,0,0,.26-.46A1.89,1.89,0,0,0,43.92,440Z" transform="translate(-16.77 -315.17)"/><g class="cls-2"><path class="cls-3" d="M1012,399.49h.79v.78H1012m-4.72-.78h.79v.78h-.79m-4.73-.78h.79v.78h-.79m-4.72-.78h.79v.78h-.79m-4.72-.78h.78v.78h-.78m-4.73-.78h.79v.78h-.79m-4.72-.78h.78v.78h-.78m-4.73-.78h.79v.78h-.79m-4.72-.78H975v.78h-.79m-4.73-.78h.79v.78h-.79m-4.72-.78h.79v.78h-.79m-4.72-.78h.78v.78H960m-4.73-.78h.79v.78h-.79m-4.72-.78h.78v.78h-.78m-4.73-.78h.79v.78h-.79m-4.72-.78h.79v.78h-.79m-4.73-.78h.79v.78h-.79m-4.72-.78h.79v.78h-.79m-4.72-.78h.78v.78H927m-4.73-.78H923v.78h-.79m-4.72-.78h.78v.78h-.78m-4.73-.78h.79v.78h-.79m-4.72-.78h.79v.78h-.79m-4.73-.78h.79v.78h-.79m-4.72-.78h.79v.78h-.79m-4.72-.78h.78v.78h-.78m-4.73-.78h.79v.78h-.79m-4.72-.78h.78v.78h-.78m-4.73-.78h.79v.78h-.79m-4.72-.78h.79v.78H875m-4.73-.78H871v.78h-.79m-4.72-.78h.79v.78h-.79m-4.73-.78h.79v.78h-.79m-4.72-.78h.79v.78h-.79m-4.72-.78h.78v.78h-.78m-4.73-.78h.79v.78h-.79m-4.72-.78h.78v.78h-.78m-4.73-.78H838v.78h-.79m-4.72-.78h.79v.78h-.79m-4.73-.78h.79v.78h-.79m-4.72-.78h.79v.78H823m-4.72-.78h.78v.78h-.78m-4.73-.78h.79v.78h-.79m-4.72-.78h.78v.78h-.78m-4.73-.78h.79v.78h-.79m-4.72-.78h.79v.78h-.79m-4.73-.78h.79v.78h-.79m-4.72-.78h.79v.78h-.79m-4.72-.78H786v.78h-.78m-4.73-.78h.79v.78h-.79m-4.72-.78h.78v.78h-.78m-4.73-.78h.79v.78H771m-4.72-.78h.79v.78h-.79m-4.73-.78h.79v.78h-.79m-4.72-.78h.79v.78h-.79m-4.72-.78h.78v.78h-.78m-4.73-.78h.79v.78h-.79m-4.72-.78h.78v.78h-.78m-4.73-.78h.79v.78H738m-4.72-.78H734v.78h-.79m-4.73-.78h.79v.78h-.79m-4.72-.78h.79v.78h-.79m-4.73-.78h.79v.78h-.79m-4.72-.78h.79v.78h-.79m-4.72-.78h.78v.78h-.78m-4.73-.78h.79v.78h-.79m-4.72-.78H701v.78h-.78m-4.73-.78h.79v.78h-.79m-4.72-.78h.79v.78h-.79m-4.73-.78h.79v.78H686m-4.72-.78h.79v.78h-.79m-4.72-.78h.78v.78h-.78m-4.73-.78h.79v.78h-.79m-4.72-.78h.78v.78h-.78m-4.73-.78h.79v.78h-.79m-4.72-.78h.79v.78h-.79m-4.73-.78h.79v.78h-.79m-4.72-.78H649v.78h-.79m-4.72-.78h.78v.78h-.78m-4.73-.78h.79v.78h-.79m-4.72-.78h.78v.78H634m-4.73-.78h.79v.78h-.79m-4.72-.78h.79v.78h-.79m-4.73-.78h.79v.78h-.79m-4.72-.78h.79v.78h-.79m-4.72-.78h.78v.78h-.78m-4.73-.78h.79v.78h-.79m-4.72-.78h.78v.78H601m-4.73-.78H597v.78h-.79m-4.72-.78h.79v.78h-.79m-4.73-.78h.79v.78h-.79m-4.72-.78h.79v.78h-.79m-4.72-.78h.78v.78h-.78m-4.73-.78h.79v.78h-.79m-4.72-.78h.78v.78h-.78m-4.73-.78H564v.78h-.79m-4.72-.78h.79v.78h-.79m-4.73-.78h.79v.78h-.79m-4.72-.78h.79v.78H549m-4.73-.78h.79v.78h-.79m-4.72-.78h.79v.78h-.79m-4.72-.78h.78v.78h-.78m-4.73-.78h.79v.78h-.79m-4.72-.78h.78v.78h-.78m-4.73-.78h.79v.78h-.79m-4.72-.78h.79v.78h-.79m-4.73-.78H512v.78h-.79m-4.72-.78h.79v.78h-.79m-4.72-.78h.78v.78h-.78m-4.73-.78h.79v.78H497m-4.72-.78h.78v.78h-.78m-4.73-.78h.79v.78h-.79m-4.72-.78h.79v.78h-.79m-4.73-.78h.79v.78h-.79m-4.72-.78h.79v.78h-.79m-4.72-.78h.78v.78h-.78m-4.73-.78h.79v.78H464m-4.72-.78H460v.78h-.78m-4.73-.78h.79v.78h-.79m-4.72-.78h.79v.78h-.79m-4.73-.78h.79v.78h-.79m-4.72-.78h.79v.78h-.79m-4.72-.78h.78v.78h-.78m-4.73-.78h.79v.78h-.79m-4.72-.78H427v.78h-.78m-4.73-.78h.79v.78h-.79m-4.72-.78h.79v.78h-.79m-4.73-.78h.79v.78H412m-4.72-.78h.79v.78h-.79m-4.72-.78h.78v.78h-.78m-4.73-.78h.79v.78h-.79m-4.72-.78h.78v.78h-.78m-4.73-.78h.79v.78h-.79m-4.72-.78h.79v.78h-.79m-4.73-.78h.79v.78h-.79m-4.72-.78H375v.78h-.79m-4.73-.78h.79v.78h-.79m-4.72-.78h.79v.78h-.79m-4.72-.78h.78v.78H360m-4.73-.78h.79v.78h-.79m-4.72-.78h.78v.78h-.78m-4.73-.78h.79v.78h-.79m-4.72-.78h.79v.78h-.79m-4.73-.78h.79v.78h-.79m-4.72-.78h.79v.78h-.79m-4.72-.78h.78v.78H327m-4.73-.78H323v.78h-.79m-4.72-.78h.78v.78h-.78m-4.73-.78h.79v.78h-.79m-4.72-.78h.79v.78h-.79m-4.73-.78h.79v.78h-.79m-4.72-.78h.79v.78h-.79m-4.72-.78h.78v.78h-.78m-4.73-.78H290v.78h-.79m-4.72-.78h.78v.78h-.78m-4.73-.78h.79v.78h-.79m-4.72-.78h.79v.78H275m-4.73-.78h.79v.78h-.79m-4.72-.78h.79v.78h-.79m-4.72-.78h.78v.78h-.78m-4.73-.78h.79v.78h-.79m-4.72-.78h.78v.78h-.78m-4.73-.78h.79v.78h-.79m-4.72-.78h.79v.78h-.79m-4.73-.78H238v.78h-.79m-4.72-.78h.79v.78h-.79m-4.73-.78h.79v.78h-.79m-4.72-.78h.79v.78H223m-4.72-.78h.78v.78h-.78m-4.73-.78h.79v.78h-.79m-4.72-.78h.78v.78h-.78m-4.73-.78h.79v.78h-.79m-4.72-.78h.79v.78h-.79m-4.73-.78h.79v.78h-.79m-4.72-.78h.79v.78H190m-4.72-.78H186v.78h-.78m-4.73-.78h.79v.78h-.79m-4.72-.78h.78v.78h-.78m-4.73-.78h.79v.78h-.79m-4.72-.78h.79v.78h-.79m-4.73-.78h.79v.78h-.79m-4.72-.78h.79v.78h-.79m-4.72-.78h.78v.78h-.78m-4.73-.78h.79v.78h-.79m-4.72-.78h.78v.78h-.78m-4.73-.78h.79v.78H138m-4.72-.78h.79v.78h-.79m-4.73-.78h.79v.78h-.79m-4.72-.78h.79v.78h-.79m-4.72-.78h.78v.78h-.78m-4.73-.78h.79v.78h-.79m-4.72-.78h.78v.78h-.78m-4.73-.78h.79v.78h-.79m-4.72-.78H101v.78h-.79m-4.73-.78h.79v.78h-.79m-4.72-.78h.79v.78h-.79M86,399.49h.78v.78H86m-4.73-.78h.79v.78h-.79m-4.72-.78h.78v.78h-.78m-4.73-.78h.79v.78h-.79m-4.72-.78h.79v.78h-.79m-4.73-.78h.79v.78h-.79m-4.72-.78h.79v.78h-.79m-4.73-.78h.79v.78h-.79" transform="translate(-16.77 -315.17)"/></g><path class="cls-4" d="M35.46,396.18c1.39,0,2.08,1.13,2.08,3.39a6.52,6.52,0,0,1-.15,1.47,3.34,3.34,0,0,1-.43,1.08,1.86,1.86,0,0,1-.7.67,1.92,1.92,0,0,1-.94.23,1.75,1.75,0,0,1-.89-.22,1.89,1.89,0,0,1-.65-.64,3.12,3.12,0,0,1-.41-1,6.5,6.5,0,0,1-.14-1.4,7,7,0,0,1,.15-1.53,3.49,3.49,0,0,1,.42-1.12,1.94,1.94,0,0,1,.7-.67,1.9,1.9,0,0,1,1-.23Zm-.06,6.19c.91,0,1.37-.91,1.37-2.73s-.45-2.82-1.35-2.82-1.41,1-1.41,2.87.46,2.68,1.39,2.68ZM39,403a.46.46,0,0,1-.36-.16.49.49,0,0,1-.15-.36.53.53,0,0,1,.15-.37A.49.49,0,0,1,39,402a.51.51,0,0,1,.37.15.53.53,0,0,1,.15.37.49.49,0,0,1-.15.36A.49.49,0,0,1,39,403Zm1.43-1.95a1.64,1.64,0,0,1,.09-.53,1.89,1.89,0,0,1,.23-.5,2.19,2.19,0,0,1,.39-.42,2,2,0,0,1,.52-.3,2,2,0,0,1-.69-.61,1.45,1.45,0,0,1-.25-.83,1.69,1.69,0,0,1,.14-.68,1.55,1.55,0,0,1,.39-.53,2,2,0,0,1,.59-.36,2.21,2.21,0,0,1,.74-.12,2,2,0,0,1,.74.13,1.65,1.65,0,0,1,.59.35,1.5,1.5,0,0,1,.39.54,1.64,1.64,0,0,1,.14.67,1.46,1.46,0,0,1-.26.83,2,2,0,0,1-.67.61,1.91,1.91,0,0,1,.89.72,1.65,1.65,0,0,1,.24.5,1.63,1.63,0,0,1,.08.53,2,2,0,0,1-.15.79,1.84,1.84,0,0,1-.44.62,2.18,2.18,0,0,1-.68.4,2.74,2.74,0,0,1-.87.14,2.58,2.58,0,0,1-.86-.14,2.07,2.07,0,0,1-.68-.4,1.87,1.87,0,0,1-.45-.62A2,2,0,0,1,40.39,401.06Zm.82-.07a1.6,1.6,0,0,0,.1.56,1.12,1.12,0,0,0,.27.43,1.27,1.27,0,0,0,.42.27,1.53,1.53,0,0,0,.54.09,1.37,1.37,0,0,0,.54-.1,1.17,1.17,0,0,0,.42-.27,1.24,1.24,0,0,0,.28-.42,1.64,1.64,0,0,0,.1-.56,1.55,1.55,0,0,0-.1-.52,1.17,1.17,0,0,0-.27-.42,1.37,1.37,0,0,0-.42-.29,1.36,1.36,0,0,0-1.5.27,1.32,1.32,0,0,0-.27.42A1.41,1.41,0,0,0,41.21,401Zm.24-3.06a1.22,1.22,0,0,0,.08.43,1.09,1.09,0,0,0,.24.35,1.21,1.21,0,0,0,.35.24,1.16,1.16,0,0,0,.42.08,1,1,0,0,0,.78-.32,1.18,1.18,0,0,0,.23-.35,1.07,1.07,0,0,0,.09-.43,1.33,1.33,0,0,0-.08-.45,1.21,1.21,0,0,0-.24-.35,1.07,1.07,0,0,0-.35-.23,1,1,0,0,0-.43-.09,1,1,0,0,0-.44.09,1.09,1.09,0,0,0-.35.24,1,1,0,0,0-.22.35A1.27,1.27,0,0,0,41.45,397.93Z" transform="translate(-16.77 -315.17)"/><g class="cls-2"><path class="cls-3" d="M1012,360.43h.79v.78H1012m-4.72-.78h.79v.78h-.79m-4.73-.78h.79v.78h-.79m-4.72-.78h.79v.78h-.79m-4.72-.78h.78v.78h-.78m-4.73-.78h.79v.78h-.79m-4.72-.78h.78v.78h-.78m-4.73-.78h.79v.78h-.79m-4.72-.78H975v.78h-.79m-4.73-.78h.79v.78h-.79m-4.72-.78h.79v.78h-.79m-4.72-.78h.78v.78H960m-4.73-.78h.79v.78h-.79m-4.72-.78h.78v.78h-.78m-4.73-.78h.79v.78h-.79m-4.72-.78h.79v.78h-.79m-4.73-.78h.79v.78h-.79m-4.72-.78h.79v.78h-.79m-4.72-.78h.78v.78H927m-4.73-.78H923v.78h-.79m-4.72-.78h.78v.78h-.78m-4.73-.78h.79v.78h-.79m-4.72-.78h.79v.78h-.79m-4.73-.78h.79v.78h-.79m-4.72-.78h.79v.78h-.79m-4.72-.78h.78v.78h-.78m-4.73-.78h.79v.78h-.79m-4.72-.78h.78v.78h-.78m-4.73-.78h.79v.78h-.79m-4.72-.78h.79v.78H875m-4.73-.78H871v.78h-.79m-4.72-.78h.79v.78h-.79m-4.73-.78h.79v.78h-.79m-4.72-.78h.79v.78h-.79m-4.72-.78h.78v.78h-.78m-4.73-.78h.79v.78h-.79m-4.72-.78h.78v.78h-.78m-4.73-.78H838v.78h-.79m-4.72-.78h.79v.78h-.79m-4.73-.78h.79v.78h-.79m-4.72-.78h.79v.78H823m-4.72-.78h.78v.78h-.78m-4.73-.78h.79v.78h-.79m-4.72-.78h.78v.78h-.78m-4.73-.78h.79v.78h-.79m-4.72-.78h.79v.78h-.79m-4.73-.78h.79v.78h-.79m-4.72-.78h.79v.78h-.79m-4.72-.78H786v.78h-.78m-4.73-.78h.79v.78h-.79m-4.72-.78h.78v.78h-.78m-4.73-.78h.79v.78H771m-4.72-.78h.79v.78h-.79m-4.73-.78h.79v.78h-.79m-4.72-.78h.79v.78h-.79m-4.72-.78h.78v.78h-.78m-4.73-.78h.79v.78h-.79m-4.72-.78h.78v.78h-.78m-4.73-.78h.79v.78H738m-4.72-.78H734v.78h-.79m-4.73-.78h.79v.78h-.79m-4.72-.78h.79v.78h-.79m-4.73-.78h.79v.78h-.79m-4.72-.78h.79v.78h-.79m-4.72-.78h.78v.78h-.78m-4.73-.78h.79v.78h-.79m-4.72-.78H701v.78h-.78m-4.73-.78h.79v.78h-.79m-4.72-.78h.79v.78h-.79m-4.73-.78h.79v.78H686m-4.72-.78h.79v.78h-.79m-4.72-.78h.78v.78h-.78m-4.73-.78h.79v.78h-.79m-4.72-.78h.78v.78h-.78m-4.73-.78h.79v.78h-.79m-4.72-.78h.79v.78h-.79m-4.73-.78h.79v.78h-.79m-4.72-.78H649v.78h-.79m-4.72-.78h.78v.78h-.78m-4.73-.78h.79v.78h-.79m-4.72-.78h.78v.78H634m-4.73-.78h.79v.78h-.79m-4.72-.78h.79v.78h-.79m-4.73-.78h.79v.78h-.79m-4.72-.78h.79v.78h-.79m-4.72-.78h.78v.78h-.78m-4.73-.78h.79v.78h-.79m-4.72-.78h.78v.78H601m-4.73-.78H597v.78h-.79m-4.72-.78h.79v.78h-.79m-4.73-.78h.79v.78h-.79m-4.72-.78h.79v.78h-.79m-4.72-.78h.78v.78h-.78m-4.73-.78h.79v.78h-.79m-4.72-.78h.78v.78h-.78m-4.73-.78H564v.78h-.79m-4.72-.78h.79v.78h-.79m-4.73-.78h.79v.78h-.79m-4.72-.78h.79v.78H549m-4.73-.78h.79v.78h-.79m-4.72-.78h.79v.78h-.79m-4.72-.78h.78v.78h-.78m-4.73-.78h.79v.78h-.79m-4.72-.78h.78v.78h-.78m-4.73-.78h.79v.78h-.79m-4.72-.78h.79v.78h-.79m-4.73-.78H512v.78h-.79m-4.72-.78h.79v.78h-.79m-4.72-.78h.78v.78h-.78m-4.73-.78h.79v.78H497m-4.72-.78h.78v.78h-.78m-4.73-.78h.79v.78h-.79m-4.72-.78h.79v.78h-.79m-4.73-.78h.79v.78h-.79m-4.72-.78h.79v.78h-.79m-4.72-.78h.78v.78h-.78m-4.73-.78h.79v.78H464m-4.72-.78H460v.78h-.78m-4.73-.78h.79v.78h-.79m-4.72-.78h.79v.78h-.79m-4.73-.78h.79v.78h-.79m-4.72-.78h.79v.78h-.79m-4.72-.78h.78v.78h-.78m-4.73-.78h.79v.78h-.79m-4.72-.78H427v.78h-.78m-4.73-.78h.79v.78h-.79m-4.72-.78h.79v.78h-.79m-4.73-.78h.79v.78H412m-4.72-.78h.79v.78h-.79m-4.72-.78h.78v.78h-.78m-4.73-.78h.79v.78h-.79m-4.72-.78h.78v.78h-.78m-4.73-.78h.79v.78h-.79m-4.72-.78h.79v.78h-.79m-4.73-.78h.79v.78h-.79m-4.72-.78H375v.78h-.79m-4.73-.78h.79v.78h-.79m-4.72-.78h.79v.78h-.79m-4.72-.78h.78v.78H360m-4.73-.78h.79v.78h-.79m-4.72-.78h.78v.78h-.78m-4.73-.78h.79v.78h-.79m-4.72-.78h.79v.78h-.79m-4.73-.78h.79v.78h-.79m-4.72-.78h.79v.78h-.79m-4.72-.78h.78v.78H327m-4.73-.78H323v.78h-.79m-4.72-.78h.78v.78h-.78m-4.73-.78h.79v.78h-.79m-4.72-.78h.79v.78h-.79m-4.73-.78h.79v.78h-.79m-4.72-.78h.79v.78h-.79m-4.72-.78h.78v.78h-.78m-4.73-.78H290v.78h-.79m-4.72-.78h.78v.78h-.78m-4.73-.78h.79v.78h-.79m-4.72-.78h.79v.78H275m-4.73-.78h.79v.78h-.79m-4.72-.78h.79v.78h-.79m-4.72-.78h.78v.78h-.78m-4.73-.78h.79v.78h-.79m-4.72-.78h.78v.78h-.78m-4.73-.78h.79v.78h-.79m-4.72-.78h.79v.78h-.79m-4.73-.78H238v.78h-.79m-4.72-.78h.79v.78h-.79m-4.73-.78h.79v.78h-.79m-4.72-.78h.79v.78H223m-4.72-.78h.78v.78h-.78m-4.73-.78h.79v.78h-.79m-4.72-.78h.78v.78h-.78m-4.73-.78h.79v.78h-.79m-4.72-.78h.79v.78h-.79m-4.73-.78h.79v.78h-.79m-4.72-.78h.79v.78H190m-4.72-.78H186v.78h-.78m-4.73-.78h.79v.78h-.79m-4.72-.78h.78v.78h-.78m-4.73-.78h.79v.78h-.79m-4.72-.78h.79v.78h-.79m-4.73-.78h.79v.78h-.79m-4.72-.78h.79v.78h-.79m-4.72-.78h.78v.78h-.78m-4.73-.78h.79v.78h-.79m-4.72-.78h.78v.78h-.78m-4.73-.78h.79v.78H138m-4.72-.78h.79v.78h-.79m-4.73-.78h.79v.78h-.79m-4.72-.78h.79v.78h-.79m-4.72-.78h.78v.78h-.78m-4.73-.78h.79v.78h-.79m-4.72-.78h.78v.78h-.78m-4.73-.78h.79v.78h-.79m-4.72-.78H101v.78h-.79m-4.73-.78h.79v.78h-.79m-4.72-.78h.79v.78h-.79M86,360.43h.78v.78H86m-4.73-.78h.79v.78h-.79m-4.72-.78h.78v.78h-.78m-4.73-.78h.79v.78h-.79m-4.72-.78h.79v.78h-.79m-4.73-.78h.79v.78h-.79m-4.72-.78h.79v.78h-.79m-4.73-.78h.79v.78h-.79" transform="translate(-16.77 -315.17)"/></g><path class="cls-4" d="M36.18,363.84h-.76v-5.71a2.74,2.74,0,0,1-.26.2,4.27,4.27,0,0,1-.38.22l-.44.21-.45.15v-.77a3.69,3.69,0,0,0,.53-.18q.27-.12.54-.27a4.27,4.27,0,0,0,.51-.3c.16-.11.3-.21.42-.31h.29Zm2.78.1a.51.51,0,0,1-.51-.51.51.51,0,0,1,.15-.37.49.49,0,0,1,.36-.15.51.51,0,0,1,.52.52.49.49,0,0,1-.15.36A.51.51,0,0,1,39,363.94Zm3.64-6.82c1.39,0,2.08,1.13,2.08,3.39a6.52,6.52,0,0,1-.15,1.47,3.34,3.34,0,0,1-.43,1.08,2,2,0,0,1-.7.67,1.92,1.92,0,0,1-.94.23,1.72,1.72,0,0,1-.88-.22,1.92,1.92,0,0,1-.66-.64,3.36,3.36,0,0,1-.41-1,6.57,6.57,0,0,1-.14-1.4,7,7,0,0,1,.15-1.53A3.49,3.49,0,0,1,41,358a1.9,1.9,0,0,1,.7-.68,1.93,1.93,0,0,1,1-.22Zm-.06,6.19c.91,0,1.37-.91,1.37-2.73s-.45-2.82-1.34-2.82-1.42.95-1.42,2.87.46,2.68,1.39,2.68Z" transform="translate(-16.77 -315.17)"/><path class="cls-4" d="M526,580.4v3.29h-1.11V580.4l-2.42-4.73h1.23l1.68,3.46h.12l1.68-3.46h1.23Zm4.93,2.33a2,2,0,0,0,.45,0,1.61,1.61,0,0,0,.35-.1,2,2,0,0,0,.29-.17l.27-.23.77.69a3.67,3.67,0,0,1-.43.37,2.27,2.27,0,0,1-.48.27,2.6,2.6,0,0,1-.56.17,3.37,3.37,0,0,1-.66.06,2.53,2.53,0,0,1-1.11-.23,2.11,2.11,0,0,1-.77-.61,2.62,2.62,0,0,1-.46-.93,4.21,4.21,0,0,1-.15-1.15,4.65,4.65,0,0,1,.14-1.15,2.69,2.69,0,0,1,.45-.93,2.1,2.1,0,0,1,.74-.62,2.44,2.44,0,0,1,2.07,0,2,2,0,0,1,.73.62,2.51,2.51,0,0,1,.44.93,4.21,4.21,0,0,1,.15,1.15v.41h-3.62a2.08,2.08,0,0,0,.13.56,1.33,1.33,0,0,0,.27.48,1.23,1.23,0,0,0,.42.32A1.14,1.14,0,0,0,531,582.73Zm-.12-3.81a1.15,1.15,0,0,0-.5.11,1.17,1.17,0,0,0-.37.3,1.57,1.57,0,0,0-.25.44,2.11,2.11,0,0,0-.12.51h2.46a3.07,3.07,0,0,0-.14-.52,1.49,1.49,0,0,0-.24-.43,1,1,0,0,0-.36-.3A1.06,1.06,0,0,0,530.84,578.92Zm5.69-1a3.43,3.43,0,0,1,1.08.15,2.09,2.09,0,0,1,.75.42,1.62,1.62,0,0,1,.42.64,2.32,2.32,0,0,1,.14.8v3.78H537.8v-.42h-.06l-.34.2a1.66,1.66,0,0,1-.33.15l-.38.1a3.43,3.43,0,0,1-.48,0,2.57,2.57,0,0,1-.75-.1,1.47,1.47,0,0,1-.59-.32,1.38,1.38,0,0,1-.39-.53,1.81,1.81,0,0,1-.14-.76,1.61,1.61,0,0,1,.16-.76,1.46,1.46,0,0,1,.44-.51,2,2,0,0,1,.67-.29,3.25,3.25,0,0,1,.85-.1h.78l.27,0,.29,0V580a1.31,1.31,0,0,0-.06-.38,1,1,0,0,0-.2-.34,1,1,0,0,0-.38-.25,1.51,1.51,0,0,0-.6-.1l-.37,0-.28.07a1,1,0,0,0-.23.12l-.22.16-.86-.58a2,2,0,0,1,.33-.32,1.94,1.94,0,0,1,.42-.25,2.54,2.54,0,0,1,.53-.16A4.19,4.19,0,0,1,536.53,577.9Zm1.27,3.25-.58.05-.6,0a1.72,1.72,0,0,0-.6.09.88.88,0,0,0-.37.21.75.75,0,0,0-.23.52,2.5,2.5,0,0,0,0,.25.58.58,0,0,0,.13.26.87.87,0,0,0,.3.2,1.66,1.66,0,0,0,.56.08,2.13,2.13,0,0,0,.67-.09,1.38,1.38,0,0,0,.42-.22.69.69,0,0,0,.22-.27.6.6,0,0,0,.06-.24Zm2.84-3.19h1.08v.54h.06a1.74,1.74,0,0,1,.36-.3,3.44,3.44,0,0,1,.39-.21,1.35,1.35,0,0,1,.5-.09,2.15,2.15,0,0,1,.6.07,3.2,3.2,0,0,1,.47.16,2.18,2.18,0,0,1,.4.22l-.65.87-.26-.15-.3-.1a1.6,1.6,0,0,0-.39-.05,1.4,1.4,0,0,0-.43.06,2.16,2.16,0,0,0-.34.16,1.69,1.69,0,0,0-.24.2l-.17.19v4.16h-1.08Z" transform="translate(-16.77 -315.17)"/><path class="cls-4" d="M18.1,482.83a3.08,3.08,0,0,1,.11-.9,2.63,2.63,0,0,1,.29-.7,2.89,2.89,0,0,1,.42-.53,2.33,2.33,0,0,1,.5-.36,2.3,2.3,0,0,1,.51-.23,2.4,2.4,0,0,1,.48-.12v1.13a1.7,1.7,0,0,0-.41.17,1.24,1.24,0,0,0-.41.32,1.64,1.64,0,0,0-.32.51,1.73,1.73,0,0,0-.13.71,2,2,0,0,0,.09.62,1.8,1.8,0,0,0,.23.46,1.68,1.68,0,0,0,.32.33,1.82,1.82,0,0,0,.36.2,1.74,1.74,0,0,0,.34.12l.29,0h2.8a1.86,1.86,0,0,0,.45-.08,1.57,1.57,0,0,0,.53-.27,1.51,1.51,0,0,0,.45-.54,1.75,1.75,0,0,0,.19-.87,1.73,1.73,0,0,0-.13-.71,1.83,1.83,0,0,0-.31-.51,1.38,1.38,0,0,0-.42-.32,1.55,1.55,0,0,0-.41-.17V480l.48.12a2.87,2.87,0,0,1,.51.23,3.31,3.31,0,0,1,.5.36,2.18,2.18,0,0,1,.42.52,2.78,2.78,0,0,1,.29.7,3.18,3.18,0,0,1,.12.91,3.13,3.13,0,0,1-.15,1,2.56,2.56,0,0,1-.37.76,2.38,2.38,0,0,1-.52.53,3.13,3.13,0,0,1-1.16.51,3.14,3.14,0,0,1-.47.05h-2.8a3.26,3.26,0,0,1-.48-.05,2.86,2.86,0,0,1-.57-.18,2.67,2.67,0,0,1-.59-.33,2.38,2.38,0,0,1-.52-.53,2.83,2.83,0,0,1-.37-.76A3.15,3.15,0,0,1,18.1,482.83Zm8.07-27.36v1.08h-.41v.06l.2.35c.05.1.1.22.15.34a2.23,2.23,0,0,1,.09.39,3.06,3.06,0,0,1,0,.47,1.83,1.83,0,0,1-.17.79,1.77,1.77,0,0,1-.46.58,2.23,2.23,0,0,1-.68.37,2.76,2.76,0,0,1-.82.12H22.54a2.84,2.84,0,0,1-.84-.12,2.12,2.12,0,0,1-.68-.37,1.67,1.67,0,0,1-.47-.58,1.83,1.83,0,0,1-.17-.79,2.87,2.87,0,0,1,0-.44,2.22,2.22,0,0,1,.12-.39,2.83,2.83,0,0,1,.16-.36l.18-.36v-.06H18.16v-1.08Zm-6.93,6.13v1.08H18.16V461.6Zm2.2,2.37v.93h4.73V466H21.44v.55h-1V466h-.86a2.47,2.47,0,0,1-.6-.07,1.3,1.3,0,0,1-.41-.19.81.81,0,0,1-.24-.25,1.38,1.38,0,0,1-.13-.28,1.28,1.28,0,0,1-.05-.27V464h1v.62a.24.24,0,0,0,0,.15.28.28,0,0,0,.1.09.21.21,0,0,0,.13.05l.14,0h.86V464Zm3.77-30.42a3,3,0,0,0,0-.45,1.6,1.6,0,0,0-.11-.35,1.05,1.05,0,0,0-.17-.29c-.06-.09-.14-.18-.22-.28l.69-.77a3,3,0,0,1,.64.92,3.06,3.06,0,0,1,.17.56,3.37,3.37,0,0,1,.06.66,2.53,2.53,0,0,1-.23,1.11,2.13,2.13,0,0,1-.62.77,2.57,2.57,0,0,1-.92.46,4.52,4.52,0,0,1-2.31,0,2.66,2.66,0,0,1-.93-.44,2.21,2.21,0,0,1-.62-.74,2.28,2.28,0,0,1-.23-1,2.23,2.23,0,0,1,.23-1,2.12,2.12,0,0,1,.62-.74,3.07,3.07,0,0,1,.93-.44,4.71,4.71,0,0,1,1.15-.14h.42v3.61a1.81,1.81,0,0,0,.56-.12,1.45,1.45,0,0,0,.47-.27,1.14,1.14,0,0,0,.33-.42A1.26,1.26,0,0,0,25.21,433.55Zm-1.9,8.11a3.9,3.9,0,0,1-1.15-.17,2.93,2.93,0,0,1-.93-.48,2.39,2.39,0,0,1-.62-.79,2.52,2.52,0,0,1-.23-1.08,2.74,2.74,0,0,1,.14-.92,4,4,0,0,1,.3-.62,2.23,2.23,0,0,1,.43-.48l.69.77a1.35,1.35,0,0,0-.26.32,1.5,1.5,0,0,0-.19.38,1.44,1.44,0,0,0-.08.53,1.13,1.13,0,0,0,.16.61,1.45,1.45,0,0,0,.43.46,2,2,0,0,0,.61.29,2.82,2.82,0,0,0,.7.1,2.77,2.77,0,0,0,.71-.1,1.86,1.86,0,0,0,.6-.29,1.45,1.45,0,0,0,.43-.46,1.13,1.13,0,0,0,.16-.61,1.44,1.44,0,0,0-.08-.53,1.49,1.49,0,0,0-.18-.38,1.69,1.69,0,0,0-.27-.32l.69-.77a2,2,0,0,1,.43.48,2.76,2.76,0,0,1,.3.62,2.7,2.7,0,0,1,.14.92,2.52,2.52,0,0,1-.23,1.08,2.39,2.39,0,0,1-.62.79,2.73,2.73,0,0,1-.93.48A3.85,3.85,0,0,1,23.31,441.66Zm-2.86,5.94v-1.09H21v-.06a1.65,1.65,0,0,1-.29-.39,2.12,2.12,0,0,1-.31-1.09,1.91,1.91,0,0,1,.15-.76,1.76,1.76,0,0,1,.41-.63,1.85,1.85,0,0,1,.65-.41,2.23,2.23,0,0,1,.88-.16h3.7v1.08H22.51a1.21,1.21,0,0,0-.52.11,1,1,0,0,0-.34.27,1.35,1.35,0,0,0-.19.38,2,2,0,0,0-.05.42,1.49,1.49,0,0,0,.22.8,1.18,1.18,0,0,0,.2.27,1.37,1.37,0,0,0,.19.17h4.15v1.09Zm4.76,3.8a3,3,0,0,0,0-.45,1.79,1.79,0,0,0-.11-.35,1.22,1.22,0,0,0-.17-.29,2.61,2.61,0,0,0-.22-.27l.69-.77a3.67,3.67,0,0,1,.37.43,3.27,3.27,0,0,1,.27.49,2.83,2.83,0,0,1,.17.56,3.34,3.34,0,0,1,.06.65,2.53,2.53,0,0,1-.23,1.11,2.26,2.26,0,0,1-.62.78,2.72,2.72,0,0,1-.92.45,3.92,3.92,0,0,1-1.16.16,4.26,4.26,0,0,1-1.15-.15,2.87,2.87,0,0,1-.93-.45,2.12,2.12,0,0,1-.62-.74,2.44,2.44,0,0,1,0-2.07,2.09,2.09,0,0,1,.62-.73,2.85,2.85,0,0,1,.93-.44,4.26,4.26,0,0,1,1.15-.15h.42v3.62a2.17,2.17,0,0,0,.56-.13,1.29,1.29,0,0,0,.47-.27,1.2,1.2,0,0,0,.33-.41A1.34,1.34,0,0,0,25.21,451.4Zm-4.76,21v-1.09H21v-.06a1.82,1.82,0,0,1-.29-.38,2.29,2.29,0,0,1-.21-.47,2,2,0,0,1,.05-1.39,1.64,1.64,0,0,1,.41-.62,1.74,1.74,0,0,1,.65-.42,2.42,2.42,0,0,1,.88-.16h3.7v1.09H22.51a1.21,1.21,0,0,0-.52.1.93.93,0,0,0-.34.28,1.18,1.18,0,0,0-.19.37,2,2,0,0,0-.05.42,1.63,1.63,0,0,0,.06.45,2,2,0,0,0,.16.36,1.37,1.37,0,0,0,.2.26.93.93,0,0,0,.19.17h4.15v1.09Zm2.59,6.3a3.78,3.78,0,0,1-1.05-.17,2.72,2.72,0,0,1-.58-.26,2,2,0,0,1-.52-.43,2,2,0,0,1-.36-.63,2.33,2.33,0,0,1-.15-.87,2.26,2.26,0,0,1,.15-.87,2.09,2.09,0,0,1,.36-.64,2,2,0,0,1,.52-.43,3.33,3.33,0,0,1,.58-.26,2.93,2.93,0,0,1,.57-.13,4.64,4.64,0,0,1,.48,0h.56a4.7,4.7,0,0,1,.47,0,3.3,3.3,0,0,1,.57.13,3.69,3.69,0,0,1,.58.26,2.08,2.08,0,0,1,.51.43,2.34,2.34,0,0,1,.37.64,2.48,2.48,0,0,1,.14.87,2.33,2.33,0,0,1-.15.87,2,2,0,0,1-.36.63,2,2,0,0,1-.52.43,2.72,2.72,0,0,1-.58.26,3.78,3.78,0,0,1-1.05.17Zm3.13-17.11v1.08H20.45V461.6Zm-.93-3.76a1.41,1.41,0,0,0-.11-.62,1.08,1.08,0,0,0-.27-.4,1.2,1.2,0,0,0-.34-.21.94.94,0,0,0-.31-.06H22a3.25,3.25,0,0,0-.23.29,1.49,1.49,0,0,0-.2.31,1.43,1.43,0,0,0-.14.34,1,1,0,0,0-.05.35,1.22,1.22,0,0,0,.1.53,1,1,0,0,0,.27.34,1.33,1.33,0,0,0,.38.18,1.92,1.92,0,0,0,.41.05h1.6a1.22,1.22,0,0,0,.35-.06.87.87,0,0,0,.36-.18,1,1,0,0,0,.28-.34A1,1,0,0,0,25.24,457.84Zm-3.83-24.17a1,1,0,0,0,.11.49,1.1,1.1,0,0,0,.3.38,1.87,1.87,0,0,0,.44.25,2.11,2.11,0,0,0,.51.12v-2.46a2.21,2.21,0,0,0-.52.14,1.37,1.37,0,0,0-.43.24,1,1,0,0,0-.3.36A1,1,0,0,0,21.41,433.67Zm0,17.86a1,1,0,0,0,.11.49,1.07,1.07,0,0,0,.3.37,1.36,1.36,0,0,0,.44.25,2.11,2.11,0,0,0,.51.12V450.3a2.83,2.83,0,0,0-.52.14,1.61,1.61,0,0,0-.43.24,1,1,0,0,0-.3.36A1,1,0,0,0,21.41,451.53ZM23,475.07a2.59,2.59,0,0,0-.54.05,1.56,1.56,0,0,0-.52.2,1.27,1.27,0,0,0-.41.39,1.15,1.15,0,0,0-.16.64,1.1,1.1,0,0,0,.57,1,1.56,1.56,0,0,0,.52.2,2.59,2.59,0,0,0,.54.05h.56a2.46,2.46,0,0,0,.52-.05,1.56,1.56,0,0,0,.52-.2,1.1,1.1,0,0,0,.57-1,1.15,1.15,0,0,0-.16-.64,1.24,1.24,0,0,0-.4-.39,1.65,1.65,0,0,0-.52-.2,2.55,2.55,0,0,0-.53-.05Z" transform="translate(-16.77 -315.17)"/><path class="cls-4" d="M177.84,563.84a1.44,1.44,0,0,0-.09-.53,1,1,0,0,0-.26-.37,1.14,1.14,0,0,0-.38-.23,1.51,1.51,0,0,0-.48-.07,1.61,1.61,0,0,0-.44.06,2.09,2.09,0,0,0-.41.17,2.84,2.84,0,0,0-.39.25,3.61,3.61,0,0,0-.35.33v-.81a2.27,2.27,0,0,1,.72-.48,2.47,2.47,0,0,1,1-.16,2.27,2.27,0,0,1,.75.12,1.62,1.62,0,0,1,.6.34,1.63,1.63,0,0,1,.4.56,1.81,1.81,0,0,1,.15.76,2.6,2.6,0,0,1-.09.71,2.34,2.34,0,0,1-.28.6,2.54,2.54,0,0,1-.46.54,6.41,6.41,0,0,1-.65.53l-.76.56a3.08,3.08,0,0,0-.48.44,1.17,1.17,0,0,0-.25.42,1.32,1.32,0,0,0-.08.47h3.3v.68h-4.08v-.33a2.86,2.86,0,0,1,.09-.75,1.93,1.93,0,0,1,.3-.61,3,3,0,0,1,.56-.58q.34-.3.84-.66a5.67,5.67,0,0,0,.6-.49,3.12,3.12,0,0,0,.39-.47,1.67,1.67,0,0,0,.21-.48A2.12,2.12,0,0,0,177.84,563.84ZM182,562c1.39,0,2.08,1.13,2.08,3.39a6.52,6.52,0,0,1-.15,1.47,3.34,3.34,0,0,1-.43,1.08,1.86,1.86,0,0,1-.7.67,1.82,1.82,0,0,1-.94.23,1.72,1.72,0,0,1-.88-.22,1.83,1.83,0,0,1-.66-.64,3.12,3.12,0,0,1-.41-1,6.5,6.5,0,0,1-.14-1.4,7,7,0,0,1,.15-1.53,3.52,3.52,0,0,1,.43-1.11,1.87,1.87,0,0,1,.69-.68,1.9,1.9,0,0,1,1-.23Zm-.06,6.2c.91,0,1.37-.91,1.37-2.74s-.45-2.82-1.35-2.82-1.41,1-1.41,2.87.46,2.69,1.39,2.69Zm5.87.53h-.76V563a1.54,1.54,0,0,1-.25.2,2.71,2.71,0,0,1-.38.22,3.55,3.55,0,0,1-.44.21,2.24,2.24,0,0,1-.46.15V563a4.91,4.91,0,0,0,.53-.19l.55-.26c.18-.1.35-.2.51-.31a2.92,2.92,0,0,0,.41-.31h.29Zm6.47-2.1a2.35,2.35,0,0,1-.16.89,2.17,2.17,0,0,1-.43.7,2,2,0,0,1-.66.46,2.08,2.08,0,0,1-.83.16,1.86,1.86,0,0,1-.89-.21,1.72,1.72,0,0,1-.67-.59,2.64,2.64,0,0,1-.42-1,4.89,4.89,0,0,1-.14-1.27,5.85,5.85,0,0,1,.19-1.56,3.84,3.84,0,0,1,.54-1.21,2.59,2.59,0,0,1,.85-.77,2.31,2.31,0,0,1,1.11-.27,2.59,2.59,0,0,1,1.1.19v.71a2.39,2.39,0,0,0-1.08-.26,1.67,1.67,0,0,0-.8.2,1.87,1.87,0,0,0-.6.56,2.68,2.68,0,0,0-.39.87,4.56,4.56,0,0,0-.14,1.14h0a1.58,1.58,0,0,1,1.51-.82,1.94,1.94,0,0,1,.78.15,1.53,1.53,0,0,1,.59.41,1.69,1.69,0,0,1,.38.65A2.41,2.41,0,0,1,194.28,566.63Zm-.78.09a2.39,2.39,0,0,0-.08-.62,1.43,1.43,0,0,0-.26-.47,1,1,0,0,0-.4-.3,1.33,1.33,0,0,0-.54-.1,1.24,1.24,0,0,0-.52.1,1.57,1.57,0,0,0-.42.29,1.21,1.21,0,0,0-.27.43,1.25,1.25,0,0,0-.1.51,2.2,2.2,0,0,0,.09.64,1.73,1.73,0,0,0,.28.52,1.25,1.25,0,0,0,.41.35,1.2,1.2,0,0,0,.54.13,1.27,1.27,0,0,0,.52-.11,1.2,1.2,0,0,0,.4-.3,1.43,1.43,0,0,0,.26-.47A1.89,1.89,0,0,0,193.5,566.72Z" transform="translate(-16.77 -315.17)"/><path class="cls-4" d="M342.39,563.84a1.44,1.44,0,0,0-.09-.53,1.12,1.12,0,0,0-.26-.37,1.09,1.09,0,0,0-.39-.23,1.43,1.43,0,0,0-.48-.07,1.59,1.59,0,0,0-.43.06,2.09,2.09,0,0,0-.41.17,2,2,0,0,0-.39.25,3.61,3.61,0,0,0-.35.33v-.81a2.23,2.23,0,0,1,.71-.48,2.56,2.56,0,0,1,1-.16,2.27,2.27,0,0,1,.75.12,1.62,1.62,0,0,1,.6.34,1.63,1.63,0,0,1,.4.56,2,2,0,0,1,.14.76,2.6,2.6,0,0,1-.09.71,2.3,2.3,0,0,1-.27.6,2.54,2.54,0,0,1-.46.54,6.41,6.41,0,0,1-.65.53l-.77.56a4.39,4.39,0,0,0-.48.44,1.33,1.33,0,0,0-.25.42,1.61,1.61,0,0,0-.07.47h3.3v.68h-4.09v-.33a2.48,2.48,0,0,1,.1-.75,1.93,1.93,0,0,1,.3-.61,3,3,0,0,1,.56-.58,10.36,10.36,0,0,1,.84-.66,5.67,5.67,0,0,0,.6-.49,3.12,3.12,0,0,0,.39-.47,1.67,1.67,0,0,0,.21-.48A2.12,2.12,0,0,0,342.39,563.84Zm4.16-1.84c1.39,0,2.08,1.13,2.08,3.39a6.52,6.52,0,0,1-.15,1.47,3.58,3.58,0,0,1-.43,1.08,1.94,1.94,0,0,1-.7.67,1.85,1.85,0,0,1-.94.23,1.75,1.75,0,0,1-.89-.22,1.83,1.83,0,0,1-.66-.64,3.36,3.36,0,0,1-.4-1,6.5,6.5,0,0,1-.14-1.4,7,7,0,0,1,.15-1.53,3.3,3.3,0,0,1,.42-1.11,1.85,1.85,0,0,1,1.66-.91Zm-.07,6.2c.92,0,1.37-.91,1.37-2.74s-.44-2.82-1.34-2.82-1.41,1-1.41,2.87.46,2.69,1.38,2.69Zm5.88.53h-.76V563a1.7,1.7,0,0,1-.26.2,2.58,2.58,0,0,1-.37.22,3.1,3.1,0,0,1-.45.21,2,2,0,0,1-.45.15V563a4.91,4.91,0,0,0,.53-.19l.55-.26c.18-.1.35-.2.51-.31a3.65,3.65,0,0,0,.41-.31h.29Zm6.41-6.18-.37.65c-.14.26-.29.56-.45.88s-.32.68-.49,1.06-.32.76-.47,1.16-.27.8-.38,1.22a7.57,7.57,0,0,0-.23,1.21h-.82a9,9,0,0,1,.26-1.21c.12-.41.25-.81.39-1.21s.3-.78.47-1.14.32-.7.47-1,.3-.58.42-.82.23-.42.31-.55h-3.32v-.68h4.21Z" transform="translate(-16.77 -315.17)"/><path class="cls-4" d="M506.49,563.84a1.25,1.25,0,0,0-.1-.53,1,1,0,0,0-.25-.37,1.09,1.09,0,0,0-.39-.23,1.51,1.51,0,0,0-.48-.07,1.54,1.54,0,0,0-.43.06,2.47,2.47,0,0,0-.42.17,2.26,2.26,0,0,0-.38.25,2.73,2.73,0,0,0-.35.33v-.81a2.23,2.23,0,0,1,.71-.48,2.51,2.51,0,0,1,1-.16,2.37,2.37,0,0,1,.76.12,1.55,1.55,0,0,1,1,.9,1.81,1.81,0,0,1,.15.76,2.6,2.6,0,0,1-.09.71,2.3,2.3,0,0,1-.27.6,2.87,2.87,0,0,1-.46.54,7.76,7.76,0,0,1-.65.53l-.77.56a4.39,4.39,0,0,0-.48.44,1.25,1.25,0,0,0-.32.89h3.29v.68h-4.08v-.33a2.86,2.86,0,0,1,.09-.75,2,2,0,0,1,.31-.61,3,3,0,0,1,.55-.58q.35-.3.84-.66a5.89,5.89,0,0,0,.61-.49,3.12,3.12,0,0,0,.39-.47,1.67,1.67,0,0,0,.21-.48A2.12,2.12,0,0,0,506.49,563.84Zm4.16-1.84c1.38,0,2.08,1.13,2.08,3.39a6.52,6.52,0,0,1-.15,1.47,3.34,3.34,0,0,1-.44,1.08,1.92,1.92,0,0,1-.69.67,1.85,1.85,0,0,1-.94.23,1.75,1.75,0,0,1-.89-.22A1.83,1.83,0,0,1,509,568a3.12,3.12,0,0,1-.4-1,5.92,5.92,0,0,1-.14-1.4,7.67,7.67,0,0,1,.14-1.53,3.52,3.52,0,0,1,.43-1.11,1.85,1.85,0,0,1,1.66-.91Zm-.07,6.2c.91,0,1.37-.91,1.37-2.74s-.45-2.82-1.34-2.82-1.42,1-1.42,2.87.47,2.69,1.39,2.69Zm5.87.53h-.75V563a2.42,2.42,0,0,1-.26.2,2.71,2.71,0,0,1-.38.22,3,3,0,0,1-.44.21,2.16,2.16,0,0,1-.45.15V563a4.79,4.79,0,0,0,.52-.19l.55-.26c.18-.1.35-.2.51-.31a3.82,3.82,0,0,0,.42-.31h.28Zm2.17-1.85a1.69,1.69,0,0,1,.09-.53,1.83,1.83,0,0,1,.23-.49,1.73,1.73,0,0,1,.39-.42,1.58,1.58,0,0,1,.52-.3,2,2,0,0,1-.69-.62,1.45,1.45,0,0,1-.25-.83,1.69,1.69,0,0,1,.14-.68,1.55,1.55,0,0,1,.39-.53,1.74,1.74,0,0,1,.59-.35,2.17,2.17,0,0,1,1.48,0,1.65,1.65,0,0,1,.59.35,1.5,1.5,0,0,1,.39.54,1.64,1.64,0,0,1,.14.67,1.46,1.46,0,0,1-.26.83,2,2,0,0,1-.67.62,1.63,1.63,0,0,1,.51.3,1.69,1.69,0,0,1,.38.42,1.59,1.59,0,0,1,.24.49,1.67,1.67,0,0,1,.08.53,2,2,0,0,1-.15.79,1.84,1.84,0,0,1-.44.62,2.18,2.18,0,0,1-.68.4,2.65,2.65,0,0,1-.87.14,2.58,2.58,0,0,1-.86-.14,2.07,2.07,0,0,1-.68-.4,1.87,1.87,0,0,1-.45-.62A2,2,0,0,1,518.62,566.88Zm.82-.06a1.58,1.58,0,0,0,.1.55,1.12,1.12,0,0,0,.27.43,1,1,0,0,0,.42.27,1.67,1.67,0,0,0,1.08,0,1.34,1.34,0,0,0,.42-.28,1.15,1.15,0,0,0,.28-.42,1.63,1.63,0,0,0,.1-.55,1.46,1.46,0,0,0-.1-.52,1.21,1.21,0,0,0-.27-.43,1.26,1.26,0,0,0-.42-.29,1.35,1.35,0,0,0-.55-.11,1.56,1.56,0,0,0-.53.1,1.34,1.34,0,0,0-.42.28,1.32,1.32,0,0,0-.27.42A1.42,1.42,0,0,0,519.44,566.82Zm.24-3.07a1.22,1.22,0,0,0,.08.43,1.09,1.09,0,0,0,.24.35,1.21,1.21,0,0,0,.35.24,1,1,0,0,0,.42.09,1,1,0,0,0,.43-.09,1.21,1.21,0,0,0,.35-.24,1.18,1.18,0,0,0,.23-.35,1,1,0,0,0,.09-.43,1.33,1.33,0,0,0-.08-.45,1.21,1.21,0,0,0-.24-.35,1.25,1.25,0,0,0-.35-.23,1,1,0,0,0-.43-.08,1,1,0,0,0-.44.08,1.09,1.09,0,0,0-.35.24,1,1,0,0,0-.22.35A1.27,1.27,0,0,0,519.68,563.75Z" transform="translate(-16.77 -315.17)"/><path class="cls-4" d="M670.59,563.84a1.43,1.43,0,0,0-.1-.53,1,1,0,0,0-.26-.37,1,1,0,0,0-.38-.23,1.51,1.51,0,0,0-.48-.07,1.67,1.67,0,0,0-.44.06,2.37,2.37,0,0,0-.41.17,2.84,2.84,0,0,0-.39.25,2.65,2.65,0,0,0-.34.33v-.81a2.23,2.23,0,0,1,.71-.48,2.47,2.47,0,0,1,1-.16,2.27,2.27,0,0,1,.75.12,1.62,1.62,0,0,1,.6.34,1.63,1.63,0,0,1,.4.56,1.81,1.81,0,0,1,.15.76,2.6,2.6,0,0,1-.09.71,2,2,0,0,1-.28.6,2.81,2.81,0,0,1-.45.54c-.19.17-.41.35-.65.53s-.57.41-.77.56a4.39,4.39,0,0,0-.48.44,1.25,1.25,0,0,0-.32.89h3.29v.68h-4.08v-.33a2.86,2.86,0,0,1,.09-.75,1.93,1.93,0,0,1,.3-.61,3.36,3.36,0,0,1,.56-.58q.35-.3.84-.66a5.67,5.67,0,0,0,.6-.49,2.25,2.25,0,0,0,.39-.47,1.67,1.67,0,0,0,.21-.48A1.72,1.72,0,0,0,670.59,563.84Zm4.15-1.84c1.39,0,2.08,1.13,2.08,3.39a6.52,6.52,0,0,1-.15,1.47,3.34,3.34,0,0,1-.43,1.08,1.86,1.86,0,0,1-.7.67,1.8,1.8,0,0,1-.94.23,1.72,1.72,0,0,1-.88-.22,1.83,1.83,0,0,1-.66-.64,3.36,3.36,0,0,1-.41-1,6.5,6.5,0,0,1-.14-1.4,7,7,0,0,1,.15-1.53,3.52,3.52,0,0,1,.43-1.11,1.85,1.85,0,0,1,1.65-.91Zm-.06,6.2c.91,0,1.37-.91,1.37-2.74s-.45-2.82-1.34-2.82-1.42,1-1.42,2.87.46,2.69,1.39,2.69Zm5.87.53h-.75V563a2.42,2.42,0,0,1-.26.2,2.71,2.71,0,0,1-.38.22,3.55,3.55,0,0,1-.44.21,2.24,2.24,0,0,1-.46.15V563a4.25,4.25,0,0,0,.53-.19l.55-.26c.18-.1.35-.2.51-.31a3.82,3.82,0,0,0,.42-.31h.28Zm6.39-3.71a6.58,6.58,0,0,1-.18,1.62,3.67,3.67,0,0,1-.53,1.2,2.4,2.4,0,0,1-.84.75,2.48,2.48,0,0,1-1.14.25,2.78,2.78,0,0,1-1.15-.23v-.72a2.41,2.41,0,0,0,1.17.31,1.72,1.72,0,0,0,.8-.19,1.55,1.55,0,0,0,.6-.54,2.48,2.48,0,0,0,.37-.87,4.68,4.68,0,0,0,.13-1.18h0a1.5,1.5,0,0,1-1.47.85,1.94,1.94,0,0,1-.78-.15,1.89,1.89,0,0,1-.62-.42,2.08,2.08,0,0,1-.4-.66,2.45,2.45,0,0,1-.14-.83,2.36,2.36,0,0,1,.16-.9,2,2,0,0,1,.44-.7,2.08,2.08,0,0,1,.67-.45,2.2,2.2,0,0,1,.86-.16,1.93,1.93,0,0,1,.88.2,1.74,1.74,0,0,1,.65.59,2.9,2.9,0,0,1,.4.94A5.6,5.6,0,0,1,686.94,565Zm-.82-.68a2.17,2.17,0,0,0-.1-.69,1.71,1.71,0,0,0-.27-.54,1.27,1.27,0,0,0-.42-.35,1.18,1.18,0,0,0-.53-.12,1.26,1.26,0,0,0-.51.11,1.17,1.17,0,0,0-.4.3,1.47,1.47,0,0,0-.28.47,1.87,1.87,0,0,0-.1.59,2.08,2.08,0,0,0,.1.63,1.17,1.17,0,0,0,.27.46,1.25,1.25,0,0,0,.42.3,1.63,1.63,0,0,0,.55.1,1.34,1.34,0,0,0,.49-.1,1.46,1.46,0,0,0,.41-.27,1.26,1.26,0,0,0,.37-.89Z" transform="translate(-16.77 -315.17)"/><path class="cls-4" d="M834.68,563.84a1.44,1.44,0,0,0-.09-.53,1,1,0,0,0-.26-.37,1.14,1.14,0,0,0-.38-.23,1.51,1.51,0,0,0-.48-.07,1.61,1.61,0,0,0-.44.06,2.09,2.09,0,0,0-.41.17,2.84,2.84,0,0,0-.39.25,3.61,3.61,0,0,0-.35.33v-.81a2.27,2.27,0,0,1,.72-.48,2.47,2.47,0,0,1,1-.16,2.27,2.27,0,0,1,.75.12,1.62,1.62,0,0,1,.6.34,1.63,1.63,0,0,1,.4.56,1.81,1.81,0,0,1,.14.76,2.6,2.6,0,0,1-.09.71,2.3,2.3,0,0,1-.27.6,2.54,2.54,0,0,1-.46.54,6.41,6.41,0,0,1-.65.53l-.77.56a4.39,4.39,0,0,0-.48.44,1.29,1.29,0,0,0-.24.42,1.32,1.32,0,0,0-.08.47h3.3v.68h-4.09v-.33a2.84,2.84,0,0,1,.1-.75,1.93,1.93,0,0,1,.3-.61,3,3,0,0,1,.56-.58q.34-.3.84-.66a5.67,5.67,0,0,0,.6-.49,3.12,3.12,0,0,0,.39-.47,1.67,1.67,0,0,0,.21-.48A2.12,2.12,0,0,0,834.68,563.84Zm4.16-1.84c1.39,0,2.08,1.13,2.08,3.39a6.52,6.52,0,0,1-.15,1.47,3.34,3.34,0,0,1-.43,1.08,1.86,1.86,0,0,1-.7.67,1.82,1.82,0,0,1-.94.23,1.75,1.75,0,0,1-.89-.22,1.73,1.73,0,0,1-.65-.64,3.12,3.12,0,0,1-.41-1,6.5,6.5,0,0,1-.14-1.4,7,7,0,0,1,.15-1.53,3.52,3.52,0,0,1,.42-1.11,1.85,1.85,0,0,1,1.66-.91Zm-.06,6.2c.91,0,1.37-.91,1.37-2.74s-.45-2.82-1.35-2.82-1.41,1-1.41,2.87.46,2.69,1.39,2.69Zm6.09-4.36a1.44,1.44,0,0,0-.09-.53,1.12,1.12,0,0,0-.26-.37,1.09,1.09,0,0,0-.39-.23,1.51,1.51,0,0,0-.48-.07,1.59,1.59,0,0,0-.43.06,2.09,2.09,0,0,0-.41.17,2,2,0,0,0-.39.25,2.73,2.73,0,0,0-.35.33v-.81a2.23,2.23,0,0,1,.71-.48,2.54,2.54,0,0,1,1-.16,2.29,2.29,0,0,1,.76.12,1.62,1.62,0,0,1,.6.34,1.63,1.63,0,0,1,.4.56,2,2,0,0,1,.14.76,2.6,2.6,0,0,1-.09.71,2.3,2.3,0,0,1-.27.6,2.87,2.87,0,0,1-.46.54,6.41,6.41,0,0,1-.65.53l-.77.56a4.39,4.39,0,0,0-.48.44,1.25,1.25,0,0,0-.32.89h3.29v.68h-4.08v-.33a2.86,2.86,0,0,1,.09-.75,2.2,2.2,0,0,1,.31-.61,3.29,3.29,0,0,1,.55-.58,10.7,10.7,0,0,1,.85-.66,5.67,5.67,0,0,0,.6-.49,3.12,3.12,0,0,0,.39-.47,1.67,1.67,0,0,0,.21-.48A2.12,2.12,0,0,0,844.87,563.84ZM849,562c1.38,0,2.08,1.13,2.08,3.39a6.52,6.52,0,0,1-.15,1.47,3.34,3.34,0,0,1-.44,1.08,1.84,1.84,0,0,1-1.63.9,1.75,1.75,0,0,1-.89-.22,1.83,1.83,0,0,1-.66-.64,3.36,3.36,0,0,1-.4-1,6.5,6.5,0,0,1-.14-1.4,7.67,7.67,0,0,1,.14-1.53,3.52,3.52,0,0,1,.43-1.11A1.85,1.85,0,0,1,849,562Zm-.07,6.2c.92,0,1.37-.91,1.37-2.74s-.44-2.82-1.34-2.82-1.42,1-1.42,2.87.47,2.69,1.39,2.69Z" transform="translate(-16.77 -315.17)"/><path class="cls-4" d="M999.23,563.84a1.44,1.44,0,0,0-.09-.53,1.12,1.12,0,0,0-.26-.37,1.09,1.09,0,0,0-.39-.23,1.51,1.51,0,0,0-.48-.07,1.54,1.54,0,0,0-.43.06,2.09,2.09,0,0,0-.41.17,2,2,0,0,0-.39.25,2.73,2.73,0,0,0-.35.33v-.81a2.23,2.23,0,0,1,.71-.48,2.54,2.54,0,0,1,1-.16,2.29,2.29,0,0,1,.76.12,1.62,1.62,0,0,1,.6.34,1.63,1.63,0,0,1,.4.56,2,2,0,0,1,.14.76,2.6,2.6,0,0,1-.09.71,2.3,2.3,0,0,1-.27.6,2.87,2.87,0,0,1-.46.54,6.41,6.41,0,0,1-.65.53l-.77.56a4.39,4.39,0,0,0-.48.44,1.25,1.25,0,0,0-.32.89h3.29v.68h-4.08v-.33a2.86,2.86,0,0,1,.09-.75,2.2,2.2,0,0,1,.31-.61,3.29,3.29,0,0,1,.55-.58,10.7,10.7,0,0,1,.85-.66,5.67,5.67,0,0,0,.6-.49,3.12,3.12,0,0,0,.39-.47,1.67,1.67,0,0,0,.21-.48A2.12,2.12,0,0,0,999.23,563.84Zm4.16-1.84c1.38,0,2.08,1.13,2.08,3.39a6.52,6.52,0,0,1-.15,1.47,3.34,3.34,0,0,1-.44,1.08,1.84,1.84,0,0,1-1.63.9,1.75,1.75,0,0,1-.89-.22,1.83,1.83,0,0,1-.66-.64,3.36,3.36,0,0,1-.4-1,6.5,6.5,0,0,1-.14-1.4,7.67,7.67,0,0,1,.14-1.53,3.52,3.52,0,0,1,.43-1.11,1.85,1.85,0,0,1,1.66-.91Zm-.07,6.2c.92,0,1.37-.91,1.37-2.74s-.44-2.82-1.34-2.82-1.42,1-1.42,2.87.47,2.69,1.39,2.69Zm6.1-4.36a1.25,1.25,0,0,0-.1-.53,1,1,0,0,0-.26-.37,1,1,0,0,0-.38-.23,1.51,1.51,0,0,0-.48-.07,1.54,1.54,0,0,0-.43.06,2.17,2.17,0,0,0-.42.17,2.26,2.26,0,0,0-.38.25,2.2,2.2,0,0,0-.35.33v-.81a2.23,2.23,0,0,1,.71-.48,2.47,2.47,0,0,1,1-.16,2.27,2.27,0,0,1,.75.12,1.62,1.62,0,0,1,.6.34,1.51,1.51,0,0,1,.4.56,1.81,1.81,0,0,1,.15.76,2.6,2.6,0,0,1-.09.71,2.3,2.3,0,0,1-.27.6,3.3,3.3,0,0,1-.46.54,7.76,7.76,0,0,1-.65.53l-.77.56a4.39,4.39,0,0,0-.48.44,1.25,1.25,0,0,0-.32.89h3.29v.68h-4.08v-.33a2.86,2.86,0,0,1,.09-.75,1.76,1.76,0,0,1,.31-.61,3,3,0,0,1,.55-.58q.35-.3.84-.66a7.2,7.2,0,0,0,.61-.49,3.12,3.12,0,0,0,.39-.47,2.5,2.5,0,0,0,.21-.48A2.12,2.12,0,0,0,1009.42,563.84Zm4.87,4.89h-.76V563a2.16,2.16,0,0,1-.25.2,3.44,3.44,0,0,1-.38.22,3.55,3.55,0,0,1-.44.21,2.24,2.24,0,0,1-.46.15V563a4.91,4.91,0,0,0,.53-.19l.55-.26c.18-.1.35-.2.51-.31a2.92,2.92,0,0,0,.41-.31h.29Z" transform="translate(-16.77 -315.17)"/><g class="cls-5"><polygon class="cls-6" points="44.05 187.73 84.96 118.89 126.32 175.53 167.7 176.5 249.5 132.88 290.87 104.24 372.69 142.32 413.6 117.91 536.78 131.58 577.69 45.65 619.05 86.44 660.43 104.99 700.88 96.43 741.79 110.88 783.15 134.51 824.53 133.18 865.42 129.66 906.33 125.76 947.69 138.46 989.07 136.55 989.07 240.95 947.69 240.95 906.33 240.95 865.42 240.95 824.53 240.95 783.15 240.95 741.79 240.95 700.88 240.95 660.43 240.95 619.05 240.95 577.69 240.95 536.78 240.95 413.6 240.95 372.69 240.95 290.87 240.95 249.5 240.95 167.7 240.95 126.32 240.95 84.96 240.95 44.05 240.95 44.05 187.73"/><polygon class="cls-7" points="44.05 175.53 84.96 190.17 126.32 127.67 167.7 112.05 249.5 192.13 290.87 184.31 372.69 176.5 413.6 178.46 536.78 171.48 577.69 240.95 619.05 213.83 660.43 209.25 700.88 192.13 741.79 187.44 783.15 166.74 824.53 188.75 865.42 190.61 906.33 187.57 947.69 185.19 989.07 166.74 989.07 240.95 947.69 240.95 906.33 240.95 865.42 240.95 824.53 240.95 783.15 240.95 741.79 240.95 700.88 240.95 660.43 240.95 619.05 240.95 577.69 240.95 536.78 240.95 413.6 240.95 372.69 240.95 290.87 240.95 249.5 240.95 167.7 240.95 126.32 240.95 84.96 240.95 44.05 240.95 44.05 175.53"/><polyline class="cls-8" points="44.05 187.73 84.96 118.89 126.32 175.53 167.7 176.5 249.5 132.88 290.87 104.24 372.69 142.32 413.6 117.91 536.78 131.58 577.69 45.65 619.05 86.44 660.43 104.99 700.88 96.43 741.79 110.88 783.15 134.51 824.53 133.18 865.42 129.66 906.33 125.76 947.69 138.46 989.07 136.55"/><polyline class="cls-9" points="44.05 175.53 84.96 190.17 126.32 127.67 167.7 112.05 249.5 192.13 290.87 184.31 372.69 176.5 413.6 178.46 536.78 171.48 577.69 240.95 619.05 213.83 660.43 209.25 700.88 192.13 741.79 187.44 783.15 166.74 824.53 188.75 865.42 190.61 906.33 187.57 947.69 185.19 989.07 166.74"/><polyline class="cls-10" points="44.05 187.73 84.96 118.89 126.32 175.53 167.7 176.5 249.5 132.88 290.87 104.24 372.69 142.32 413.6 117.91 536.78 131.58 577.69 45.65 619.05 86.44 660.43 104.99 700.88 96.43 741.79 110.88 783.15 134.51 824.53 133.18 865.42 129.66 906.33 125.76 947.69 138.46 989.07 136.55"/><polyline class="cls-10" points="44.05 175.53 84.96 190.17 126.32 127.67 167.7 112.05 249.5 192.13 290.87 184.31 372.69 176.5 413.6 178.46 536.78 171.48 577.69 240.95 619.05 213.83 660.43 209.25 700.88 192.13 741.79 187.44 783.15 166.74 824.53 188.75 865.42 190.61 906.33 187.57 947.69 185.19 989.07 166.74"/></g><g class="cls-11"><path class="cls-12" d="M16.77,342.77a3.81,3.81,0,0,0,.3,1.49,3.71,3.71,0,0,0,.84,1.26,4,4,0,0,0,1.26.85,3.88,3.88,0,0,0,4.25-.85,3.74,3.74,0,0,0,.85-1.26,4,4,0,0,0,0-3,3.74,3.74,0,0,0-.85-1.26,3.84,3.84,0,0,0-1.26-.85,4,4,0,0,0-3,0,4,4,0,0,0-1.26.85,3.71,3.71,0,0,0-.84,1.26,3.85,3.85,0,0,0-.3,1.49" transform="translate(-16.77 -315.17)"/></g><g class="cls-13"><path class="cls-14" d="M72.68,342.77a3.81,3.81,0,0,0,.3,1.49,3.9,3.9,0,0,0,2.11,2.11,3.92,3.92,0,0,0,5.09-2.11,3.85,3.85,0,0,0,0-3,4,4,0,0,0-2.11-2.11,4,4,0,0,0-3,0,3.91,3.91,0,0,0-2.41,3.6" transform="translate(-16.77 -315.17)"/></g><path class="cls-4" d="M33.16,346.64h-1l-3.79-5.85a2.92,2.92,0,0,1-.23-.47h0a9.4,9.4,0,0,1,0,1v5.31h-.86v-7.35h1.11L32,345.06a4.3,4.3,0,0,1,.3.49h0a8.52,8.52,0,0,1-.05-1.08v-5.18h.86Zm6-2.41H35.49a2,2,0,0,0,.47,1.35,1.63,1.63,0,0,0,1.24.48,2.62,2.62,0,0,0,1.63-.58v.78a3,3,0,0,1-1.83.51,2.23,2.23,0,0,1-1.75-.72,2.93,2.93,0,0,1-.63-2,2.89,2.89,0,0,1,.69-2,2.26,2.26,0,0,1,1.73-.77,2,2,0,0,1,1.59.67,2.75,2.75,0,0,1,.57,1.85Zm-.87-.71a1.71,1.71,0,0,0-.35-1.14,1.19,1.19,0,0,0-1-.4,1.38,1.38,0,0,0-1,.42,2,2,0,0,0-.51,1.12Zm6.62,2.7c0,1.93-.93,2.89-2.77,2.89a3.77,3.77,0,0,1-1.7-.36v-.85a3.47,3.47,0,0,0,1.69.5c1.29,0,1.94-.69,1.94-2.06v-.58h0a2,2,0,0,1-1.81,1,2,2,0,0,1-1.58-.7,2.86,2.86,0,0,1-.59-1.88,3.28,3.28,0,0,1,.64-2.13,2.17,2.17,0,0,1,1.76-.79,1.74,1.74,0,0,1,1.58.85h0v-.72H45Zm-.84-2v-.77a1.5,1.5,0,0,0-.43-1.07,1.38,1.38,0,0,0-1-.45,1.45,1.45,0,0,0-1.22.57,2.52,2.52,0,0,0-.44,1.58,2.16,2.16,0,0,0,.42,1.4,1.37,1.37,0,0,0,1.12.53,1.47,1.47,0,0,0,1.15-.5A1.88,1.88,0,0,0,44.11,344.27Zm6.3,2.37h-.85v-.82h0a1.75,1.75,0,0,1-1.61.95,1.73,1.73,0,0,1-1.23-.42,1.45,1.45,0,0,1-.44-1.1c0-1,.58-1.55,1.73-1.71l1.57-.22c0-.89-.36-1.34-1.08-1.34a2.54,2.54,0,0,0-1.71.65v-.87a3.33,3.33,0,0,1,1.78-.49c1.24,0,1.86.65,1.86,2ZM49.56,344l-1.26.17a2.11,2.11,0,0,0-.88.29.84.84,0,0,0-.3.74.83.83,0,0,0,.27.63,1.09,1.09,0,0,0,.73.24,1.37,1.37,0,0,0,1-.44,1.56,1.56,0,0,0,.4-1.11Zm4.86,2.6a1.58,1.58,0,0,1-.78.17c-.92,0-1.38-.52-1.38-1.54v-3.11h-.9v-.71h.9v-1.29l.84-.27v1.56h1.32v.71H53.1v3a1.21,1.21,0,0,0,.18.75.73.73,0,0,0,.6.23.84.84,0,0,0,.54-.18ZM56,340.06a.56.56,0,0,1-.39-.15.56.56,0,0,1,0-.78.56.56,0,0,1,.78,0,.5.5,0,0,1,.16.39.49.49,0,0,1-.16.38A.53.53,0,0,1,56,340.06Zm.41,6.58h-.84V341.4h.84Zm5.82-5.24-2.09,5.24H59.3l-2-5.24h.92l1.33,3.81a3.16,3.16,0,0,1,.19.73h0a3.53,3.53,0,0,1,.16-.71l1.4-3.83Zm5.13,2.83H63.63a2,2,0,0,0,.47,1.35,1.63,1.63,0,0,0,1.24.48,2.62,2.62,0,0,0,1.63-.58v.78a3,3,0,0,1-1.83.51,2.23,2.23,0,0,1-1.75-.72,2.93,2.93,0,0,1-.63-2,2.89,2.89,0,0,1,.69-2,2.26,2.26,0,0,1,1.73-.77,2,2,0,0,1,1.59.67,2.75,2.75,0,0,1,.57,1.85Zm-.87-.71a1.71,1.71,0,0,0-.35-1.14,1.19,1.19,0,0,0-1-.4,1.38,1.38,0,0,0-1,.42,2,2,0,0,0-.51,1.12Zm17.44.35v2.77h-.86v-7.35h2a2.63,2.63,0,0,1,1.83.58,2.05,2.05,0,0,1,.65,1.62,2.23,2.23,0,0,1-.72,1.71,2.78,2.78,0,0,1-2,.67Zm0-3.8v3h.9a2,2,0,0,0,1.36-.41,1.42,1.42,0,0,0,.47-1.15c0-1-.57-1.46-1.72-1.46Zm6.71,6.7a2.46,2.46,0,0,1-1.86-.74,2.73,2.73,0,0,1-.69-1.95,2.82,2.82,0,0,1,.72-2.06,2.58,2.58,0,0,1,1.95-.75,2.37,2.37,0,0,1,1.84.72,2.88,2.88,0,0,1,.66,2,2.82,2.82,0,0,1-.71,2A2.52,2.52,0,0,1,90.62,346.77Zm.06-4.79a1.59,1.59,0,0,0-1.28.55,2.28,2.28,0,0,0-.47,1.52,2.13,2.13,0,0,0,.48,1.47,1.6,1.6,0,0,0,1.27.54,1.56,1.56,0,0,0,1.26-.53,2.29,2.29,0,0,0,.43-1.5,2.35,2.35,0,0,0-.43-1.52A1.56,1.56,0,0,0,90.68,342Zm5,4.79a3,3,0,0,1-1.41-.32v-.9a2.48,2.48,0,0,0,1.51.51c.74,0,1.11-.25,1.11-.74a.63.63,0,0,0-.09-.35.92.92,0,0,0-.26-.26,1.71,1.71,0,0,0-.38-.21l-.47-.18c-.23-.1-.44-.19-.61-.28a1.92,1.92,0,0,1-.44-.32,1.18,1.18,0,0,1-.27-.4,1.44,1.44,0,0,1-.09-.53,1.26,1.26,0,0,1,.17-.65,1.47,1.47,0,0,1,.45-.48,2,2,0,0,1,.64-.29,2.71,2.71,0,0,1,.75-.1,3,3,0,0,1,1.22.24v.85a2.41,2.41,0,0,0-1.33-.38,1.88,1.88,0,0,0-.43,0,1.35,1.35,0,0,0-.32.15.79.79,0,0,0-.21.24.61.61,0,0,0-.08.3.71.71,0,0,0,.08.34.82.82,0,0,0,.21.25,2.29,2.29,0,0,0,.35.19l.47.19a5.19,5.19,0,0,1,.62.28,2.21,2.21,0,0,1,.48.31,1.19,1.19,0,0,1,.4,1,1.3,1.3,0,0,1-.63,1.15,2,2,0,0,1-.66.28,2.88,2.88,0,0,1-.78.1Zm3.79-6.71a.54.54,0,0,1-.38-.15.56.56,0,0,1,0-.78.51.51,0,0,1,.38-.16.55.55,0,0,1,.56.55.53.53,0,0,1-.16.38A.54.54,0,0,1,99.46,340.06Zm.41,6.58H99V341.4h.84Zm4.14-.05a1.61,1.61,0,0,1-.78.17c-.92,0-1.38-.52-1.38-1.54v-3.11h-.91v-.71h.91v-1.29l.84-.27v1.56H104v.71h-1.32v3a1.21,1.21,0,0,0,.18.75.71.71,0,0,0,.59.23.87.87,0,0,0,.55-.18Zm1.55-6.53a.52.52,0,0,1-.38-.15.56.56,0,0,1,0-.78.49.49,0,0,1,.38-.16.55.55,0,0,1,.56.55.53.53,0,0,1-.16.38A.54.54,0,0,1,105.56,340.06Zm.41,6.58h-.84V341.4H106Zm5.83-5.24-2.09,5.24h-.83l-2-5.24h.92l1.33,3.81a3.77,3.77,0,0,1,.19.73h0a3,3,0,0,1,.16-.71l1.39-3.83Zm5.12,2.83h-3.7a2,2,0,0,0,.47,1.35,1.61,1.61,0,0,0,1.24.48,2.64,2.64,0,0,0,1.63-.58v.78a3,3,0,0,1-1.83.51,2.21,2.21,0,0,1-1.75-.72,2.94,2.94,0,0,1-.64-2,2.9,2.9,0,0,1,.7-2,2.24,2.24,0,0,1,1.72-.77,2,2,0,0,1,1.6.67,2.8,2.8,0,0,1,.56,1.85Zm-.86-.71a1.71,1.71,0,0,0-.35-1.14,1.19,1.19,0,0,0-1-.4,1.37,1.37,0,0,0-1,.42,1.91,1.91,0,0,0-.51,1.12Z" transform="translate(-16.77 -315.17)"/></svg>