<svg xmlns="http://www.w3.org/2000/svg" viewBox="0 0 2000 2000"><defs><style>.cls-1{fill:#fff;}.cls-2{fill:#1d1d1b;}.cls-3{fill:#1eadad;}.cls-4{fill:#1a8d37;}.cls-5{fill:#c69e20;}.cls-6{fill:#32437a;}.cls-7{fill:#a12a2a;}</style></defs><g id="Layer_2" data-name="Layer 2"><rect class="cls-1" width="2000" height="2000"/><path d="M1639.67,2000c-113.34-274.44-188.89-443.33-148.89-576.67s164.44-188.89,235.55-343.33,122.23-447.78,35.56-623.33S1521.89,158.89,1353,94.44s-493.33-68.88-657.78,0-255.55,197.78-308.89,360S313,794.44,330.78,810s60,53.33,31.11,111.11S206,1223.55,224.11,1250c28.89,42.22,113.33,26.67,131.11,55.56s-51.11,68.88-31.11,100,22.22,35.55,42.22,51.11c-35.55,24.44-20.75,63.37-11.11,68.89,31.11,17.77,53.34,20,42.22,55.55s-44.44,135.56,28.89,180S575.22,1798.89,653,1790s131.11-40,155.56,2.22S873,1905.56,895.22,2000,1639.67,2000,1639.67,2000Z"/></g><g id="Layer_3" data-name="Layer 3"><path class="cls-1" d="M1444.52,2056.73c-7.57,0-23.45-7.62-44.68-58.65-57.7-138.7-123.89-502.78-133-566.56-6.71-47-39.21-172-73.61-304.38-11.12-42.81-22.63-87.07-33.16-128.38l-1.16-4.55-4.62.88a113.88,113.88,0,0,1-18.75,1.45c-21.75,0-50.66-5.41-64.83-31.17l-1.75-3.19-3.58.69a443,443,0,0,1-81.26,7.21c-37.78,0-93.39-4.74-143.68-27.32C787.61,919,750.79,880.51,731,828.23l-1.33-3.5L726,825c-6,.47-14,1-22.69,1-17.47,0-43.09-1.85-86.46-16.31l-1.59-.53-1.59.54a134.07,134.07,0,0,1-43.09,7.06c-61.81,0-123-41.73-145.62-99.23-9.06-23.06-11.05-47.37-5.77-70.3,5.94-25.8,20.72-49.81,43.93-71.35l2.43-2.26-1.13-3.11c-23-63.62-21.18-124.23,5.22-170.66,22-38.67,59.84-64.89,106.57-73.84l4.84-.92-.85-4.86c-3.37-19.09,4.46-44.42,20-64.53,13.56-17.6,38.83-39.34,82.19-43l3.35-.28,1-3.2c8.18-25.92,33.48-69.41,110.93-69.41a261.12,261.12,0,0,1,43.46,3.95l2.39.4,1.79-1.62c33.69-30.32,64.27-47.87,120.89-47.87,27.82,0,60.22,4.41,99.08,13.47l1.44.34,1.39-.5c20.5-7.38,38.2-11,54.1-11,29.87,0,53.14,13.13,71.15,40.15l2.25,3.37,3.77-1.5c28.33-11.34,56.94-17.08,85-17.08,41.15,0,79.63,12.68,111.28,36.67,34.73,26.34,60.66,65.06,77.07,115.1l.92,2.8,2.89.55c39.06,7.49,73.32,20.41,101.82,38.38a225.37,225.37,0,0,1,68.28,67c34.18,51.78,51.35,120.41,52.51,209.81l0,2.24,1.69,1.47c15.12,13.15,30.2,37.29,40.33,64.57,8.24,22.23,17.14,56.72,12.69,94.86-2.76,23.56-10.32,44.88-22.49,63.35-13.74,20.86-33.41,38.1-58.46,51.24l-4.05,2.12,1.76,4.23c21.48,51.56,19.59,100.55-5.34,137.94-22.88,34.32-62.31,54.81-105.48,54.81a132.82,132.82,0,0,1-32.24-4l-3.48-.87-1.94,3c-22.77,35.41-75.65,73.26-155.8,73.26h-5.52l.55,5.49c3,29.62,1.47,63.18-.27,102-2.18,49-4.66,104.62.26,173.39q.45,6.35.91,12.83c8.59,121.65,20.35,288.17,118.86,566-4.14,16.13-18.37,56.48-36.59,56.48Z"/><path class="cls-2" d="M966.12,99.73c27.43,0,59.47,4.36,97.94,13.34l2.88.67,2.78-1c20-7.18,37.1-10.67,52.41-10.67,13.88,0,25.89,2.87,36.72,8.79,11.49,6.27,21.39,15.8,30.27,29.13l4.5,6.75,7.54-3c27.74-11.1,55.73-16.72,83.18-16.72,40.05,0,77.48,12.33,108.26,35.66,33.9,25.71,59.25,63.61,75.34,112.67l1.84,5.59,5.78,1.11c38.44,7.38,72.12,20.06,100.09,37.7a220.34,220.34,0,0,1,66.78,65.49c16.94,25.67,29.87,56.47,38.42,91.55,8.24,33.78,12.7,72.67,13.26,115.57l.06,4.48,3.38,2.94c14.52,12.62,29.07,36,38.92,62.54,11.39,30.69,15.8,63.56,12.41,92.54-2.66,22.78-10,43.36-21.7,61.18-13.27,20.14-32.31,36.82-56.6,49.56l-8.11,4.25,3.52,8.45c11,26.35,15.77,51.76,14.22,75.52-1.38,21.37-7.81,40.8-19.1,57.73a116.57,116.57,0,0,1-43.65,38.7,126.39,126.39,0,0,1-57.67,13.88,127.93,127.93,0,0,1-31-3.82l-7-1.74-3.88,6c-6.56,10.21-21.87,29.78-50.69,46.16s-62.91,24.81-100.9,24.81h-11l1.1,11c2.93,29.26,1.44,62.65-.28,101.3-2.19,49.18-4.67,104.91.26,174q.45,6.35.91,12.83c8.59,121.71,20.35,288.26,118.61,565.79a180.92,180.92,0,0,1-9.42,26.26c-7.19,15.67-15.39,25-21.94,25-4.15,0-9.3-3.46-14.88-10-8.06-9.44-16.53-24.78-25.18-45.57-30.5-73.31-62.76-209.53-84.46-310.89-25.2-117.77-43.84-223.84-48.21-254.46-6.75-47.26-39.28-172.43-73.73-305-11.12-42.79-22.62-87-33.15-128.32l-2.33-9.07-9.2,1.71a107.84,107.84,0,0,1-17.83,1.37c-20.41,0-47.46-5-60.45-28.58l-3.51-6.38-7.16,1.38a438,438,0,0,1-80.31,7.12c-37.3,0-92.15-4.66-141.64-26.88C790.91,915,755,877.45,735.69,826.46l-2.65-7-7.47.58c-5.93.46-13.83,1-22.31,1-17.1,0-42.19-1.83-84.88-16l-3.18-1.07L612,805a128.86,128.86,0,0,1-41.48,6.8c-29.22,0-59.56-9.86-85.43-27.75-25.43-17.59-45.15-41.84-55.54-68.31-8.69-22.12-10.6-45.4-5.55-67.34,5.72-24.82,20-48,42.46-68.82l4.85-4.51-2.25-6.22c-22.53-62.23-20.8-121.36,4.87-166.49,21.25-37.37,57.89-62.73,103.16-71.4l9.68-1.85-1.71-9.71c-1.42-8-.57-18.07,2.38-28.24a98.78,98.78,0,0,1,16.62-32.37,102.65,102.65,0,0,1,31.42-27.09c14-7.79,29.84-12.48,47.23-13.93l6.68-.55,2-6.4c4.05-12.81,12.76-31,31.31-44.83,18.75-14,43.94-21.09,74.86-21.09a255.34,255.34,0,0,1,42.62,3.88l4.77.81,3.6-3.24c12.79-11.51,28.51-24.48,48.1-33.32,19.78-8.93,42.49-13.27,69.44-13.27m0-10c-61.38,0-93.34,21.36-124.23,49.16a264.69,264.69,0,0,0-44.3-4c-72.57,0-104.44,37.24-115.7,72.91-80,6.66-113.33,75.55-106.67,113.33C470.78,341.11,413,443.33,459.67,572.22,345.77,678,453.26,821.77,570.53,821.77a138.65,138.65,0,0,0,44.69-7.33c39.4,13.14,65.47,16.57,88,16.57,8,0,15.53-.43,23.07-1C771.52,949.41,894,975.08,984.12,975.08c34,0,63.35-3.65,82.21-7.3,15.77,28.67,48.19,33.76,69.22,33.76a116.46,116.46,0,0,0,19.67-1.54c42.22,165.56,97.78,370,106.67,432.22s75.55,428.89,133.33,567.78c19.26,46.29,35.81,61.73,49.3,61.73,27,0,41.81-61.73,41.81-61.73-102.22-287.78-111.11-454.44-120-578.89s6.67-208.89,0-275.55c88.89,0,140-44.45,160-75.56a138,138,0,0,0,33.46,4.12c86.49,0,164.67-81.5,115.43-199.68,135.56-71.11,80-237.77,28.89-282.22-2.22-171.11-64.44-288.89-226.67-320C1442.54,165.78,1366.57,117,1284.34,117c-28.7,0-58.15,5.94-86.9,17.43-19.86-29.79-45.16-42.37-75.31-42.37-17.08,0-35.71,4-55.8,11.26-40.66-9.49-73.27-13.6-100.21-13.6Z"/><rect class="cls-3" x="795.99" y="270.1" width="153.49" height="473.14"/><rect class="cls-4" x="973.48" y="202.05" width="153.49" height="473.14"/><rect class="cls-5" x="1150.98" y="331.81" width="153.49" height="473.14"/><polyline class="cls-6" points="1738.07 640.39 1617.53 576.69 1536.63 502.35 1503.41 533.17 1443.37 541.84 1287.59 398.67 1204.52 484.12 1101.26 404.6 1028.87 315.59 936.3 453.26 764.21 539.9 656.73 486.67 414.25 646.22"/><path class="cls-7" d="M1738.07,640.39c32.66,68.71,41.15,179.5-62.85,234.05,55.56,133.34-51.11,220-148.89,195.56-20,31.11-71.11,75.56-160,75.56,6.67,66.66-8.89,151.11,0,275.55s17.78,291.11,120,578.89c0,0-33.33,138.89-91.11,0s-124.44-505.56-133.33-567.78-64.45-266.66-106.67-432.22c0,0-64.44,12.22-88.89-32.22-68.89,13.33-277.77,26.66-340-137.78-28.89,2.22-57.77,2.22-111.11-15.56-105.3,35.7-224.59-65.33-201-168.22L665.7,534.36l83.08,43.52,200.7-71.21,78.2-94.94L1214,528l78.33-57,140,118.68L1539.2,562.2l160.51,73Z"/></g></svg>