<svg xmlns="http://www.w3.org/2000/svg" xmlns:xlink="http://www.w3.org/1999/xlink" viewBox="0 0 1905.9 620.88"><defs><style>.cls-1,.cls-12{fill:none;}.cls-2{clip-path:url(#clip-path);}.cls-3{opacity:0;}.cls-4{fill:#c8c6c4;}.cls-5{font-size:18px;}.cls-14,.cls-5,.cls-6,.cls-7{fill:#fff;font-family:SegoeUI, Segoe UI;}.cls-6{font-size:24px;}.cls-7{font-size:24px;}.cls-8{clip-path:url(#clip-path-3);}.cls-9{fill:#ffa058;}.cls-10{fill:#a1343c;}.cls-11{fill:#118dff;}.cls-12{stroke:#fff;stroke-linecap:round;stroke-linejoin:round;stroke-width:4.5px;}.cls-13{clip-path:url(#clip-path-4);}.cls-14{font-size:19.99px;}.cls-15{clip-path:url(#clip-path-5);}.cls-16{clip-path:url(#clip-path-6);}</style><clipPath id="clip-path" transform="translate(0.9 -13)"><rect class="cls-1" y="43.5" width="1905" height="585"/></clipPath><clipPath id="clip-path-3" transform="translate(0.9 -13)"><rect class="cls-1" x="77.25" y="55.5" width="1827.75" height="485.28"/></clipPath><clipPath id="clip-path-4" transform="translate(0.9 -13)"><rect class="cls-1" width="18" height="43.5"/></clipPath><clipPath id="clip-path-5" transform="translate(0.9 -13)"><rect class="cls-1" x="121.5" width="18" height="43.5"/></clipPath><clipPath id="clip-path-6" transform="translate(0.9 -13)"><rect class="cls-1" x="195" width="18" height="43.5"/></clipPath></defs><g id="Layer_2" data-name="Layer 2"><g id="Layer_1-2" data-name="Layer 1"><g class="cls-2"><rect class="cls-3" x="0.9" y="30.5" width="1905" height="585"/><path class="cls-4" d="M1904.25,539.27h.75v1.5h-.75m-9-1.5h1.5v1.5h-1.5m-9-1.5h1.5v1.5h-1.5m-9-1.5h1.5v1.5h-1.5m-9-1.5h1.5v1.5h-1.5m-9-1.5h1.5v1.5h-1.5m-9-1.5h1.5v1.5h-1.5m-9-1.5h1.5v1.5h-1.5m-9-1.5h1.5v1.5h-1.5m-9-1.5h1.5v1.5h-1.5m-9-1.5h1.5v1.5h-1.5m-9-1.5h1.5v1.5h-1.5m-9-1.5h1.5v1.5h-1.5m-9-1.5h1.5v1.5h-1.5m-9-1.5h1.5v1.5h-1.5m-9-1.5h1.5v1.5h-1.5m-9-1.5h1.5v1.5h-1.5m-9-1.5h1.5v1.5h-1.5m-9-1.5h1.5v1.5h-1.5m-9-1.5h1.5v1.5h-1.5m-9-1.5h1.5v1.5h-1.5m-9-1.5h1.5v1.5h-1.5m-9-1.5h1.5v1.5h-1.5m-9-1.5h1.5v1.5h-1.5m-9-1.5h1.5v1.5h-1.5m-9-1.5h1.5v1.5h-1.5m-9-1.5h1.5v1.5h-1.5m-9-1.5h1.5v1.5h-1.5m-9-1.5h1.5v1.5h-1.5m-9-1.5h1.5v1.5h-1.5m-9-1.5h1.5v1.5h-1.5m-9-1.5h1.5v1.5h-1.5m-9-1.5h1.5v1.5h-1.5m-9-1.5h1.5v1.5h-1.5m-9-1.5h1.5v1.5h-1.5m-9-1.5h1.5v1.5h-1.5m-9-1.5h1.5v1.5h-1.5m-9-1.5h1.5v1.5h-1.5m-9-1.5h1.5v1.5h-1.5m-9-1.5h1.5v1.5h-1.5m-9-1.5h1.5v1.5h-1.5m-9-1.5h1.5v1.5h-1.5m-9-1.5h1.5v1.5h-1.5m-9-1.5h1.5v1.5h-1.5m-9-1.5h1.5v1.5h-1.5m-9-1.5h1.5v1.5h-1.5m-9-1.5h1.5v1.5h-1.5m-9-1.5h1.5v1.5h-1.5m-9-1.5h1.5v1.5h-1.5m-9-1.5h1.5v1.5h-1.5m-9-1.5h1.5v1.5h-1.5m-9-1.5h1.5v1.5h-1.5m-9-1.5h1.5v1.5h-1.5m-9-1.5h1.5v1.5h-1.5m-9-1.5h1.5v1.5h-1.5m-9-1.5h1.5v1.5h-1.5m-9-1.5h1.5v1.5h-1.5m-9-1.5h1.5v1.5h-1.5m-9-1.5h1.5v1.5h-1.5m-9-1.5h1.5v1.5h-1.5m-9-1.5h1.5v1.5h-1.5m-9-1.5h1.5v1.5h-1.5m-9-1.5h1.5v1.5h-1.5m-9-1.5h1.5v1.5h-1.5m-9-1.5h1.5v1.5h-1.5m-9-1.5h1.5v1.5h-1.5m-9-1.5h1.5v1.5h-1.5m-9-1.5h1.5v1.5h-1.5m-9-1.5h1.5v1.5h-1.5m-9-1.5h1.5v1.5h-1.5m-9-1.5h1.5v1.5h-1.5m-9-1.5h1.5v1.5h-1.5m-9-1.5h1.5v1.5h-1.5m-9-1.5h1.5v1.5h-1.5m-9-1.5h1.5v1.5h-1.5m-9-1.5h1.5v1.5h-1.5m-9-1.5h1.5v1.5h-1.5m-9-1.5h1.5v1.5h-1.5m-9-1.5h1.5v1.5h-1.5m-9-1.5h1.5v1.5h-1.5m-9-1.5h1.5v1.5h-1.5m-9-1.5h1.5v1.5h-1.5m-9-1.5h1.5v1.5h-1.5m-9-1.5h1.5v1.5h-1.5m-9-1.5h1.5v1.5h-1.5m-9-1.5h1.5v1.5h-1.5m-9-1.5h1.5v1.5h-1.5m-9-1.5h1.5v1.5h-1.5m-9-1.5h1.5v1.5h-1.5m-9-1.5h1.5v1.5h-1.5m-9-1.5h1.5v1.5h-1.5m-9-1.5h1.5v1.5h-1.5m-9-1.5h1.5v1.5h-1.5m-9-1.5h1.5v1.5h-1.5m-9-1.5h1.5v1.5h-1.5m-9-1.5h1.5v1.5h-1.5m-9-1.5h1.5v1.5h-1.5m-9-1.5h1.5v1.5h-1.5m-9-1.5h1.5v1.5h-1.5m-9-1.5h1.5v1.5h-1.5m-9-1.5h1.5v1.5h-1.5m-9-1.5h1.5v1.5h-1.5m-9-1.5h1.5v1.5h-1.5m-9-1.5h1.5v1.5h-1.5m-9-1.5h1.5v1.5h-1.5m-9-1.5h1.5v1.5h-1.5m-9-1.5h1.5v1.5h-1.5m-9-1.5h1.5v1.5h-1.5m-9-1.5h1.5v1.5h-1.5m-9-1.5h1.5v1.5h-1.5m-9-1.5h1.5v1.5h-1.5m-9-1.5h1.5v1.5h-1.5m-9-1.5h1.5v1.5h-1.5m-9-1.5h1.5v1.5h-1.5m-9-1.5h1.5v1.5h-1.5m-9-1.5h1.5v1.5h-1.5m-9-1.5h1.5v1.5h-1.5m-9-1.5h1.5v1.5h-1.5m-9-1.5h1.5v1.5h-1.5m-9-1.5h1.5v1.5h-1.5m-9-1.5h1.5v1.5h-1.5m-9-1.5h1.5v1.5h-1.5m-9-1.5h1.5v1.5h-1.5m-9-1.5h1.5v1.5h-1.5m-9-1.5h1.5v1.5h-1.5m-9-1.5h1.5v1.5h-1.5m-9-1.5h1.5v1.5h-1.5m-9-1.5h1.5v1.5h-1.5m-9-1.5h1.5v1.5h-1.5m-9-1.5h1.5v1.5h-1.5m-9-1.5h1.5v1.5h-1.5m-9-1.5h1.5v1.5h-1.5m-9-1.5h1.5v1.5h-1.5m-9-1.5h1.5v1.5h-1.5m-9-1.5h1.5v1.5h-1.5m-9-1.5h1.5v1.5h-1.5m-9-1.5h1.5v1.5h-1.5m-9-1.5h1.5v1.5h-1.5m-9-1.5h1.5v1.5h-1.5m-9-1.5h1.5v1.5h-1.5m-9-1.5h1.5v1.5h-1.5m-9-1.5h1.5v1.5h-1.5m-9-1.5h1.5v1.5h-1.5m-9-1.5h1.5v1.5h-1.5m-9-1.5h1.5v1.5h-1.5m-9-1.5h1.5v1.5h-1.5m-9-1.5h1.5v1.5h-1.5m-9-1.5h1.5v1.5h-1.5m-9-1.5h1.5v1.5h-1.5m-9-1.5h1.5v1.5h-1.5m-9-1.5h1.5v1.5h-1.5m-9-1.5h1.5v1.5h-1.5m-9-1.5h1.5v1.5h-1.5m-9-1.5h1.5v1.5h-1.5m-9-1.5h1.5v1.5h-1.5m-9-1.5h1.5v1.5h-1.5m-9-1.5h1.5v1.5h-1.5m-9-1.5h1.5v1.5h-1.5m-9-1.5h1.5v1.5h-1.5m-9-1.5h1.5v1.5h-1.5m-9-1.5h1.5v1.5h-1.5m-9-1.5h1.5v1.5h-1.5m-9-1.5h1.5v1.5h-1.5m-9-1.5h1.5v1.5h-1.5m-9-1.5h1.5v1.5h-1.5m-9-1.5h1.5v1.5h-1.5m-9-1.5h1.5v1.5h-1.5m-9-1.5h1.5v1.5h-1.5m-9-1.5h1.5v1.5h-1.5m-9-1.5h1.5v1.5h-1.5m-9-1.5h1.5v1.5h-1.5m-9-1.5h1.5v1.5h-1.5m-9-1.5h1.5v1.5h-1.5m-9-1.5h1.5v1.5h-1.5m-9-1.5h1.5v1.5h-1.5m-9-1.5h1.5v1.5h-1.5m-9-1.5h1.5v1.5h-1.5m-9-1.5h1.5v1.5h-1.5m-9-1.5h1.5v1.5h-1.5m-9-1.5h1.5v1.5h-1.5m-9-1.5h1.5v1.5h-1.5m-9-1.5h1.5v1.5h-1.5m-9-1.5h1.5v1.5h-1.5m-9-1.5h1.5v1.5h-1.5m-9-1.5h1.5v1.5h-1.5m-9-1.5h1.5v1.5h-1.5m-9-1.5h1.5v1.5h-1.5m-9-1.5h1.5v1.5h-1.5m-9-1.5h1.5v1.5h-1.5m-9-1.5h1.5v1.5h-1.5m-9-1.5h1.5v1.5h-1.5m-9-1.5h1.5v1.5h-1.5m-9-1.5h1.5v1.5h-1.5m-9-1.5h1.5v1.5h-1.5m-9-1.5h1.5v1.5h-1.5m-9-1.5h1.5v1.5h-1.5m-9-1.5h1.5v1.5h-1.5m-9-1.5h1.5v1.5h-1.5m-9-1.5h1.5v1.5h-1.5m-9-1.5h1.5v1.5h-1.5m-9-1.5h1.5v1.5h-1.5m-9-1.5h1.5v1.5h-1.5m-9-1.5h1.5v1.5h-1.5m-9-1.5h1.5v1.5h-1.5" transform="translate(0.9 -13)"/><text class="cls-5" transform="translate(53.45 532.78)">0</text><path class="cls-4" d="M1904.25,442.82h.75v1.5h-.75m-9-1.5h1.5v1.5h-1.5m-9-1.5h1.5v1.5h-1.5m-9-1.5h1.5v1.5h-1.5m-9-1.5h1.5v1.5h-1.5m-9-1.5h1.5v1.5h-1.5m-9-1.5h1.5v1.5h-1.5m-9-1.5h1.5v1.5h-1.5m-9-1.5h1.5v1.5h-1.5m-9-1.5h1.5v1.5h-1.5m-9-1.5h1.5v1.5h-1.5m-9-1.5h1.5v1.5h-1.5m-9-1.5h1.5v1.5h-1.5m-9-1.5h1.5v1.5h-1.5m-9-1.5h1.5v1.5h-1.5m-9-1.5h1.5v1.5h-1.5m-9-1.5h1.5v1.5h-1.5m-9-1.5h1.5v1.5h-1.5m-9-1.5h1.5v1.5h-1.5m-9-1.5h1.5v1.5h-1.5m-9-1.5h1.5v1.5h-1.5m-9-1.5h1.5v1.5h-1.5m-9-1.5h1.5v1.5h-1.5m-9-1.5h1.5v1.5h-1.5m-9-1.5h1.5v1.5h-1.5m-9-1.5h1.5v1.5h-1.5m-9-1.5h1.5v1.5h-1.5m-9-1.5h1.5v1.5h-1.5m-9-1.5h1.5v1.5h-1.5m-9-1.5h1.5v1.5h-1.5m-9-1.5h1.5v1.5h-1.5m-9-1.5h1.5v1.5h-1.5m-9-1.5h1.5v1.5h-1.5m-9-1.5h1.5v1.5h-1.5m-9-1.5h1.5v1.5h-1.5m-9-1.5h1.5v1.5h-1.5m-9-1.5h1.5v1.5h-1.5m-9-1.5h1.5v1.5h-1.5m-9-1.5h1.5v1.5h-1.5m-9-1.5h1.5v1.5h-1.5m-9-1.5h1.5v1.5h-1.5m-9-1.5h1.5v1.5h-1.5m-9-1.5h1.5v1.5h-1.5m-9-1.5h1.5v1.5h-1.5m-9-1.5h1.5v1.5h-1.5m-9-1.5h1.5v1.5h-1.5m-9-1.5h1.5v1.5h-1.5m-9-1.5h1.5v1.5h-1.5m-9-1.5h1.5v1.5h-1.5m-9-1.5h1.5v1.5h-1.5m-9-1.5h1.5v1.5h-1.5m-9-1.5h1.5v1.5h-1.5m-9-1.5h1.5v1.5h-1.5m-9-1.5h1.5v1.5h-1.5m-9-1.5h1.5v1.5h-1.5m-9-1.5h1.5v1.5h-1.5m-9-1.5h1.5v1.5h-1.5m-9-1.5h1.5v1.5h-1.5m-9-1.5h1.5v1.5h-1.5m-9-1.5h1.5v1.5h-1.5m-9-1.5h1.5v1.5h-1.5m-9-1.5h1.5v1.5h-1.5m-9-1.5h1.5v1.5h-1.5m-9-1.5h1.5v1.5h-1.5m-9-1.5h1.5v1.5h-1.5m-9-1.5h1.5v1.5h-1.5m-9-1.5h1.5v1.5h-1.5m-9-1.5h1.5v1.5h-1.5m-9-1.5h1.5v1.5h-1.5m-9-1.5h1.5v1.5h-1.5m-9-1.5h1.5v1.5h-1.5m-9-1.5h1.5v1.5h-1.5m-9-1.5h1.5v1.5h-1.5m-9-1.5h1.5v1.5h-1.5m-9-1.5h1.5v1.5h-1.5m-9-1.5h1.5v1.5h-1.5m-9-1.5h1.5v1.5h-1.5m-9-1.5h1.5v1.5h-1.5m-9-1.5h1.5v1.5h-1.5m-9-1.5h1.5v1.5h-1.5m-9-1.5h1.5v1.5h-1.5m-9-1.5h1.5v1.5h-1.5m-9-1.5h1.5v1.5h-1.5m-9-1.5h1.5v1.5h-1.5m-9-1.5h1.5v1.5h-1.5m-9-1.5h1.5v1.5h-1.5m-9-1.5h1.5v1.5h-1.5m-9-1.5h1.5v1.5h-1.5m-9-1.5h1.5v1.5h-1.5m-9-1.5h1.5v1.5h-1.5m-9-1.5h1.5v1.5h-1.5m-9-1.5h1.5v1.5h-1.5m-9-1.5h1.5v1.5h-1.5m-9-1.5h1.5v1.5h-1.5m-9-1.5h1.5v1.5h-1.5m-9-1.5h1.5v1.5h-1.5m-9-1.5h1.5v1.5h-1.5m-9-1.5h1.5v1.5h-1.5m-9-1.5h1.5v1.5h-1.5m-9-1.5h1.5v1.5h-1.5m-9-1.5h1.5v1.5h-1.5m-9-1.5h1.5v1.5h-1.5m-9-1.5h1.5v1.5h-1.5m-9-1.5h1.5v1.5h-1.5m-9-1.5h1.5v1.5h-1.5m-9-1.5h1.5v1.5h-1.5m-9-1.5h1.5v1.5h-1.5m-9-1.5h1.5v1.5h-1.5m-9-1.5h1.5v1.5h-1.5m-9-1.5h1.5v1.5h-1.5m-9-1.5h1.5v1.5h-1.5m-9-1.5h1.5v1.5h-1.5m-9-1.5h1.5v1.5h-1.5m-9-1.5h1.5v1.5h-1.5m-9-1.5h1.5v1.5h-1.5m-9-1.5h1.5v1.5h-1.5m-9-1.5h1.5v1.5h-1.5m-9-1.5h1.5v1.5h-1.5m-9-1.5h1.5v1.5h-1.5m-9-1.5h1.5v1.5h-1.5m-9-1.5h1.5v1.5h-1.5m-9-1.5h1.5v1.5h-1.5m-9-1.5h1.5v1.5h-1.5m-9-1.5h1.5v1.5h-1.5m-9-1.5h1.5v1.5h-1.5m-9-1.5h1.5v1.5h-1.5m-9-1.5h1.5v1.5h-1.5m-9-1.5h1.5v1.5h-1.5m-9-1.5h1.5v1.5h-1.5m-9-1.5h1.5v1.5h-1.5m-9-1.5h1.5v1.5h-1.5m-9-1.5h1.5v1.5h-1.5m-9-1.5h1.5v1.5h-1.5m-9-1.5h1.5v1.5h-1.5m-9-1.5h1.5v1.5h-1.5m-9-1.5h1.5v1.5h-1.5m-9-1.5h1.5v1.5h-1.5m-9-1.5h1.5v1.5h-1.5m-9-1.5h1.5v1.5h-1.5m-9-1.5h1.5v1.5h-1.5m-9-1.5h1.5v1.5h-1.5m-9-1.5h1.5v1.5h-1.5m-9-1.5h1.5v1.5h-1.5m-9-1.5h1.5v1.5h-1.5m-9-1.5h1.5v1.5h-1.5m-9-1.5h1.5v1.5h-1.5m-9-1.5h1.5v1.5h-1.5m-9-1.5h1.5v1.5h-1.5m-9-1.5h1.5v1.5h-1.5m-9-1.5h1.5v1.5h-1.5m-9-1.5h1.5v1.5h-1.5m-9-1.5h1.5v1.5h-1.5m-9-1.5h1.5v1.5h-1.5m-9-1.5h1.5v1.5h-1.5m-9-1.5h1.5v1.5h-1.5m-9-1.5h1.5v1.5h-1.5m-9-1.5h1.5v1.5h-1.5m-9-1.5h1.5v1.5h-1.5m-9-1.5h1.5v1.5h-1.5m-9-1.5h1.5v1.5h-1.5m-9-1.5h1.5v1.5h-1.5m-9-1.5h1.5v1.5h-1.5m-9-1.5h1.5v1.5h-1.5m-9-1.5h1.5v1.5h-1.5m-9-1.5h1.5v1.5h-1.5m-9-1.5h1.5v1.5h-1.5m-9-1.5h1.5v1.5h-1.5m-9-1.5h1.5v1.5h-1.5m-9-1.5h1.5v1.5h-1.5m-9-1.5h1.5v1.5h-1.5m-9-1.5h1.5v1.5h-1.5m-9-1.5h1.5v1.5h-1.5m-9-1.5h1.5v1.5h-1.5m-9-1.5h1.5v1.5h-1.5m-9-1.5h1.5v1.5h-1.5m-9-1.5h1.5v1.5h-1.5m-9-1.5h1.5v1.5h-1.5m-9-1.5h1.5v1.5h-1.5m-9-1.5h1.5v1.5h-1.5m-9-1.5h1.5v1.5h-1.5m-9-1.5h1.5v1.5h-1.5m-9-1.5h1.5v1.5h-1.5m-9-1.5h1.5v1.5h-1.5m-9-1.5h1.5v1.5h-1.5m-9-1.5h1.5v1.5h-1.5m-9-1.5h1.5v1.5h-1.5m-9-1.5h1.5v1.5h-1.5m-9-1.5h1.5v1.5h-1.5m-9-1.5h1.5v1.5h-1.5m-9-1.5h1.5v1.5h-1.5m-9-1.5h1.5v1.5h-1.5m-9-1.5h1.5v1.5h-1.5m-9-1.5h1.5v1.5h-1.5m-9-1.5h1.5v1.5h-1.5m-9-1.5h1.5v1.5h-1.5m-9-1.5h1.5v1.5h-1.5m-9-1.5h1.5v1.5h-1.5m-9-1.5h1.5v1.5h-1.5m-9-1.5h1.5v1.5h-1.5m-9-1.5h1.5v1.5h-1.5m-9-1.5h1.5v1.5h-1.5m-9-1.5h1.5v1.5h-1.5m-9-1.5h1.5v1.5h-1.5m-9-1.5h1.5v1.5h-1.5" transform="translate(0.9 -13)"/><text class="cls-5" transform="translate(43.75 436.33)">20</text><path class="cls-4" d="M1904.25,346.36h.75v1.5h-.75m-9-1.5h1.5v1.5h-1.5m-9-1.5h1.5v1.5h-1.5m-9-1.5h1.5v1.5h-1.5m-9-1.5h1.5v1.5h-1.5m-9-1.5h1.5v1.5h-1.5m-9-1.5h1.5v1.5h-1.5m-9-1.5h1.5v1.5h-1.5m-9-1.5h1.5v1.5h-1.5m-9-1.5h1.5v1.5h-1.5m-9-1.5h1.5v1.5h-1.5m-9-1.5h1.5v1.5h-1.5m-9-1.5h1.5v1.5h-1.5m-9-1.5h1.5v1.5h-1.5m-9-1.5h1.5v1.5h-1.5m-9-1.5h1.5v1.5h-1.5m-9-1.5h1.5v1.5h-1.5m-9-1.5h1.5v1.5h-1.5m-9-1.5h1.5v1.5h-1.5m-9-1.5h1.5v1.5h-1.5m-9-1.5h1.5v1.5h-1.5m-9-1.5h1.5v1.5h-1.5m-9-1.5h1.5v1.5h-1.5m-9-1.5h1.5v1.5h-1.5m-9-1.5h1.5v1.5h-1.5m-9-1.5h1.5v1.5h-1.5m-9-1.5h1.5v1.5h-1.5m-9-1.5h1.5v1.5h-1.5m-9-1.5h1.5v1.5h-1.5m-9-1.5h1.5v1.5h-1.5m-9-1.5h1.5v1.5h-1.5m-9-1.5h1.5v1.5h-1.5m-9-1.5h1.5v1.5h-1.5m-9-1.5h1.5v1.5h-1.5m-9-1.5h1.5v1.5h-1.5m-9-1.5h1.5v1.5h-1.5m-9-1.5h1.5v1.5h-1.5m-9-1.5h1.5v1.5h-1.5m-9-1.5h1.5v1.5h-1.5m-9-1.5h1.5v1.5h-1.5m-9-1.5h1.5v1.5h-1.5m-9-1.5h1.5v1.5h-1.5m-9-1.5h1.5v1.5h-1.5m-9-1.5h1.5v1.5h-1.5m-9-1.5h1.5v1.5h-1.5m-9-1.5h1.5v1.5h-1.5m-9-1.5h1.5v1.5h-1.5m-9-1.5h1.5v1.5h-1.5m-9-1.5h1.5v1.5h-1.5m-9-1.5h1.5v1.5h-1.5m-9-1.5h1.5v1.5h-1.5m-9-1.5h1.5v1.5h-1.5m-9-1.5h1.5v1.5h-1.5m-9-1.5h1.5v1.5h-1.5m-9-1.5h1.5v1.5h-1.5m-9-1.5h1.5v1.5h-1.5m-9-1.5h1.5v1.5h-1.5m-9-1.5h1.5v1.5h-1.5m-9-1.5h1.5v1.5h-1.5m-9-1.5h1.5v1.5h-1.5m-9-1.5h1.5v1.5h-1.5m-9-1.5h1.5v1.5h-1.5m-9-1.5h1.5v1.5h-1.5m-9-1.5h1.5v1.5h-1.5m-9-1.5h1.5v1.5h-1.5m-9-1.5h1.5v1.5h-1.5m-9-1.5h1.5v1.5h-1.5m-9-1.5h1.5v1.5h-1.5m-9-1.5h1.5v1.5h-1.5m-9-1.5h1.5v1.5h-1.5m-9-1.5h1.5v1.5h-1.5m-9-1.5h1.5v1.5h-1.5m-9-1.5h1.5v1.5h-1.5m-9-1.5h1.5v1.5h-1.5m-9-1.5h1.5v1.5h-1.5m-9-1.5h1.5v1.5h-1.5m-9-1.5h1.5v1.5h-1.5m-9-1.5h1.5v1.5h-1.5m-9-1.5h1.5v1.5h-1.5m-9-1.5h1.5v1.5h-1.5m-9-1.5h1.5v1.5h-1.5m-9-1.5h1.5v1.5h-1.5m-9-1.5h1.5v1.5h-1.5m-9-1.5h1.5v1.5h-1.5m-9-1.5h1.5v1.5h-1.5m-9-1.5h1.5v1.5h-1.5m-9-1.5h1.5v1.5h-1.5m-9-1.5h1.5v1.5h-1.5m-9-1.5h1.5v1.5h-1.5m-9-1.5h1.5v1.5h-1.5m-9-1.5h1.5v1.5h-1.5m-9-1.5h1.5v1.5h-1.5m-9-1.5h1.5v1.5h-1.5m-9-1.5h1.5v1.5h-1.5m-9-1.5h1.5v1.5h-1.5m-9-1.5h1.5v1.5h-1.5m-9-1.5h1.5v1.5h-1.5m-9-1.5h1.5v1.5h-1.5m-9-1.5h1.5v1.5h-1.5m-9-1.5h1.5v1.5h-1.5m-9-1.5h1.5v1.5h-1.5m-9-1.5h1.5v1.5h-1.5m-9-1.5h1.5v1.5h-1.5m-9-1.5h1.5v1.5h-1.5m-9-1.5h1.5v1.5h-1.5m-9-1.5h1.5v1.5h-1.5m-9-1.5h1.5v1.5h-1.5m-9-1.5h1.5v1.5h-1.5m-9-1.5h1.5v1.5h-1.5m-9-1.5h1.5v1.5h-1.5m-9-1.5h1.5v1.5h-1.5m-9-1.5h1.5v1.5h-1.5m-9-1.5h1.5v1.5h-1.5m-9-1.5h1.5v1.5h-1.5m-9-1.5h1.5v1.5h-1.5m-9-1.5h1.5v1.5h-1.5m-9-1.5h1.5v1.5h-1.5m-9-1.5h1.5v1.5h-1.5m-9-1.5h1.5v1.5h-1.5m-9-1.5h1.5v1.5h-1.5m-9-1.5h1.5v1.5h-1.5m-9-1.5h1.5v1.5h-1.5m-9-1.5h1.5v1.5h-1.5m-9-1.5h1.5v1.5h-1.5m-9-1.5h1.5v1.5h-1.5m-9-1.5h1.5v1.5h-1.5m-9-1.5h1.5v1.5h-1.5m-9-1.5h1.5v1.5h-1.5m-9-1.5h1.5v1.5h-1.5m-9-1.5h1.5v1.5h-1.5m-9-1.5h1.5v1.5h-1.5m-9-1.5h1.5v1.5h-1.5m-9-1.5h1.5v1.5h-1.5m-9-1.5h1.5v1.5h-1.5m-9-1.5h1.5v1.5h-1.5m-9-1.5h1.5v1.5h-1.5m-9-1.5h1.5v1.5h-1.5m-9-1.5h1.5v1.5h-1.5m-9-1.5h1.5v1.5h-1.5m-9-1.5h1.5v1.5h-1.5m-9-1.5h1.5v1.5h-1.5m-9-1.5h1.5v1.5h-1.5m-9-1.5h1.5v1.5h-1.5m-9-1.5h1.5v1.5h-1.5m-9-1.5h1.5v1.5h-1.5m-9-1.5h1.5v1.5h-1.5m-9-1.5h1.5v1.5h-1.5m-9-1.5h1.5v1.5h-1.5m-9-1.5h1.5v1.5h-1.5m-9-1.5h1.5v1.5h-1.5m-9-1.5h1.5v1.5h-1.5m-9-1.5h1.5v1.5h-1.5m-9-1.5h1.5v1.5h-1.5m-9-1.5h1.5v1.5h-1.5m-9-1.5h1.5v1.5h-1.5m-9-1.5h1.5v1.5h-1.5m-9-1.5h1.5v1.5h-1.5m-9-1.5h1.5v1.5h-1.5m-9-1.5h1.5v1.5h-1.5m-9-1.5h1.5v1.5h-1.5m-9-1.5h1.5v1.5h-1.5m-9-1.5h1.5v1.5h-1.5m-9-1.5h1.5v1.5h-1.5m-9-1.5h1.5v1.5h-1.5m-9-1.5h1.5v1.5h-1.5m-9-1.5h1.5v1.5h-1.5m-9-1.5h1.5v1.5h-1.5m-9-1.5h1.5v1.5h-1.5m-9-1.5h1.5v1.5h-1.5m-9-1.5h1.5v1.5h-1.5m-9-1.5h1.5v1.5h-1.5m-9-1.5h1.5v1.5h-1.5m-9-1.5h1.5v1.5h-1.5m-9-1.5h1.5v1.5h-1.5m-9-1.5h1.5v1.5h-1.5m-9-1.5h1.5v1.5h-1.5m-9-1.5h1.5v1.5h-1.5m-9-1.5h1.5v1.5h-1.5m-9-1.5h1.5v1.5h-1.5m-9-1.5h1.5v1.5h-1.5m-9-1.5h1.5v1.5h-1.5m-9-1.5h1.5v1.5h-1.5m-9-1.5h1.5v1.5h-1.5m-9-1.5h1.5v1.5h-1.5m-9-1.5h1.5v1.5h-1.5m-9-1.5h1.5v1.5h-1.5m-9-1.5h1.5v1.5h-1.5m-9-1.5h1.5v1.5h-1.5m-9-1.5h1.5v1.5h-1.5m-9-1.5h1.5v1.5h-1.5m-9-1.5h1.5v1.5h-1.5m-9-1.5h1.5v1.5h-1.5m-9-1.5h1.5v1.5h-1.5m-9-1.5h1.5v1.5h-1.5m-9-1.5h1.5v1.5h-1.5m-9-1.5h1.5v1.5h-1.5m-9-1.5h1.5v1.5h-1.5m-9-1.5h1.5v1.5h-1.5m-9-1.5h1.5v1.5h-1.5m-9-1.5h1.5v1.5h-1.5m-9-1.5h1.5v1.5h-1.5m-9-1.5h1.5v1.5h-1.5m-9-1.5h1.5v1.5h-1.5m-9-1.5h1.5v1.5h-1.5" transform="translate(0.9 -13)"/><text class="cls-5" transform="translate(43.75 339.87)">40</text><path class="cls-4" d="M1904.25,249.91h.75v1.5h-.75m-9-1.5h1.5v1.5h-1.5m-9-1.5h1.5v1.5h-1.5m-9-1.5h1.5v1.5h-1.5m-9-1.5h1.5v1.5h-1.5m-9-1.5h1.5v1.5h-1.5m-9-1.5h1.5v1.5h-1.5m-9-1.5h1.5v1.5h-1.5m-9-1.5h1.5v1.5h-1.5m-9-1.5h1.5v1.5h-1.5m-9-1.5h1.5v1.5h-1.5m-9-1.5h1.5v1.5h-1.5m-9-1.5h1.5v1.5h-1.5m-9-1.5h1.5v1.5h-1.5m-9-1.5h1.5v1.5h-1.5m-9-1.5h1.5v1.5h-1.5m-9-1.5h1.5v1.5h-1.5m-9-1.5h1.5v1.5h-1.5m-9-1.5h1.5v1.5h-1.5m-9-1.5h1.5v1.5h-1.5m-9-1.5h1.5v1.5h-1.5m-9-1.5h1.5v1.5h-1.5m-9-1.5h1.5v1.5h-1.5m-9-1.5h1.5v1.5h-1.5m-9-1.5h1.5v1.5h-1.5m-9-1.5h1.5v1.5h-1.5m-9-1.5h1.5v1.5h-1.5m-9-1.5h1.5v1.5h-1.5m-9-1.5h1.5v1.5h-1.5m-9-1.5h1.5v1.5h-1.5m-9-1.5h1.5v1.5h-1.5m-9-1.5h1.5v1.5h-1.5m-9-1.5h1.5v1.5h-1.5m-9-1.5h1.5v1.5h-1.5m-9-1.5h1.5v1.5h-1.5m-9-1.5h1.5v1.5h-1.5m-9-1.5h1.5v1.5h-1.5m-9-1.5h1.5v1.5h-1.5m-9-1.5h1.5v1.5h-1.5m-9-1.5h1.5v1.5h-1.5m-9-1.5h1.5v1.5h-1.5m-9-1.5h1.5v1.5h-1.5m-9-1.5h1.5v1.5h-1.5m-9-1.5h1.5v1.5h-1.5m-9-1.5h1.5v1.5h-1.5m-9-1.5h1.5v1.5h-1.5m-9-1.5h1.5v1.5h-1.5m-9-1.5h1.5v1.5h-1.5m-9-1.5h1.5v1.5h-1.5m-9-1.5h1.5v1.5h-1.5m-9-1.5h1.5v1.5h-1.5m-9-1.5h1.5v1.5h-1.5m-9-1.5h1.5v1.5h-1.5m-9-1.5h1.5v1.5h-1.5m-9-1.5h1.5v1.5h-1.5m-9-1.5h1.5v1.5h-1.5m-9-1.5h1.5v1.5h-1.5m-9-1.5h1.5v1.5h-1.5m-9-1.5h1.5v1.5h-1.5m-9-1.5h1.5v1.5h-1.5m-9-1.5h1.5v1.5h-1.5m-9-1.5h1.5v1.5h-1.5m-9-1.5h1.5v1.5h-1.5m-9-1.5h1.5v1.5h-1.5m-9-1.5h1.5v1.5h-1.5m-9-1.5h1.5v1.5h-1.5m-9-1.5h1.5v1.5h-1.5m-9-1.5h1.5v1.5h-1.5m-9-1.5h1.5v1.5h-1.5m-9-1.5h1.5v1.5h-1.5m-9-1.5h1.5v1.5h-1.5m-9-1.5h1.5v1.5h-1.5m-9-1.5h1.5v1.5h-1.5m-9-1.5h1.5v1.5h-1.5m-9-1.5h1.5v1.5h-1.5m-9-1.5h1.5v1.5h-1.5m-9-1.5h1.5v1.5h-1.5m-9-1.5h1.5v1.5h-1.5m-9-1.5h1.5v1.5h-1.5m-9-1.5h1.5v1.5h-1.5m-9-1.5h1.5v1.5h-1.5m-9-1.5h1.5v1.5h-1.5m-9-1.5h1.5v1.5h-1.5m-9-1.5h1.5v1.5h-1.5m-9-1.5h1.5v1.5h-1.5m-9-1.5h1.5v1.5h-1.5m-9-1.5h1.5v1.5h-1.5m-9-1.5h1.5v1.5h-1.5m-9-1.5h1.5v1.5h-1.5m-9-1.5h1.5v1.5h-1.5m-9-1.5h1.5v1.5h-1.5m-9-1.5h1.5v1.5h-1.5m-9-1.5h1.5v1.5h-1.5m-9-1.5h1.5v1.5h-1.5m-9-1.5h1.5v1.5h-1.5m-9-1.5h1.5v1.5h-1.5m-9-1.5h1.5v1.5h-1.5m-9-1.5h1.5v1.5h-1.5m-9-1.5h1.5v1.5h-1.5m-9-1.5h1.5v1.5h-1.5m-9-1.5h1.5v1.5h-1.5m-9-1.5h1.5v1.5h-1.5m-9-1.5h1.5v1.5h-1.5m-9-1.5h1.5v1.5h-1.5m-9-1.5h1.5v1.5h-1.5m-9-1.5h1.5v1.5h-1.5m-9-1.5h1.5v1.5h-1.5m-9-1.5h1.5v1.5h-1.5m-9-1.5h1.5v1.5h-1.5m-9-1.5h1.5v1.5h-1.5m-9-1.5h1.5v1.5h-1.5m-9-1.5h1.5v1.5h-1.5m-9-1.5h1.5v1.5h-1.5m-9-1.5h1.5v1.5h-1.5m-9-1.5h1.5v1.5h-1.5m-9-1.5h1.5v1.5h-1.5m-9-1.5h1.5v1.5h-1.5m-9-1.5h1.5v1.5h-1.5m-9-1.5h1.5v1.5h-1.5m-9-1.5h1.5v1.5h-1.5m-9-1.5h1.5v1.5h-1.5m-9-1.5h1.5v1.5h-1.5m-9-1.5h1.5v1.5h-1.5m-9-1.5h1.5v1.5h-1.5m-9-1.5h1.5v1.5h-1.5m-9-1.5h1.5v1.5h-1.5m-9-1.5h1.5v1.5h-1.5m-9-1.5h1.5v1.5h-1.5m-9-1.5h1.5v1.5h-1.5m-9-1.5h1.5v1.5h-1.5m-9-1.5h1.5v1.5h-1.5m-9-1.5h1.5v1.5h-1.5m-9-1.5h1.5v1.5h-1.5m-9-1.5h1.5v1.5h-1.5m-9-1.5h1.5v1.5h-1.5m-9-1.5h1.5v1.5h-1.5m-9-1.5h1.5v1.5h-1.5m-9-1.5h1.5v1.5h-1.5m-9-1.5h1.5v1.5h-1.5m-9-1.5h1.5v1.5h-1.5m-9-1.5h1.5v1.5h-1.5m-9-1.5h1.5v1.5h-1.5m-9-1.5h1.5v1.5h-1.5m-9-1.5h1.5v1.5h-1.5m-9-1.5h1.5v1.5h-1.5m-9-1.5h1.5v1.5h-1.5m-9-1.5h1.5v1.5h-1.5m-9-1.5h1.5v1.5h-1.5m-9-1.5h1.5v1.5h-1.5m-9-1.5h1.5v1.5h-1.5m-9-1.5h1.5v1.5h-1.5m-9-1.5h1.5v1.5h-1.5m-9-1.5h1.5v1.5h-1.5m-9-1.5h1.5v1.5h-1.5m-9-1.5h1.5v1.5h-1.5m-9-1.5h1.5v1.5h-1.5m-9-1.5h1.5v1.5h-1.5m-9-1.5h1.5v1.5h-1.5m-9-1.5h1.5v1.5h-1.5m-9-1.5h1.5v1.5h-1.5m-9-1.5h1.5v1.5h-1.5m-9-1.5h1.5v1.5h-1.5m-9-1.5h1.5v1.5h-1.5m-9-1.5h1.5v1.5h-1.5m-9-1.5h1.5v1.5h-1.5m-9-1.5h1.5v1.5h-1.5m-9-1.5h1.5v1.5h-1.5m-9-1.5h1.5v1.5h-1.5m-9-1.5h1.5v1.5h-1.5m-9-1.5h1.5v1.5h-1.5m-9-1.5h1.5v1.5h-1.5m-9-1.5h1.5v1.5h-1.5m-9-1.5h1.5v1.5h-1.5m-9-1.5h1.5v1.5h-1.5m-9-1.5h1.5v1.5h-1.5m-9-1.5h1.5v1.5h-1.5m-9-1.5h1.5v1.5h-1.5m-9-1.5h1.5v1.5h-1.5m-9-1.5h1.5v1.5h-1.5m-9-1.5h1.5v1.5h-1.5m-9-1.5h1.5v1.5h-1.5m-9-1.5h1.5v1.5h-1.5m-9-1.5h1.5v1.5h-1.5m-9-1.5h1.5v1.5h-1.5m-9-1.5h1.5v1.5h-1.5m-9-1.5h1.5v1.5h-1.5m-9-1.5h1.5v1.5h-1.5m-9-1.5h1.5v1.5h-1.5m-9-1.5h1.5v1.5h-1.5m-9-1.5h1.5v1.5h-1.5m-9-1.5h1.5v1.5h-1.5m-9-1.5h1.5v1.5h-1.5m-9-1.5h1.5v1.5h-1.5m-9-1.5h1.5v1.5h-1.5m-9-1.5h1.5v1.5h-1.5m-9-1.5h1.5v1.5h-1.5m-9-1.5h1.5v1.5h-1.5m-9-1.5h1.5v1.5h-1.5m-9-1.5h1.5v1.5h-1.5m-9-1.5h1.5v1.5h-1.5m-9-1.5h1.5v1.5h-1.5m-9-1.5h1.5v1.5h-1.5m-9-1.5h1.5v1.5h-1.5m-9-1.5h1.5v1.5h-1.5" transform="translate(0.9 -13)"/><text class="cls-5" transform="translate(43.75 243.42)">60</text><path class="cls-4" d="M1904.25,153.45h.75V155h-.75m-9-1.5h1.5V155h-1.5m-9-1.5h1.5V155h-1.5m-9-1.5h1.5V155h-1.5m-9-1.5h1.5V155h-1.5m-9-1.5h1.5V155h-1.5m-9-1.5h1.5V155h-1.5m-9-1.5h1.5V155h-1.5m-9-1.5h1.5V155h-1.5m-9-1.5h1.5V155h-1.5m-9-1.5h1.5V155h-1.5m-9-1.5h1.5V155h-1.5m-9-1.5h1.5V155h-1.5m-9-1.5h1.5V155h-1.5m-9-1.5h1.5V155h-1.5m-9-1.5h1.5V155h-1.5m-9-1.5h1.5V155h-1.5m-9-1.5h1.5V155h-1.5m-9-1.5h1.5V155h-1.5m-9-1.5h1.5V155h-1.5m-9-1.5h1.5V155h-1.5m-9-1.5h1.5V155h-1.5m-9-1.5h1.5V155h-1.5m-9-1.5h1.5V155h-1.5m-9-1.5h1.5V155h-1.5m-9-1.5h1.5V155h-1.5m-9-1.5h1.5V155h-1.5m-9-1.5h1.5V155h-1.5m-9-1.5h1.5V155h-1.5m-9-1.5h1.5V155h-1.5m-9-1.5h1.5V155h-1.5m-9-1.5h1.5V155h-1.5m-9-1.5h1.5V155h-1.5m-9-1.5h1.5V155h-1.5m-9-1.5h1.5V155h-1.5m-9-1.5h1.5V155h-1.5m-9-1.5h1.5V155h-1.5m-9-1.5h1.5V155h-1.5m-9-1.5h1.5V155h-1.5m-9-1.5h1.5V155h-1.5m-9-1.5h1.5V155h-1.5m-9-1.5h1.5V155h-1.5m-9-1.5h1.5V155h-1.5m-9-1.5h1.5V155h-1.5m-9-1.5h1.5V155h-1.5m-9-1.5h1.5V155h-1.5m-9-1.5h1.5V155h-1.5m-9-1.5h1.5V155h-1.5m-9-1.5h1.5V155h-1.5m-9-1.5h1.5V155h-1.5m-9-1.5h1.5V155h-1.5m-9-1.5h1.5V155h-1.5m-9-1.5h1.5V155h-1.5m-9-1.5h1.5V155h-1.5m-9-1.5h1.5V155h-1.5m-9-1.5h1.5V155h-1.5m-9-1.5h1.5V155h-1.5m-9-1.5h1.5V155h-1.5m-9-1.5h1.5V155h-1.5m-9-1.5h1.5V155h-1.5m-9-1.5h1.5V155h-1.5m-9-1.5h1.5V155h-1.5m-9-1.5h1.5V155h-1.5m-9-1.5h1.5V155h-1.5m-9-1.5h1.5V155h-1.5m-9-1.5h1.5V155h-1.5m-9-1.5h1.5V155h-1.5m-9-1.5h1.5V155h-1.5m-9-1.5h1.5V155h-1.5m-9-1.5h1.5V155h-1.5m-9-1.5h1.5V155h-1.5m-9-1.5h1.5V155h-1.5m-9-1.5h1.5V155h-1.5m-9-1.5h1.5V155h-1.5m-9-1.5h1.5V155h-1.5m-9-1.5h1.5V155h-1.5m-9-1.5h1.5V155h-1.5m-9-1.5h1.5V155h-1.5m-9-1.5h1.5V155h-1.5m-9-1.5h1.5V155h-1.5m-9-1.5h1.5V155h-1.5m-9-1.5h1.5V155h-1.5m-9-1.5h1.5V155h-1.5m-9-1.5h1.5V155h-1.5m-9-1.5h1.5V155h-1.5m-9-1.5h1.5V155h-1.5m-9-1.5h1.5V155h-1.5m-9-1.5h1.5V155h-1.5m-9-1.5h1.5V155h-1.5m-9-1.5h1.5V155h-1.5m-9-1.5h1.5V155h-1.5m-9-1.5h1.5V155h-1.5m-9-1.5h1.5V155h-1.5m-9-1.5h1.5V155h-1.5m-9-1.5h1.5V155h-1.5m-9-1.5h1.5V155h-1.5m-9-1.5h1.5V155h-1.5m-9-1.5h1.5V155h-1.5m-9-1.5h1.5V155h-1.5m-9-1.5h1.5V155h-1.5m-9-1.5h1.5V155h-1.5m-9-1.5h1.5V155h-1.5m-9-1.5h1.5V155h-1.5m-9-1.5h1.5V155h-1.5m-9-1.5h1.5V155h-1.5m-9-1.5h1.5V155h-1.5m-9-1.5h1.5V155h-1.5m-9-1.5h1.5V155h-1.5m-9-1.5h1.5V155h-1.5m-9-1.5h1.5V155h-1.5m-9-1.5h1.5V155h-1.5m-9-1.5h1.5V155h-1.5m-9-1.5h1.5V155h-1.5m-9-1.5h1.5V155h-1.5m-9-1.5h1.5V155h-1.5m-9-1.5h1.5V155h-1.5m-9-1.5h1.5V155h-1.5m-9-1.5h1.5V155h-1.5m-9-1.5h1.5V155h-1.5m-9-1.5h1.5V155h-1.5m-9-1.5h1.5V155h-1.5m-9-1.5h1.5V155h-1.5m-9-1.5h1.5V155h-1.5m-9-1.5h1.5V155h-1.5m-9-1.5h1.5V155h-1.5m-9-1.5h1.5V155h-1.5m-9-1.5h1.5V155h-1.5m-9-1.5h1.5V155h-1.5m-9-1.5h1.5V155h-1.5m-9-1.5h1.5V155h-1.5m-9-1.5h1.5V155h-1.5m-9-1.5h1.5V155h-1.5m-9-1.5h1.5V155h-1.5m-9-1.5h1.5V155h-1.5m-9-1.5h1.5V155h-1.5m-9-1.5h1.5V155h-1.5m-9-1.5h1.5V155h-1.5m-9-1.5h1.5V155h-1.5m-9-1.5h1.5V155h-1.5m-9-1.5h1.5V155h-1.5m-9-1.5h1.5V155h-1.5m-9-1.5h1.5V155h-1.5m-9-1.5h1.5V155h-1.5m-9-1.5h1.5V155h-1.5m-9-1.5h1.5V155h-1.5m-9-1.5h1.5V155h-1.5m-9-1.5h1.5V155h-1.5m-9-1.5h1.5V155h-1.5m-9-1.5h1.5V155h-1.5m-9-1.5h1.5V155h-1.5m-9-1.5h1.5V155h-1.5m-9-1.5h1.5V155h-1.5m-9-1.5h1.5V155h-1.5m-9-1.5h1.5V155h-1.5m-9-1.5h1.5V155h-1.5m-9-1.5h1.5V155h-1.5m-9-1.5h1.5V155h-1.5m-9-1.5h1.5V155h-1.5m-9-1.5h1.5V155h-1.5m-9-1.5h1.5V155h-1.5m-9-1.5h1.5V155h-1.5m-9-1.5h1.5V155h-1.5m-9-1.5h1.5V155h-1.5m-9-1.5h1.5V155h-1.5m-9-1.5h1.5V155h-1.5m-9-1.5h1.5V155h-1.5m-9-1.5h1.5V155h-1.5m-9-1.5h1.5V155h-1.5m-9-1.5h1.5V155h-1.5m-9-1.5h1.5V155h-1.5m-9-1.5h1.5V155h-1.5m-9-1.5h1.5V155h-1.5m-9-1.5h1.5V155h-1.5m-9-1.5h1.5V155h-1.5m-9-1.5h1.5V155h-1.5m-9-1.5h1.5V155h-1.5m-9-1.5h1.5V155h-1.5m-9-1.5h1.5V155h-1.5m-9-1.5h1.5V155h-1.5m-9-1.5h1.5V155h-1.5m-9-1.5h1.5V155h-1.5m-9-1.5h1.5V155h-1.5m-9-1.5h1.5V155h-1.5m-9-1.5h1.5V155h-1.5m-9-1.5h1.5V155h-1.5m-9-1.5h1.5V155h-1.5m-9-1.5h1.5V155h-1.5m-9-1.5h1.5V155h-1.5m-9-1.5h1.5V155h-1.5m-9-1.5h1.5V155h-1.5m-9-1.5h1.5V155h-1.5m-9-1.5h1.5V155h-1.5m-9-1.5h1.5V155h-1.5m-9-1.5h1.5V155h-1.5m-9-1.5h1.5V155h-1.5m-9-1.5h1.5V155h-1.5m-9-1.5h1.5V155h-1.5m-9-1.5h1.5V155h-1.5m-9-1.5h1.5V155h-1.5m-9-1.5h1.5V155h-1.5m-9-1.5h1.5V155h-1.5m-9-1.5h1.5V155h-1.5m-9-1.5h1.5V155h-1.5m-9-1.5h1.5V155h-1.5" transform="translate(0.9 -13)"/><text class="cls-5" transform="translate(43.75 146.96)">80</text><path class="cls-4" d="M1904.25,57h.75v1.5h-.75m-9-1.5h1.5v1.5h-1.5m-9-1.5h1.5v1.5h-1.5m-9-1.5h1.5v1.5h-1.5m-9-1.5h1.5v1.5h-1.5m-9-1.5h1.5v1.5h-1.5m-9-1.5h1.5v1.5h-1.5m-9-1.5h1.5v1.5h-1.5m-9-1.5h1.5v1.5h-1.5m-9-1.5h1.5v1.5h-1.5m-9-1.5h1.5v1.5h-1.5m-9-1.5h1.5v1.5h-1.5m-9-1.5h1.5v1.5h-1.5m-9-1.5h1.5v1.5h-1.5m-9-1.5h1.5v1.5h-1.5m-9-1.5h1.5v1.5h-1.5m-9-1.5h1.5v1.5h-1.5m-9-1.5h1.5v1.5h-1.5m-9-1.5h1.5v1.5h-1.5m-9-1.5h1.5v1.5h-1.5m-9-1.5h1.5v1.5h-1.5m-9-1.5h1.5v1.5h-1.5m-9-1.5h1.5v1.5h-1.5m-9-1.5h1.5v1.5h-1.5m-9-1.5h1.5v1.5h-1.5m-9-1.5h1.5v1.5h-1.5m-9-1.5h1.5v1.5h-1.5m-9-1.5h1.5v1.5h-1.5m-9-1.5h1.5v1.5h-1.5m-9-1.5h1.5v1.5h-1.5m-9-1.5h1.5v1.5h-1.5m-9-1.5h1.5v1.5h-1.5m-9-1.5h1.5v1.5h-1.5m-9-1.5h1.5v1.5h-1.5m-9-1.5h1.5v1.5h-1.5m-9-1.5h1.5v1.5h-1.5m-9-1.5h1.5v1.5h-1.5m-9-1.5h1.5v1.5h-1.5m-9-1.5h1.5v1.5h-1.5m-9-1.5h1.5v1.5h-1.5m-9-1.5h1.5v1.5h-1.5m-9-1.5h1.5v1.5h-1.5m-9-1.5h1.5v1.5h-1.5m-9-1.5h1.5v1.5h-1.5m-9-1.5h1.5v1.5h-1.5m-9-1.5h1.5v1.5h-1.5m-9-1.5h1.5v1.5h-1.5m-9-1.5h1.5v1.5h-1.5m-9-1.5h1.5v1.5h-1.5m-9-1.5h1.5v1.5h-1.5m-9-1.5h1.5v1.5h-1.5m-9-1.5h1.5v1.5h-1.5m-9-1.5h1.5v1.5h-1.5m-9-1.5h1.5v1.5h-1.5m-9-1.5h1.5v1.5h-1.5m-9-1.5h1.5v1.5h-1.5m-9-1.5h1.5v1.5h-1.5m-9-1.5h1.5v1.5h-1.5m-9-1.5h1.5v1.5h-1.5m-9-1.5h1.5v1.5h-1.5m-9-1.5h1.5v1.5h-1.5m-9-1.5h1.5v1.5h-1.5m-9-1.5h1.5v1.5h-1.5m-9-1.5h1.5v1.5h-1.5m-9-1.5h1.5v1.5h-1.5m-9-1.5h1.5v1.5h-1.5m-9-1.5h1.5v1.5h-1.5m-9-1.5h1.5v1.5h-1.5m-9-1.5h1.5v1.5h-1.5m-9-1.5h1.5v1.5h-1.5m-9-1.5h1.5v1.5h-1.5m-9-1.5h1.5v1.5h-1.5m-9-1.5h1.5v1.5h-1.5m-9-1.5h1.5v1.5h-1.5m-9-1.5h1.5v1.5h-1.5m-9-1.5h1.5v1.5h-1.5m-9-1.5h1.5v1.5h-1.5m-9-1.5h1.5v1.5h-1.5m-9-1.5h1.5v1.5h-1.5m-9-1.5h1.5v1.5h-1.5m-9-1.5h1.5v1.5h-1.5m-9-1.5h1.5v1.5h-1.5m-9-1.5h1.5v1.5h-1.5m-9-1.5h1.5v1.5h-1.5m-9-1.5h1.5v1.5h-1.5m-9-1.5h1.5v1.5h-1.5m-9-1.5h1.5v1.5h-1.5m-9-1.5h1.5v1.5h-1.5m-9-1.5h1.5v1.5h-1.5m-9-1.5h1.5v1.5h-1.5m-9-1.5h1.5v1.5h-1.5m-9-1.5h1.5v1.5h-1.5m-9-1.5h1.5v1.5h-1.5m-9-1.5h1.5v1.5h-1.5m-9-1.5h1.5v1.5h-1.5m-9-1.5h1.5v1.5h-1.5m-9-1.5h1.5v1.5h-1.5m-9-1.5h1.5v1.5h-1.5m-9-1.5h1.5v1.5h-1.5m-9-1.5h1.5v1.5h-1.5m-9-1.5h1.5v1.5h-1.5m-9-1.5h1.5v1.5h-1.5m-9-1.5h1.5v1.5h-1.5m-9-1.5h1.5v1.5h-1.5m-9-1.5h1.5v1.5h-1.5m-9-1.5h1.5v1.5h-1.5m-9-1.5h1.5v1.5h-1.5m-9-1.5h1.5v1.5h-1.5m-9-1.5h1.5v1.5h-1.5m-9-1.5h1.5v1.5h-1.5m-9-1.5h1.5v1.5h-1.5m-9-1.5h1.5v1.5h-1.5m-9-1.5h1.5v1.5h-1.5m-9-1.5h1.5v1.5h-1.5m-9-1.5h1.5v1.5h-1.5m-9-1.5h1.5v1.5h-1.5m-9-1.5h1.5v1.5h-1.5m-9-1.5h1.5v1.5h-1.5m-9-1.5h1.5v1.5h-1.5m-9-1.5h1.5v1.5h-1.5m-9-1.5h1.5v1.5h-1.5m-9-1.5h1.5v1.5h-1.5m-9-1.5h1.5v1.5h-1.5m-9-1.5h1.5v1.5h-1.5m-9-1.5h1.5v1.5h-1.5m-9-1.5h1.5v1.5h-1.5m-9-1.5h1.5v1.5h-1.5m-9-1.5h1.5v1.5h-1.5m-9-1.5h1.5v1.5h-1.5m-9-1.5h1.5v1.5h-1.5m-9-1.5h1.5v1.5h-1.5m-9-1.5h1.5v1.5h-1.5m-9-1.5h1.5v1.5h-1.5m-9-1.5h1.5v1.5h-1.5m-9-1.5h1.5v1.5h-1.5m-9-1.5h1.5v1.5h-1.5m-9-1.5h1.5v1.5h-1.5m-9-1.5h1.5v1.5h-1.5m-9-1.5h1.5v1.5h-1.5m-9-1.5h1.5v1.5h-1.5m-9-1.5h1.5v1.5h-1.5m-9-1.5h1.5v1.5h-1.5m-9-1.5h1.5v1.5h-1.5m-9-1.5h1.5v1.5h-1.5m-9-1.5h1.5v1.5h-1.5m-9-1.5h1.5v1.5h-1.5m-9-1.5h1.5v1.5h-1.5m-9-1.5h1.5v1.5h-1.5m-9-1.5h1.5v1.5h-1.5m-9-1.5h1.5v1.5h-1.5m-9-1.5h1.5v1.5h-1.5m-9-1.5h1.5v1.5h-1.5m-9-1.5h1.5v1.5h-1.5m-9-1.5h1.5v1.5h-1.5m-9-1.5h1.5v1.5h-1.5m-9-1.5h1.5v1.5h-1.5m-9-1.5h1.5v1.5h-1.5m-9-1.5h1.5v1.5h-1.5m-9-1.5h1.5v1.5h-1.5m-9-1.5h1.5v1.5h-1.5m-9-1.5h1.5v1.5h-1.5m-9-1.5h1.5v1.5h-1.5m-9-1.5h1.5v1.5h-1.5m-9-1.5h1.5v1.5h-1.5m-9-1.5h1.5v1.5h-1.5m-9-1.5h1.5v1.5h-1.5m-9-1.5h1.5v1.5h-1.5m-9-1.5h1.5v1.5h-1.5m-9-1.5h1.5v1.5h-1.5m-9-1.5h1.5v1.5h-1.5m-9-1.5h1.5v1.5h-1.5m-9-1.5h1.5v1.5h-1.5m-9-1.5h1.5v1.5h-1.5m-9-1.5h1.5v1.5h-1.5m-9-1.5h1.5v1.5h-1.5m-9-1.5h1.5v1.5h-1.5m-9-1.5h1.5v1.5h-1.5m-9-1.5h1.5v1.5h-1.5m-9-1.5h1.5v1.5h-1.5m-9-1.5h1.5v1.5h-1.5m-9-1.5h1.5v1.5h-1.5m-9-1.5h1.5v1.5h-1.5m-9-1.5h1.5v1.5h-1.5m-9-1.5h1.5v1.5h-1.5m-9-1.5h1.5v1.5h-1.5m-9-1.5h1.5v1.5h-1.5m-9-1.5h1.5v1.5h-1.5m-9-1.5h1.5v1.5h-1.5m-9-1.5h1.5v1.5h-1.5m-9-1.5h1.5v1.5h-1.5m-9-1.5h1.5v1.5h-1.5m-9-1.5h1.5v1.5h-1.5m-9-1.5h1.5v1.5h-1.5m-9-1.5h1.5v1.5h-1.5m-9-1.5h1.5v1.5h-1.5m-9-1.5h1.5v1.5h-1.5m-9-1.5h1.5v1.5h-1.5m-9-1.5h1.5v1.5h-1.5m-9-1.5h1.5v1.5h-1.5m-9-1.5h1.5v1.5h-1.5m-9-1.5h1.5v1.5h-1.5m-9-1.5h1.5v1.5h-1.5m-9-1.5h1.5v1.5h-1.5m-9-1.5h1.5v1.5h-1.5" transform="translate(0.9 -13)"/><text class="cls-5" transform="translate(34.04 50.51)">100</text><text class="cls-6" transform="translate(969.96 611.01)">Date</text><text class="cls-7" transform="matrix(0, -1, 1, 0, 20.4, 313.17)">Count</text></g><g class="cls-2"><text class="cls-5" transform="translate(109.87 562.27)">2015</text><text class="cls-5" transform="translate(109 586.26)">Qtr 1</text><text class="cls-5" transform="translate(173.78 562.27)">2015</text><text class="cls-5" transform="translate(172.9 586.26)">Qtr 2</text><text class="cls-5" transform="translate(237.69 562.27)">2015</text><text class="cls-5" transform="translate(236.81 586.26)">Qtr 3</text><text class="cls-5" transform="translate(301.59 562.27)">2015</text><text class="cls-5" transform="translate(300.72 586.26)">Qtr 4</text><text class="cls-5" transform="translate(365.5 562.27)">2016</text><text class="cls-5" transform="translate(364.63 586.26)">Qtr 1</text><text class="cls-5" transform="translate(429.41 562.27)">2016</text><text class="cls-5" transform="translate(428.53 586.26)">Qtr 2</text><text class="cls-5" transform="translate(493.32 562.27)">2016</text><text class="cls-5" transform="translate(492.44 586.26)">Qtr 3</text><text class="cls-5" transform="translate(557.22 562.27)">2016</text><text class="cls-5" transform="translate(556.35 586.26)">Qtr 4</text><text class="cls-5" transform="translate(621.13 562.27)">2017</text><text class="cls-5" transform="translate(620.26 586.26)">Qtr 1</text><text class="cls-5" transform="translate(685.04 562.27)">2017</text><text class="cls-5" transform="translate(684.16 586.26)">Qtr 2</text><text class="cls-5" transform="translate(748.95 562.27)">2017</text><text class="cls-5" transform="translate(748.07 586.26)">Qtr 3</text><text class="cls-5" transform="translate(812.85 562.27)">2017</text><text class="cls-5" transform="translate(811.98 586.26)">Qtr 4</text><text class="cls-5" transform="translate(876.76 562.27)">2018</text><text class="cls-5" transform="translate(875.88 586.26)">Qtr 1</text><text class="cls-5" transform="translate(940.67 562.27)">2018</text><text class="cls-5" transform="translate(939.79 586.26)">Qtr 2</text><text class="cls-5" transform="translate(1004.57 562.27)">2018</text><text class="cls-5" transform="translate(1003.7 586.26)">Qtr 3</text><text class="cls-5" transform="translate(1068.48 562.27)">2018</text><text class="cls-5" transform="translate(1067.61 586.26)">Qtr 4</text><text class="cls-5" transform="translate(1132.39 562.27)">2019</text><text class="cls-5" transform="translate(1131.51 586.26)">Qtr 1</text><text class="cls-5" transform="translate(1196.3 562.27)">2019</text><text class="cls-5" transform="translate(1195.42 586.26)">Qtr 2</text><text class="cls-5" transform="translate(1260.2 562.27)">2019</text><text class="cls-5" transform="translate(1259.33 586.26)">Qtr 3</text><text class="cls-5" transform="translate(1324.11 562.27)">2019</text><text class="cls-5" transform="translate(1323.24 586.26)">Qtr 4</text><text class="cls-5" transform="translate(1388.02 562.27)">2020</text><text class="cls-5" transform="translate(1387.14 586.26)">Qtr 1</text><text class="cls-5" transform="translate(1451.93 562.27)">2020</text><text class="cls-5" transform="translate(1451.05 586.26)">Qtr 2</text><text class="cls-5" transform="translate(1515.83 562.27)">2020</text><text class="cls-5" transform="translate(1514.96 586.26)">Qtr 3</text><text class="cls-5" transform="translate(1579.74 562.27)">2020</text><text class="cls-5" transform="translate(1578.87 586.26)">Qtr 4</text><text class="cls-5" transform="translate(1643.65 562.27)">2021</text><text class="cls-5" transform="translate(1642.77 586.26)">Qtr 1</text><text class="cls-5" transform="translate(1707.56 562.27)">2021</text><text class="cls-5" transform="translate(1706.68 586.26)">Qtr 2</text><text class="cls-5" transform="translate(1771.46 562.27)">2021</text><text class="cls-5" transform="translate(1770.59 586.26)">Qtr 3</text><text class="cls-5" transform="translate(1835.37 562.27)">2021</text><text class="cls-5" transform="translate(1834.5 586.26)">Qtr 4</text></g><g class="cls-8"><rect class="cls-9" x="1573.58" y="521.45" width="50.77" height="4.82"/><rect class="cls-9" x="1637.49" y="516.63" width="50.77" height="9.65"/><rect class="cls-10" x="359.34" y="521.45" width="50.77" height="4.82"/><rect class="cls-10" x="487.16" y="521.45" width="50.77" height="4.82"/><rect class="cls-10" x="742.79" y="521.45" width="50.77" height="4.82"/><rect class="cls-10" x="1062.33" y="521.45" width="50.77" height="4.82"/><rect class="cls-10" x="1190.14" y="521.45" width="50.77" height="4.82"/><rect class="cls-10" x="1254.05" y="521.45" width="50.77" height="4.82"/><rect class="cls-10" x="1317.95" y="521.45" width="50.77" height="4.82"/><rect class="cls-10" x="1381.86" y="516.63" width="50.77" height="9.65"/><rect class="cls-10" x="1445.77" y="400.88" width="50.77" height="125.39"/><rect class="cls-10" x="1509.68" y="453.93" width="50.77" height="72.34"/><rect class="cls-10" x="1573.58" y="492.51" width="50.77" height="28.94"/><rect class="cls-10" x="1637.49" y="405.7" width="50.77" height="110.92"/><rect class="cls-11" x="167.62" y="506.98" width="50.77" height="19.29"/><rect class="cls-11" x="231.53" y="506.98" width="50.77" height="19.29"/><rect class="cls-11" x="295.44" y="521.45" width="50.77" height="4.82"/><rect class="cls-11" x="487.16" y="511.8" width="50.77" height="9.65"/><rect class="cls-11" x="551.07" y="521.45" width="50.77" height="4.82"/><rect class="cls-11" x="678.88" y="516.63" width="50.77" height="9.65"/><rect class="cls-11" x="742.79" y="511.8" width="50.77" height="9.65"/><rect class="cls-11" x="934.51" y="492.51" width="50.77" height="33.76"/><rect class="cls-11" x="998.42" y="521.45" width="50.77" height="4.82"/><rect class="cls-11" x="1062.33" y="482.87" width="50.77" height="38.58"/><rect class="cls-11" x="1126.23" y="478.04" width="50.77" height="48.23"/><rect class="cls-11" x="1190.14" y="516.63" width="50.77" height="4.82"/><rect class="cls-11" x="1254.05" y="502.16" width="50.77" height="19.29"/><rect class="cls-11" x="1317.95" y="516.63" width="50.77" height="4.82"/><rect class="cls-11" x="1381.86" y="424.99" width="50.77" height="91.63"/><rect class="cls-11" x="1445.77" y="232.08" width="50.77" height="168.8"/><rect class="cls-11" x="1509.68" y="256.2" width="50.77" height="197.73"/><rect class="cls-11" x="1573.58" y="236.91" width="50.77" height="255.61"/><rect class="cls-11" x="1637.49" y="275.49" width="50.77" height="130.21"/><path class="cls-12" d="M959.17,505.51l63.91,28.94L1087,495.87l63.9-4.82,63.91,38.58,63.91-14.47,63.91,14.47,63.9-91.63,63.91-192.91,63.91,24.11,63.9-19.29,63.91,43.4M703.54,529.63l63.91-4.82m-255.63,0,63.91,9.64M192.28,520h63.91l63.91,14.47H384" transform="translate(0.9 -13)"/></g><g class="cls-13"><path class="cls-9" d="M1.58,22.62a7.28,7.28,0,0,0,.57,2.84A7.4,7.4,0,0,0,9,30a7.49,7.49,0,0,0,2.84-.56,7.4,7.4,0,0,0,2.4-1.61,7.42,7.42,0,0,0,0-10.49,7.24,7.24,0,0,0-2.4-1.61,7.48,7.48,0,0,0-5.68,0,7.28,7.28,0,0,0-2.41,1.61,7.39,7.39,0,0,0-1.61,2.41,7.23,7.23,0,0,0-.57,2.83" transform="translate(0.9 -13)"/></g><text class="cls-14" transform="translate(20.59 17)">I</text><text class="cls-14" transform="translate(25.91 17)">n</text><text class="cls-14" transform="translate(37.23 17)">s</text><text class="cls-14" transform="translate(45.71 17)">p</text><text class="cls-14" transform="translate(57.46 17)">i</text><text class="cls-14" transform="translate(62.31 17)">r</text><text class="cls-14" transform="translate(69.26 17)">a</text><text class="cls-14" transform="translate(79.43 17)">t</text><text class="cls-14" transform="translate(86.21 17)">i</text><text class="cls-14" transform="translate(91.05 17)">on</text><g class="cls-15"><path class="cls-10" d="M123.08,22.62a7.28,7.28,0,0,0,.57,2.84A7.4,7.4,0,0,0,130.51,30a7.49,7.49,0,0,0,2.84-.56,7.4,7.4,0,0,0,2.4-1.61,7.42,7.42,0,0,0,0-10.49,7.24,7.24,0,0,0-2.4-1.61,7.48,7.48,0,0,0-5.68,0,7.28,7.28,0,0,0-2.41,1.61,7.39,7.39,0,0,0-1.61,2.41,7.23,7.23,0,0,0-.57,2.83" transform="translate(0.9 -13)"/></g><text class="cls-14" transform="translate(141.36 17)">L</text><text class="cls-14" transform="translate(150.78 17)">u</text><text class="cls-14" transform="translate(162.09 17)">c</text><text class="cls-14" transform="translate(171.33 17)">i</text><text class="cls-14" transform="translate(176.17 17)">d</text><g class="cls-16"><path class="cls-11" d="M196.58,22.62a7.28,7.28,0,0,0,.57,2.84A7.4,7.4,0,0,0,204,30a7.49,7.49,0,0,0,2.84-.56,7.4,7.4,0,0,0,2.4-1.61,7.42,7.42,0,0,0,0-10.49,7.24,7.24,0,0,0-2.4-1.61,7.48,7.48,0,0,0-5.68,0,7.28,7.28,0,0,0-2.41,1.61,7.39,7.39,0,0,0-1.61,2.41,7.23,7.23,0,0,0-.57,2.83" transform="translate(0.9 -13)"/></g><text class="cls-14" transform="translate(215.24 17)">N</text><text class="cls-14" transform="translate(230.2 17)">one</text></g></g></svg>