<?xml version="1.0" encoding="utf-8"?>
<!-- Generator: Adobe Illustrator 23.0.1, SVG Export Plug-In . SVG Version: 6.00 Build 0)  -->
<svg version="1.1" id="Layer_1" xmlns="http://www.w3.org/2000/svg" xmlns:xlink="http://www.w3.org/1999/xlink" x="0px" y="0px"
	 viewBox="0 0 1000 1000" style="enable-background:new 0 0 1000 1000;" xml:space="preserve">
<style type="text/css">
	.st0{fill:none;}
	.st1{fill:#FFFFFF;}
</style>
<path d="M500,250c-69.04,0-125,55.96-125,125s55.96,125,125,125s125,55.96,125,125s-55.96,125-125,125c138.07,0,250-111.93,250-250
	S638.07,250,500,250z"/>
<path class="st0" d="M750,500c0-138.07-111.93-250-250-250v500C638.07,750,750,638.07,750,500z"/>
<path class="st1" d="M500,750c69.04,0,125-55.96,125-125s-55.96-125-125-125s-125-55.96-125-125s55.96-125,125-125
	c-138.07,0-250,111.93-250,250S361.93,750,500,750z"/>
<path class="st0" d="M250,500c0,138.07,111.93,250,250,250V250C361.93,250,250,361.93,250,500z"/>
<path d="M500,500L323.26,676.74l0.27,0.33C278.11,631.81,250,569.19,250,500c0-138.07,111.93-250,250-250V0
	c-2.14,0-4.27,0.01-6.4,0.04c-0.46,0.01-0.92,0.02-1.38,0.03c-1.68,0.03-3.37,0.05-5.05,0.1c-0.39,0.01-0.78,0.03-1.16,0.04
	c-1.75,0.05-3.51,0.1-5.26,0.17c-0.3,0.01-0.59,0.03-0.89,0.04c-1.85,0.07-3.69,0.15-5.53,0.25c-0.19,0.01-0.38,0.02-0.57,0.03
	c-1.95,0.1-3.89,0.21-5.84,0.33c-0.08,0.01-0.17,0.01-0.25,0.02c-2.05,0.13-4.09,0.27-6.14,0.43c-0.01,0-0.02,0-0.02,0
	c-6.34,0.48-12.64,1.08-18.91,1.8c-0.03,0-0.05,0.01-0.08,0.01c-2.05,0.23-4.1,0.48-6.14,0.74c-0.12,0.02-0.25,0.03-0.37,0.05
	c-1.93,0.25-3.85,0.5-5.78,0.77c-0.3,0.04-0.6,0.09-0.89,0.13c-1.73,0.25-3.47,0.5-5.2,0.76c-0.53,0.08-1.07,0.17-1.6,0.25
	c-1.48,0.23-2.95,0.46-4.43,0.71c-0.84,0.14-1.68,0.29-2.52,0.43c-1.15,0.19-2.29,0.39-3.43,0.59c-1.24,0.22-2.48,0.45-3.71,0.68
	c-0.73,0.13-1.45,0.27-2.18,0.4c-1.73,0.33-3.46,0.67-5.19,1.02c-0.21,0.04-0.42,0.08-0.63,0.13
	c-32.49,6.58-64.28,16.42-95.14,29.48c-21.39,9.05-41.98,19.49-61.72,31.28c-33.95,20.32-65.29,44.55-93.39,72.07
	c-1.25,1.23-2.5,2.46-3.74,3.7c-1.24,1.24-2.47,2.49-3.7,3.74c-27.51,28.1-51.73,59.43-72.05,93.36
	C58.9,263.3,48.45,283.9,39.4,305.3c-13.06,30.87-22.9,62.66-29.48,95.14c-0.04,0.21-0.08,0.42-0.13,0.63
	c-0.35,1.73-0.69,3.46-1.02,5.19c-0.14,0.73-0.27,1.45-0.4,2.18c-0.23,1.24-0.46,2.47-0.68,3.71c-0.2,1.14-0.4,2.29-0.59,3.43
	c-0.14,0.84-0.29,1.68-0.43,2.52c-0.24,1.47-0.48,2.95-0.71,4.43c-0.08,0.53-0.17,1.07-0.25,1.6c-0.26,1.73-0.52,3.46-0.76,5.2
	c-0.04,0.3-0.09,0.59-0.13,0.89c-0.27,1.92-0.52,3.85-0.77,5.78c-0.02,0.12-0.03,0.25-0.05,0.37c-0.26,2.04-0.51,4.09-0.74,6.14
	c0,0.03-0.01,0.05-0.01,0.08c-0.72,6.27-1.32,12.57-1.8,18.91c0,0.01,0,0.02,0,0.02c-0.16,2.04-0.3,4.09-0.43,6.14
	c-0.01,0.08-0.01,0.17-0.02,0.25c-0.12,1.94-0.23,3.89-0.33,5.84c-0.01,0.19-0.02,0.38-0.03,0.57c-0.09,1.84-0.17,3.68-0.25,5.53
	c-0.01,0.3-0.03,0.59-0.04,0.89c-0.07,1.75-0.12,3.5-0.17,5.26c-0.01,0.39-0.03,0.78-0.04,1.16c-0.04,1.68-0.07,3.36-0.1,5.05
	c-0.01,0.46-0.02,0.92-0.03,1.38C0.01,495.73,0,497.86,0,500s0.01,4.27,0.04,6.4c0.01,0.46,0.02,0.92,0.03,1.38
	c0.03,1.68,0.05,3.37,0.1,5.05c0.01,0.39,0.03,0.78,0.04,1.16c0.05,1.75,0.1,3.51,0.17,5.26c0.01,0.3,0.03,0.59,0.04,0.89
	c0.07,1.85,0.15,3.69,0.25,5.53c0.01,0.19,0.02,0.38,0.03,0.57c0.1,1.95,0.21,3.89,0.33,5.84c0.01,0.08,0.01,0.17,0.02,0.25
	c0.13,2.05,0.27,4.09,0.43,6.14c0,0.01,0,0.02,0,0.02c0.48,6.34,1.08,12.64,1.8,18.91c0,0.03,0.01,0.05,0.01,0.08
	c0.23,2.05,0.48,4.1,0.74,6.14c0.02,0.12,0.03,0.25,0.05,0.37c0.25,1.93,0.5,3.85,0.77,5.78c0.04,0.3,0.09,0.6,0.13,0.89
	c0.25,1.73,0.5,3.47,0.76,5.2c0.08,0.53,0.17,1.06,0.25,1.6c0.23,1.48,0.46,2.96,0.71,4.43c0.14,0.84,0.28,1.68,0.43,2.52
	c0.19,1.15,0.39,2.29,0.59,3.44c0.22,1.24,0.45,2.48,0.68,3.71c0.13,0.73,0.27,1.45,0.4,2.18c0.33,1.73,0.67,3.46,1.02,5.19
	c0.04,0.21,0.08,0.42,0.13,0.63c6.58,32.49,16.42,64.28,29.48,95.14c9.05,21.4,19.5,42,31.3,61.75
	c20.77,34.69,45.62,66.65,73.89,95.22c0.62,0.63,1.24,1.26,1.86,1.88l0,0C236.93,944.04,361.93,1000,500,1000V750V500z"/>
<path class="st1" d="M999.93,492.22c-0.03-1.68-0.05-3.37-0.1-5.05c-0.01-0.39-0.03-0.78-0.04-1.16c-0.05-1.75-0.1-3.51-0.17-5.26
	c-0.01-0.3-0.03-0.59-0.04-0.89c-0.07-1.85-0.15-3.69-0.25-5.53c-0.01-0.19-0.02-0.38-0.03-0.57c-0.1-1.95-0.21-3.89-0.33-5.84
	c-0.01-0.08-0.01-0.17-0.02-0.25c-0.13-2.05-0.27-4.09-0.43-6.14c0-0.01,0-0.02,0-0.02c-0.48-6.34-1.08-12.64-1.8-18.91
	c0-0.03-0.01-0.05-0.01-0.08c-0.23-2.05-0.48-4.1-0.74-6.14c-0.02-0.12-0.03-0.25-0.05-0.37c-0.25-1.93-0.5-3.85-0.77-5.78
	c-0.04-0.3-0.09-0.6-0.13-0.89c-0.25-1.73-0.5-3.47-0.76-5.2c-0.08-0.53-0.17-1.07-0.25-1.6c-0.23-1.48-0.46-2.95-0.71-4.43
	c-0.14-0.84-0.29-1.68-0.43-2.52c-0.19-1.15-0.39-2.29-0.59-3.43c-0.22-1.24-0.45-2.48-0.68-3.71c-0.13-0.73-0.27-1.45-0.4-2.18
	c-0.33-1.73-0.67-3.46-1.02-5.19c-0.04-0.21-0.08-0.42-0.13-0.63c-6.58-32.49-16.42-64.28-29.48-95.14
	c-9.05-21.4-19.5-42-31.3-61.75c-20.32-33.94-44.54-65.27-72.05-93.36c-1.23-1.25-2.46-2.5-3.7-3.74l0,0
	C763.07,55.96,638.07,0,500,0v250v250l176.74-176.74l-0.27-0.33C721.89,368.19,750,430.81,750,500c0,138.07-111.93,250-250,250v250
	c2.14,0,4.27-0.01,6.4-0.04c0.46-0.01,0.92-0.02,1.38-0.03c1.68-0.03,3.37-0.05,5.05-0.1c0.39-0.01,0.78-0.03,1.16-0.04
	c1.75-0.05,3.51-0.1,5.26-0.17c0.3-0.01,0.59-0.03,0.89-0.04c1.85-0.07,3.69-0.15,5.53-0.25c0.19-0.01,0.38-0.02,0.57-0.03
	c1.95-0.1,3.89-0.21,5.84-0.33c0.08-0.01,0.17-0.01,0.25-0.02c2.05-0.13,4.09-0.27,6.14-0.43c0.01,0,0.02,0,0.02,0
	c6.34-0.48,12.64-1.08,18.91-1.8c0.03,0,0.05-0.01,0.08-0.01c2.05-0.23,4.1-0.48,6.14-0.74c0.12-0.02,0.25-0.03,0.37-0.05
	c1.93-0.25,3.85-0.5,5.78-0.77c0.3-0.04,0.6-0.09,0.89-0.13c1.73-0.25,3.47-0.5,5.2-0.76c0.53-0.08,1.07-0.17,1.6-0.25
	c1.48-0.23,2.95-0.46,4.43-0.71c0.84-0.14,1.68-0.29,2.52-0.43c1.15-0.19,2.29-0.39,3.43-0.59c1.24-0.22,2.48-0.45,3.71-0.68
	c0.73-0.13,1.45-0.27,2.18-0.4c1.73-0.33,3.46-0.67,5.19-1.02c0.21-0.04,0.42-0.08,0.63-0.13c32.49-6.58,64.28-16.42,95.14-29.48
	c21.39-9.05,41.98-19.49,61.72-31.28c34.71-20.78,66.69-45.64,95.28-73.93c0.62-0.61,1.24-1.22,1.86-1.84
	c0.62-0.62,1.24-1.26,1.86-1.88c28.27-28.57,53.12-60.53,73.89-95.22c11.8-19.75,22.25-40.35,31.3-61.75
	c13.06-30.87,22.9-62.66,29.48-95.14c0.04-0.21,0.08-0.42,0.13-0.63c0.35-1.73,0.69-3.46,1.02-5.19c0.14-0.73,0.27-1.45,0.4-2.18
	c0.23-1.24,0.46-2.47,0.68-3.71c0.2-1.14,0.4-2.29,0.59-3.44c0.14-0.84,0.29-1.68,0.43-2.52c0.24-1.47,0.48-2.95,0.71-4.43
	c0.08-0.53,0.17-1.06,0.25-1.6c0.26-1.73,0.52-3.46,0.76-5.2c0.04-0.3,0.09-0.59,0.13-0.89c0.27-1.92,0.52-3.85,0.77-5.78
	c0.02-0.12,0.03-0.25,0.05-0.37c0.26-2.04,0.51-4.09,0.74-6.14c0-0.03,0.01-0.05,0.01-0.08c0.72-6.27,1.32-12.57,1.8-18.91
	c0-0.01,0-0.02,0-0.02c0.16-2.04,0.3-4.09,0.43-6.14c0.01-0.08,0.01-0.17,0.02-0.25c0.12-1.94,0.23-3.89,0.33-5.84
	c0.01-0.19,0.02-0.38,0.03-0.57c0.09-1.84,0.17-3.68,0.25-5.53c0.01-0.3,0.03-0.59,0.04-0.89c0.07-1.75,0.12-3.5,0.17-5.26
	c0.01-0.39,0.03-0.78,0.04-1.16c0.04-1.68,0.07-3.36,0.1-5.05c0.01-0.46,0.02-0.92,0.03-1.38c0.03-2.13,0.04-4.27,0.04-6.4
	s-0.01-4.27-0.04-6.4C999.95,493.14,999.94,492.68,999.93,492.22z"/>
</svg>
