<?xml version="1.0" encoding="utf-8"?>
<!-- Generator: Adobe Illustrator 19.0.0, SVG Export Plug-In . SVG Version: 6.00 Build 0)  -->
<svg version="1.1" id="Layer_1" xmlns="http://www.w3.org/2000/svg" xmlns:xlink="http://www.w3.org/1999/xlink" x="0px" y="0px"
	 viewBox="0 0 1000 1000" style="enable-background:new 0 0 1000 1000;" xml:space="preserve">
<style type="text/css">
	.st0{fill:#FFFFFF;}
	.st1{fill:none;}
</style>
<rect x="500" class="st0" width="500" height="1000"/>
<rect width="500" height="1000"/>
<path d="M500,250c-69,0-125,56-125,125s56,125,125,125s125,56,125,125s-56,125-125,125c138.1,0,250-111.9,250-250S638.1,250,500,250
	z"/>
<path class="st1" d="M750,500c0-138.1-111.9-250-250-250v500C638.1,750,750,638.1,750,500z"/>
<path class="st0" d="M500,750c69,0,125-56,125-125s-56-125-125-125s-125-56-125-125s56-125,125-125c-138.1,0-250,111.9-250,250
	S361.9,750,500,750z"/>
<path class="st1" d="M250,500c0,138.1,111.9,250,250,250V250C361.9,250,250,361.9,250,500z"/>
<path d="M500,500L323.3,676.7l0.3,0.3C278.1,631.8,250,569.2,250,500c0-138.1,111.9-250,250-250V0c-2.1,0-4.3,0-6.4,0
	c-0.5,0-0.9,0-1.4,0c-1.7,0-3.4,0.1-5,0.1c-0.4,0-0.8,0-1.2,0c-1.8,0.1-3.5,0.1-5.3,0.2c-0.3,0-0.6,0-0.9,0
	c-1.9,0.1-3.7,0.2-5.5,0.2c-0.2,0-0.4,0-0.6,0c-2,0.1-3.9,0.2-5.8,0.3c-0.1,0-0.2,0-0.3,0c-2,0.1-4.1,0.3-6.1,0.4c0,0,0,0,0,0
	c-6.3,0.5-12.6,1.1-18.9,1.8c0,0,0,0-0.1,0c-2,0.2-4.1,0.5-6.1,0.7c-0.1,0-0.3,0-0.4,0.1c-1.9,0.3-3.9,0.5-5.8,0.8
	c-0.3,0-0.6,0.1-0.9,0.1c-1.7,0.3-3.5,0.5-5.2,0.8c-0.5,0.1-1.1,0.2-1.6,0.3c-1.5,0.2-3,0.5-4.4,0.7c-0.8,0.1-1.7,0.3-2.5,0.4
	c-1.1,0.2-2.3,0.4-3.4,0.6c-1.2,0.2-2.5,0.5-3.7,0.7c-0.7,0.1-1.5,0.3-2.2,0.4c-1.7,0.3-3.5,0.7-5.2,1c-0.2,0-0.4,0.1-0.6,0.1
	c-32.5,6.6-64.3,16.4-95.1,29.5c-21.4,9-42,19.5-61.7,31.3c-33.9,20.3-65.3,44.5-93.4,72.1c-1.3,1.2-2.5,2.5-3.7,3.7
	c-1.2,1.2-2.5,2.5-3.7,3.7c-27.5,28.1-51.7,59.4-72.1,93.4c-11.8,19.7-22.3,40.3-31.3,61.7C26.3,336.2,16.5,368,9.9,400.4
	c0,0.2-0.1,0.4-0.1,0.6c-0.4,1.7-0.7,3.5-1,5.2c-0.1,0.7-0.3,1.5-0.4,2.2c-0.2,1.2-0.5,2.5-0.7,3.7c-0.2,1.1-0.4,2.3-0.6,3.4
	c-0.1,0.8-0.3,1.7-0.4,2.5c-0.2,1.5-0.5,3-0.7,4.4c-0.1,0.5-0.2,1.1-0.3,1.6c-0.3,1.7-0.5,3.5-0.8,5.2c0,0.3-0.1,0.6-0.1,0.9
	c-0.3,1.9-0.5,3.9-0.8,5.8c0,0.1,0,0.3-0.1,0.4c-0.3,2-0.5,4.1-0.7,6.1c0,0,0,0,0,0.1c-0.7,6.3-1.3,12.6-1.8,18.9c0,0,0,0,0,0
	c-0.2,2-0.3,4.1-0.4,6.1c0,0.1,0,0.2,0,0.3c-0.1,1.9-0.2,3.9-0.3,5.8c0,0.2,0,0.4,0,0.6c-0.1,1.8-0.2,3.7-0.3,5.5c0,0.3,0,0.6,0,0.9
	c-0.1,1.8-0.1,3.5-0.2,5.3c0,0.4,0,0.8,0,1.2c0,1.7-0.1,3.4-0.1,5c0,0.5,0,0.9,0,1.4c0,2.1,0,4.3,0,6.4s0,4.3,0,6.4
	c0,0.5,0,0.9,0,1.4c0,1.7,0.1,3.4,0.1,5.1c0,0.4,0,0.8,0,1.2c0.1,1.8,0.1,3.5,0.2,5.3c0,0.3,0,0.6,0,0.9c0.1,1.8,0.2,3.7,0.2,5.5
	c0,0.2,0,0.4,0,0.6c0.1,2,0.2,3.9,0.3,5.8c0,0.1,0,0.2,0,0.3c0.1,2,0.3,4.1,0.4,6.1c0,0,0,0,0,0c0.5,6.3,1.1,12.6,1.8,18.9
	c0,0,0,0,0,0.1c0.2,2,0.5,4.1,0.7,6.1c0,0.1,0,0.3,0.1,0.4c0.3,1.9,0.5,3.8,0.8,5.8c0,0.3,0.1,0.6,0.1,0.9c0.3,1.7,0.5,3.5,0.8,5.2
	c0.1,0.5,0.2,1.1,0.3,1.6c0.2,1.5,0.5,3,0.7,4.4c0.1,0.8,0.3,1.7,0.4,2.5c0.2,1.2,0.4,2.3,0.6,3.4c0.2,1.2,0.5,2.5,0.7,3.7
	c0.1,0.7,0.3,1.5,0.4,2.2c0.3,1.7,0.7,3.5,1,5.2c0,0.2,0.1,0.4,0.1,0.6c6.6,32.5,16.4,64.3,29.5,95.1c9,21.4,19.5,42,31.3,61.8
	c20.8,34.7,45.6,66.7,73.9,95.2c0.6,0.6,1.2,1.3,1.9,1.9l0,0C236.9,944,361.9,1000,500,1000V750V500z"/>
<path class="st0" d="M999.9,492.2c0-1.7,0-3.4-0.1-5c0-0.4,0-0.8,0-1.2c0-1.8-0.1-3.5-0.2-5.3c0-0.3,0-0.6,0-0.9
	c-0.1-1.9-0.2-3.7-0.3-5.5c0-0.2,0-0.4,0-0.6c-0.1-2-0.2-3.9-0.3-5.8c0-0.1,0-0.2,0-0.3c-0.1-2-0.3-4.1-0.4-6.1c0,0,0,0,0,0
	c-0.5-6.3-1.1-12.6-1.8-18.9c0,0,0,0,0-0.1c-0.2-2-0.5-4.1-0.7-6.1c0-0.1,0-0.3,0-0.4c-0.3-1.9-0.5-3.9-0.8-5.8
	c0-0.3-0.1-0.6-0.1-0.9c-0.3-1.7-0.5-3.5-0.8-5.2c-0.1-0.5-0.2-1.1-0.3-1.6c-0.2-1.5-0.5-3-0.7-4.4c-0.1-0.8-0.3-1.7-0.4-2.5
	c-0.2-1.1-0.4-2.3-0.6-3.4c-0.2-1.2-0.5-2.5-0.7-3.7c-0.1-0.7-0.3-1.5-0.4-2.2c-0.3-1.7-0.7-3.5-1-5.2c0-0.2-0.1-0.4-0.1-0.6
	c-6.6-32.5-16.4-64.3-29.5-95.1c-9-21.4-19.5-42-31.3-61.8c-20.3-33.9-44.5-65.3-72-93.4c-1.2-1.3-2.5-2.5-3.7-3.7l0,0
	C763.1,56,638.1,0,500,0v250v250l176.7-176.7l-0.3-0.3C721.9,368.2,750,430.8,750,500c0,138.1-111.9,250-250,250v250
	c2.1,0,4.3,0,6.4,0c0.5,0,0.9,0,1.4,0c1.7,0,3.4,0,5.1-0.1c0.4,0,0.8,0,1.2,0c1.8,0,3.5-0.1,5.3-0.2c0.3,0,0.6,0,0.9,0
	c1.8-0.1,3.7-0.2,5.5-0.3c0.2,0,0.4,0,0.6,0c2-0.1,3.9-0.2,5.8-0.3c0.1,0,0.2,0,0.3,0c2-0.1,4.1-0.3,6.1-0.4c0,0,0,0,0,0
	c6.3-0.5,12.6-1.1,18.9-1.8c0,0,0,0,0.1,0c2-0.2,4.1-0.5,6.1-0.7c0.1,0,0.3,0,0.4,0c1.9-0.3,3.8-0.5,5.8-0.8c0.3,0,0.6-0.1,0.9-0.1
	c1.7-0.3,3.5-0.5,5.2-0.8c0.5-0.1,1.1-0.2,1.6-0.3c1.5-0.2,3-0.5,4.4-0.7c0.8-0.1,1.7-0.3,2.5-0.4c1.2-0.2,2.3-0.4,3.4-0.6
	c1.2-0.2,2.5-0.5,3.7-0.7c0.7-0.1,1.5-0.3,2.2-0.4c1.7-0.3,3.5-0.7,5.2-1c0.2,0,0.4-0.1,0.6-0.1c32.5-6.6,64.3-16.4,95.1-29.5
	c21.4-9,42-19.5,61.7-31.3c34.7-20.8,66.7-45.6,95.3-73.9c0.6-0.6,1.2-1.2,1.9-1.8c0.6-0.6,1.2-1.3,1.9-1.9
	c28.3-28.6,53.1-60.5,73.9-95.2c11.8-19.8,22.3-40.3,31.3-61.8c13.1-30.9,22.9-62.7,29.5-95.1c0-0.2,0.1-0.4,0.1-0.6
	c0.3-1.7,0.7-3.5,1-5.2c0.1-0.7,0.3-1.5,0.4-2.2c0.2-1.2,0.5-2.5,0.7-3.7c0.2-1.1,0.4-2.3,0.6-3.4c0.1-0.8,0.3-1.7,0.4-2.5
	c0.2-1.5,0.5-3,0.7-4.4c0.1-0.5,0.2-1.1,0.3-1.6c0.3-1.7,0.5-3.5,0.8-5.2c0-0.3,0.1-0.6,0.1-0.9c0.3-1.9,0.5-3.8,0.8-5.8
	c0-0.1,0-0.3,0-0.4c0.3-2,0.5-4.1,0.7-6.1c0,0,0,0,0-0.1c0.7-6.3,1.3-12.6,1.8-18.9c0,0,0,0,0,0c0.2-2,0.3-4.1,0.4-6.1
	c0-0.1,0-0.2,0-0.3c0.1-1.9,0.2-3.9,0.3-5.8c0-0.2,0-0.4,0-0.6c0.1-1.8,0.2-3.7,0.3-5.5c0-0.3,0-0.6,0-0.9c0.1-1.8,0.1-3.5,0.2-5.3
	c0-0.4,0-0.8,0-1.2c0-1.7,0.1-3.4,0.1-5c0-0.5,0-0.9,0-1.4c0-2.1,0-4.3,0-6.4s0-4.3,0-6.4C1000,493.1,999.9,492.7,999.9,492.2z"/>
</svg>
