<?xml version="1.0" encoding="utf-8"?>
<!-- Generator: Adobe Illustrator 28.2.0, SVG Export Plug-In . SVG Version: 6.00 Build 0)  -->
<svg version="1.1" id="Layer_1" xmlns="http://www.w3.org/2000/svg" xmlns:xlink="http://www.w3.org/1999/xlink" x="0px" y="0px"
	 viewBox="0 0 97.5 172.5" style="enable-background:new 0 0 97.5 172.5;" xml:space="preserve">
<style type="text/css">
	.st0{fill:#231F20;}
	.st1{fill:#726367;}
	.st2{fill:#B8A072;}
	.st3{fill:#1F1214;}
	.st4{fill:#3B2E32;}
</style>
<g id="Layer_9">
	<g>
		<path class="st0" d="M91.5,131.3c1,4.6,0.3,5-4.9,8c-2.6,1.5-42.9,24.3-45,25.7c-2.1,1.3-3.3-3.3-4.7-8l-4,6.4
			c1.3,4.2,2.5,10.5,6,8.7s46.8-26.2,50-28.2s6.4-4.3,5.3-9L91.5,131.3L91.5,131.3z"/>
		<path class="st1" d="M5,140.1l53.6-30.5c1.2-0.7,2.1,1.2,1.3,1.6c-1,0.6-55,31-55,31L5,140.1L5,140.1z"/>
		<path class="st2" d="M2.1,2.3C2.7,2,6.4,1.6,6.4,1.6s3-1.7,3.4-1.6s1.9,0.1,2.2,0.4s0.3,23,0.2,23.6s-1.2,2.7-1.3,4.3
			S21.7,77.9,22,79.2s1.8,2.9,4.4,1.8s4.1-2,4.7-2.1s1.9,2,2.3,3.1c4,0.5,10.4,3,13.4,6.6s5.5,7.8,6.3,14.5s0.3,8.9,5.3,15.8
			s10.5,17.4,10.7,23.2s-4.8,9.2-5.7,10.6c-1.9,2.9-7.3,6.5-7.3,6.5c-3.6,1.5-12.7,2.9-17.8,0.9C28.2,156,22.1,149.3,18.7,142
			s-4.5-16-4.7-26.6S9.4,99.5,8.8,94.2s1.9-6.8,5-8.1c2.4-1,2.7-1.2,2.7-1.2C15.8,83.3,4.2,31,4,30s-0.1-5.3-0.1-5.3L2.1,2.3
			L2.1,2.3z"/>
		<path class="st3" d="M64.3,154.4c3.9-2.7,4.7-6.3,4.6-12.2c-0.1-5.8-5.7-16.3-10.7-23.2c-5-6.9-4.5-9.1-5.3-15.8
			c-0.8-6.7-3.3-11-6.3-14.5s-9.4-6.1-13.4-6.6c-0.4-1.2-1.6-3.3-2.3-3.1s-2.2,1-4.7,2.1s-4-0.5-4.4-1.8S10.6,30,10.7,28.4
			c0.1-1.6,1.2-3.8,1.3-4.3s0.1-23.3-0.2-23.6s-1.7-0.3-2.2-0.4c0,0,0,0-0.1,0L9.7,1v23.1c0,0-1.5,4.8-1.4,5.8s13.8,59,14,59
			s4.7,0.5,9.9,4s6.4,10.1,6.9,15.5c0.4,5.3,0.8,12.5,6.4,20.5c5.6,8,10.1,16.9,10.6,25c0.1,1.7,0.2,4.1-0.5,5.7
			C58.5,158.4,62.9,155.4,64.3,154.4L64.3,154.4z"/>
		<path class="st3" d="M29.9,109.4c2,4.6,1.7,9.6-2.6,8.2s-7.1-7.8-7-11.4s2.2-4.1,3.6-3.5S28.6,106.5,29.9,109.4L29.9,109.4z"/>
		<path class="st3" d="M25.8,100c2.1,0.3,9.3,12.9,11.1,17.3s5.3,12.5,2.6,13.9s-7.6-2.6-8.5-4.2s-1.6-6.2-0.9-6.7
			c3.5-2.6,2.5-8.7,0.2-12.4s-3.6-4.3-3.6-4.7C26.5,102.7,25.8,100,25.8,100L25.8,100z"/>
		<path class="st3" d="M22,126.3c1.2,0.4,15.7,6.2,16,6.6s0.9,3.2,0.9,3.4s-1.1-0.2-1.9-0.4s-2.5,0-3.6,0.4s-3.6,0-5.5-1.5
			s-4-4.3-4.5-4.5s-1.1-0.2-1.2-0.5S21.5,126.1,22,126.3L22,126.3z"/>
		<path class="st4" d="M63.3,45.6c-3,1.7-4.6,2.8-4.6,6.3s0.1,62,0.1,65.6s5,3.7,5-0.1v-61c0-8.5,3.1-6,4-8.4"/>
		<path class="st0" d="M97.3,134.8c-1.2-4.5-19.9-74.8-21.4-81s-5.7-12.3-8.5-10.6C65.5,44.3,38,60.2,20,70.6l1.1,4.8
			c1.6-0.9,3.1-1.8,7.1-4.1c6.8-3.9,35.2-20.3,38-21.9s5,5.3,6.1,10s18.2,67.4,19.2,72s3,7.4,0.4,8.9c-2.6,1.6-50,27.1-52.1,28.4
			s-0.5-3.3-1.8-7.9c-1.3-4.7-23.3-73.4-24.3-76.3c-0.8-2.2-0.7-3.7,1.1-5.4l-1.1-5c-5,2.9-8.5,4.9-9.1,5.3c-3,1.7-4.6,2.8-4.6,6.3
			v65.7c0,3.5,5.1,3.6,5.1-0.2v-61c0-8.5,3.3-4.4,3.9-2.1s22.8,71.2,24.1,75.4s2.5,10.5,6,8.7s46.8-26.2,50-28.2
			S98.5,139.4,97.3,134.8L97.3,134.8z"/>
		<path class="st1" d="M32.1,160.5l-28-16.1c-0.6-0.6,0.2-1.8,0.9-1.3l26.3,15.2L32.1,160.5L32.1,160.5z"/>
		<path class="st1" d="M90.4,126.9l-27.8-16c-0.6-0.6,0.2-1.8,0.9-1.3s26.3,15.2,26.3,15.2L90.4,126.9L90.4,126.9z"/>
	</g>
</g>
</svg>
