<svg id="Layer_1" data-name="Layer 1" xmlns="http://www.w3.org/2000/svg" viewBox="0 0 1000 1000"><defs><style>.cls-1{fill:#c63838;}.cls-2{fill:#fff;}.cls-3{stroke:#fff;stroke-miterlimit:10;stroke-width:16.14px;}.cls-4{fill:none;}</style></defs><rect class="cls-1" width="1000" height="1000"/><polygon class="cls-2" points="908.63 163.54 835.45 163.54 710.13 163.54 636.94 163.54 621.5 163.54 621.5 288.87 636.94 288.87 710.13 288.87 710.13 574.46 835.45 574.46 835.45 288.87 908.63 288.87 924.07 288.87 924.07 163.54 908.63 163.54"/><rect class="cls-2" x="460.12" y="163.54" width="125.33" height="410.92"/><polygon class="cls-2" points="298.73 163.54 298.73 349.03 201.26 349.03 201.26 163.54 75.93 163.54 75.93 349.03 75.93 474.36 75.93 660.47 201.26 660.47 201.26 474.36 298.73 474.36 298.73 660.47 424.05 660.47 424.05 474.36 424.05 349.03 424.05 163.54 298.73 163.54"/><polygon class="cls-3" points="924.07 574.46 835.45 485.84 749.44 571.85 663.43 485.84 574.81 574.46 660.82 660.47 574.81 746.48 663.43 835.1 749.44 749.09 835.45 835.1 924.07 746.48 838.06 660.47 924.07 574.46"/><path class="cls-3" d="M485.7,485.35,310.59,660.47,485.7,835.59,660.82,660.47ZM456.81,660.47l28.89-28.89,28.9,28.89-28.9,28.89Z"/><line class="cls-4" x1="251.05" y1="485.35" x2="310.59" y2="544.89"/><path class="cls-3" d="M368.37,602.68,251.05,485.35,168.37,568,75.93,660.47l74,74L251.05,835.59,368.37,718.26l-57.78-57.79ZM271.64,757.2l-28.89-28.89,28.89-28.89,28.89,28.89Zm0-135.68-28.89-28.89,28.89-28.89,28.89,28.89Z"/></svg>