<?xml version="1.0" encoding="utf-8"?>
<!-- Generator: Adobe Illustrator 28.2.0, SVG Export Plug-In . SVG Version: 6.00 Build 0)  -->
<svg version="1.1" id="Layer_1" xmlns="http://www.w3.org/2000/svg" xmlns:xlink="http://www.w3.org/1999/xlink" x="0px" y="0px"
	 viewBox="0 0 826.4 729.7" style="enable-background:new 0 0 826.4 729.7;" xml:space="preserve">
<style type="text/css">
	.st0{fill:#A5A4A4;}
	.st1{fill:#BAB9B9;}
	.st2{fill:#787878;}
	.st3{fill:#CFCFCE;}
	.st4{fill:#EAEAEA;}
	.st5{fill:#FEF0F0;}
	.st6{fill:none;}
	.st7{opacity:0.51;fill:#2BB673;enable-background:new    ;}
	.st8{opacity:0.35;fill:#CACFE9;enable-background:new    ;}
	.st9{fill:#FFFFFF;}
	.st10{fill:#231F20;}
	.st11{fill:#716266;}
	.st12{fill:#B7A072;}
	.st13{fill:#1D1011;}
	.st14{fill:#3A2D31;}
	.st15{fill:#061A30;}
	.st16{fill:#95A0B7;}
	.st17{fill:#4F5F86;}
	.st18{fill:#58595B;}
	.st19{fill:#939598;}
	.st20{fill:#41475A;}
	.st21{fill:#C4C8CF;}
	.st22{fill:#E3E8EC;}
	.st23{fill:#71675D;}
	.st24{fill:#A69686;}
	.st25{fill:#DAC4B3;}
	.st26{fill:#E1CCBA;}
	.st27{opacity:0.61;}
</style>
<g id="Layer_3">
	<g>
		<polygon class="st0" points="413.2,729.7 826.4,491.1 826.4,238.6 413.2,0 0,238.6 0,491.1 		"/>
		<polygon class="st1" points="826.4,238.6 802,252.6 413.2,701.6 413.2,729.7 826.4,491.1 		"/>
		<polygon class="st2" points="413.2,729.7 413.2,701.6 24.3,252.6 0,238.6 0,491.1 		"/>
	</g>
</g>
<g id="Layer_1_00000032622847350030061450000000791853299816066475_">
	<polygon class="st3" points="413.2,28.1 413.2,252.6 24.3,477.1 24.3,252.6 	"/>
	<path class="st4" d="M802,477.1C770.7,459,413.2,252.6,413.2,252.6V28.1L802,252.6V477.1z"/>
	<polygon class="st5" points="413.2,252.6 802,477.1 413.2,701.6 24.3,477.1 	"/>
	<polygon class="st6" points="753.5,392.9 753.5,280.6 607.6,196.4 607.6,308.7 	"/>
	<polygon class="st7" points="46.6,256.4 46.6,335.7 129,288.1 129,208.9 	"/>
	<g>
		<polygon class="st0" points="635.9,276.7 611.6,290.7 757.5,374.9 757.5,346.8 		"/>
		<polyline class="st1" points="611.6,290.7 611.6,178.4 635.9,192.6 635.9,276.7 		"/>
		<polygon class="st8" points="623.8,185.5 623.8,283.7 757.5,358.9 757.5,262.6 		"/>
		<polyline class="st9" points="635.9,276.7 635.9,192.6 757.5,262.6 757.5,346.8 635.9,276.7 		"/>
	</g>
</g>
<image style="overflow:visible;" width="200" height="200" xlink:href="A1A78F44.jpg"  transform="matrix(1.3872 -0.8009 1.3872 0.8009 135.7387 477.0924)">
</image>
<g id="Layer_9">
	<g>
		<path class="st10" d="M262.1,395.8c1,4.6,0.3,5-4.9,8c-2.6,1.5-42.9,24.3-45,25.7c-2.1,1.3-3.3-3.3-4.7-8l-4,6.4
			c1.3,4.2,2.5,10.5,6,8.7s46.8-26.2,50-28.2s6.4-4.3,5.3-9L262.1,395.8L262.1,395.8z"/>
		<path class="st11" d="M175.6,404.6l53.6-30.5c1.2-0.7,2.1,1.2,1.3,1.6c-1,0.6-55,31-55,31L175.6,404.6L175.6,404.6z"/>
		<path class="st12" d="M172.7,266.8c0.6-0.3,4.3-0.7,4.3-0.7s3-1.7,3.4-1.6s1.9,0.1,2.2,0.4s0.3,23,0.2,23.6s-1.2,2.7-1.3,4.3
			s10.8,49.6,11.1,50.9s1.8,2.9,4.4,1.8s4.1-2,4.7-2.1s1.9,2,2.3,3.1c4,0.5,10.4,3,13.4,6.6s5.5,7.8,6.3,14.5s0.3,8.9,5.3,15.8
			s10.5,17.4,10.7,23.2s-4.8,9.2-5.7,10.6c-1.9,2.9-7.3,6.5-7.3,6.5c-3.6,1.5-12.7,2.9-17.8,0.9c-10.1-4.1-16.2-10.8-19.6-18.1
			s-4.5-16-4.7-26.6s-4.6-15.9-5.2-21.2s1.9-6.8,5-8.1c2.4-1,2.7-1.2,2.7-1.2c-0.7-1.6-12.3-53.9-12.5-54.9s-0.1-5.3-0.1-5.3
			L172.7,266.8L172.7,266.8z"/>
		<path class="st13" d="M234.9,418.9c3.9-2.7,4.7-6.3,4.6-12.2c-0.1-5.8-5.7-16.3-10.7-23.2c-5-6.9-4.5-9.1-5.3-15.8
			c-0.8-6.7-3.3-11-6.3-14.5s-9.4-6.1-13.4-6.6c-0.4-1.2-1.6-3.3-2.3-3.1s-2.2,1-4.7,2.1s-4-0.5-4.4-1.8s-11.2-49.3-11.1-50.9
			c0.1-1.6,1.2-3.8,1.3-4.3s0.1-23.3-0.2-23.6s-1.7-0.3-2.2-0.4c0,0,0,0-0.1,0l0.2,0.9l0,23.1c0,0-1.5,4.8-1.4,5.8s13.8,59,14,59
			c0.2,0,4.7,0.5,9.9,4s6.4,10.1,6.9,15.5c0.4,5.3,0.8,12.5,6.4,20.5c5.6,8,10.1,16.9,10.6,25c0.1,1.7,0.2,4.1-0.5,5.7
			C229.1,422.9,233.5,419.9,234.9,418.9L234.9,418.9z"/>
		<path class="st13" d="M200.5,373.9c2,4.6,1.7,9.6-2.6,8.2s-7.1-7.8-7-11.4s2.2-4.1,3.6-3.5S199.2,371,200.5,373.9L200.5,373.9z"/>
		<path class="st13" d="M196.4,364.5c2.1,0.3,9.3,12.9,11.1,17.3s5.3,12.5,2.6,13.9s-7.6-2.6-8.5-4.2s-1.6-6.2-0.9-6.7
			c3.5-2.6,2.5-8.7,0.2-12.4s-3.6-4.3-3.6-4.7C197.1,367.2,196.4,364.5,196.4,364.5L196.4,364.5z"/>
		<path class="st13" d="M192.6,390.8c1.2,0.4,15.7,6.2,16,6.6s0.9,3.2,0.9,3.4s-1.1-0.2-1.9-0.4s-2.5,0-3.6,0.4s-3.6,0-5.5-1.5
			s-4-4.3-4.5-4.5s-1.1-0.2-1.2-0.5S192.1,390.6,192.6,390.8L192.6,390.8z"/>
		<path class="st14" d="M233.9,310.1c-3,1.7-4.6,2.8-4.6,6.3s0.1,62,0.1,65.6s5,3.7,5-0.1v-61c0-8.5,3.1-6,4-8.4"/>
		<path class="st10" d="M267.9,399.3c-1.2-4.5-19.9-74.8-21.4-81s-5.7-12.3-8.5-10.6c-1.9,1.1-29.4,17-47.4,27.4l1.1,4.8
			c1.6-0.9,3.1-1.8,7.1-4.1c6.8-3.9,35.2-20.3,38-21.9c2.8-1.6,5,5.3,6.1,10s18.2,67.4,19.2,72s3,7.4,0.4,8.9
			c-2.6,1.6-50,27.1-52.1,28.4c-2.1,1.3-0.5-3.3-1.8-7.9c-1.3-4.7-23.3-73.4-24.3-76.3c-0.8-2.2-0.7-3.7,1.1-5.4l-1.1-5
			c-5,2.9-8.5,4.9-9.1,5.3c-3,1.7-4.6,2.8-4.6,6.3v65.7c0,3.5,5.1,3.6,5.1-0.2v-61c0-8.5,3.3-4.4,3.9-2.1s22.8,71.2,24.1,75.4
			c1.3,4.2,2.5,10.5,6,8.7s46.8-26.2,50-28.2S269.1,403.9,267.9,399.3L267.9,399.3z"/>
		<path class="st11" d="M202.7,425l-28-16.1c-0.6-0.6,0.2-1.8,0.9-1.3l26.3,15.2L202.7,425L202.7,425z"/>
		<path class="st11" d="M261,391.4l-27.8-16c-0.6-0.6,0.2-1.8,0.9-1.3s26.3,15.2,26.3,15.2L261,391.4L261,391.4z"/>
	</g>
</g>
<g id="Layer_8">
	<g>
		<polygon class="st15" points="43.3,476 43.3,384.6 78.7,406.6 78.7,496.9 		"/>
		<polygon class="st16" points="78.7,406.6 163.2,358 126.1,336.3 43.3,384.6 		"/>
		<polygon class="st17" points="78.7,496.9 163.2,447.4 163.2,358 78.7,406.6 		"/>
		<polygon class="st15" points="113.9,309.5 113.9,350.4 134.6,363.3 134.6,321.5 		"/>
		<polygon class="st16" points="131.6,299.8 113.9,309.5 134.6,321.5 151.3,311.4 		"/>
		<polygon class="st17" points="134.6,321.5 151.3,311.4 151.3,353.1 134.6,363.3 		"/>
		<polygon class="st18" points="140.3,361.5 117.9,374.3 95.5,387.1 81.8,379.2 68.1,371.3 90.5,358.4 112.9,345.5 126.6,353.5 		
			"/>
		<path class="st19" d="M126.2,356.7c0,2.8-4,5.1-9,5.1s-9-2.3-9-5.1v-1.9c1.5-1.6,5.6-3.2,9-3.2s7.5,1.6,9,3.2V356.7z"/>
		<path class="st19" d="M97.5,373.4c0,2.8-4,5.1-9,5.1s-9.1-2.3-9.1-5.1s4.1-5.1,9.1-5.1c3.2,0,7.4,1.7,9,3.1V373.4L97.5,373.4z"/>
		<ellipse class="st3" cx="88.4" cy="371.4" rx="9" ry="5.1"/>
		<ellipse cx="88.4" cy="371.4" rx="8.3" ry="4.6"/>
		<ellipse class="st3" cx="117.2" cy="354.8" rx="9" ry="5.1"/>
		<ellipse cx="117.2" cy="354.8" rx="8.3" ry="4.6"/>
		<polygon points="68.1,371.3 68.1,374.5 68.1,377.6 81.7,385.5 95.4,393.5 117.9,380.6 140.3,367.6 140.3,364.6 140.3,361.5 
			117.9,374.3 95.5,387.1 81.8,379.2 		"/>
		<g>
			<polygon class="st15" points="49.4,345.7 49.4,386.6 70.1,399.5 70.1,357.7 			"/>
			<polygon class="st16" points="67.2,336 49.4,345.7 70.1,357.7 86.9,347.6 			"/>
			<polygon class="st17" points="70.1,357.7 86.9,347.6 86.9,389.3 70.1,399.5 			"/>
		</g>
		<polygon points="104.9,369.2 109.8,372 110.4,371.7 105.5,368.9 		"/>
		<polygon points="108.7,366.8 113.8,369.8 114.3,369.4 109.3,366.5 		"/>
		<polygon class="st10" points="117.4,369.8 110.5,373.8 111.2,374.2 118.1,370.2 		"/>
	</g>
</g>
<g id="Layer_7">
	<g>
		
			<image style="overflow:visible;opacity:0;enable-background:new    ;" width="1024" height="1022" xlink:href="A1A78F45.png"  transform="matrix(0.24 0 0 0.24 272.09 118.6)">
		</image>
		<polygon class="st20" points="366.8,387.2 279.8,337.6 279.8,343.7 366.8,393.9 376.9,388.1 376.9,382.1 		"/>
		<polygon class="st20" points="328.4,239.6 328.4,365.3 316.4,358.5 316.4,232.8 		"/>
		<polygon class="st21" points="335.8,244.1 328.4,239.6 328.4,365.3 335.8,360.4 		"/>
		<polygon class="st21" points="376.9,382.1 335.8,360.4 328.4,365.3 366.8,387.2 		"/>
		<polygon class="st21" points="316.4,358.5 279.8,337.6 288,333.3 316.4,350 		"/>
		<polygon class="st20" points="452.1,177.9 452.1,290.6 440.1,283.8 440.1,172.9 		"/>
		<polygon class="st9" points="279.8,205.6 419,125.8 498.7,171 361.1,252.6 		"/>
		<polygon class="st22" points="279.8,205.6 279.8,211.8 361.4,258.6 498.7,177.6 498.7,171 361.1,252.6 		"/>
		<polygon class="st20" points="488.5,315.5 401.6,265.9 401.6,272 488.5,322.2 498.7,316.4 498.7,310.4 		"/>
		<polygon class="st20" points="450.1,206.2 450.1,293.6 438.1,286.8 438.1,213.3 		"/>
		<polygon class="st21" points="457.6,201.8 450.1,206.2 450.1,293.6 457.6,288.7 		"/>
		<polygon class="st21" points="498.7,310.4 457.6,288.7 450.1,293.6 488.5,315.5 		"/>
		<polygon class="st21" points="438.1,286.8 401.6,265.9 409.8,261.6 438.1,278.3 		"/>
	</g>
</g>
<g id="Layer_6">
	<g>
		<polygon class="st23" points="790.6,476.8 646,557.2 553.8,502.9 553.8,455.4 646,508.9 717.6,467.8 717.1,432.4 790.6,390.1 		
			"/>
		<polygon class="st24" points="790.6,390.1 637.5,301.7 606.7,320 606.7,359.6 550.6,391.1 606.5,423.9 553.8,455.4 646,508.9 
			717.6,467.8 717.1,432.4 		"/>
		<polygon class="st23" points="550.6,391.1 550.6,438.6 566.7,447.7 606.5,423.9 		"/>
		<g>
			<line class="st6" x1="550.6" y1="415.7" x2="586.4" y2="435.2"/>
			<polygon class="st24" points="550.6,415.7 586.9,434.3 585.9,436 550.6,415.7 			"/>
		</g>
		<path class="st25" d="M694,409.8l-8.7,5.1l0.2,34.3l32.1,18.6c0,0-37,7.9-71.6,41.1c-44.3-36.6-92.2-53.5-92.2-53.5
			c17-23,84.6-61,108.8-62.5L694,409.8L694,409.8z"/>
		<path class="st25" d="M550.6,391.1c13.7-17.3,41.6-29.6,56.2-31.5l55.9,33.3c-15.6,2.9-48.4,40.8-62.3,27.4
			S568.5,395.1,550.6,391.1z"/>
		<path class="st26" d="M606.7,320c17.1,3.3,103.6,50.6,121.1,70.2c-16,4.1-30.6,14-42.5,24.8c9.9,1.4,23.2,8.4,31.8,17.5
			c17-15.9,57.4-37.8,73.5-42.2c-26.1-23.1-133.1-84.5-153.1-88.4C624,304.2,613.5,311.3,606.7,320L606.7,320z"/>
		<g class="st27">
			<path class="st23" d="M599.3,419.7c19.1-12.6,40.1-22.4,62.1-28.7l-0.8,1c-0.1-11.2-0.5-23.7-0.8-35c-0.1-4-0.2-8.1-0.3-12.1
				c9.9-8.4,22.2-13.9,34.9-15.9c-12.3,2.5-24.1,8.6-33.2,17.1l0.3-0.7c0.1,6.7,0.4,16.5,0.6,23.3c0.2,8,0.4,16.1,0.5,24.1l-0.8,0.2
				C639.9,398.6,618.6,407.8,599.3,419.7L599.3,419.7L599.3,419.7z"/>
		</g>
		<path class="st24" d="M553.8,479l92.5,52.3l-0.7,0l71.5-39l-0.5,0.8l0.9-25.1l0.9,25.1l0,0.5l-0.5,0.3c-0.5,0.2-71.6,38.9-72,39.1
			C645.5,532.7,554.2,479.1,553.8,479L553.8,479L553.8,479z"/>
	</g>
</g>
</svg>
