<?xml version="1.0" encoding="utf-8"?>
<!-- Generator: Adobe Illustrator 28.2.0, SVG Export Plug-In . SVG Version: 6.00 Build 0)  -->
<svg version="1.1" id="Layer_1" xmlns="http://www.w3.org/2000/svg" xmlns:xlink="http://www.w3.org/1999/xlink" x="0px" y="0px"
	 viewBox="0 0 826.4 729.7" style="enable-background:new 0 0 826.4 729.7;" xml:space="preserve">
<style type="text/css">
	.st0{fill:#A5A4A4;}
	.st1{fill:#BAB9B9;}
	.st2{fill:#787878;}
	.st3{fill:#CFCFCE;}
	.st4{fill:#EAEAEA;}
	.st5{fill:#FEF0F0;}
	.st6{fill:none;}
	.st7{opacity:0.51;fill:#2BB673;enable-background:new    ;}
	.st8{opacity:0.35;fill:#CACFE9;enable-background:new    ;}
	.st9{fill:#FFFFFF;}
	.st10{fill:#231F20;}
	.st11{fill:#716266;}
	.st12{fill:#B7A072;}
	.st13{fill:#1D1011;}
	.st14{fill:#3A2D31;}
	.st15{fill:#061A30;}
	.st16{fill:#95A0B7;}
	.st17{fill:#4F5F86;}
	.st18{fill:#58595B;}
	.st19{fill:#939598;}
	.st20{fill:#80DDE0;}
	.st21{fill:#43104F;}
	.st22{fill:#D6D29F;}
	.st23{fill:#B595A6;}
	.st24{fill:#4078DD;}
	.st25{fill:#E0D06A;}
	.st26{fill:#084F3B;}
	.st27{fill:#D68A8D;}
	.st28{fill:#83A1B5;}
	.st29{fill:#CBDD2A;}
	.st30{fill:#41475A;}
	.st31{fill:#C4C8CF;}
	.st32{fill:#E3E8EC;}
	.st33{fill:#71675D;}
	.st34{fill:#A69686;}
	.st35{fill:#DAC4B3;}
	.st36{fill:#E1CCBA;}
	.st37{opacity:0.61;}
	.st38{display:none;}
	.st39{display:inline;fill:none;stroke:#000000;stroke-width:0.5;stroke-miterlimit:10;}
	.st40{display:none;fill:none;}
</style>
<g id="Layer_3">
	<g>
		<polygon class="st0" points="413.2,729.7 826.4,491.1 826.4,238.6 413.2,0 0,238.6 0,491.1 		"/>
		<polygon class="st1" points="826.4,238.6 802,252.6 413.2,701.6 413.2,729.7 826.4,491.1 		"/>
		<polygon class="st2" points="413.2,729.7 413.2,701.6 24.3,252.6 0,238.6 0,491.1 		"/>
	</g>
</g>
<g id="Layer_1_00000032622847350030061450000000791853299816066475_">
	<polygon class="st3" points="413.2,28.1 413.2,252.6 24.3,477.1 24.3,252.6 	"/>
	<path class="st4" d="M802,477.1C770.7,459,413.2,252.6,413.2,252.6V28.1L802,252.6V477.1z"/>
	<polygon class="st5" points="413.2,252.6 802,477.1 413.2,701.6 24.3,477.1 	"/>
	<polygon class="st6" points="753.5,392.9 753.5,280.6 607.6,196.4 607.6,308.7 	"/>
	<polygon class="st7" points="46.6,256.4 46.6,335.7 129,288.1 129,208.9 	"/>
	<g>
		<polygon class="st0" points="635.9,276.7 611.6,290.7 757.5,374.9 757.5,346.8 		"/>
		<polyline class="st1" points="611.6,290.7 611.6,178.4 635.9,192.6 635.9,276.7 		"/>
		<polygon class="st8" points="623.8,185.5 623.8,283.7 757.5,358.9 757.5,262.6 		"/>
		<polyline class="st9" points="635.9,276.7 635.9,192.6 757.5,262.6 757.5,346.8 635.9,276.7 		"/>
	</g>
</g>
<g id="Layer_9">
	<g>
		<path class="st10" d="M262.1,395.8c1,4.6,0.3,5-4.9,8c-2.6,1.5-42.9,24.3-45,25.7c-2.1,1.3-3.3-3.3-4.7-8l-4,6.4
			c1.3,4.2,2.5,10.5,6,8.7s46.8-26.2,50-28.2s6.4-4.3,5.3-9L262.1,395.8L262.1,395.8z"/>
		<path class="st11" d="M175.6,404.6l53.6-30.5c1.2-0.7,2.1,1.2,1.3,1.6c-1,0.6-55,31-55,31L175.6,404.6L175.6,404.6z"/>
		<path class="st12" d="M172.7,266.8c0.6-0.3,4.3-0.7,4.3-0.7s3-1.7,3.4-1.6s1.9,0.1,2.2,0.4s0.3,23,0.2,23.6s-1.2,2.7-1.3,4.3
			s10.8,49.6,11.1,50.9s1.8,2.9,4.4,1.8s4.1-2,4.7-2.1s1.9,2,2.3,3.1c4,0.5,10.4,3,13.4,6.6s5.5,7.8,6.3,14.5s0.3,8.9,5.3,15.8
			s10.5,17.4,10.7,23.2s-4.8,9.2-5.7,10.6c-1.9,2.9-7.3,6.5-7.3,6.5c-3.6,1.5-12.7,2.9-17.8,0.9c-10.1-4.1-16.2-10.8-19.6-18.1
			s-4.5-16-4.7-26.6s-4.6-15.9-5.2-21.2s1.9-6.8,5-8.1c2.4-1,2.7-1.2,2.7-1.2c-0.7-1.6-12.3-53.9-12.5-54.9s-0.1-5.3-0.1-5.3
			L172.7,266.8L172.7,266.8z"/>
		<path class="st13" d="M234.9,418.9c3.9-2.7,4.7-6.3,4.6-12.2c-0.1-5.8-5.7-16.3-10.7-23.2c-5-6.9-4.5-9.1-5.3-15.8
			c-0.8-6.7-3.3-11-6.3-14.5s-9.4-6.1-13.4-6.6c-0.4-1.2-1.6-3.3-2.3-3.1s-2.2,1-4.7,2.1s-4-0.5-4.4-1.8s-11.2-49.3-11.1-50.9
			c0.1-1.6,1.2-3.8,1.3-4.3s0.1-23.3-0.2-23.6s-1.7-0.3-2.2-0.4c0,0,0,0-0.1,0l0.2,0.9v23.1c0,0-1.5,4.8-1.4,5.8s13.8,59,14,59
			s4.7,0.5,9.9,4s6.4,10.1,6.9,15.5c0.4,5.3,0.8,12.5,6.4,20.5c5.6,8,10.1,16.9,10.6,25c0.1,1.7,0.2,4.1-0.5,5.7
			C229.1,422.9,233.5,419.9,234.9,418.9L234.9,418.9z"/>
		<path class="st13" d="M200.5,373.9c2,4.6,1.7,9.6-2.6,8.2s-7.1-7.8-7-11.4s2.2-4.1,3.6-3.5S199.2,371,200.5,373.9L200.5,373.9z"/>
		<path class="st13" d="M196.4,364.5c2.1,0.3,9.3,12.9,11.1,17.3s5.3,12.5,2.6,13.9s-7.6-2.6-8.5-4.2s-1.6-6.2-0.9-6.7
			c3.5-2.6,2.5-8.7,0.2-12.4s-3.6-4.3-3.6-4.7C197.1,367.2,196.4,364.5,196.4,364.5L196.4,364.5z"/>
		<path class="st13" d="M192.6,390.8c1.2,0.4,15.7,6.2,16,6.6s0.9,3.2,0.9,3.4s-1.1-0.2-1.9-0.4s-2.5,0-3.6,0.4s-3.6,0-5.5-1.5
			s-4-4.3-4.5-4.5s-1.1-0.2-1.2-0.5S192.1,390.6,192.6,390.8L192.6,390.8z"/>
		<path class="st14" d="M233.9,310.1c-3,1.7-4.6,2.8-4.6,6.3s0.1,62,0.1,65.6s5,3.7,5-0.1v-61c0-8.5,3.1-6,4-8.4"/>
		<path class="st10" d="M267.9,399.3c-1.2-4.5-19.9-74.8-21.4-81s-5.7-12.3-8.5-10.6c-1.9,1.1-29.4,17-47.4,27.4l1.1,4.8
			c1.6-0.9,3.1-1.8,7.1-4.1c6.8-3.9,35.2-20.3,38-21.9s5,5.3,6.1,10s18.2,67.4,19.2,72s3,7.4,0.4,8.9c-2.6,1.6-50,27.1-52.1,28.4
			s-0.5-3.3-1.8-7.9c-1.3-4.7-23.3-73.4-24.3-76.3c-0.8-2.2-0.7-3.7,1.1-5.4l-1.1-5c-5,2.9-8.5,4.9-9.1,5.3c-3,1.7-4.6,2.8-4.6,6.3
			v65.7c0,3.5,5.1,3.6,5.1-0.2v-61c0-8.5,3.3-4.4,3.9-2.1s22.8,71.2,24.1,75.4s2.5,10.5,6,8.7s46.8-26.2,50-28.2
			S269.1,403.9,267.9,399.3L267.9,399.3z"/>
		<path class="st11" d="M202.7,425l-28-16.1c-0.6-0.6,0.2-1.8,0.9-1.3l26.3,15.2L202.7,425L202.7,425z"/>
		<path class="st11" d="M261,391.4l-27.8-16c-0.6-0.6,0.2-1.8,0.9-1.3s26.3,15.2,26.3,15.2L261,391.4L261,391.4z"/>
	</g>
</g>
<g id="Layer_8">
	<g>
		<polygon class="st15" points="43.3,476 43.3,384.6 78.7,405 78.7,496.4 		"/>
		<polygon class="st16" points="78.7,405 163.2,356.3 126.1,334.8 43.3,384.6 		"/>
		<path class="st17" d="M78.7,405v91.4l84.5-49v-91.1L78.7,405z M159.2,445.4l-76.6,44.4V407l76.6-44.2V445.4z"/>
		<polygon class="st15" points="113.9,309.5 113.9,350.4 134.6,363.3 134.6,321.5 		"/>
		<polygon class="st16" points="131.6,299.8 113.9,309.5 134.6,321.5 151.3,311.4 		"/>
		<polygon class="st17" points="134.6,321.5 151.3,311.4 151.3,353.1 134.6,363.3 		"/>
		<polygon class="st18" points="140.3,361.5 117.9,374.3 95.5,387.1 81.8,379.2 68.1,371.3 90.5,358.4 112.9,345.5 126.6,353.5 		
			"/>
		<path class="st19" d="M126.2,356.7c0,2.8-4,5.1-9,5.1s-9-2.3-9-5.1v-1.9c1.5-1.6,5.6-3.2,9-3.2s7.5,1.6,9,3.2V356.7z"/>
		<path class="st19" d="M97.5,373.4c0,2.8-4,5.1-9,5.1s-9.1-2.3-9.1-5.1s4.1-5.1,9.1-5.1c3.2,0,7.4,1.7,9,3.1V373.4L97.5,373.4z"/>
		<ellipse class="st3" cx="88.4" cy="371.4" rx="9" ry="5.1"/>
		<ellipse cx="88.4" cy="371.4" rx="8.3" ry="4.6"/>
		<ellipse class="st3" cx="117.2" cy="354.8" rx="9" ry="5.1"/>
		<ellipse cx="117.2" cy="354.8" rx="8.3" ry="4.6"/>
		<polygon points="68.1,371.3 68.1,374.5 68.1,377.6 81.7,385.5 95.4,393.5 117.9,380.6 140.3,367.6 140.3,364.6 140.3,361.5 
			117.9,374.3 95.5,387.1 81.8,379.2 		"/>
		<g>
			<polygon class="st15" points="49.4,345.7 49.4,386.6 70.1,398.6 70.1,357.7 			"/>
			<polygon class="st16" points="67.2,336 49.4,345.7 70.1,357.7 86.9,347.4 			"/>
			<polygon class="st17" points="70.1,357.7 86.9,347.4 86.9,389.3 70.1,398.6 			"/>
		</g>
		<polygon points="104.9,369.2 109.8,372 110.4,371.7 105.5,368.9 		"/>
		<polygon points="108.7,366.8 113.8,369.8 114.3,369.4 109.3,366.5 		"/>
		<polygon class="st10" points="117.4,369.8 110.5,373.8 111.2,374.2 118.1,370.2 		"/>
		<polygon class="st16" points="82.7,453.3 82.7,489.9 159.2,445.4 127.7,427.2 		"/>
		<polygon class="st15" points="159.2,445.4 159.2,409.1 127.7,427.2 		"/>
		<polygon class="st17" points="159.2,403.6 159.2,409.1 82.7,453.3 82.7,447.9 		"/>
		<polygon class="st15" points="159.2,403.6 123.9,383.2 159.2,362.8 		"/>
		<polygon class="st16" points="82.7,447.9 159.2,403.6 123.9,383.2 82.7,407 		"/>
	</g>
	<g>
		<polygon class="st20" points="148.3,407.5 156,368.3 152.9,366.5 115.1,388.3 		"/>
		<polygon class="st21" points="143,410.5 150.8,371.3 147.6,369.5 109.8,391.4 		"/>
		<polygon class="st22" points="138.5,413.1 146.2,373.9 143.1,372.1 105.3,394 		"/>
		<polygon class="st23" points="134.4,415.5 142.2,376.3 139.1,374.5 101.3,396.3 		"/>
		<polygon class="st24" points="130.4,417.8 138.2,378.6 135,376.8 97.2,398.6 		"/>
		<polygon class="st25" points="126.2,420.2 133.9,381 130.8,379.2 93,401 		"/>
		<polygon class="st26" points="120.9,423.2 128.7,384.1 125.6,382.3 87.8,404.1 		"/>
		<polygon class="st27" points="116.4,425.8 124.2,386.7 121,384.9 83.2,406.7 		"/>
		<polygon class="st28" points="117,387.2 82.7,407 82.7,411 112.4,428.2 120.1,389 		"/>
		<polygon class="st29" points="113,389.5 82.7,407 82.7,415.7 108.4,430.5 116.1,391.3 		"/>
	</g>
</g>
<g id="Layer_7">
	<g>
		<g>
			<polygon class="st30" points="488.5,317.1 402.2,267.3 402.2,273.9 488.5,323.6 495.9,319.3 495.9,312.8 			"/>
			<polygon class="st30" points="450.1,169.3 450.1,294.9 438.1,288 438.1,162.5 			"/>
			<polygon class="st31" points="457.5,173.9 450.1,169.4 450.1,294.9 457.5,290.6 			"/>
			<polygon class="st31" points="495.9,312.8 457.5,290.6 450.1,294.9 488.5,317.1 			"/>
			<polygon class="st31" points="438.1,288 402.2,267.3 409.7,263 438.1,279.4 			"/>
		</g>
		<polygon class="st30" points="366.8,388.8 280.6,339 280.6,345.6 366.8,395.3 374.3,391 374.3,384.5 		"/>
		<polygon class="st30" points="328.4,241 328.4,366.6 316.4,359.7 316.4,234.2 		"/>
		<polygon class="st31" points="335.8,245.6 328.4,241.1 328.4,366.6 335.8,362.3 		"/>
		<polygon class="st31" points="374.3,384.5 335.8,362.3 328.4,366.6 366.8,388.8 		"/>
		<polygon class="st31" points="316.4,359.7 280.6,339 288,334.7 316.4,351.1 		"/>
		<polygon class="st9" points="279.8,207 417.4,127.6 498.7,174.5 361.1,254 		"/>
		<polygon class="st32" points="279.8,207 279.8,213.2 361.1,260.2 498.7,180.8 498.7,174.5 361.1,254 		"/>
	</g>
</g>
<g id="Layer_6">
	<g>
		<polygon class="st33" points="790.6,473.7 646,557.2 553.8,504 553.8,455.4 646,508.9 717.6,467.8 717.1,432.4 790.6,390 		"/>
		<polygon class="st34" points="790.6,390.1 637.5,301.7 606.7,320.3 606.7,359.6 550.6,391.6 606.5,423.9 553.8,455.4 646,508.9 
			717.6,467.8 717.1,432.4 		"/>
		<polygon class="st33" points="550.6,391.6 550.6,438.6 562.9,445.7 606.5,423.9 		"/>
		<g>
			<line class="st6" x1="550.6" y1="415.7" x2="586.4" y2="435.2"/>
			<polygon class="st34" points="550.6,415.7 586.9,434.3 585.9,436 			"/>
		</g>
		<path class="st35" d="M694,409.8l-8.7,4.2l0.2,35.2l32.1,18.6c0,0-37,7.9-71.6,41.1c-44.3-36.6-92.2-53.5-92.2-53.5
			c17-23,84.6-61,108.8-62.5L694,409.8L694,409.8z"/>
		<path class="st35" d="M550.6,391.6c13.7-17.3,41.6-30.1,56.2-32l55.9,33.3c-15.6,2.9-48.4,40.8-62.3,27.4S568.5,395.6,550.6,391.6
			z"/>
		<path class="st36" d="M606.7,320.3c17.1,3.3,103.6,50.3,121.1,69.9c-16,4.1-30.6,13-42.5,23.8c9.9,1.4,23.2,9.3,31.8,18.4
			c17-15.9,57.4-38,73.5-42.4c-26.1-23.1-133.1-84.5-153.1-88.4C624,303.9,613.5,311.6,606.7,320.3L606.7,320.3z"/>
		<g class="st37">
			<path class="st33" d="M599.3,419.7c19.1-12.6,40.1-22.4,62.1-28.7l-0.8,1c-0.1-11.2-0.5-23.7-0.8-35c-0.1-4-0.2-8.1-0.3-12.1
				c9.9-8.4,22.2-13.9,34.9-15.9c-12.3,2.5-24.1,8.6-33.2,17.1l0.3-0.7c0.1,6.7,0.4,16.5,0.6,23.3c0.2,8,0.4,16.1,0.5,24.1l-0.8,0.2
				C639.9,398.6,618.6,407.8,599.3,419.7L599.3,419.7L599.3,419.7z"/>
		</g>
		<path class="st34" d="M553.8,479.8l92.1,53.2l70.7-40.8l0.9-24.2l0.9,25.5l-72.5,41.6L553.8,479.8z"/>
	</g>
</g>
<g id="Grid" class="st38">
	<line class="st39" x1="298.9" y1="-168.9" x2="930.8" y2="195.9"/>
	<line class="st39" x1="-108" y1="535.9" x2="523.9" y2="900.8"/>
	<line class="st39" x1="-100.1" y1="522.1" x2="531.9" y2="886.9"/>
	<line class="st39" x1="-92.1" y1="508.3" x2="539.9" y2="873.1"/>
	<line class="st39" x1="-84.1" y1="494.5" x2="547.8" y2="859.3"/>
	<line class="st39" x1="-76.1" y1="480.6" x2="555.8" y2="845.5"/>
	<line class="st39" x1="-68.1" y1="466.8" x2="563.8" y2="831.7"/>
	<line class="st39" x1="-60.2" y1="453" x2="571.8" y2="817.8"/>
	<line class="st39" x1="-52.2" y1="439.2" x2="579.7" y2="804"/>
	<line class="st39" x1="-44.2" y1="425.4" x2="587.7" y2="790.2"/>
	<line class="st39" x1="-36.2" y1="411.5" x2="595.7" y2="776.4"/>
	<line class="st39" x1="-28.3" y1="397.7" x2="603.7" y2="762.6"/>
	<line class="st39" x1="-20.3" y1="383.9" x2="611.7" y2="748.7"/>
	<line class="st39" x1="-12.3" y1="370.1" x2="619.6" y2="734.9"/>
	<line class="st39" x1="-5.5" y1="356.3" x2="626.4" y2="721.2"/>
	<line class="st39" x1="3.7" y1="342.4" x2="635.6" y2="707.3"/>
	<line class="st39" x1="-10.7" y1="347.3" x2="621.3" y2="712.2"/>
	<line class="st39" x1="11.6" y1="328.6" x2="643.6" y2="693.5"/>
	<line class="st39" x1="22.3" y1="324.5" x2="654.2" y2="689.4"/>
	<line class="st39" x1="27.6" y1="294.1" x2="659.5" y2="659"/>
	<line class="st39" x1="35.6" y1="287.1" x2="667.5" y2="652"/>
	<line class="st39" x1="43.6" y1="273.3" x2="675.5" y2="638.2"/>
	<line class="st39" x1="51.5" y1="259.5" x2="683.5" y2="624.4"/>
	<line class="st39" x1="59.5" y1="245.7" x2="691.5" y2="610.5"/>
	<line class="st39" x1="66.4" y1="229.2" x2="698.4" y2="594"/>
	<line class="st39" x1="62.7" y1="220.5" x2="694.6" y2="585.3"/>
	<line class="st39" x1="71" y1="216.7" x2="702.9" y2="581.5"/>
	<line class="st39" x1="91.4" y1="190.4" x2="723.4" y2="555.3"/>
	<line class="st39" x1="99.4" y1="176.6" x2="731.4" y2="541.4"/>
	<line class="st39" x1="107.4" y1="162.8" x2="739.3" y2="527.6"/>
	<line class="st39" x1="116.5" y1="149.6" x2="748.5" y2="514.5"/>
	<line class="st39" x1="123.4" y1="135.1" x2="755.3" y2="500"/>
	<line class="st39" x1="131.3" y1="121.3" x2="763.3" y2="486.2"/>
	<line class="st39" x1="139.5" y1="107.6" x2="771.4" y2="472.4"/>
	<line class="st39" x1="147.3" y1="93.7" x2="779.2" y2="458.5"/>
	<line class="st39" x1="155.3" y1="79.8" x2="787.2" y2="444.7"/>
	<line class="st39" x1="159.4" y1="70.7" x2="791.3" y2="435.5"/>
	<line class="st39" x1="179.3" y1="45.7" x2="811.3" y2="410.6"/>
	<line class="st39" x1="179.2" y1="38.4" x2="811.1" y2="403.2"/>
	<line class="st39" x1="187.2" y1="24.6" x2="819.1" y2="389.4"/>
	<line class="st39" x1="195.2" y1="10.7" x2="827.1" y2="375.6"/>
	<line class="st39" x1="203.1" y1="-3.1" x2="835.1" y2="361.8"/>
	<line class="st39" x1="211.1" y1="-16.9" x2="843.1" y2="348"/>
	<line class="st39" x1="219.1" y1="-30.7" x2="851" y2="334.1"/>
	<line class="st39" x1="227.1" y1="-44.5" x2="859" y2="320.3"/>
	<line class="st39" x1="235.1" y1="-58.4" x2="867" y2="306.5"/>
	<line class="st39" x1="243" y1="-72.2" x2="875" y2="292.7"/>
	<line class="st39" x1="251" y1="-86" x2="883" y2="278.9"/>
	<line class="st39" x1="259" y1="-99.8" x2="890.9" y2="265"/>
	<line class="st39" x1="267" y1="-113.6" x2="898.9" y2="251.2"/>
	<line class="st39" x1="275" y1="-127.5" x2="906.9" y2="237.4"/>
	<line class="st39" x1="282.9" y1="-141.3" x2="914.9" y2="223.6"/>
	<line class="st39" x1="290.9" y1="-155.1" x2="922.9" y2="209.7"/>
	<line class="st39" x1="95.3" y1="184.4" x2="727.2" y2="549.2"/>
	<line class="st39" x1="135.1" y1="129.7" x2="767.1" y2="494.5"/>
	<line class="st39" x1="200.5" y1="2.4" x2="832.5" y2="367.2"/>
</g>
<g id="Grid_00000052813660732495552560000004236202601352564892_" class="st38">
	<line class="st39" x1="-161.1" y1="182.6" x2="470.8" y2="-182.2"/>
	<line class="st39" x1="245.8" y1="887.5" x2="877.7" y2="522.6"/>
	<line class="st39" x1="237.8" y1="873.7" x2="869.8" y2="508.8"/>
	<line class="st39" x1="229.8" y1="859.8" x2="861.8" y2="495"/>
	<line class="st39" x1="221.9" y1="846" x2="853.8" y2="481.2"/>
	<line class="st39" x1="213.9" y1="832.2" x2="845.8" y2="467.3"/>
	<line class="st39" x1="205.9" y1="818.4" x2="837.8" y2="453.5"/>
	<line class="st39" x1="197.9" y1="804.6" x2="829.9" y2="439.7"/>
	<line class="st39" x1="188.6" y1="785.7" x2="820.5" y2="420.8"/>
	<line class="st39" x1="182" y1="776.9" x2="813.9" y2="412.1"/>
	<line class="st39" x1="174" y1="763.1" x2="805.9" y2="398.2"/>
	<line class="st39" x1="166" y1="749.3" x2="797.9" y2="384.4"/>
	<line class="st39" x1="170.1" y1="736.9" x2="802" y2="372"/>
	<line class="st39" x1="150" y1="721.6" x2="782" y2="356.8"/>
	<line class="st39" x1="142.1" y1="707.8" x2="774" y2="343"/>
	<line class="st39" x1="134.1" y1="694" x2="766" y2="329.1"/>
	<line class="st39" x1="126.1" y1="680.2" x2="758" y2="315.3"/>
	<line class="st39" x1="118.1" y1="666.4" x2="750.1" y2="301.5"/>
	<line class="st39" x1="110.1" y1="652.5" x2="742.1" y2="287.7"/>
	<line class="st39" x1="102.2" y1="638.7" x2="734.1" y2="273.9"/>
	<line class="st39" x1="94.2" y1="624.9" x2="726.1" y2="260"/>
	<line class="st39" x1="86.2" y1="611.1" x2="718.1" y2="246.2"/>
	<line class="st39" x1="78.2" y1="597.2" x2="710.2" y2="232.4"/>
	<line class="st39" x1="70.2" y1="583.4" x2="702.2" y2="218.6"/>
	<line class="st39" x1="62.3" y1="569.6" x2="694.2" y2="204.8"/>
	<line class="st39" x1="59.7" y1="559.9" x2="691.6" y2="195"/>
	<line class="st39" x1="46.3" y1="542" x2="678.3" y2="177.1"/>
	<line class="st39" x1="38.3" y1="528.1" x2="670.3" y2="163.3"/>
	<line class="st39" x1="30.4" y1="514.3" x2="662.3" y2="149.5"/>
	<line class="st39" x1="22.4" y1="500.5" x2="654.3" y2="135.7"/>
	<line class="st39" x1="8.4" y1="488.2" x2="640.4" y2="123.4"/>
	<line class="st39" x1="6.4" y1="472.9" x2="638.4" y2="108"/>
	<line class="st39" x1="-0.8" y1="460.4" x2="631.1" y2="95.5"/>
	<line class="st39" x1="-9.5" y1="445.2" x2="622.4" y2="80.4"/>
	<line class="st39" x1="-17.5" y1="431.4" x2="614.4" y2="66.6"/>
	<line class="st39" x1="-25.5" y1="417.6" x2="606.4" y2="52.7"/>
	<line class="st39" x1="-33.5" y1="403.8" x2="598.5" y2="38.9"/>
	<line class="st39" x1="-41.5" y1="389.9" x2="590.5" y2="25.1"/>
	<line class="st39" x1="-49.4" y1="376.1" x2="582.5" y2="11.3"/>
	<line class="st39" x1="-57.4" y1="362.3" x2="574.5" y2="-2.5"/>
	<line class="st39" x1="-65.4" y1="348.5" x2="566.5" y2="-16.4"/>
	<line class="st39" x1="-73.4" y1="334.7" x2="558.6" y2="-30.2"/>
	<line class="st39" x1="-81.4" y1="320.8" x2="550.6" y2="-44"/>
	<line class="st39" x1="-89.3" y1="307" x2="542.6" y2="-57.8"/>
	<line class="st39" x1="-97.3" y1="293.2" x2="534.6" y2="-71.6"/>
	<line class="st39" x1="-105.3" y1="279.4" x2="526.6" y2="-85.5"/>
	<line class="st39" x1="-113.3" y1="265.6" x2="518.7" y2="-99.3"/>
	<line class="st39" x1="-121.3" y1="251.7" x2="510.7" y2="-113.1"/>
	<line class="st39" x1="-129.2" y1="237.9" x2="502.7" y2="-126.9"/>
	<line class="st39" x1="-137.2" y1="224.1" x2="494.7" y2="-140.7"/>
	<line class="st39" x1="-145.2" y1="210.3" x2="486.8" y2="-154.6"/>
	<line class="st39" x1="-153.2" y1="196.5" x2="478.8" y2="-168.4"/>
	<line class="st39" x1="18.1" y1="488" x2="650" y2="123.1"/>
</g>
<line class="st40" x1="126.1" y1="336.3" x2="126.1" y2="330.1"/>
<line class="st40" x1="645.9" y1="533" x2="645.9" y2="536.6"/>
<line class="st40" x1="374.1" y1="383" x2="374.1" y2="393.9"/>
<line class="st6" x1="366.8" y1="393.9" x2="366.8" y2="384.6"/>
<line class="st6" x1="374.1" y1="383.1" x2="375.7" y2="383.1"/>
<line class="st6" x1="361.1" y1="260.5" x2="361.1" y2="250.6"/>
<ellipse transform="matrix(0.3065 -0.9519 0.9519 0.3065 -307.1493 338.2148)" cx="78.5" cy="379.9" rx="10.4" ry="5.6"/>
<ellipse transform="matrix(0.3065 -0.9519 0.9519 0.3065 -228.1594 374.5674)" cx="143" cy="343.9" rx="10.4" ry="5.6"/>
<ellipse transform="matrix(0.3065 -0.9519 0.9519 0.3065 -290.8235 326.5447)" cx="78.7" cy="362.9" rx="6.1" ry="3.3"/>
<ellipse transform="matrix(0.3065 -0.9519 0.9519 0.3065 -211.6293 362.5891)" cx="143" cy="326.5" rx="6.1" ry="3.3"/>
</svg>
