<svg id="Layer_1" data-name="Layer 1" xmlns="http://www.w3.org/2000/svg" viewBox="0 0 2338.69 1196.41"><defs><style>.cls-1{fill:#fff;}</style></defs><title>the-mondays</title><path class="cls-1" d="M2417.72,479.15h-36.5v318.5h-40.5V479.15h-36v-40.5h113v40.5Z" transform="translate(-1594.03 -438.65)"/><path class="cls-1" d="M2580.72,797.65h-40.5v-210a29.52,29.52,0,0,0-50.5-20.75,28.75,28.75,0,0,0-8.5,20.75v210h-40.5V452.15l40.5-13.5v90q13.5-11,29.5-11,29,0,49.5,20.5t20.5,49.5v210Z" transform="translate(-1594.03 -438.65)"/><path class="cls-1" d="M2754.71,727.65q0,29-20.5,49.5t-49.5,20.5q-29,0-49.5-20.5t-20.5-49.5v-140q0-29,20.5-49.5t49.5-20.5q29,0,49.5,20.5t20.5,49.5q0,34.5-9.25,52.25t-32.75,33.75q-29,18.5-57.5,37v17a29.52,29.52,0,0,0,50.25,21,28.13,28.13,0,0,0,8.75-21v-4.5l40.5-13.5v18Zm-40.5-140a29.52,29.52,0,0,0-50.5-20.75,28.75,28.75,0,0,0-8.5,20.75v76.5q36-20.5,46-32Q2714.21,617.15,2714.21,587.65Z" transform="translate(-1594.03 -438.65)"/><polygon class="cls-1" points="198.89 635.25 89.81 110.55 0 110.55 0 828.55 81 828.55 81 441.55 169 828.55 238 828.55 326 441.55 326 828.55 407 828.55 407 110.55 317.17 110.55 198.89 635.25"/><path class="cls-1" d="M2175.23,819.4q-46.41,0-79.2,32.8t-32.8,79.2v224q0,46.41,32.8,79.2t79.2,32.8q46.39,0,79.2-32.8t32.8-79.2v-224q0-46.39-32.8-79.2T2175.23,819.4Zm47.2,336q0,20-14,33.6a46,46,0,0,1-33.2,13.6q-20,0-33.6-13.6t-13.6-33.6v-224a46,46,0,0,1,13.6-33.2q13.59-14,33.6-14,19.2,0,33.2,14t14,33.2v224Z" transform="translate(-1594.03 -438.65)"/><path class="cls-1" d="M2565.62,1267.4v-336q0-46.39-32.8-79.2t-79.2-32.8q-36,0-54.4,24.8l-14.4-24.8h-43.2v448h64.8v-336a46,46,0,0,1,13.6-33.2q13.59-14,33.6-14,19.2,0,33.2,14t14,33.2v336h64.8Z" transform="translate(-1594.03 -438.65)"/><path class="cls-1" d="M2732,1267.4q13.59,0,30.4-7.2t24-17.6l14.4,24.8H2844V693l-64.8,21.6V844.2q-12-24.79-47.2-24.8-46.41,0-79.2,32.8T2620,931.4v224q0,46.41,32.8,79.2T2732,1267.4Zm-47.2-336a46,46,0,0,1,13.6-33.2q13.59-14,33.6-14,19.2,0,33.2,14t14,33.2v224q0,20-14,33.6a46,46,0,0,1-33.2,13.6q-20,0-33.6-13.6t-13.6-33.6v-224Z" transform="translate(-1594.03 -438.65)"/><path class="cls-1" d="M3016,1009q-66.41,44.81-76.8,54.4-40.8,39.21-40.8,92,0,46.41,32.8,79.2t79.2,32.8q28.8,0,54.4-24.8l14.4,24.8h43.2v-336q0-46.39-32.8-79.2t-79.2-32.8q-37.61,0-64.8,18t-34.4,50.8l54.4,28q10.39-32,44.8-32,19.2,0,33.2,14t14,33.2v24.8Q3057.61,981,3016,1009Zm41.6,146.4q0,20-14,33.6a46,46,0,0,1-33.2,13.6q-20,0-33.6-13.6t-13.6-33.6q0-27.19,24-48.8,23.19-16,46.8-32.8t23.6-34.4v116Z" transform="translate(-1594.03 -438.65)"/><path class="cls-1" d="M3567.19,1267.4q46.39,0,79.2-32.8t32.8-79.2q0-54.39-41.6-95.2-38.4-29.59-76.8-60-40.8-34.39-40.8-74.4,0-20,13.6-33.6t33.6-13.6a46.06,46.06,0,0,1,33.2,13.6q14,13.61,14,33.6v16.8l64.8,14.4V925.8q0-46.39-32.8-79.2t-79.2-32.8q-46.41,0-79.2,32.8t-32.8,79.2q0,59.21,40.8,100,38.4,28.8,76.8,58.4,41.59,32.81,41.6,71.2,0,20-14,33.6a46,46,0,0,1-33.2,13.6q-20,0-33.6-13.6t-13.6-33.6v-16.8l-64.8-14.4v31.2q0,46.41,32.8,79.2T3567.19,1267.4Z" transform="translate(-1594.03 -438.65)"/><path class="cls-1" d="M3909.47,1266.62l-1.49.62c-1,.41-2.47,1-4.45,1.79-4,1.55-9.88,3.8-17.85,6.42s-18,5.63-30,8.7-26.15,6.2-42.18,9.18c-32,6-71.82,11.25-118,15.17s-98.68,6.59-156.2,8.11c-43.48,1.16-89.83,1.68-138.48,1.8v-499H3336v336q0,20-14,33.6a46,46,0,0,1-33.2,13.6q-20,0-33.6-13.6t-13.6-33.6v-336h-64.8v336q0,46.41,32.8,79.2t79.2,32.8q35.19,0,47.2-24.8v75.77c-61.2-.2-125.44-0.8-191.85-1.09-72.58-.27-147.73-0.25-224.41,2.06-38.34,1.19-77.08,3-116.09,6-19.51,1.51-39.09,3.33-58.74,5.63s-39.36,5.07-59.14,8.62a582.45,582.45,0,0,0-59.54,13.65c-10,2.9-19.93,6.18-29.9,10.05a244.42,244.42,0,0,0-29.86,13.83,159.44,159.44,0,0,0-29.09,20.29,118.28,118.28,0,0,0-13.33,14c-2.08,2.59-4.07,5.32-6,8.17a100,100,0,0,0-5.21,9,92.65,92.65,0,0,0-7.44,19.77,90,90,0,0,0-2,10.34c-0.24,1.73-.42,3.45-0.56,5.17-0.08.81-.13,1.84-0.18,2.82l-0.07,1.47,0,1.26a125.71,125.71,0,0,0,4.68,36.94,111.71,111.71,0,0,0,17,34.78,130,130,0,0,0,25.74,26.23c4.66,3.57,9.4,6.82,14.19,9.81s9.62,5.67,14.47,8.1a257.12,257.12,0,0,0,29.1,12.51,426,426,0,0,0,57.58,16c19,4,37.76,7,56.32,9.41,37.11,4.81,73.39,7.42,108.78,9.1q26.55,1.25,52.42,1.79,12.93,0.29,25.69.44l25.36,0.31c33.5,0.62,66.32.35,98.1-.63,7.94-.2,15.84-0.59,23.66-0.89s15.59-.74,23.29-1.27c15.39-.91,30.54-2.15,45.4-3.62s29.45-3.24,43.75-5.35,28.29-4.54,42-7.44c27.35-5.83,53.48-13.3,77.87-23.71a247.54,247.54,0,0,0,35-18.13,189.24,189.24,0,0,0,30.58-23.67,160.35,160.35,0,0,0,23.7-28.63l2.4-3.77,2.21-3.81c1.5-2.51,2.76-5.09,4.08-7.6s2.45-5.06,3.54-7.57,2.16-5,3.05-7.48a193.82,193.82,0,0,0,8.29-28.09c1.9-8.76,3.1-16.84,4-24.21,1.69-14.74,2.18-26.72,2.53-36.22s0.43-16.53.52-21.21l0.06-3c46.49-.16,91-0.68,133-1.8,58.36-1.54,112-4.23,159.7-8.31s89.41-9.54,123.85-16c17.22-3.2,32.61-6.61,46-10s24.79-6.82,34-9.86,16.3-5.71,21.06-7.58c2.38-.94,4.18-1.67,5.39-2.17l1.82-.75Zm-574.86,164.65c-1.08,11.37-3.07,23.66-7.32,35.57a90,90,0,0,1-21.58,34.22c-10.76,10.78-25.9,20.87-44.73,29.3s-40.88,15.43-65.08,21.07c-12.11,2.82-24.78,5.27-37.88,7.47s-26.65,4.14-40.61,5.77-28.27,3.11-43,4.27c-7.33.65-14.77,1.1-22.26,1.65s-15.08,1-22.75,1.3c-15.31.83-31,1.33-46.84,1.8-8,.16-16,0.39-24,0.48l-24.47.34c-4.18.06-8.26,0-12.38,0s-8.24,0-12.41-.1q-12.48-.14-25.1-0.43-25.23-.56-50.95-1.74c-34.25-1.62-69.1-4.16-103.84-8.66-17.36-2.27-34.69-5-51.71-8.62a367.14,367.14,0,0,1-49.42-13.66,197.64,197.64,0,0,1-22.4-9.6c-3.55-1.76-6.86-3.69-10.11-5.64s-6.21-4.08-9-6.23a70.19,70.19,0,0,1-13.9-14,51.43,51.43,0,0,1-7.88-16.11,65.85,65.85,0,0,1-2.35-19.57,3.46,3.46,0,0,1,0-.53l0-.31c0-.21,0-0.38.05-0.75,0.05-.66.11-1.31,0.21-1.95a30.22,30.22,0,0,1,.71-3.73,32.54,32.54,0,0,1,2.65-7,48.06,48.06,0,0,1,11.06-13.71,100.17,100.17,0,0,1,18.18-12.54c13.91-7.7,30.38-13.78,47.49-18.77a523.51,523.51,0,0,1,53.37-12.2c36.54-6.53,74.19-10.54,111.9-13.48s75.62-4.65,113.31-5.81c75.4-2.27,150-2.3,222.33-2,66.25,0.28,130.59.89,192.1,1.09v16.23l0.09,0q0,3-.05,6.34C3335.91,1409.51,3335.67,1419.89,3334.61,1431.27Z" transform="translate(-1594.03 -438.65)"/></svg>