<?xml version="1.0" encoding="UTF-8" standalone="no"?>
<!-- Generator: Adobe Illustrator 19.0.0, SVG Export Plug-In . SVG Version: 6.00 Build 0)  -->

<svg
   version="1.1"
   id="Layer_1"
   x="0px"
   y="0px"
   viewBox="-4052 4879.8 1894 243.2"
   style="enable-background:new -4052 4879.8 1894 243.2;"
   xml:space="preserve"
   sodipodi:docname="yusuf_dark.svg"
   inkscape:version="1.2.2 (732a01da63, 2022-12-09)"
   xmlns:inkscape="http://www.inkscape.org/namespaces/inkscape"
   xmlns:sodipodi="http://sodipodi.sourceforge.net/DTD/sodipodi-0.dtd"
   xmlns="http://www.w3.org/2000/svg"
   xmlns:svg="http://www.w3.org/2000/svg"
   xmlns:rdf="http://www.w3.org/1999/02/22-rdf-syntax-ns#"
   xmlns:cc="http://creativecommons.org/ns#"
   xmlns:dc="http://purl.org/dc/elements/1.1/"><defs
   id="defs39" /><sodipodi:namedview
   id="namedview37"
   pagecolor="#ffffff"
   bordercolor="#000000"
   borderopacity="0.25"
   inkscape:showpageshadow="2"
   inkscape:pageopacity="0.0"
   inkscape:pagecheckerboard="0"
   inkscape:deskcolor="#d1d1d1"
   showgrid="false"
   inkscape:zoom="0.63885956"
   inkscape:cx="949.34793"
   inkscape:cy="122.87521"
   inkscape:window-width="1350"
   inkscape:window-height="1230"
   inkscape:window-x="311"
   inkscape:window-y="198"
   inkscape:window-maximized="0"
   inkscape:current-layer="Layer_1" />
<style
   type="text/css"
   id="style2">
	.st0{fill:#FFFFFF;}
	.st1{fill:#E84236;}
	.st2{fill:#517CBD;}
	.st3{fill:#FABB11;}
</style>
<title
   id="title4">yusuf</title>
<path
   class="st0"
   d="M-3723.8,5018.8l-72-110.5v-0.3h16.6l62.5,97.1l62.8-97.1h16.6v0.3l-72.3,110.5v73.9h-14.2V5018.8z"
   id="path6"
   style="fill:#213647;fill-opacity:1" />
<path
   class="st0"
   d="M-3533.3,5092.7v-23.5c-10,17.9-28.2,25.3-46.4,25.6c-34.8,0-58.8-21.4-58.8-57.5v-75.2h12.9v74.9  c0,29.5,18.2,45.4,46.4,45.1c26.9-0.3,45.6-20.6,45.6-47.5v-72.5h12.9v130.6H-3533.3z"
   id="path8"
   style="fill:#213647;fill-opacity:1" />
<path
   class="st0"
   d="M-3397.2,4986.1c-13.2-11.6-26.1-13.7-40.6-13.7c-20.3-0.3-39.8,7.4-39.3,24c0.5,17.4,23.2,20.8,39.6,23.7  c23.2,4,55.1,7.9,53.8,38.3c-0.8,28.8-30.6,36.4-53.6,36.4c-22.9,0-45.6-8.7-57-26.1l9.5-8.4c10.8,15.6,30.4,22.1,47.8,22.1  c15.8,0,39.8-4.2,40.6-24.8c0.5-18.7-21.1-22.4-42.5-25.8c-25.3-4.2-50.4-9-50.6-35.1c-0.3-25.6,25.3-36.7,51.7-36.4  c19,0,35.6,5.3,48.5,17.4L-3397.2,4986.1z"
   id="path10"
   style="fill:#213647;fill-opacity:1" />
<path
   class="st0"
   d="M-3250,5092.7v-23.5c-10,17.9-28.2,25.3-46.4,25.6c-34.8,0-58.8-21.4-58.8-57.5v-75.2h12.9v74.9  c0,29.5,18.2,45.4,46.4,45.1c26.9-0.3,45.6-20.6,45.6-47.5v-72.5h12.9v130.6H-3250z"
   id="path12"
   style="fill:#213647;fill-opacity:1" />
<path
   class="st0"
   d="M-3189.9,5092.7v-117.9h-26.6v-11.3h26.6v-11.6c0-25.8,10.3-44.6,39-44.6c9.4,0.1,18.5,3.2,25.9,9l-6.3,9.5  c-7.1-4.2-12.1-6.6-20-6.6c-16.3,0-25.8,10-25.8,32.7v11.6h43v11.3h-43v117.9H-3189.9z"
   id="path14"
   style="fill:#213647;fill-opacity:1" />
<path
   class="st0"
   d="M-3036.1,4908.1h133.7v5l-119,165.6h119v14h-140.1v-6.1l117.4-165.4h-111L-3036.1,4908.1L-3036.1,4908.1z"
   id="path16"
   style="fill:#213647;fill-opacity:1" />
<path
   class="st0"
   d="M-2883.6,5027.5c0-39,29.5-67.3,66.2-67.3s69.4,22.4,64.4,73.3h-117.4c2.6,30.6,26.1,48.3,53,48.3  c17.2,0,37.2-6.9,47-19.8l9.2,7.4c-12.7,16.6-35.3,25.1-56.2,25.1C-2854.1,5094.5-2883.6,5068.9-2883.6,5027.5z M-2764.6,5022.3  c-0.3-32.2-21.4-50.1-52.8-50.1c-26.9,0-50.1,18.2-53,50.1H-2764.6L-2764.6,5022.3z"
   id="path18"
   style="fill:#213647;fill-opacity:1" />
<path
   class="st0"
   d="M-2707.4,4962.4l0.5,23.2c8.2-17.7,26.6-24.5,43.3-24.5c9.9-0.2,19.6,2.4,28,7.7l-5.8,10.5  c-6.7-4-14.4-6.2-22.2-6.1c-23.9,0.2-43.1,19.6-43,43.5v76h-12.9v-130.3H-2707.4L-2707.4,4962.4z"
   id="path20"
   style="fill:#213647;fill-opacity:1" />
<path
   class="st0"
   d="M-2491.1,4908.1v184.6h-12.7v-28.8c-10.8,19.8-32.2,30.9-54.3,30.9c-36.4,0-65.1-24-65.1-67.3  c0-43,29-67.3,65.4-67.3c22.4,0,43.5,9.5,54.1,30.6v-82.8H-2491.1L-2491.1,4908.1z M-2610.6,5027.5c0,36.1,24,54.6,53.3,54.6  c30.6,0,53.3-22.4,53.3-54.9c0-32.4-23.2-54.6-53.3-54.6C-2586.6,4972.7-2610.6,4990.9-2610.6,5027.5z"
   id="path22"
   style="fill:#213647;fill-opacity:1" />
<path
   class="st0"
   d="M-2328.7,4962.4v130.3h-12.9V5065c-12.7,20.3-32.2,29.8-53.3,29.8c-36.4,0-66.2-27.4-66.2-67.3  s29.8-66.7,66.2-66.7c21.1,0,42.5,9.8,53.3,30.1v-28.5H-2328.7z M-2448.1,5027.5c0,32.7,23.7,54.6,53.3,54.6  c72.5,0,72.5-108.9,0-108.9C-2424.4,4973.2-2448.1,4994.8-2448.1,5027.5z"
   id="path24"
   style="fill:#213647;fill-opacity:1" />
<path
   class="st0"
   d="M-2300.2,4962.4h98.1v5l-82.3,113.2h82.3v12.1h-102.3v-4.5l83.1-114.2h-78.9L-2300.2,4962.4L-2300.2,4962.4z"
   id="path26"
   style="fill:#213647;fill-opacity:1" />
<path
   class="st0"
   d="M-2158,4919.9c0,13.7-20.8,13.7-20.8,0C-2178.8,4906.2-2158,4906.2-2158,4919.9z M-2175.1,4961.9v130.8h12.9  v-130.8L-2175.1,4961.9L-2175.1,4961.9z"
   id="path28"
   style="fill:#213647;fill-opacity:1" />
<path
   class="st1"
   d="M-4052,4879.9v121.5c42,0,82.4-41.5,121.7-121.5H-4052z"
   id="path30" />
<path
   class="st2"
   d="M-3808.7,4879.9h-121.6c-11.4,65-41.2,135.7-85.8,207.5l172.1-172.1v-0.1l-0.2,0.1L-3808.7,4879.9z"
   id="path32" />
<path
   class="st3"
   d="M-3809,5001.4v-121.5l-35.5,35.6c-44.6,71.9-74.6,141-86,207.6C-3891.3,5042.9-3851,5001.4-3809,5001.4  L-3809,5001.4L-3809,5001.4z"
   id="path34" />
<metadata
   id="metadata1185"><rdf:RDF><cc:Work
       rdf:about=""><dc:title>yusuf</dc:title></cc:Work></rdf:RDF></metadata></svg>
