<svg id="Layer_1" data-name="Layer 1" xmlns="http://www.w3.org/2000/svg" viewBox="0 0 1000 1205.5"><defs><style>.cls-1{fill:none;}.cls-2{fill:#fff;}</style></defs><title>everydays</title><path class="cls-1" d="M750,500c0-138.07-111.93-250-250-250V750C638.07,750,750,638.07,750,500Z"/><path class="cls-2" d="M853.55,146.45L1000,0H500V500L676.74,323.26l-0.27-.33A249.22,249.22,0,0,1,750,500c0,138.07-111.93,250-250,250v250A499.92,499.92,0,0,0,853.55,146.45Z"/><path class="cls-2" d="M375,375A125,125,0,0,1,496.77,250q-11.29.14-22.33,1.25-9.45,1-18.69,2.61-3.08.55-6.13,1.17C341.8,277.14,259.26,368.61,250.73,480.76Q250,490.29,250,500q0,3.24.08,6.46c0,0.66.05,1.32,0.08,2,0,1.48.09,3,.17,4.44,0,0.78.1,1.54,0.15,2.32,0.08,1.35.16,2.71,0.26,4.06,0.06,0.78.14,1.56,0.21,2.35,0.11,1.33.22,2.67,0.36,4,0.07,0.7.16,1.38,0.24,2.08,0.15,1.41.3,2.81,0.48,4.21,0.08,0.65.18,1.3,0.27,1.94,0.19,1.43.38,2.87,0.6,4.3,0.09,0.62.21,1.23,0.31,1.85,0.23,1.45.46,2.9,0.72,4.34,0.1,0.55.21,1.09,0.31,1.63,0.28,1.51.56,3,.87,4.51,0.1,0.49.22,1,.32,1.47,0.33,1.54.65,3.08,1,4.62,0.11,0.45.22,0.9,0.33,1.36,0.37,1.56.74,3.12,1.14,4.67,0.11,0.41.23,0.82,0.33,1.23,0.42,1.59.84,3.17,1.29,4.74,0.1,0.35.21,0.69,0.31,1,0.47,1.63.95,3.26,1.45,4.87,0.1,0.32.21,0.63,0.31,1,0.52,1.64,1,3.28,1.6,4.9l0.27,0.78c0.57,1.68,1.16,3.35,1.77,5l0.26,0.67c0.63,1.69,1.26,3.38,1.93,5.05l0.21,0.51q1,2.58,2.11,5.14l0.17,0.4q1.11,2.61,2.28,5.19l0.12,0.25q1.2,2.64,2.46,5.26l0.11,0.23q1.27,2.62,2.6,5.21l0.06,0.11q1.36,2.64,2.78,5.25l0,0.06a250.9,250.9,0,0,0,43.19,57.61h0l-0.27-.33L500,500A125,125,0,0,1,375,375Z"/><path class="cls-2" d="M500,500V750A125,125,0,0,0,500,500Z"/><path class="cls-2" d="M0,1110.25c0-31.12,23.55-53.62,52.78-53.62s55.3,17.87,51.3,58.45H10.51c2.1,24.39,20.82,38.48,42.26,38.48,13.67,0,29.65-5.47,37.43-15.77l7.36,5.89c-10.09,13.25-28.18,20-44.79,20C23.55,1163.65,0,1143.26,0,1110.25Zm94.83-4.2c-0.21-25.65-17-39.95-42.05-39.95-21.45,0-39.95,14.51-42.26,39.95H94.83Z"/><path class="cls-2" d="M118.59,1058.31h11.35l37.85,91.88,37.85-91.88H217l-43.52,103.87H162.11Z"/><path class="cls-2" d="M228.13,1110.25c0-31.12,23.55-53.62,52.78-53.62s55.3,17.87,51.3,58.45H238.64c2.1,24.39,20.82,38.48,42.26,38.48,13.67,0,29.65-5.47,37.43-15.77l7.36,5.89c-10.09,13.25-28.18,20-44.79,20C251.68,1163.65,228.13,1143.26,228.13,1110.25ZM323,1106c-0.21-25.65-17-39.95-42.05-39.95-21.45,0-39.95,14.51-42.26,39.95H323Z"/><path class="cls-2" d="M368.58,1058.31l0.42,18.5c6.52-14.09,21.24-19.55,34.48-19.55a40.56,40.56,0,0,1,22.29,6.1l-4.63,8.41a33.4,33.4,0,0,0-17.66-4.84,34.5,34.5,0,0,0-34.27,34.69v60.55h-10.3V1058.31h9.67Z"/><path class="cls-2" d="M536.57,1058.31L473.28,1205.5H462.35l19.13-44.58-41.63-102.61H451l24.18,61.4,12.2,30.07,12-30.28,26.07-61.19h11.14Z"/><path class="cls-2" d="M656.21,1015v147.18H646.11v-22.92c-8.62,15.77-25.65,24.6-43.31,24.6-29,0-51.93-19.13-51.93-53.62,0-34.27,23.13-53.62,52.14-53.62,17.87,0,34.69,7.57,43.1,24.39v-66h10.09ZM561,1110.25c0,28.81,19.13,43.52,42.47,43.52,24.39,0,42.47-17.87,42.47-43.73s-18.5-43.52-42.47-43.52C580.09,1066.51,561,1081,561,1110.25Z"/><path class="cls-2" d="M785.72,1058.31v103.87h-10.3v-22.08c-10.09,16.19-25.65,23.76-42.47,23.76-29,0-52.78-21.87-52.78-53.62s23.76-53.2,52.78-53.2c16.82,0,33.85,7.78,42.47,24v-22.71h10.3Zm-95.25,51.93c0,26.07,18.92,43.52,42.47,43.52,57.82,0,57.82-86.84,0-86.84C709.4,1066.94,690.47,1084.18,690.47,1110.25Z"/><path class="cls-2" d="M898,1058.31L834.71,1205.5H823.77l19.13-44.58-41.63-102.61h11.14l24.18,61.4,12.2,30.07,12-30.28,26.07-61.19H898Z"/><path class="cls-2" d="M989.24,1077.24c-10.51-9.25-20.82-10.93-32.38-10.93-16.19-.21-31.75,5.89-31.33,19.13,0.42,13.88,18.5,16.61,31.54,18.92,18.5,3.15,43.94,6.31,42.89,30.49-0.63,22.92-24.39,29-42.68,29s-36.38-6.94-45.42-20.82l7.57-6.73c8.62,12.41,24.18,17.66,38.06,17.66,12.62,0,31.75-3.36,32.38-19.76,0.42-14.93-16.82-17.87-33.85-20.61-20.18-3.36-40.16-7.15-40.37-28-0.21-20.4,20.19-29.23,41.21-29,15.14,0,28.39,4.21,38.69,13.88Z"/></svg>