<svg id="Layer_11" data-name="Layer 11" xmlns="http://www.w3.org/2000/svg" viewBox="0 0 424.89 2408.06"><defs><style>.cls-1{opacity:0.57;}</style></defs><title>tile_join</title><path d="M12180.48,1213.22a8,8,0,0,0-10.29,4.7c-6.79,18.19-4.1,36.37,7.36,49.9a50.58,50.58,0,0,0,38.15,17.74,46.11,46.11,0,0,0,8.82-.84,42.73,42.73,0,0,0,21.38-10.87v-33q-0.65,2.85-1.63,5.84c-5.2,15.79-15.27,20.85-22.81,22.32-11.25,2.19-24-2.44-31.71-11.54s-9.35-21.17-4.58-34A8,8,0,0,0,12180.48,1213.22Z" transform="translate(-11821.01 -47.12)"/><path d="M12224,574.05a35.47,35.47,0,0,1,21.91,15.73V566.85a53.28,53.28,0,0,0-17.93-8.3c-33.27-8.53-52.55,8.93-59,26.48-6.74,18.47-1.29,44.18,22.07,55.43A8,8,0,0,0,12198,626c-15-7.24-18.42-23.35-14-35.52C12188.35,578.71,12201.1,568.19,12224,574.05Z" transform="translate(-11821.01 -47.12)"/><path d="M11821,67.61c23.69,2.66,48.33,14,71.05,33.37a60.21,60.21,0,0,0-1.94,9.37c-3.9,31.79,6.4,46.16,15.74,52.61,11.62,8,27.75,8,43.15-.07,17.07-8.95,28.1-25.44,28.1-42a8,8,0,1,0-16,0c0,10.69-7.67,21.61-19.53,27.83-9.89,5.18-20.09,5.6-26.62,1.08-8.06-5.57-11.24-18.89-9-37.5,4.11-33.45,43.55-51.17,79.33-49,42.51,2.6,87.91,31.63,88.48,105.2a44,44,0,0,0-2.07,12.26c-0.22,9.49,2.87,25.09,21.7,38.74a90.77,90.77,0,0,0-58.45,48.73,8,8,0,0,0-1.53,1.07c-29.39,26.3-56.95,30.88-73.71,12.25-12.94-14.39-15.82-41-.3-55,6.79-6.14,14.11-8.27,20.63-6,5.29,1.85,9.4,6.52,10.23,11.61,0.74,4.54-1.2,8.75-5.62,12.19a8,8,0,0,0,9.82,12.63c9.06-7,13.28-17,11.58-27.41-1.78-10.87-9.92-20.34-20.74-24.13-12.13-4.24-25.48-.88-36.65,9.23-18.3,16.56-20.76,46.71-7.17,69.07q-63.45,46.89-120.54,74v17.71c38.85-17.78,82.29-43.46,130.72-79.31a49.09,49.09,0,0,0,33.37,12.73c12.37,0,26.61-4.23,42.26-14.58q-0.41,3.51-.48,7c-0.59,30.39,17.63,52.24,47.54,57a96.1,96.1,0,0,0,15.2,1.27c24.92,0,38-11.25,44-18.79,9.62-12.12,12.27-28.67,6.75-42.18-4.37-10.7-13.15-17.62-24.09-19a8,8,0,0,0-2,15.88c6.55,0.82,9.74,5.43,11.26,9.16,2.76,6.75,2.44,17.46-4.47,26.18-8.51,10.72-24.19,14.86-44.16,11.67-21.76-3.48-34.49-18.78-34.07-40.92,0.58-30,25.63-64,66.55-68.94a52.59,52.59,0,0,1,9-.3,7.44,7.44,0,0,0,3.36.28c27.73,3.11,54.39,26.91,61.69,57.28,5.68,23.65,10.15,106-171,172.4a8.08,8.08,0,0,0-.83.36,89.78,89.78,0,0,0-10.89,2.15c12.29-22.81,9.29-40.94,5.47-51.1-7.09-18.83-24.93-32.6-44.4-34.26-15.1-1.28-27.92,5.07-35.18,17.46-17.46,29.79-1.67,44.16,3.59,47.85,12.93,9.08,32.67,7,42.25-4.53a8,8,0,0,0-12.29-10.24c-4.31,5.18-14.59,6-20.76,1.68-9.35-6.57-2.41-20.84,1-26.67,5.5-9.38,14.9-10,20-9.61,13.24,1.13,25.9,11,30.78,24,6.56,17.43-.74,38.45-20.54,59.25a117.36,117.36,0,0,0-18.27,15.33,147,147,0,0,0-25.19,35.49c-3.33-10.62-8.33-19.68-14.87-26.81a52.53,52.53,0,0,0-40.32-17.42,55.42,55.42,0,0,0-50.51,36L11821,521v45.41c4.1,12.16,11.06,17.82,15.86,20.38A27.86,27.86,0,0,0,11850,590a33.64,33.64,0,0,0,18.71-6c12.87-8.66,19.82-24.13,18.14-40.38a8,8,0,0,0-15.92,1.65c1.28,12.37-4.92,21.27-11.16,25.46-5.26,3.54-11,4.25-15.43,1.91-6.83-3.63-10.74-14.41-10.74-29.56,0-26.63,20-41.44,38.81-41.86h0.79c18.57,0,40.49,14.68,42.72,56.17-1.17,3.81-2.22,7.66-3.13,11.57a172.82,172.82,0,0,0,3.57,92.46c10.43,32.18,30,59.72,58.11,81.85a35.71,35.71,0,0,0-21.61,14.72c-5,7.37-10.7,21.71-4.4,44.95-10.68-3.88-22.42-3.82-34.07.45a81.85,81.85,0,0,0-8.77,3.79,8,8,0,0,0-1.54-1.61c-26.76-20.94-55.26-37-83.12-47.51v17.34a305.69,305.69,0,0,1,70.95,41c-15.52,13.79-18.66,32.18-13.67,46.69a38.28,38.28,0,0,0,36.45,26.15,47.06,47.06,0,0,0,14.47-2.38,8,8,0,0,0-4.91-15.23c-16.17,5.22-27.34-3.47-30.88-13.74-4.53-13.15,1.92-30.45,26.52-39.45,16.85-6.17,28.89.9,36,7.91a48,48,0,0,1,4.95,5.74l0.05,0.07c12,16.33,15.53,41.38,8.15,62.67-10.13,29.22-38,47.91-78.5,52.78-23.11-6.85-52.69,8.71-69.61,35.54v94.18q13.41,23,39.44,43.11-20.09-1.7-39.44-2.27v16.23c50,1.45,104,8.63,161.1,21.63a8,8,0,0,0,4.89-.44c3.92,23.62,20.27,47.24,57.08,59.66a210.56,210.56,0,0,0-27.57,24.54,61.74,61.74,0,0,0-11.55-3.89c-19.34-4.43-39.84,1.7-54.48,16-26.77,9.67-48,9.44-59.91-.71-9-7.71-10.51-19.26-8.85-27.5,1.73-8.62,6.71-15,13.31-17.14,11-3.51,19.45-1.61,22.13,5a10.2,10.2,0,0,1-4.92,13,8,8,0,0,0,7.16,14.31,26.06,26.06,0,0,0,12.58-33.39c-4.58-11.25-18.28-21.71-41.82-14.18-12.21,3.91-21.23,14.84-24.12,29.23-3.25,16.2,2.17,32.6,14.16,42.82,7.15,6.09,18.36,11.68,35.47,11.68a98.74,98.74,0,0,0,21-2.45c-3.88,10.09-4.38,20.69-1.06,30.1,10.4,29.47,30.67,35.06,44.87,30.9,15.84-4.64,25.88-20.52,22.38-35.39a8,8,0,0,0-15.57,3.67c1.72,7.31-4.46,14.36-11.3,16.37-10.16,3-19.62-4.82-25.28-20.87-3.41-9.67-.06-21.82,8.76-31.71,8.52-9.56,24-18.3,41.94-14.2,25.42,5.82,47.13,35,61.35,82.42-19.69,16.46-31.37,49.33-12.63,99.15-13.49-1.33-28.55,4-41.09,19.92-11,14-12.68,33.81-6.15,52.33-58.41,11.66-94-15.15-108-45.25-10.42-22.33-9.61-46.37,1.17-59.72l0-.05a28.33,28.33,0,0,1,5.44-5.17c17.76-12.8,31.31-7.59,38.07,1.55,7.28,9.85,7.86,25.74-5.41,35.79a8,8,0,0,0,9.66,12.75c20.67-15.66,20.61-41.82,8.61-58.06-9.7-13.12-27.4-20.62-47.8-12.11,4.43-23.34-2.74-37.59-8.4-44.75-8.52-10.79-22.16-16.33-34.75-14.13a27.21,27.21,0,0,0-21.58,18.25c-6.72,20.17,1.69,34.78,13,40.31,10.13,5,21.57,2.42,27.2-6a8,8,0,0,0-13.31-8.87c-1.28,1.92-4.42,1.72-6.86.52-4.91-2.4-8.77-9.15-4.86-20.88a11.1,11.1,0,0,1,9.16-7.55c6.87-1.21,14.5,2,19.43,8.28,5.07,6.42,11.65,21.52-.67,50.76-14.17,18.24-15.68,48-2.66,75.85a98,98,0,0,0,32.26,38.56c-20.4,33.18-43.31,57.79-68.14,73.13a121.35,121.35,0,0,1-23.46,11.35v16.81a133.83,133.83,0,0,0,31.87-14.55c27-16.7,51.78-43.15,73.54-78.62,13.74,6.64,30.1,10.67,49.13,10.67a157.69,157.69,0,0,0,34.56-4,76.57,76.57,0,0,0,13.28,15.82,71.88,71.88,0,0,0,48.71,18.82c16,0,34-5.09,53.1-17.47a63.06,63.06,0,0,0-.81,10.36c0.2,27.64,18.33,46.4,46.2,47.79a8,8,0,1,0,.8-16c-28.56-1.43-30.94-24.8-31-31.93a51.29,51.29,0,0,1,10.5-30.95,8,8,0,0,0,.63-0.82,49.19,49.19,0,0,1,36-18.75c11.14-.72,22.85,4.34,33,14.25,10.58,10.36,18.26,24.81,21.63,40.7,4.11,19.38,9.57,85.1-90.53,123.32-12.23-4.21-26.63-3.34-41,3.32a79.91,79.91,0,0,0-31.65,27.1c-4.11-24.72-12.83-46.63-25.81-64.35-15.82-21.61-37.54-36.42-61.16-41.71-36.34-8.15-70.21,7.34-86.26,39.46-9.77,19.55-8.79,38.81,2.76,54.24a50.31,50.31,0,0,0,4.12,4.82c23.18,37.22,14.79,61,.46,70.15-11,7-27.64,6.52-37-8-5.63-8.79-7.23-16.35-4.5-21.3,2.1-3.82,7-6.27,12.4-6.27h0.13c5,0,9.12,2.13,11,5.6a8,8,0,1,0,14.12-7.53c-4.66-8.73-14-14-25-14.07H11884c-11.35,0-21.46,5.56-26.41,14.55-3.3,6-7,18.83,5,37.66a42.3,42.3,0,0,0,35.74,19.77,43.29,43.29,0,0,0,23.28-6.88c12-7.66,19.53-20.33,21.08-35.67,1-10.18-.68-21.33-4.93-33a56.18,56.18,0,0,0,15.68,2.29,50,50,0,0,0,8.88-.78c16.46-3,28.68-14.11,33.52-30.56a8,8,0,1,0-15.35-4.51c-4,13.56-13.63,18-21,19.33-13.72,2.47-29.79-3.91-38.22-15.17-5.47-7.31-10.13-19.74-1.26-37.49,12.85-25.7,39.08-37.58,68.45-31,34.31,7.69,74.94,43.26,77.09,118.18-0.2.65-.39,1.3-0.58,2q-1.33,4.67-2.25,9.52c-17.61-24.45-35.92-26.94-46.53-25.71-19.2,2.22-32.44,18-35.16,31.67-2.21,11.16,2.08,21,11.49,26.18,5.59,3.1,10.63,4.4,15.06,4.4,8.48,0,14.72-4.74,18.3-10.61,4.89-8,7.14-22.88-.44-27.93a8,8,0,0,0-11,11.17c0.19,2.56-1,8.3-4,10.52-2.57,2-6.93.25-10.13-1.53-1.2-.66-4.83-2.69-3.56-9.08,1.6-8.08,10.21-17.61,21.31-18.89,15.21-1.76,30.31,11.8,42.62,38.21a163.83,163.83,0,0,0,5.41,35.5,113,113,0,0,0-54-17.81c-41.14-2.8-73.66,15.94-82.33,46.28-39.66-13-76.14-19.5-108.79-19.34v16c29-.12,64.47,5.44,106.29,19.43-1.61,28,10.43,40.64,18.22,45.83,13.05,8.71,31.26,8.61,46.39-.24,14.58-8.54,22.56-23.09,21.35-38.93a8,8,0,0,0-16,1.23c1.06,13.82-9.07,21.31-13.48,23.89-9.73,5.7-21.55,6-29.43.74-9.28-6.19-13-19.77-10.49-38.23,4.2-30.78,37.74-42.65,67.13-40.65,38.13,2.59,79.16,27.9,79.16,77.36,0,44.78-28.85,71.52-67.75,93.24-1,.36-2,0.7-2.93,1.07a8,8,0,0,0-3.27,2.31c-15.62,8.31-32.62,16-49.88,23.72l-5.39,2.43c17.35-27.16,16.58-46.62,12-58.93-5.65-15.05-19.47-25.47-37-27.86-17.83-2.44-34.83,4.15-44.36,17.19-14.12,19.32-11,38.85-1.72,49.65,9.56,11.08,25,13.39,39.23,5.88a8,8,0,1,0-7.45-14.16c-7.66,4-15,3.22-19.67-2.17-5.18-6-6.41-17.53,2.53-29.75,6.06-8.29,17.27-12.42,29.27-10.78,11.58,1.58,20.61,8.18,24.16,17.63,5.95,15.84-2.91,38.5-24.93,63.79a8,8,0,0,0-1.72,3.32c-16.15,7.89-31.66,16.35-45.15,26-23.6,16.9-42.61,37.63-55,59.95a139.15,139.15,0,0,0-10.15,22.83v70.56c8.33,21.4,24.78,39.05,48,51.07a57.56,57.56,0,0,0,26.56,6.61c12.95,0,25.95-4.51,37.75-13.41,21.16-15.95,32.4-41.55,28-63.7-2.36-11.76-11.52-32.82-46.46-41.76a8,8,0,1,0-4,15.5c19.89,5.09,31.9,15.26,34.73,29.4,3.2,16-5.8,35.65-21.9,47.78-14.92,11.25-32.18,13.2-47.34,5.37-27.29-14.1-43.42-37.16-45.43-64.92-2.8-38.75,21.91-81.77,64.5-112.27,21.83-15.63,50.12-28.35,77.47-40.65,18.87-8.48,38.1-17.14,55.83-27,35.81-13,68-16,93.24-9.5l0.47,0.17c1.72,0.53,3.43,1,5.15,1.47,13.76,4.54,25.15,12.19,33.49,22.89,18.48,23.69,17.41,57.73-2.73,86.71-18.71,26.92-48.69,27.06-68.63,13.3a48.27,48.27,0,0,1-6.58-5.46l0,0c-11.13-11.08-17.31-28.43-4-47.92,7.89-11.52,16.75-17.41,25-16.59,5.78,0.57,10.95,4.63,13.49,10.57,2.92,6.84,1.76,14.37-3.18,20.66a8,8,0,1,0,12.58,9.88c8.53-10.85,10.51-24.62,5.31-36.81-4.83-11.32-15-19.07-26.62-20.22-8.29-.83-24.48,1.13-39.78,23.47-9.42,13.75-11.77,27.39-9.55,39.62-17.84-7.14-32.4-4.34-41.23-.92-38,14.81-61.77,6.29-67.82-7.95-3-7.06-1.48-16.26,8.69-20.92,9.68-4.44,17.12-3.61,19.9,2.21,2.42,5,.69,12.65-6.32,16.16a8,8,0,1,0,7.16,14.31c15.7-7.85,19.28-25.51,13.59-37.38-5.6-11.69-20.45-19.26-41-9.84-16.73,7.67-23.77,25.21-16.75,41.73,4.91,11.56,16,20.18,30.46,23.67a68.13,68.13,0,0,0,16,1.79c2.82,0,5.73-.16,8.7-0.45a57,57,0,0,0-8.34,26.3c-1.09,19,8,35.28,25,44.71a34,34,0,0,0,16.51,4.47,30.31,30.31,0,0,0,15.74-4.41,30.76,30.76,0,0,0,15.12-26.74c-0.13-6.54-2.72-18.81-18.54-27.49a8,8,0,1,0-7.69,14c6.59,3.61,10.13,8.38,10.24,13.78a14.92,14.92,0,0,1-7.37,12.71c-2.8,1.69-8.63,3.89-16.23-.33-15.6-8.67-17.21-22.39-16.79-29.8,0.87-15.12,11.1-29.65,24.86-35.34,15.65-6.46,34-1.31,51.71,14.5l0.18,0.14a62.57,62.57,0,0,0,8.52,7.09,67.25,67.25,0,0,0,37.85,11.85q1,0,2,0c-10.2,15.53-13.3,32.68-8.48,49.42a60.25,60.25,0,0,0,3.85,9.91,8,8,0,0,0,1,5.45c14.45,24.17,16.77,45.09,6.54,58.9-8.06,10.89-23.48,16.08-37.5,12.62-7-1.72-19-7.07-21.55-23.62-1.41-9.13.53-15.89,5.59-19.54a14.75,14.75,0,0,1,14.81-1.22,8.35,8.35,0,0,1,4.87,7.92,8,8,0,0,0,16,0,24.19,24.19,0,0,0-13.58-22.17,30.91,30.91,0,0,0-31.46,2.49c-5.85,4.23-15.2,14.39-12,35,2.85,18.51,15.38,32.23,33.53,36.72a52,52,0,0,0,12.47,1.5c16.3,0,32.34-7.44,41.73-20.13,5.85-7.9,12.67-22.6,7.69-44.8a63.88,63.88,0,0,0,23.08,7.45,58.36,58.36,0,0,0,6.82.4,53.64,53.64,0,0,0,31.44-10.09c11.56,26.2,25.69,44.21,40.55,55.83v-21.66c-10.23-10.77-19.91-25.75-28.14-45.88a77.42,77.42,0,0,0,7.38-10.86c18.71-33.11,10.58-50.75,4.06-58.31-8.41-9.78-23.1-12.89-36.56-7.75-12.69,4.85-26.09,18.21-25.65,41.19a8,8,0,0,0,8,7.85h0.16a8,8,0,0,0,7.85-8.15c-0.24-12.48,5.5-22.17,15.36-25.94,7.17-2.74,14.69-1.44,18.72,3.24,6.33,7.35,4.14,22.31-5.87,40s-25,26.26-42.25,24.23c-18.87-2.22-36.34-16.92-41.54-35-5.33-18.49,2.65-37.45,22.46-53.4,0.18-.14.34-0.3,0.51-0.45a69.9,69.9,0,0,0,21.13-20.29,104.2,104.2,0,0,0,17.44-41.42q29.08,16.22,56.94,29.92v-17.85q-27.2-13.62-55.63-29.68a78.63,78.63,0,0,0-16.54-46.65,80.43,80.43,0,0,0-8.07-8.87c23.32-1.24,44.47-9.87,61-25.46a82.34,82.34,0,0,0,19.22-27.12v-47.21c-5.87-10.77-16.2-18.63-30-22.61-30-8.65-46.41-.6-54.92,7.67-10.37,10.08-14.09,25.66-10,41.68,4.67,18.11,18.45,32.33,36,37.1a8,8,0,0,0,4.21-15.44c-14.32-3.91-22.14-15.82-24.68-25.66-2.68-10.39-.58-20.19,5.61-26.21,7.74-7.52,21.71-8.86,39.34-3.77,12.48,3.6,20.44,11.13,23,21.78,3.65,15.08-3.72,34-18.76,48.14-21.15,19.91-51.69,26.14-84.33,17.37-18.3-5.75-39.81-6.9-63.5-3.27,25.77-22.71,38.32-49.35,38.32-81.28,0-19.81-5.37-36.4-14.18-49.84-15.31-34.91-19.33-67.64-11.62-94.71,6.16-21.62,19.62-38.63,36.94-46.65,16.28-7.54,37-6.36,46.44,13.28,8.2,17,8.88,32.3,1.86,42-4.18,5.78-10.59,8.71-17.16,7.84-7.44-1-13.71-6.82-17.22-16a8,8,0,1,0-15,5.7c5.66,14.86,16.63,24.4,30.08,26.18a34.37,34.37,0,0,0,32.21-14.33,39.48,39.48,0,0,0,5-9.26,348.73,348.73,0,0,0,62.35,17.08v-16.34a334.88,334.88,0,0,1-58.41-16.33,8,8,0,0,0-1.08-.31c0.13-10.23-2.61-21.54-8.23-33.17a49.22,49.22,0,0,0-9.73-13.74c34.52-15,59.81-35.1,75.29-59.9,0.75-1.2,1.46-2.41,2.16-3.63V1518a89.15,89.15,0,0,0-14.18-18.19c-13.41-13.13-29.48-19.8-45.19-18.79a64.79,64.79,0,0,0-47.64,24.91c-56.5,53.71-94.45,27.48-104.75,18.13-19.19-17.41-24.93-45.46-12.52-61.24,13.48-17.15,28.8-16.16,38.66-9.73h0q1,0.63,1.86,1.32c9.47,7.35,14.6,20.61,6.08,31.74a8,8,0,0,0,12.7,9.74c14.72-19.2,6.37-42.21-9-54.11-0.37-.29-0.76-0.57-1.14-0.84-26.38-56.56-11.46-89,9.57-99.65,18.09-9.15,44.52-4.2,57.43,19.95,7.47,14,7.9,25.61,1.22,32.78-5.7,6.12-15.72,7.93-23.82,4.31-8.59-3.84-12.71-12.75-11.59-25.07a8,8,0,1,0-15.93-1.45c-1.74,19.1,6.11,34.47,21,41.13,14.38,6.43,31.67,3.14,42.05-8a34,34,0,0,0,8.71-19.31c12.49,10.15,23.84,13.09,32.77,13.09,1.3,0,2.55-.06,3.74-0.17,14.39-1.33,27.18-10.76,33.39-24.6,5.53-12.33,4.63-25.38-2.4-34.92-13.6-18.46-30.75-20.1-41.29-15.89-11.7,4.67-18.46,16.66-16.81,29.83a8,8,0,0,0,15.88-2c-0.75-6,1.88-11,6.87-13,5.5-2.2,14.29-.58,22.48,10.52,3.56,4.83,3.81,11.89.68,18.88-3,6.73-9.93,14.25-20.27,15.21-13.53,1.26-28.75-9.2-42.86-29.43-16.77-30.74-50.18-38-74.76-27.83-13.08-41.64-30.05-64.66-46.3-77.11,26.78-27.45,62.6-47.39,101.74-56.49,37.21-8.66,72.5-6.28,94.4,6.36,10.25,5.92,16.65,13.5,19.19,22.67v-28.46a66,66,0,0,0-11.19-8.07c-25.33-14.62-65-17.64-106-8.09a230.22,230.22,0,0,0-67.25,27.39l-0.32-.09c-52-12.15-63.83-45.56-57.57-72.76,5-21.89,21-37.75,34.86-34.61a46,46,0,0,1,14.27,5.54l0.18,0.11c6.68,4.24,10.15,10,9.79,16.82-0.43,8.22-6.65,15.59-13.85,16.44a8,8,0,1,0,1.87,15.89c15.09-1.78,27.11-15.31,28-31.49a32.53,32.53,0,0,0-2.57-14.41c1.87,0.08,3.71.12,5.49,0.12,39.92,0,57.78-18.77,65.27-31.4,8.23-13.87,10.66-31.37,7.71-48.5h0.1c36.15,0,66.81-4.34,91.27-12.89v-17.1c-24.16,9.5-56,14.27-94.54,14h-0.06a8,8,0,0,0-1.14.09,82.82,82.82,0,0,0-12.25-21.76c-16.19-20.56-39.76-28.72-63.29-22-15.73-.16-28.46-3.88-36.85-10.81-6.76-5.58-10.49-13.13-10.49-21.27,0-13.78,11.22-28.42,32-28.42,7,0,15.61,1.86,16.55,10.72,0.79,7.42-4.18,15.92-10,17.18a8,8,0,0,0,3.35,15.64c13.91-3,24.25-18.78,22.59-34.51-1.28-12.1-10.48-25-32.46-25-31.19,0-48,22.88-48,44.42,0,13,5.79,24.94,16.31,33.62a60.52,60.52,0,0,0,22.83,11.34c-13.32,12.15-16,28.61-13.22,41.75,4.76,22.43,23.47,37.53,43.54,35.11a8,8,0,1,0-1.91-15.89c-13,1.55-23.38-10.24-26-22.55-1.3-6.14-3.33-26.86,25.17-35.64l0.06,0c24.12-7.4,40,7,47.25,16.28,15.65,19.87,19,49.15,7.72,68.12-11.69,19.71-37.69,27.38-73.3,21.7a62.46,62.46,0,0,0-17.83-6.76c-11.76-2.65-24,1.33-34.49,11.23-9.36,8.84-16.28,21.42-19.49,35.41a75,75,0,0,0-1.83,13.44l-0.46-.13q-47.11-10.73-91.19-16.36c-60.08-35.49-84.15-81.91-64.37-124.28,12.12-26,38.79-43,57.08-36.5,14.56,5.2,23.25,14.22,25.12,26.07,1.82,11.52-3.21,24.42-12.24,31.38-4,3.11-10.42,6.12-17.9,2.84a8,8,0,1,0-6.44,14.64c11.27,5,23.71,3.21,34.11-4.81,13.67-10.53,21-29.24,18.28-46.55a45.16,45.16,0,0,0-15.16-27.07c47.6-11.89,65-41.6,71.3-59.73,9.14-26.36,4.84-56.55-10.17-77.13-13-23.81-15.91-44.18-7.92-55.92a20,20,0,0,1,19.51-8.49c9,1.16,16.32,7.44,19.65,16.81,3.64,10.27,3.29,18.88-.93,23.05a9,9,0,0,1-9.53,1.88c-4.65-1.72-7.63-6.55-8.19-13.24a8,8,0,0,0-15.95,1.33c1.08,12.95,8,23,18.58,26.92a24.82,24.82,0,0,0,26.32-5.49c4.14-4.09,12.82-16,5.12-38.75q29.67,13.43,66.13,20.9a56.61,56.61,0,0,0-13.69,33.48c-1,14.48,4.45,26.36,15.24,33.46,11.45,7.53,27.6,8.25,40.19,1.8,10.9-5.59,17.43-15.63,17.93-27.56a8,8,0,0,0-16-.67c-0.33,7.81-5.21,11.91-9.24,14-7.51,3.85-17.42,3.47-24.1-.92-5.85-3.85-8.64-10.43-8.07-19,1.4-21,18.26-37.3,40.08-38.64,14.91-.92,30,5.36,42.39,17.67,14.93,14.79,26,38.12,32.13,67.56a63.1,63.1,0,0,0-8.54,8.23c-14.78,17.2-11.7,43-1.3,58.52,9.71,14.5,24.81,20.08,40.41,14.93a8,8,0,0,0-5-15.19c-11.63,3.84-18.84-3.77-22.1-8.64-7.06-10.55-9-28.53.15-39.19,9.41-11,23.26-16.88,38.58-16.87v-16a69.54,69.54,0,0,0-27.7,5.54c-4.15-17.89-10-33.46-17.42-46.55q24.44-1,45.12-3.78V797.94a477.8,477.8,0,0,1-53.74,4.15,8,8,0,0,0-1.87.28,100.32,100.32,0,0,0-7.42-8.27c-10.56-10.47-22.8-17.46-35.62-20.56-37.25-19.63-57.67-43.44-57.51-67.11,0.13-19.42,13.62-33.13,26.21-39.49,14.44-7.3,29.81-6.75,41.11,1.47,7.56,5.5,16.15,14.55,14.1,26.42-1.89,11-11.77,20.1-20.22,22.6-2.1.62-5.91,1.34-7.89-.8a8,8,0,0,0-11.76,10.85c5.74,6.21,14.55,8.14,24.18,5.29,13.29-3.93,28.36-17.29,31.46-35.23a36.77,36.77,0,0,0,0-12.52,74.71,74.71,0,0,0,18.67,2.48,58.11,58.11,0,0,0,36.25-12.22c1.41-1.09,2.76-2.25,4.08-3.47V645.58a51.38,51.38,0,0,1-13.87,17.06c-14.67,11.35-33.94,11.86-55.8,1.5a63.5,63.5,0,0,0-9.77-8.67c-16.25-11.82-37.83-12.87-57.74-2.81-21.44,10.83-34.85,31.39-35,53.66-0.09,14.36,5.14,28.46,15.56,41.91,6.93,8.94,16.09,17.43,27.37,25.4a59.62,59.62,0,0,0-13.44,5.2,8,8,0,0,0-1.59-.45c-89.12-15.35-149.5-58.65-170-121.93-16.94-52.26-3.66-114.49,32.3-151.33a103.11,103.11,0,0,1,16.06-13.52,7.94,7.94,0,0,0,.79-0.52c19.73-13,41.85-16.61,63.93-10,32.91,9.79,54.22,29.38,60,55.17,5.21,23.14-2.64,48.88-19.52,64-6.65,6-20.48,15.1-38.37,9a8,8,0,1,0-5.16,15.15c18.71,6.37,38.47,1.9,54.23-12.25,21.06-18.92,30.88-50.85,24.44-79.46a78.94,78.94,0,0,0-5.8-16.77c17,6.21,31.94,8.92,44.56,8.92,22.25,0,37.36-8.42,44.26-20.92,6.27-11.35,5-24.59-2.4-36.15,16.37-16.24,31.76-23.72,44.94-26.51v-16.2c-19.06,3.38-38.23,13.8-55.59,30.76a63.23,63.23,0,0,0-8-5.7c-11.71-7-25-7.64-35.56-1.63-8.68,4.95-14,13.59-14,22.55,0,8.74,5.24,16.62,14.23,21.62a8,8,0,1,0,7.77-14c-2.73-1.52-6-4.09-6-7.72,0-3.14,2.31-6.51,5.92-8.56,5.54-3.16,12.62-2.63,19.41,1.44,14.68,8.81,21,22.11,15.32,32.35-4.08,7.39-13.91,12-26.94,12.66-12.38.63-33.76-2-65.35-18a8,8,0,0,0-2.08-.71c-11.83-10.62-27.23-18.92-45.71-24.42l-1.06-.29c56-23.78,97.37-51.61,123.31-83,29.19-35.29,32.45-67,28.91-89.22,18.36-2.86,31.92-.95,39.47,5.63a20.5,20.5,0,0,1,6,9.28V278.53c-0.63.53-1.27,1.05-1.89,1.6a8,8,0,0,0-1.32,1.48c-11.33-5.82-26.8-7.13-46.16-3.92a93.81,93.81,0,0,0-32.53-44.38c-12.79-9.55-27.52-15.32-42-16.68-22.44-8.73-34.6-21.29-34.26-35.48a27.72,27.72,0,0,1,1.51-8.25c0.09-.22.17-0.44,0.24-0.67,4.25-11.65,15.53-21.36,26-24.71,6.62-2.12,15.83-2.89,22.11,5.5,6.65,8.87,9.12,16.57,6.79,21.14-1.57,3.07-5.57,5-10.28,4.92-3.7-.07-8.32-1.56-10.18-5.55a8,8,0,1,0-14.5,6.77c4.16,8.92,13.51,14.59,24.39,14.78s20.41-5,24.81-13.63c3.4-6.65,5-17.59-4.81-33.09,30.31-35.92,62.21-55.79,92.08-57.92v-16c-26.6,1.58-62.79,15.1-102.79,61.78-8.81-6.32-20.36-7.86-32.5-4a59.25,59.25,0,0,0-22.36,13.67c-9.38-68.22-58.91-96-101.94-98.61-22.72-1.39-45,3.73-62.63,14.4a73.43,73.43,0,0,0-24.87,24C11874,65.72,11847.13,54,11821,51.51V67.61Z" transform="translate(-11821.01 -47.12)"/><path d="M12245.9,2385.46l-0.09,0a52.31,52.31,0,0,0-13.54-28.63,38.9,38.9,0,0,0,13.63-6.36V2297.9a39.11,39.11,0,0,0-3.58-2.38c-13.44-7.91-25.15-2.42-31.1,4.68-6.62,7.91-7.52,18.21-2.13,24.49a8,8,0,0,0,12.49-10,8.39,8.39,0,0,1,3.55-5.78c2.57-1.83,5.54-1.7,9.07.38,9.93,5.84,10.69,14.75,8.31,20.6-3.21,7.91-13.64,15.53-32.48,10.93a8,8,0,0,0-3.53-.05q-2.49-.81-5.09-1.46c-19.32-4.77-40.59-2-59.91,7.69a103.47,103.47,0,0,0-37.06,31.91,45.81,45.81,0,0,0-5.81-10.87c-11-15-29.27-21-47-15.52-43.95-4.15-63.49-22.41-67.09-38.27-2.59-11.39,2.71-22.53,13.81-29.06,7.43-4.37,14.23-5.06,19.65-2s9,9.53,9,16.16a13.51,13.51,0,0,1-6.61,12.18,8,8,0,0,0,8.06,13.82c9.31-5.43,14.61-14.94,14.54-26.09-0.07-12.36-6.78-24.12-17.09-30-6.1-3.46-18.84-7.8-35.67,2.1-17.06,10-25.42,28.25-21.3,46.39,2.94,13,11.63,24.46,25.13,33.3,9.93,6.49,22,11.28,36.14,14.34a33.92,33.92,0,0,0-9.35,25.49c0.74,13.61,9.29,25,20.81,27.72a8,8,0,0,0,3.67-15.57c-4.5-1.06-8.15-6.65-8.5-13-0.52-9.59,6.17-17.56,18.36-21.87,11.49-4.06,23.48-.42,30.55,9.28,4.23,5.81,6.82,14.19,5.62,24.27a8,8,0,0,0-.61,3.71c-1.6,7.8-5.45,16.47-12.45,25.67-11.93,15.68-34.2,23.63-55.42,19.78-15.44-2.8-43.29-14.21-57-59-2.4-20.19-14-38.5-31-47.79-11.23-6.11-32.8-12.38-63.57,2.47a72,72,0,0,0,2.71-27.41c-3-29.66-24.09-50.72-52.9-53.08v16.07c24.64,2.6,35.34,22.12,37,38.6,2.11,21.22-8.85,47.15-37,59.73v17.24c14.58-5.2,25.93-13.18,34.32-22.61a8,8,0,0,0,1.39-.84c27.12-20.34,52.12-26.06,70.4-16.11,12.36,6.73,21,20.67,22.8,35.77a7.86,7.86,0,0,0,.1.81,48.78,48.78,0,0,1,.15,8.42c-0.46,6.55-3.23,22.42-19,28.34-16.15,6.05-25.4-.63-28.41-8.21-3.4-8.55-.08-20.69,15.24-27.14a8,8,0,0,0-6.21-14.75c-24.13,10.16-30.29,31.74-23.9,47.8,4.46,11.21,15.64,20.65,31.58,20.65a49.34,49.34,0,0,0,17.31-3.37,43.87,43.87,0,0,0,24.86-23.77c7.84,13.77,17.91,24.77,29.68,32.48h84.47a65.56,65.56,0,0,0,15.19-14.37c9.28-12.2,14.14-23.93,15.89-34.61,20.35-43.38,60.79-58.73,90.7-51.35,21.79,5.38,34,20.87,32.71,41.44-0.89,14.1-6.25,23.56-15.49,27.35-8.89,3.65-20.42,1.46-28-5.33-3.52-3.14-9-10-6.07-20.34a8,8,0,1,0-15.4-4.34c-3.87,13.71.08,27.06,10.82,36.63a44.6,44.6,0,0,0,29.43,11.14,40.34,40.34,0,0,0,15.33-3c7.92-3.25,20.91-11.87,24.56-33.91l0.47,0.4v-19.48Z" transform="translate(-11821.01 -47.12)"/><path d="M12234.41,142.36c-11.42,13.87-9.49,37.69,4.3,53.11a43.35,43.35,0,0,0,7.19,6.36V177.55c-3.83-8.18-4-17.73,0-23.81V141.47l-0.23-.21A8,8,0,0,0,12234.41,142.36Z" transform="translate(-11821.01 -47.12)"/><path d="M11821,1976.53v45.6a42.11,42.11,0,0,0,6.5-20.23A43.6,43.6,0,0,0,11821,1976.53Z" transform="translate(-11821.01 -47.12)"/><path class="cls-1" d="M11821,1918.75a52,52,0,0,0,0-7.4v7.4Z" transform="translate(-11821.01 -47.12)"/><path d="M12238.67,336.06a8,8,0,0,1-7.49-8,8,8,0,0,0-16,0,24.09,24.09,0,0,0,22.92,24h0.78a22.14,22.14,0,0,0,7-1.14v-21.4C12244.42,333.82,12241.91,336.18,12238.67,336.06Z" transform="translate(-11821.01 -47.12)"/></svg>