<?xml version="1.0" encoding="utf-8"?>
<!-- Generator: Adobe Illustrator 19.0.0, SVG Export Plug-In . SVG Version: 6.00 Build 0)  -->
<svg version="1.1" id="Layer_1" xmlns="http://www.w3.org/2000/svg" xmlns:xlink="http://www.w3.org/1999/xlink" x="0px" y="0px"
	 viewBox="0 0 1000 1000" style="enable-background:new 0 0 1000 1000;" xml:space="preserve">
<style type="text/css">
	.st0{fill:#FFFFFF;}
</style>
<rect id="XMLID_1_" class="st0" width="1000" height="1000"/>
<path id="XMLID_7_" d="M659.1,340.9L340.9,659.1l0,0l-111.9,45l5,60.2l1.6,0l-0.8,0.8c117.2,117.2,307.1,117.2,424.3,0
	S776.3,458.1,659.1,340.9z"/>
<g id="XMLID_6_">
	<path id="XMLID_22_" class="st0" d="M553,759.7c-83.3,0-161.8-32.6-221-91.8c-121.8-121.8-121.8-320,0-441.9
		c59.2-59.2,137.7-91.8,221-91.8c42,0,82.8,8.3,121.3,24.5c39.9,16.9,75.5,41.5,105.6,73.4c16.3,17.2,30.6,36.2,42.5,56.5
		c12.1,20.6,34.4,33.4,58.2,33.4h131.8v250H880.7c-23.8,0-46.1,12.8-58.2,33.4c-11.9,20.3-26.2,39.3-42.5,56.5
		c-30.2,31.8-65.7,56.5-105.6,73.4C635.8,751.5,594.9,759.7,553,759.7z"/>
	<path id="XMLID_19_" d="M553,146.7c79.3,0,158.6,31.4,217.9,94c15.9,16.8,29.6,35,40.8,54.2c14.4,24.5,40.6,39.5,69,39.5H1000v225
		H880.7c-28.4,0-54.6,15.1-69,39.5c-11.3,19.2-24.9,37.4-40.8,54.2c-59.3,62.6-138.6,94-217.9,94c-76.6,0-153.3-29.3-212.1-88.2
		C224,542.2,224,351.8,340.9,234.9C399.7,176,476.4,146.7,553,146.7 M553,121.7L553,121.7c-42.1,0-83.2,8-122.1,23.8
		c-40.3,16.4-76.5,40.5-107.7,71.6c-126.7,126.7-126.7,332.8,0,459.5c31.1,31.1,67.3,55.2,107.7,71.6c38.9,15.8,80,23.9,122.1,23.9
		c43.6,0,86.1-8.6,126.2-25.5c41.5-17.5,78.5-43.2,109.9-76.3c16.9-17.9,31.8-37.6,44.2-58.7c9.9-16.8,28.1-27.2,47.5-27.2H1000h25
		v-25v-225v-25h-25H880.7c-19.4,0-37.6-10.4-47.5-27.2c-12.4-21.1-27.3-40.9-44.2-58.7c-31.4-33.1-68.3-58.8-109.9-76.3
		C639.1,130.3,596.6,121.7,553,121.7L553,121.7z"/>
</g>
<path id="XMLID_9_" d="M234.8,340.9c-20,20-36.6,42.1-49.8,65.7c-14,25.1-40.8,40.4-69.5,40.4H0v225h122.9c27.8,0,53.8,14.3,68.3,38
	c12.1,19.6,26.6,38.2,43.6,55.2l424.3-424.3v0C541.9,223.7,352,223.7,234.8,340.9z"/>
<circle id="XMLID_4_" class="st0" cx="420.5" cy="579.5" r="112.5"/>
<circle id="XMLID_3_" cx="579.5" cy="420.5" r="112.5"/>
</svg>
