<?xml version="1.0" encoding="utf-8"?>
<!-- Generator: Adobe Illustrator 23.0.1, SVG Export Plug-In . SVG Version: 6.00 Build 0)  -->
<svg version="1.1" id="Layer_1" xmlns="http://www.w3.org/2000/svg" xmlns:xlink="http://www.w3.org/1999/xlink" x="0px" y="0px"
	 viewBox="0 0 1000 1000" style="enable-background:new 0 0 1000 1000;" xml:space="preserve">
<style type="text/css">
	.st0{fill:#FFFFFF;}
</style>
<rect id="XMLID_1_" class="st0" width="1000" height="1000"/>
<path id="XMLID_11_" d="M1000,525v-50V0H525h-50H0v475v50v475h475h50h475V525z M755.2,719.8L560.4,525h275.5
	c63,0,114.1,51.1,114.1,114.1l0,0C950,740.8,827.1,791.7,755.2,719.8z M835.9,475H560.4l194.8-194.8c71.9-71.9,194.8-21,194.8,80.7
	l0,0C950,423.9,898.9,475,835.9,475z M719.8,244.8L525,439.6V164.1c0-63,51.1-114.1,114.1-114.1l0,0
	C740.8,50,791.7,172.9,719.8,244.8z M475,164.1v275.5L280.2,244.8C208.3,172.9,259.2,50,360.9,50l0,0C423.9,50,475,101.1,475,164.1z
	 M244.8,280.2L439.6,475H164.1C101.1,475,50,423.9,50,360.9l0,0C50,259.2,172.9,208.3,244.8,280.2z M164.1,525h275.5L244.8,719.8
	C172.9,791.7,50,740.8,50,639.1l0,0C50,576.1,101.1,525,164.1,525z M280.2,755.2L475,560.4v275.5c0,63-51.1,114.1-114.1,114.1l0,0
	C259.2,950,208.3,827.1,280.2,755.2z M525,835.9V560.4l194.8,194.8c71.9,71.9,21,194.8-80.7,194.8l0,0
	C576.1,950,525,898.9,525,835.9z"/>
</svg>
