<?xml version="1.0" encoding="utf-8"?>
<!-- Generator: Adobe Illustrator 19.0.0, SVG Export Plug-In . SVG Version: 6.00 Build 0)  -->
<svg version="1.1" id="Layer_1" xmlns="http://www.w3.org/2000/svg" xmlns:xlink="http://www.w3.org/1999/xlink" x="0px" y="0px"
	 viewBox="0 0 1000 1000" style="enable-background:new 0 0 1000 1000;" xml:space="preserve">
<style type="text/css">
	.st0{fill:#FFFFFF;}
	.st1{fill:none;}
</style>
<rect id="XMLID_10_" class="st0" width="1000" height="1000"/>
<circle id="XMLID_11_" class="st0" cx="500" cy="500" r="203.3"/>
<line id="XMLID_12_" class="st1" x1="369.9" y1="188.4" x2="500" y2="500"/>
<line id="XMLID_13_" class="st1" x1="630.1" y1="188.4" x2="500" y2="500"/>
<line id="XMLID_14_" class="st1" x1="811.6" y1="369.9" x2="500" y2="500"/>
<line id="XMLID_15_" class="st1" x1="811.6" y1="628.3" x2="500" y2="500"/>
<line id="XMLID_16_" class="st1" x1="627.6" y1="808.1" x2="500" y2="500"/>
<line id="XMLID_17_" class="st1" x1="372.6" y1="808.1" x2="500" y2="500"/>
<line id="XMLID_18_" class="st1" x1="192" y1="627.6" x2="500" y2="500"/>
<line id="XMLID_19_" class="st1" x1="188.4" y1="369.9" x2="500" y2="500"/>
<polygon id="XMLID_35_" points="172.3,172.3 313.2,422 36.6,500 313.2,577.4 192,843.8 421.8,689.1 500,963.4 578.3,689.1 
	827.7,827.7 688,577.4 963.4,500 687.6,421.7 827.7,172.3 578.3,312.4 500,36.6 421.8,312.7 "/>
</svg>
