<?xml version="1.0" encoding="utf-8"?>
<!-- Generator: Adobe Illustrator 19.0.0, SVG Export Plug-In . SVG Version: 6.00 Build 0)  -->
<svg version="1.1" xmlns="http://www.w3.org/2000/svg" xmlns:xlink="http://www.w3.org/1999/xlink" x="0px" y="0px"
	 viewBox="0 0 10000 10000" style="enable-background:new 0 0 10000 10000;" xml:space="preserve">
<style type="text/css">
	.st0{fill-rule:evenodd;clip-rule:evenodd;fill:#FFFFFF;stroke:#000000;stroke-width:60;stroke-miterlimit:10;}
	.st1{fill-rule:evenodd;clip-rule:evenodd;fill:#FFFFFF;}
	.st2{fill:none;}
	.st3{fill:none;stroke:#000000;stroke-width:60;stroke-linecap:round;stroke-miterlimit:10;}
	
		.st4{clip-path:url(#XMLID_5_);fill-rule:evenodd;clip-rule:evenodd;fill:#FFFFFF;stroke:#000000;stroke-width:60;stroke-miterlimit:10;}
	.st5{clip-path:url(#XMLID_5_);fill-rule:evenodd;clip-rule:evenodd;stroke:#000000;stroke-width:60;stroke-miterlimit:10;}
	.st6{fill-rule:evenodd;clip-rule:evenodd;fill:none;stroke:#000000;stroke-width:60;stroke-linecap:round;stroke-miterlimit:10;}
	.st7{fill-rule:evenodd;clip-rule:evenodd;}
	.st8{fill-rule:evenodd;clip-rule:evenodd;fill:none;stroke:#000000;stroke-width:60;stroke-miterlimit:10;}
	
		.st9{clip-path:url(#XMLID_9_);fill-rule:evenodd;clip-rule:evenodd;fill:#FFFFFF;stroke:#000000;stroke-width:60;stroke-miterlimit:10;}
	.st10{clip-path:url(#XMLID_9_);fill-rule:evenodd;clip-rule:evenodd;stroke:#000000;stroke-width:60;stroke-miterlimit:10;}
</style>
<g id="Layer_1">
	<path id="XMLID_16_" class="st0" d="M7607.2,5250.9c-19.4,235.7-3.6,314.1,13.3,446.7c16.9,132.5-1.2,252.1-50,340
		c-48.8,87.9-102.3,158.6-173.3,230c-71,71.4-147.7,156-260,126.7c-112.3-29.3-228.9-871.5-146.7-1100
		c82.2-228.5,143-254.6,233.3-333.3c90.3-78.7,200.9-156.7,273.3-126.7c72.4,30,81,79.8,96.7,166.7
		C7609.5,5087.7,7614.3,5164.8,7607.2,5250.9z"/>
	<path id="XMLID_14_" class="st0" d="M2393.8,5250.9c19.4,235.7,3.6,314.1-13.3,446.7c-16.9,132.5,1.2,252.1,50,340
		c48.8,87.9,102.3,158.6,173.3,230c71,71.4,147.7,156,260,126.7c112.3-29.3,228.9-871.5,146.7-1100
		c-82.2-228.5-143-254.6-233.3-333.3c-90.3-78.7-200.9-156.7-273.3-126.7c-72.4,30-81,79.8-96.7,166.7
		C2391.5,5087.7,2386.8,5164.8,2393.8,5250.9z"/>
	<g id="XMLID_52_">
		<path id="XMLID_58_" class="st1" d="M0,10030v-60c278.8,0,511.3-17,863.4-42.8l25.1-1.8c261.3-19.1,484.5-43.8,632.2-60.2
			c60.3-6.7,108-12,143.1-15.2c132.3-12.3,330.4-47.4,473.2-74.6c181.8-34.7,331.7-74.2,458.3-120.7
			c72.3-26.6,114.6-43.3,159.6-66.4c45.7-23.5,93.8-53.5,171.8-107.2c152.5-105,222.8-202.6,241.5-231.3
			c42.6-75.9,78.9-158.9,117.6-268.9c62-176.4,92.7-279.5,122-461.5c28.8-178.8,30.4-328.1-36.7-740.4l-5.7-34.8h3270.5l-5.7,34.8
			c-67,412.3-65.5,561.7-36.7,740.4c29.3,182,60,285.1,122,461.5c38.7,110,75,193,117.6,268.9c18.6,28.7,89,126.3,241.5,231.3
			c77.9,53.7,126.1,83.7,171.8,107.2c45,23.1,87.3,39.8,159.6,66.4c126.6,46.5,276.5,86,458.3,120.7
			c142.8,27.2,340.8,62.3,473.2,74.6c35.1,3.3,82.7,8.5,143.1,15.2c147.7,16.4,370.9,41.1,632.2,60.2l28.7,2.1
			c349.9,25.6,581,42.5,858.8,42.5v60H0z"/>
		<path id="XMLID_55_" d="M6600.5,7774.2c-66,406.1-66.8,563-36.7,750c30.1,187,61.8,291.7,123.3,466.7
			c42.4,120.5,80.1,203.2,120.2,274.5c26.3,40.7,102.9,139.1,250.1,240.5c153,105.3,201.2,126.7,338,177
			c136.8,50.3,293.1,89.6,463,122c169.9,32.4,353.6,63.6,476,75c122.4,11.4,409.8,48.7,775.8,75.4c366,26.8,603.2,44.7,889.7,44.7H0
			c286.4,0,524.6-17.9,890.7-44.7c366-26.8,653.4-64.1,775.8-75.4c122.4-11.4,306.1-42.6,476-75c169.9-32.4,326.2-71.7,463-122
			c136.8-50.3,185-71.7,338-177c147.3-101.4,223.9-199.8,250.1-240.5c40.1-71.3,77.8-154,120.2-274.5
			c61.5-175,93.2-279.7,123.3-466.7c30.1-187,29.4-343.9-36.7-750H6600.5 M6671.1,7714.2h-70.5h-3200H3330l11.3,69.6
			c66.4,408.2,64.9,555.4,36.7,730.8c-14.5,89.7-29.4,161.2-48.6,231.7c-19.2,70.8-42.7,141-72.1,224.6
			c-37.9,107.9-73.4,189.2-114.9,263.3c-8.6,13.1-31,44.9-71.5,86.9c-46.1,47.8-100.3,93.3-161.3,135.2
			c-151.4,104.2-195.4,122.6-324.7,170.1c-125,46-273.4,85-453.5,119.4c-142.2,27.1-339.2,62-470.3,74.2
			c-35.3,3.3-83.1,8.6-143.6,15.3c-147.5,16.3-370.3,41-631.1,60.1l-25,1.8C509.9,9923,277.7,9940,0,9940v120h10000v-120
			c-276.7,0-507.5-16.9-856.8-42.4l-28.5-2.1c-260.8-19.1-483.6-43.7-631.1-60.1c-60.5-6.7-108.2-12-143.6-15.3
			c-131.2-12.2-328.1-47.1-470.3-74.2c-180.1-34.4-328.5-73.4-453.5-119.4c-129.3-47.5-173.3-65.9-324.7-170.1
			c-61-42-115.2-87.5-161.3-135.2c-40.5-42-63-73.9-71.5-86.9c-41.5-74.1-77-155.4-114.9-263.3c-29.4-83.6-52.9-153.8-72.1-224.6
			c-19.1-70.5-34.1-142-48.6-231.7c-28.3-175.4-29.7-322.6,36.7-730.8L6671.1,7714.2L6671.1,7714.2z"/>
	</g>
	<path id="XMLID_20_" class="st0" d="M2757.2,5287.6c8.1,287.9,12.2,353.1,43.3,553.3c31.1,200.2,56,373.1,93.3,553.3
		c37.3,180.2,71.6,349.6,156.7,600c85.1,250.4,115.3,333.1,203.3,516.7c88,183.6,123.1,244,243.3,420
		c120.2,176,133.6,216.4,323.3,430c189.8,213.6,213.8,262,373.3,406.7c159.6,144.7,260,194.4,413.3,216.7
		c153.3,22.2,306.7,11.6,390,13.3c83.3,1.8,326.4,11.6,460-20s272.7-139.6,393.3-263.3c120.7-123.8,269.1-288.2,410-456.7
		c140.9-168.4,280-380.9,350-493.3c70-112.4,173.6-291.1,226.7-426.7c53.1-135.6,147.3-415.1,203.3-616.7
		c56-201.6,84.4-323.8,106.7-500c22.2-176.2,41.8-315.3,53.3-500c11.6-184.7,44-626,10-813.3c-34-187.3-75.3-531.8-73.3-673.3
		c2-141.6,20.7-399.8,30-553.3c9.3-153.6,14.7-317.1,20-483.3c5.3-166.2-295.1-2198.6-2146.7-2173.3s-2235.2,1678.7-2223.3,2100
		c11.9,421.3,29.1,623.1,33.3,916.7c4.2,293.6-25.5,633.2-63.3,776.7C2749.3,4961,2752.6,5124.4,2757.2,5287.6z"/>
	<path id="XMLID_1_" class="st0" d="M5000.5,8114.9c-368.2,0-719.5-161.6-857-570.7c310.9-163.6,453.7-289.3,599-289.3
		s142.8,46,258,46c115.2,0,112.7-46,258-46c145.3,0,288.1,125.7,599,289.3C5720,7953.3,5368.7,8114.9,5000.5,8114.9z"/>
	<line id="XMLID_8_" class="st2" x1="5000.5" y1="-33" x2="5000.5" y2="10603.8"/>
	<path id="XMLID_12_" class="st3" d="M5857.5,7544.2c-221.5,0-608.8,63.2-867.5,63.2c-252.4,0-630.4-63.2-846.5-63.2"/>
	<g id="XMLID_27_">
		<g id="XMLID_21_">
			<defs>
				<path id="XMLID_44_" d="M5556.5,4978c302.9-251.6,759.6-218.9,1037.8,58.7c-309.2,177.5-657,111.7-793,38.6
					c-136-73-189.2,3.4-239-31.5C5533.6,5023.8,5542.8,4989.5,5556.5,4978z"/>
			</defs>
			<use xlink:href="#XMLID_44_"  style="overflow:visible;fill-rule:evenodd;clip-rule:evenodd;fill:#FFFFFF;"/>
			<clipPath id="XMLID_5_">
				<use xlink:href="#XMLID_44_"  style="overflow:visible;"/>
			</clipPath>
			<circle id="XMLID_26_" class="st4" cx="6056.1" cy="4955.8" r="207.6"/>
			<circle id="XMLID_25_" class="st5" cx="6056.1" cy="4955.8" r="99.7"/>
			
				<use xlink:href="#XMLID_44_"  style="overflow:visible;fill-rule:evenodd;clip-rule:evenodd;fill:none;stroke:#000000;stroke-width:60;stroke-miterlimit:10;"/>
		</g>
		<path id="XMLID_23_" class="st6" d="M5492.1,4935.1c190.4-264.8,711.4-465.2,1142.3-68.7"/>
		<path id="XMLID_24_" class="st6" d="M5681,5161.3c187.5,161.8,558.3,227.6,848.8,34.4"/>
	</g>
	<path id="XMLID_35_" class="st7" d="M5461.5,4431.1c-18.3-40.4,28.6-172.2,58.3-221c60.2-98.9,811.9-68.9,902.4-49.1
		c100,21.8,346.8,205.6,383.7,251.7s107.4,162.1,84.7,171.8c-32.1,13.7-362.1-227.4-470.4-215.9
		C6249.3,4386.9,5485.2,4483.3,5461.5,4431.1z"/>
	<g id="XMLID_40_">
		<g id="XMLID_15_">
			<path id="XMLID_13_" class="st8" d="M4647,6450.9c-211.1,104.5-336.8-83.6-185.5-83.6c151.3,0,319.5,262.6,539,262.6
				c219.5,0,387.7-262.6,539-262.6c151.3,0,25.6,188.1-185.5,83.6"/>
		</g>
		<path id="XMLID_7_" class="st6" d="M5493.4,6565.2c144,0,212.8-93.4,212.8-232.9s-92.5-225.3-134.8-344.8"/>
		<path id="XMLID_17_" class="st6" d="M4507.6,6565.2c-144,0-212.8-93.4-212.8-232.9s92.5-225.3,134.8-344.8"/>
	</g>
	<g id="XMLID_28_">
		<g id="XMLID_31_">
			<defs>
				<path id="XMLID_33_" d="M4444.5,4978c-302.9-251.6-759.6-218.9-1037.8,58.7c309.2,177.5,657,111.7,793,38.6
					c136-73,189.2,3.4,239-31.5C4467.4,5023.8,4458.3,4989.5,4444.5,4978z"/>
			</defs>
			<use xlink:href="#XMLID_33_"  style="overflow:visible;fill-rule:evenodd;clip-rule:evenodd;fill:#FFFFFF;"/>
			<clipPath id="XMLID_9_">
				<use xlink:href="#XMLID_33_"  style="overflow:visible;"/>
			</clipPath>
			<circle id="XMLID_34_" class="st9" cx="3944.9" cy="4955.8" r="207.6"/>
			<circle id="XMLID_32_" class="st10" cx="3944.9" cy="4955.8" r="99.7"/>
			
				<use xlink:href="#XMLID_33_"  style="overflow:visible;fill-rule:evenodd;clip-rule:evenodd;fill:none;stroke:#000000;stroke-width:60;stroke-miterlimit:10;"/>
		</g>
		<path id="XMLID_30_" class="st6" d="M4508.9,4935.1c-190.4-264.8-711.4-465.2-1142.3-68.7"/>
		<path id="XMLID_29_" class="st6" d="M4320,5161.3c-187.5,161.8-558.3,227.6-848.8,34.4"/>
	</g>
	<path id="XMLID_36_" class="st7" d="M4539.5,4431.1c18.3-40.4-28.6-172.2-58.3-221c-60.2-98.9-811.9-68.9-902.4-49.1
		c-100,21.8-346.8,205.6-383.7,251.7c-36.8,46-107.4,162.1-84.7,171.8c32.1,13.7,362.1-227.4,470.4-215.9
		C3751.8,4386.9,4515.9,4483.3,4539.5,4431.1z"/>
</g>
<g id="Layer_3">
	<path id="XMLID_22_" d="M7474.5,2783.1c-1.5-54.9-11.8-109.8-24.3-163.1c-15.6-66.2-1.1-131.7-16.4-199.1
		c-9.3-40.6-35-75.4-45.2-114c-12.6-48,8.6-115.2,2.7-168.3c-7.6-68.8,3.9-137.8,9.1-207c4.9-64.3,6-127.8-20.6-187.8
		c-11.9-26.8-28.4-51-47.9-72.9c-12.6-14.1-30.1-24.9-36.2-41c-7.6-20-12.1-58.6-16.1-80c-11.1-58.8,0.7-119.3-16.1-180.1
		c-9.3-33.8-22.9-66.2-40.4-96.6c-9.2-15.9-27.9-34.4-34.1-50.9c-14.7-39.2-0.2-104.4,1.8-144.9c2.6-53.7,1.3-108.6-24-157.4
		c-22.9-44.2-60.2-58.2-90.8-90.7c-31.8-33.8-47.4-76.4-83.3-108c-14.4-12.7-30.1-24-46.6-33.7c-33.7-19.6-68.7-26.7-104.7-39.8
		c-30.8-11.2-34.1-16.5-49.5-45.4c-31.3-58.7-65.5-115.6-122.9-152.5c-47-30.2-101.5-44.2-156.9-48.1c-20.5-1.4-46.9,4.1-66.3-0.2
		c-23.2-5.1-35.2-22.4-55-38.8c-32.5-26.9-68.9-49.5-107.5-66.5c-34.8-15.3-71.8-26.1-109.5-31.3c-56-7.6-89.5-37.7-139.1-65.8
		c-82.2-46.5-168.5-68.9-255.9-99.2c-146.5-50.9-284.9-83.3-440.8-53.8c-69.9,13.3-134.8,38.5-198.4,70.1c-30.2,15-28.5,14-55.1,2.1
		c-34.1-15.3-58.9-37.4-97-47.6c-95.8-25.7-203.8-0.2-297.8,20.6c-37.3,8.3-49,12.5-85.1,2.2c-36.7-10.5-70.7-21.2-109.1-24.2
		c-29.5-2.2-59.2-0.9-88.6,2.4c-29.6,3.3-58.8,9.1-87.9,15.4c-66.6,14.6-106.1,3.9-175.7,0.9c-90.6-3.8-193.8,10.8-272.2,59.6
		c-21.4,13.4-36.6,40.4-55.9,51.8c-20.3,12-57.5,9.1-83,12.9c-41.6,6.2-82.8,15.1-123.1,27.2c-115.4,34.5-242.3,65.4-345,131.6
		c-37.6,24.2-72.6,54.7-96.6,92.9c-13.6,21.7-16.1,58.3-30.4,76.8c-13.7,17.5-61.6,30.6-80.2,41.6
		c-70.7,41.5-135.8,93.1-191.4,153.5c-91.5,99.5-113.7,208-97.4,337.2c7.6,60.7,20.2,110,43.6,166.3c16.2,39,11.3,33.9-24.5,55.8
		c-22.9,14-45.1,29.8-64.5,48.6c-48.7,47.1-77.2,108.2-78,176.4c-0.8,72.3,40.4,140.2,37.1,211.3c-4.5,96.2-70.4,188.3-90.7,281.8
		c-6.1,28.2-2.4,55.4-6.6,82.7c-4.1,26.5-13.2,52.1-15.9,79.2c-3.4,33.7-2.2,67.2,2,100.7c8.6,68.7,31.4,134,51.6,200
		c8.1,26.6,15.8,45.1,8.1,71.1c-10.5,35.2-33.5,69-45.1,104.4c-20.8,63.1-31.1,129.5-32.1,195.8c-1.6,104.4,18.3,208.5,51.8,307.2
		c16.7,49.1,36.1,90.6,43,141.4c6.9,50.4,20.1,100.1,27.2,150.6c42.9,305.3,73.3,613.2,109.5,919.4c11.8,100.2,42.8,216.2,28.9,313
		c44.4-75.8,28-174,40.9-260.1c19.9-132.8,34.3-266.6,51.1-399.9c29.2-232.7,58.4-470.2,78-700.9c2.4-28.2,6.5-36,19.4-57.9
		c26.5-45,27.9-102.3,61.4-144.7c23.3-29.6,21.9-24.1,55.6-23.6c15.5,0.2,31-1,46.3-3.6c12.5-2.1,45.2-4.9,57.5-15.4
		c3.4-2.9,6-8.1,5-7.1c3-2.7,12.4-21,25-28.7c47.6-29,104-40.9,151.7-70.8c44.2-27.7,80.6-65.3,103.3-112.4
		c6.5-13.4,11.7-27.1,15.9-41.3c13.2-44.2-1-108.1,16-147.2c8.7-20,37.2-37.6,57-48.4c46-25.2,108.7-23.3,157.6-45
		c26.7-11.8,50.4-36.2,76.3-46.7c28.6-11.6,68.2-5.2,100.7-6.8c44.6-2.3,89.3-7.7,132.6-18.8c95.2-24.2,190-34.5,283.8-68.6
		c68.1-24.8,135.8-59.3,205.8-78.1c29.7-8,46.3-2.2,77.8,2c24.7,3.3,49.5,5.1,74.4,4.4c119.5-3.4,220.4,67.5,343,11.4
		c9.3-4.2,24.3-17.9,34-18.5c22.5-1.3,62.2,24.2,84.3,32c61.3,21.6,124.2,36.3,189.5,35.6c-51.8,20.1-107.5,29.7-162.7,22
		c93.6,46.4,202.3,38.5,299.9,10.3c37.5-10.9,78.3-38.4,116.3-44.3c26.7-4.1,57.1,12.4,86.1,17c39.7,6.2,80.2,5.2,120.3,4
		c101.3-3.1,196.9,19,294.5,46.3c65.4,18.3,130.6,30.2,198.9,25.7c61.1-4,154.2-58.5,193.1,17.3c28,54.6,36,114.3,70.5,168.1
		c29.5,46,66.1,87.5,108,122.5c44,36.8,96.1,61.2,141,96.6c28.5,22.4,45.7,44,55.8,79.3c8.8,31,4.7,65.7,13.9,95.9
		c9.1,29.8,43.6,44.3,48.6,65.4c7.2,30.3-9.5,67.6,0.8,101.8c12.1,40.3,18.9,75.9,24.2,118.1c10.8,85.9,20.6,171.9,28.5,258.1
		c32.7,361.1,51.3,796.1,191.1,1084.9c-38.5-282.7-4.5-633.1,44.4-943.8c23.8-151.7,42.4-304.7,50.8-458c1.3-24.1,3.5-48.8,2.6-73
		c-1-23.2-15.5-54.2-10.2-75.1c2.9-11.5,12.7-20.9,19.9-29.5c45.4-54.7,105.6-93,140.4-157.2
		C7464.9,2914.7,7477.1,2848.1,7474.5,2783.1C7474.3,2772.6,7474.8,2788.2,7474.5,2783.1z"/>
</g>
</svg>
