<?xml version="1.0" encoding="UTF-8" standalone="no"?>
<svg
   xmlns:dc="http://purl.org/dc/elements/1.1/"
   xmlns:cc="http://creativecommons.org/ns#"
   xmlns:rdf="http://www.w3.org/1999/02/22-rdf-syntax-ns#"
   xmlns:svg="http://www.w3.org/2000/svg"
   xmlns="http://www.w3.org/2000/svg"
   viewBox="0 0 1333.3333 1333.3333"
   height="1333.3333"
   width="1333.3333"
   xml:space="preserve"
   id="svg2"
   version="1.1"><metadata
     id="metadata8"><rdf:RDF><cc:Work
         rdf:about=""><dc:format>image/svg+xml</dc:format><dc:type
           rdf:resource="http://purl.org/dc/dcmitype/StillImage" /></cc:Work></rdf:RDF></metadata><defs
     id="defs6"><clipPath
       id="clipPath22"
       clipPathUnits="userSpaceOnUse"><path
         id="path20"
         d="M 0,1000 H 1000 V 0 H 0 Z" /></clipPath></defs><g
     transform="matrix(1.3333333,0,0,-1.3333333,0,1333.3333)"
     id="g10"><g
       transform="translate(0,999.9738)"
       id="g12"><path
         id="path14"
         style="fill:#1d1d1d;fill-opacity:1;fill-rule:nonzero;stroke:none"
         d="m 0,0 v -999.958 h 438.634 l -69.267,56.318 146.146,250.563 -2.587,497.932 L 600.85,0 Z" /></g><g
       id="g16"><g
         clip-path="url(#clipPath22)"
         id="g18"><g
           transform="translate(539.7331,840.9556)"
           id="g24"><path
             id="path26"
             style="fill:#655427;fill-opacity:1;fill-rule:nonzero;stroke:none"
             d="m 0,0 c -0.001,0.001 -0.002,0.003 -0.002,0.004 0,0 0,0 0,0 z" /></g><g
           transform="translate(574.4044,463.3959)"
           id="g28"><path
             id="path30"
             style="fill:#1d1d1d;fill-opacity:1;fill-rule:nonzero;stroke:none"
             d="M 0,0 C 1.335,10.357 3.46,17.683 3.075,24.218 2.691,30.753 1.538,36.135 0,39.979 c -1.538,3.844 -5.057,11.368 -6.373,16.832 -1.315,5.463 -3.622,7.001 -4.775,10.461 -1.153,3.459 2.307,11.916 0,17.683 -2.306,5.766 -5.766,18.836 -6.15,21.911 -0.385,3.075 -2.691,9.995 -4.998,15.761 -2.306,5.766 -11.916,39.978 -13.454,49.204 -1.538,9.226 -9.226,41.516 -10.764,46.129 -1.537,4.613 -8.457,20.301 -9.225,23.028 -0.769,2.728 1.922,24.639 1.537,30.021 -0.384,5.382 -1.537,27.293 -2.691,33.059 -1.153,5.766 -4.997,19.221 -4.997,19.221 -5.766,-0.385 -12.686,0.384 -16.53,-2.691 -3.844,-3.076 -7.688,-7.688 -9.225,-10.379 -1.538,-2.691 -3.46,-5.382 -6.535,-5.766 -3.076,-0.385 -4.613,-1.538 -6.151,-4.613 -1.538,-3.076 -2.306,-7.689 -3.46,-9.995 -1.153,-2.306 -1.029,-2.416 0,-6.535 0.769,-3.075 4.229,-24.987 4.613,-29.6 0.385,-4.612 2.307,-18.067 1.538,-23.448 -0.769,-5.382 0.384,-11.148 1.922,-15.377 1.538,-4.228 3.075,-6.15 4.228,-11.148 1.154,-4.997 9.226,-32.29 12.686,-42.093 3.46,-9.802 11.002,-25.947 14.534,-34.404 3.533,-8.457 9.299,-24.218 11.221,-29.6 1.923,-5.382 7.304,-13.839 6.151,-22.68 -1.153,-8.842 -0.384,-19.221 0,-26.524 0.384,-7.304 1.538,-17.299 1.538,-22.681 0,-5.381 0.384,-11.147 -1.154,-14.992 -1.537,-3.844 -3.075,-7.303 -1.537,-8.841 1.537,-1.538 3.844,-2.306 5.766,-0.769 1.922,1.538 5.382,7.688 5.382,10.379 0,2.691 0.768,9.226 2.306,9.226 1.538,0 0.769,-11.148 0.385,-13.454 -0.385,-2.307 -0.86,-5.71 -2.261,-6.526 -1.4,-0.817 -2.8,0.35 -3.734,-1.401 -0.933,-1.75 -1.75,-5.134 0,-6.418 1.751,-1.283 5.018,-3.5 8.052,-1.633 3.034,1.867 5.834,4.317 7.001,7.468 1.167,3.15 2.801,10.385 2.917,11.785 0.117,1.401 0,5.835 0.584,5.718 0.583,-0.117 0.35,-5.834 0.233,-7.935 -0.117,-2.1 -1.283,-9.451 -1.75,-10.968 -0.467,-1.517 -1.167,-4.785 -2.334,-5.368 -1.167,-0.583 -3.501,-0.7 -3.501,-2.45 0,-1.751 1.867,-3.618 3.034,-4.318 1.167,-0.7 2.334,-1.4 3.968,-0.933 1.633,0.466 5.717,3.383 7.351,5.367 1.634,1.984 3.501,5.835 3.967,8.752 0.467,2.917 0.701,10.035 1.051,11.669 0.35,1.633 1.05,3.5 1.75,4.084 0.7,0.583 0.233,-2.918 0.117,-4.084 -0.117,-1.167 -0.584,-6.185 -0.817,-7.235 -0.234,-1.05 -2.451,-7.001 -4.318,-9.335 -1.867,-2.334 -4.55,-3.617 -4.784,-4.551 -0.233,-0.933 -0.467,-2.684 1.4,-3.034 1.867,-0.35 4.668,-0.583 5.718,0.117 1.05,0.7 6.068,4.434 7.351,6.301 C -1.933,-5.757 -0.521,-4.044 0,0" /></g><g
           transform="translate(565.282,345.3577)"
           id="g32"><path
             id="path34"
             style="fill:#1d1d1d;fill-opacity:1;fill-rule:nonzero;stroke:none"
             d="m 0,0 c -0.484,6.617 -2.26,32.923 -2.582,40.67 -0.323,7.747 -0.969,45.673 -0.646,48.901 0.115,1.146 0.352,6.92 0.609,14.169 -1.314,-0.19 -3.177,0 -4.544,0.256 -0.764,0.144 -1.165,0.525 -1.37,0.985 -1.637,-1.256 -3.402,-2.348 -4.348,-2.618 -1.634,-0.467 -2.801,0.233 -3.967,0.933 -1.167,0.7 -3.034,2.567 -3.034,4.318 0,1.75 2.333,1.867 3.5,2.45 1.167,0.584 1.867,3.851 2.334,5.368 0.467,1.517 1.634,8.868 1.75,10.968 0.117,2.101 0.35,7.819 -0.233,7.935 -0.583,0.117 -0.467,-4.317 -0.583,-5.717 -0.117,-1.401 -1.751,-8.635 -2.918,-11.786 -1.166,-3.151 -3.967,-5.601 -7.001,-7.468 -3.034,-1.867 -6.301,0.35 -8.051,1.634 -1.751,1.283 -0.934,4.667 0,6.418 0.933,1.75 2.333,0.583 3.734,1.4 1.4,0.817 1.875,4.22 2.26,6.526 0.384,2.306 1.153,13.454 -0.385,13.454 -1.537,0 -2.306,-6.535 -2.306,-9.225 0,-2.691 -3.46,-8.842 -5.382,-10.38 -1.922,-1.537 -4.228,-0.768 -5.766,0.769 -1.538,1.538 0,4.998 1.538,8.842 1.537,3.844 1.153,9.61 1.153,14.992 0,5.381 -1.153,15.376 -1.538,22.68 -0.312,5.933 -0.878,13.897 -0.461,21.416 -4.948,2.38 -9.824,4.972 -13.468,7.348 -7.968,5.197 -22.865,14.897 -28.408,19.747 -5.543,4.85 -14.204,13.511 -20.786,16.976 -6.583,3.464 -6.583,4.157 -12.126,5.889 -0.559,0.175 -1.031,0.375 -1.459,0.59 -0.314,-0.838 -0.616,-1.58 -0.909,-2.166 -1.291,-2.582 -4.358,-7.908 -6.295,-13.234 -1.936,-5.326 -5.971,-13.557 -6.132,-18.56 -0.162,-5.003 -0.484,-12.265 -1.291,-16.623 -0.807,-4.358 -1.776,-9.845 -1.13,-17.107 0.645,-7.263 3.228,-27.114 4.035,-33.085 0.807,-5.971 4.034,-23.886 5.648,-27.113 1.614,-3.228 9.522,-7.908 9.361,-11.782 -0.162,-3.873 2.743,-7.908 2.582,-10.329 -0.161,-2.421 -0.161,-12.265 2.905,-17.107 3.066,-4.842 4.519,-8.069 4.519,-11.781 0,-3.712 -0.161,-11.943 0.968,-15.171 1.13,-3.228 2.583,-7.262 2.583,-16.139 0,-8.876 2.098,-20.658 1.452,-24.854 -0.646,-4.196 -4.519,-20.335 -4.196,-23.885 0.323,-3.551 0.645,-15.332 -1.937,-18.399 -2.582,-3.066 -6.939,-6.778 -8.069,-11.458 -1.13,-4.681 -6.294,-8.877 -7.908,-11.782 -1.614,-2.905 -6.294,-10.651 -8.554,-12.588 -2.259,-1.937 -16.946,-25.177 -22.11,-34.376 -5.165,-9.199 -14.041,-20.658 -15.816,-24.531 -1.776,-3.874 -10.813,-29.534 -13.073,-35.667 -2.259,-6.133 -6.455,-19.206 -7.747,-21.304 -1.291,-2.098 -7.101,-8.553 -7.423,-10.006 -0.323,-1.452 0.645,-4.196 0,-4.68 -0.646,-0.484 -5.165,-3.551 -5.81,-5.487 -0.646,-1.937 0.484,-5.972 0,-7.101 -0.485,-1.13 -3.712,-9.2 -5.004,-11.298 -1.291,-2.098 -4.086,-4.873 -4.086,-4.873 l 0.01,0.001 c 0.138,-0.858 -0.135,-2.049 -0.368,-3.038 -0.334,-1.42 -1.086,-2.339 -1.754,-2.59 -0.669,-0.25 -1.003,-0.668 -1.003,-2.422 0,-1.755 0.669,-5.765 1.17,-7.77 0.501,-2.005 4.177,-7.602 5.848,-10.192 1.67,-2.589 5.096,-3.676 8.27,-4.093 3.175,-0.418 5.514,-0.251 7.602,0 2.089,0.25 6.099,1.754 6.6,1.921 0.501,0.167 0.501,0.585 0.585,1.003 0.083,0.417 0.501,1.002 0.919,1.754 0.418,0.752 1.921,2.005 3.425,3.175 1.504,1.169 5.597,2.172 8.438,2.924 2.84,0.751 6.182,1.838 8.772,3.174 2.589,1.337 4.845,3.676 5.346,4.428 1.225,3.203 0.257,2.88 0.418,4.333 0.162,1.452 0.485,5.164 1.776,6.133 1.291,0.968 5.003,5.487 5.648,7.746 0.646,2.26 0,4.196 0.807,4.681 0.807,0.484 2.583,0.968 3.228,4.357 0.646,3.389 2.26,7.424 2.582,8.554 0.323,1.129 0,4.196 3.067,7.262 3.066,3.067 10.49,12.911 12.749,16.623 2.26,3.712 6.617,14.041 8.715,16.946 2.099,2.905 16.139,23.563 20.335,28.727 4.197,5.165 12.589,15.817 15.655,17.915 3.067,2.098 3.551,1.936 3.712,-3.874 0.162,-5.81 -0.323,-27.597 0,-33.246 0.323,-5.648 3.712,-26.952 4.681,-30.987 0.968,-4.034 4.704,-20.173 6.225,-23.401 1.521,-3.228 4.103,-11.943 4.91,-14.686 0.807,-2.744 -1.775,-3.551 -0.484,-7.263 1.291,-3.712 2.421,-1.775 3.067,-7.908 0.335,-3.186 0.409,-7.026 0.652,-10.228 0.63,-1.028 0.363,-5.183 1.171,-6.674 0.807,-1.49 1.801,-3.229 4.285,-5.589 2.484,-2.36 7.328,-4.596 9.688,-5.59 2.36,-0.993 5.59,-1.863 9.565,-1.739 3.974,0.125 8.819,2.36 12.296,3.975 3.478,1.615 6.087,4.223 7.577,5.838 1.491,1.615 3.975,7.701 5.962,9.44 1.988,1.739 1.615,0.497 3.602,2.733 -0.248,0.621 -0.435,1.205 -0.572,1.863 -0.968,4.68 -4.68,12.265 -5.487,15.977 -0.807,3.712 -1.291,4.519 -0.323,5.81 0.969,1.291 0.969,4.68 -0.161,5.971 -1.13,1.292 -3.551,2.583 -2.582,4.358 0.968,1.775 3.066,5.487 1.452,9.361 -1.614,3.873 -5.81,6.617 -5.003,9.36 0.807,2.744 2.421,7.263 1.614,13.557 -0.807,6.294 -2.905,14.202 -3.066,20.496 -0.162,6.294 -0.646,19.851 -0.646,24.531 0,4.681 -1.291,11.943 -0.968,13.073 0.323,1.13 1.614,11.781 2.743,17.269 1.13,5.487 2.26,12.427 2.098,17.752 -0.161,5.326 -0.807,9.361 -0.968,10.491 -0.161,1.129 -1.775,2.098 -0.968,2.905 0.807,0.807 4.035,3.066 6.94,3.712 2.905,0.645 6.455,5.325 8.553,11.297 2.098,5.971 4.358,18.721 3.389,28.082 C 2.905,-26.468 0.484,-6.617 0,0" /></g><g
           transform="translate(646.1569,913.3939)"
           id="g36"><path
             id="path38"
             style="fill:#1d1d1d;fill-opacity:1;fill-rule:nonzero;stroke:none"
             d="m 0,0 c 0,2.323 -4.647,10.456 -7.551,15.102 -2.905,4.647 -0.581,6.39 -5.228,6.39 -4.647,0 -14.522,-5.809 -19.749,-8.132 -5.228,-2.324 -15.103,-8.713 -15.103,-8.713 0,0 -10.455,7.551 -11.552,9.874 -1.097,2.324 -0.646,8.133 -0.065,11.618 0.581,3.485 -2.904,5.808 -3.485,6.97 -0.581,1.162 -3.485,2.324 -7.018,1.743 -3.532,-0.581 -7.504,-3.485 -13.893,-6.971 -6.39,-3.485 -9.294,-15.102 -15.683,-19.168 0,0 -4.647,-3.485 -12.198,-8.132 -7.551,-4.647 -13.347,-5.819 -13.348,-5.82 -5.494,-6.368 -13.013,-14.319 -19.222,-21.714 l -0.213,0.084 c 8.739,-3.149 14.89,-14.861 20.736,-22.007 6.122,-7.482 13.913,-17.302 17.146,-23.558 0.605,1.497 3.142,4.538 4.495,5.683 1.353,1.145 3.642,1.561 6.973,3.434 0,0 0.416,-0.208 1.352,-1.769 0.937,-1.561 3.331,-4.371 4.892,-5.828 1.561,-1.457 3.442,-2.762 4.275,-3.386 0.833,-0.624 3.682,-1.73 5.243,-1.522 1.561,0.208 3.656,0.846 4.905,2.198 1.248,1.353 3.893,3.751 4.934,5.073 1.041,1.321 4.059,1.904 4.995,0.968 0.937,-0.937 3.018,-1.145 4.163,-0.833 1.145,0.312 2.602,1.561 2.914,3.747 0.937,-0.625 1.457,-0.729 3.018,-0.937 1.561,-0.208 3.331,0.728 4.475,1.457 1.145,0.728 1.874,2.602 2.082,3.33 0.208,0.729 1.249,1.873 2.602,2.81 1.352,0.937 3.226,-0.624 4.683,-1.769 1.457,-1.145 6.14,-1.873 7.493,-1.353 1.353,0.52 2.81,3.226 3.85,6.452 1.041,3.227 2.706,11.448 3.227,13.217 0.52,1.77 4.995,4.267 6.244,4.579 1.249,0.313 4.683,2.914 6.244,4.892 1.561,1.977 1.249,4.995 3.228,7.374 0.841,1.011 5.116,5.581 7.907,10.232 1.067,1.779 2.055,4.21 2.897,6.995 C 0.665,-6.317 0,-2.323 0,0" /></g><g
           transform="translate(508.9637,91.2706)"
           id="g40"><path
             id="path42"
             style="fill:#ffffff;fill-opacity:1;fill-rule:nonzero;stroke:none"
             d="m 0,0 c -0.783,1.278 -2.208,0.243 -3.102,-0.651 -0.894,-0.894 -1.787,-1.609 -1.847,-2.86 -0.059,-1.251 0.238,-1.727 0,-1.847 -0.238,-0.119 -0.685,-0.417 -0.625,-1.787 0.059,-1.37 -0.239,-3.753 0.298,-4.527 0.536,-0.775 1.131,-1.549 0.774,-2.205 -0.357,-0.655 -1.311,-3.932 -1.43,-4.766 -0.119,-0.834 0.119,-1.727 0.239,-2.442 0.119,-0.715 -0.12,-2.681 0,-3.515 0.119,-0.834 0.357,-6.077 0.357,-7.506 0,-1.43 0.357,-7.983 0.417,-9.354 0.06,-1.37 0,-2.919 -0.238,-3.812 -0.239,-0.894 -0.721,-5.243 -0.807,-6.018 -0.087,-0.774 -1.04,-2.919 -0.861,-3.574 0.178,-0.655 0.893,-5.362 1.429,-6.374 0.537,-1.013 3.158,-4.052 5.958,-5.6 2.8,-1.549 8.519,-2.681 15.43,-2.741 6.91,-0.059 24.306,1.906 27.225,2.264 2.919,0.357 20.256,1.608 23.234,1.132 2.979,-0.477 14.96,-1.528 24.276,-3.397 9.315,-1.869 20.494,-1 23.599,-1 3.106,0 19.129,0 28.072,4.72 8.943,4.72 8.819,8.695 8.943,10.061 0.124,1.367 -0.497,6.708 -0.994,7.453 -0.496,0.745 -1.614,1.863 -1.739,2.484 -0.124,0.621 -0.621,3.726 -3.602,8.819 -2.981,5.093 -9.688,5.965 -12.296,6.211 -3.292,0.31 -8.757,0.559 -11.987,0.807 -3.229,0.248 -5.092,-0.373 -6.583,1.366 -1.49,1.739 -2.608,2.484 -6.707,2.981 -4.099,0.497 -11.676,4.099 -14.657,5.466 -2.981,1.366 -6.335,3.974 -9.564,5.216 -3.23,1.242 -4.844,0.746 -5.962,1.242 -1.118,0.497 -1.739,2.112 -2.609,2.609 -0.869,0.497 -1.863,-0.124 -2.981,1.366 -1.118,1.491 -5.713,4.969 -8.694,8.571 C 59.985,2.394 59.488,3.884 57.749,4.754 56.01,5.623 56.134,4.63 54.147,2.394 52.159,0.158 52.532,1.4 50.545,-0.339 c -1.988,-1.739 -4.472,-7.825 -5.962,-9.44 -1.491,-1.615 -4.099,-4.223 -7.577,-5.838 -3.478,-1.614 -8.322,-3.85 -12.297,-3.974 -3.975,-0.125 -7.204,0.745 -9.564,1.739 -2.36,0.993 -7.204,3.229 -9.689,5.589 -2.484,2.36 -3.478,4.099 -4.285,5.589 C 0.364,-5.183 0.63,-1.027 0,0" /></g><g
           transform="translate(341.1369,89.0544)"
           id="g44"><path
             id="path46"
             style="fill:#ffffff;fill-opacity:1;fill-rule:nonzero;stroke:none"
             d="m 0,0 c -3.48,-7.38 -4.911,-14.031 -5.963,-16.487 -1.053,-2.455 -4.911,-8.067 -5.613,-9.821 -0.701,-1.754 -1.754,-10.874 1.053,-14.031 2.806,-3.157 5.612,-6.314 10.523,-9.472 4.911,-3.156 11.926,-6.664 17.188,-9.12 5.262,-2.455 9.822,-4.209 16.487,-7.717 6.664,-3.508 15.785,-9.12 19.643,-11.225 3.859,-2.104 16.487,-8.418 27.01,-10.172 10.524,-1.754 28.413,-1.053 38.235,1.052 9.822,2.105 18.591,7.717 20.345,11.926 0,0 2.806,4.561 -1.052,12.628 -3.859,8.068 -3.508,7.718 -5.262,9.822 -1.754,2.105 -3.157,2.456 -4.911,2.456 0,0 -1.763,-0.413 -2.518,-0.255 -0.755,0.157 -5.944,2.987 -7.863,4.151 -1.918,1.164 -5.05,3.247 -6.345,3.373 -1.295,0.125 -3.592,-0.209 -4.052,0.125 -0.459,0.334 -0.23,2.172 -2.068,3.509 -1.837,1.336 -3.174,2.506 -4.594,2.589 -1.421,0.084 -2.423,-0.334 -2.924,0.335 -0.502,0.668 -1.922,1.921 -1.922,3.007 0,1.086 -2.422,2.089 -2.757,2.84 -0.334,0.752 -0.668,1.838 -1.42,2.507 -0.752,0.668 -2.255,0.919 -2.422,1.921 -0.168,1.003 -0.585,2.256 -0.084,3.091 0.501,0.836 0.752,1.337 0.752,3.425 0,2.089 -0.418,3.843 -1.253,5.013 -0.836,1.169 -2.172,2.172 -2.256,2.673 -0.083,0.501 -0.083,4.261 -0.585,5.43 -0.501,1.17 -3.174,4.01 -4.929,5.096 -1.754,1.086 -4.929,1.671 -5.346,1.588 -0.418,-0.084 -1.42,-0.167 -1.17,0.417 0.251,0.585 0.084,1.337 -0.501,1.755 -0.585,0.417 -0.668,0.417 -0.752,1.503 -0.083,1.086 -0.835,3.091 -1.253,4.261 -0.418,1.17 -0.835,3.091 -1.337,2.339 C 69.583,9.78 67.327,7.441 64.738,6.104 62.148,4.768 58.806,3.682 55.966,2.93 53.125,2.178 49.032,1.176 47.528,0.006 46.024,-1.164 44.521,-2.417 44.103,-3.169 43.685,-3.92 43.268,-4.505 43.184,-4.923 43.101,-5.341 43.101,-5.758 42.599,-5.925 42.098,-6.093 38.088,-7.596 36,-7.847 c -2.089,-0.25 -4.428,-0.418 -7.603,0 -3.174,0.418 -6.599,1.504 -8.27,4.094 -1.671,2.589 -5.347,8.187 -5.848,10.192 -0.501,2.005 -1.17,6.015 -1.17,7.769 0,1.754 0.334,2.172 1.003,2.423 0.668,0.25 1.42,1.169 1.754,2.589 0.334,1.421 0.752,3.259 -0.083,3.927 -0.836,0.668 -4.094,0.752 -5.347,-0.334 C 9.183,21.727 7.512,19.555 7.011,18.636 6.51,17.717 5.674,16.464 5.34,15.378 5.006,14.292 4.839,10.114 4.17,9.697 3.502,9.279 1.414,8.026 1.497,6.104 1.581,4.183 1.33,3.431 0.578,2.429 -0.174,1.426 0.175,0.372 0,0" /></g><g
           transform="translate(546.8295,922.1385)"
           id="g48"><path
             id="path50"
             style="fill:#ffffff;fill-opacity:1;fill-rule:nonzero;stroke:none"
             d="m 0,0 c 6.389,4.066 9.294,15.683 15.683,19.168 6.39,3.486 10.361,6.39 13.894,6.971 3.532,0.581 6.436,-0.581 7.017,-1.743 0.581,-1.162 4.066,-3.485 3.485,-6.97 -0.58,-3.485 -1.031,-9.294 0.066,-11.617 1.096,-2.324 11.552,-9.875 11.552,-9.875 0,0 9.874,6.389 15.102,8.713 5.228,2.323 15.102,8.132 19.749,8.132 4.647,0 2.324,-1.743 5.228,-6.39 2.904,-4.646 7.551,-12.779 7.551,-15.102 0,-2.323 0.416,-6.505 0.666,-7.422 0.707,0.302 7.193,4.747 10.678,8.813 3.485,4.066 6.567,9.315 8.789,14.324 2.384,5.373 3.889,15.36 2.95,19.291 C 118.668,41.951 107.814,57.62 95.205,65.414 84.963,71.745 70.252,77.893 54.02,77.835 26.12,77.736 12.584,60.52 1.743,45.888 -0.274,43.167 -5.228,35.485 -6.97,30.812 -8.713,26.139 -11.245,15.264 -13.36,8.713 c -1.852,-5.739 -12.185,-22.664 -12.185,-22.664 0,0 5.796,1.172 13.347,5.819 C -4.647,-3.485 0,0 0,0" /></g><g
           transform="translate(527.5063,538.3558)"
           id="g52"><path
             id="path54"
             style="fill:#ffffff;fill-opacity:1;fill-rule:nonzero;stroke:none"
             d="m 0,0 c 1.153,8.841 -4.228,17.298 -6.151,22.68 -1.922,5.382 -7.688,21.143 -11.22,29.6 -3.533,8.457 -11.075,24.602 -14.535,34.404 -3.46,9.803 -11.532,37.096 -12.685,42.093 -1.154,4.998 -2.691,6.92 -4.229,11.148 -1.538,4.229 -2.691,9.995 -1.922,15.377 0.769,5.381 -1.153,18.836 -1.538,23.449 -0.384,4.613 -3.844,26.524 -4.613,29.599 -1.029,4.119 -1.153,4.229 0,6.535 1.154,2.307 1.922,6.92 3.46,9.995 1.538,3.075 3.075,4.228 6.151,4.613 3.075,0.384 4.997,3.075 6.535,5.766 1.537,2.691 5.381,7.304 9.225,10.379 3.845,3.075 10.764,2.306 16.53,2.691 0,0 3.844,-13.455 4.997,-19.221 1.154,-5.766 2.307,-27.677 2.691,-33.059 0.385,-5.382 -2.306,-27.293 -1.537,-30.02 0.768,-2.728 7.688,-18.416 9.225,-23.029 1.538,-4.612 9.226,-36.903 10.764,-46.129 1.538,-9.225 11.148,-43.438 13.454,-49.204 2.307,-5.766 4.613,-12.686 4.998,-15.761 0.384,-3.075 3.844,-16.145 6.15,-21.911 2.307,-5.766 -1.153,-14.223 0,-17.683 1.153,-3.46 3.46,-4.997 4.775,-10.461 0,-10e-4 0,-10e-4 0.001,-10e-4 2.882,-0.68 5.686,-1.384 8.251,-2.129 -0.347,3.811 -0.693,4.158 -2.079,5.89 -1.386,1.732 -0.693,3.118 0.347,7.275 1.039,4.157 -0.347,6.582 -1.386,10.74 -1.039,4.157 0.693,10.393 1.386,16.283 0.692,5.889 -1.04,21.825 -1.04,28.408 0,6.582 2.079,33.605 2.772,42.612 0.693,9.007 -1.732,37.069 -2.425,48.848 -0.693,11.779 -4.85,34.298 -5.543,43.652 -0.693,9.354 -3.118,33.951 -4.504,43.305 -1.386,9.354 -8.315,32.219 -10.74,39.148 -2.425,6.929 -6.929,13.857 -8.661,16.629 -1.732,2.771 -1.732,3.811 -1.386,9.7 0.163,2.767 0,3.811 -3.118,10.047 -3.118,6.236 -11.086,16.283 -17.322,23.905 -6.236,7.621 -12.818,20.44 -22.518,22.518 -9.701,2.079 -6.236,5.197 -16.283,2.772 -10.047,-2.425 -21.133,-15.937 -25.29,-21.826 -4.158,-5.89 -12.819,-26.676 -16.629,-40.534 -3.811,-13.857 -2.772,-46.769 -3.465,-55.084 -0.693,-8.314 -0.346,-24.944 1.039,-31.18 1.386,-6.235 0,-63.398 0,-72.059 0,-8.661 2.079,-48.156 2.079,-57.856 0,-9.7 3.811,-11.779 5.197,-17.204 1.386,-5.426 0,-9.126 5.543,-10.858 5.543,-1.732 5.543,-2.425 12.125,-5.889 6.583,-3.465 15.244,-12.126 20.787,-16.976 5.543,-4.85 20.44,-14.55 28.408,-19.747 3.644,-2.376 8.52,-4.968 13.468,-7.348 C -0.365,-3.372 -0.216,-1.659 0,0" /></g></g></g></g></svg>