<svg id="Layer_1" data-name="Layer 1" xmlns="http://www.w3.org/2000/svg" viewBox="0 0 1894 243.18"><defs><style>.cls-1{fill:#203647;}.cls-2{fill:#e84236;}.cls-3{fill:#517cbd;}.cls-4{fill:#fabb11;}</style></defs><title>yusuf</title><path class="cls-1" d="M354.25,145.9l-72-110.52V35.12h16.62l62.51,97.07,62.78-97.07h16.62v0.26L368.49,145.9v73.86H354.25V145.9Z" transform="translate(-26 -6.88)"/><path class="cls-1" d="M544.7,219.76V196.28c-10,17.94-28.22,25.32-46.42,25.59-34.82,0-58.82-21.37-58.82-57.5V89.19h12.92V164.1c0,29.54,18.2,45.37,46.42,45.1,26.9-.26,45.63-20.57,45.63-47.48V89.19h12.93V219.76H544.7Z" transform="translate(-26 -6.88)"/><path class="cls-1" d="M680.8,113.2c-13.19-11.61-26.11-13.72-40.62-13.72-20.31-.26-39.83,7.39-39.3,24,0.53,17.41,23.21,20.84,39.57,23.74,23.21,4,55.13,7.91,53.81,38.25-0.79,28.75-30.6,36.4-53.55,36.4s-45.63-8.7-57-26.11l9.5-8.44C604,202.88,623.56,209.47,641,209.47c15.83,0,39.83-4.22,40.62-24.79,0.53-18.73-21.1-22.42-42.47-25.85-25.32-4.22-50.38-9-50.64-35.08-0.26-25.59,25.32-36.66,51.7-36.4,19,0,35.61,5.28,48.53,17.41Z" transform="translate(-26 -6.88)"/><path class="cls-1" d="M828,219.76V196.28c-10,17.94-28.22,25.32-46.42,25.59-34.82,0-58.82-21.37-58.82-57.5V89.19h12.92V164.1c0,29.54,18.2,45.37,46.42,45.1,26.9-.26,45.63-20.57,45.63-47.48V89.19h12.93V219.76H828Z" transform="translate(-26 -6.88)"/><path class="cls-1" d="M888.13,219.76V101.85H861.49V90.51h26.64V78.91c0-25.85,10.29-44.58,39-44.58a42.63,42.63,0,0,1,25.85,9l-6.33,9.5c-7.12-4.22-12.13-6.59-20-6.59-16.35,0-25.85,10-25.85,32.71V90.51h43v11.34h-43V219.76H888.13Z" transform="translate(-26 -6.88)"/><path class="cls-1" d="M1041.91,35.12h133.73v5l-119,165.65h119v14H1035.57v-6.07L1153,48.31h-111V35.12Z" transform="translate(-26 -6.88)"/><path class="cls-1" d="M1194.36,154.61c0-39,29.54-67.26,66.21-67.26s69.37,22.42,64.36,73.33H1207.55c2.64,30.6,26.11,48.27,53,48.27,17.15,0,37.19-6.86,47-19.78l9.23,7.39c-12.66,16.62-35.34,25.06-56.18,25.06C1223.91,221.61,1194.36,196,1194.36,154.61Zm119-5.28c-0.26-32.18-21.37-50.12-52.75-50.12-26.9,0-50.12,18.2-53,50.12h105.77Z" transform="translate(-26 -6.88)"/><path class="cls-1" d="M1370.56,89.46l0.53,23.21c8.18-17.67,26.64-24.53,43.26-24.53a50.88,50.88,0,0,1,28,7.65l-5.8,10.55a41.9,41.9,0,0,0-22.16-6.07,43.28,43.28,0,0,0-43,43.52v76h-12.93V89.46h12.13Z" transform="translate(-26 -6.88)"/><path class="cls-1" d="M1586.86,35.12V219.76h-12.66V191c-10.81,19.78-32.18,30.86-54.34,30.86-36.4,0-65.15-24-65.15-67.26,0-43,29-67.26,65.41-67.26,22.42,0,43.52,9.5,54.07,30.6V35.12h12.66ZM1467.37,154.61c0,36.14,24,54.6,53.28,54.6,30.6,0,53.28-22.42,53.28-54.86s-23.21-54.6-53.28-54.6C1491.37,99.74,1467.37,117.94,1467.37,154.61Z" transform="translate(-26 -6.88)"/><path class="cls-1" d="M1749.34,89.46v130.3h-12.93v-27.7c-12.66,20.31-32.18,29.81-53.28,29.81-36.4,0-66.21-27.43-66.21-67.26s29.81-66.73,66.21-66.73c21.1,0,42.47,9.76,53.28,30.07V89.46h12.93Zm-119.49,65.15c0,32.71,23.74,54.6,53.28,54.6,72.54,0,72.54-108.94,0-108.94C1653.59,100.27,1629.85,121.9,1629.85,154.61Z" transform="translate(-26 -6.88)"/><path class="cls-1" d="M1777.83,89.46h98.12v5l-82.3,113.16h82.3v12.13H1773.6v-4.48l83.09-114.21h-78.87V89.46Z" transform="translate(-26 -6.88)"/><path class="cls-1" d="M1920,47c0,13.72-20.84,13.72-20.84,0S1920,33.27,1920,47Zm-17.15,41.94V219.76h12.93V88.93h-12.93Z" transform="translate(-26 -6.88)"/><path class="cls-2" d="M26,7V128.47C68,128.47,108.43,87,147.68,7H26Z" transform="translate(-26 -6.88)"/><path class="cls-3" d="M269.26,7H147.68c-11.44,65-41.19,135.66-85.8,207.51L234,42.44V42.38l-0.17.06Z" transform="translate(-26 -6.88)"/><path class="cls-4" d="M269,128.43V6.88L233.52,42.49c-44.61,71.85-74.61,141-86,207.57C186.72,170,227,128.47,269,128.47v0Z" transform="translate(-26 -6.88)"/></svg>